<svg width="114" height="387" viewBox="0 0 114 387" fill="none" xmlns="http://www.w3.org/2000/svg">
<path d="M79.28 147.4C79.36 147.267 79.4933 147.053 79.68 146.76C79.8667 146.467 80.0133 146.253 80.12 146.12C80.2533 145.96 80.3733 145.88 80.48 145.88C80.64 145.88 80.9867 146.133 81.52 146.64C82.0533 147.147 82.56 147.693 83.04 148.28C83.52 148.84 83.76 149.213 83.76 149.4C83.6533 149.827 83.32 150.04 82.76 150.04H78.4V153.4C79.8933 154.013 81.0533 154.72 81.88 155.52C82.7067 156.32 83.24 157.133 83.48 157.96H86.6C87.64 155.027 88.2133 152.773 88.32 151.2C90.48 151.627 91.9733 151.973 92.8 152.24C93.6267 152.507 94.04 152.733 94.04 152.92C94.04 153 93.92 153.107 93.68 153.24L92.88 153.6C92.2933 155.36 91.7733 156.813 91.32 157.96H98.56L99.68 156.28C99.7867 156.147 99.9467 155.92 100.16 155.6C100.4 155.253 100.587 155 100.72 154.84C100.88 154.68 101.013 154.6 101.12 154.6C101.28 154.6 101.72 154.893 102.44 155.48C103.16 156.04 103.827 156.627 104.44 157.24C105.08 157.853 105.4 158.253 105.4 158.44C105.293 158.867 104.933 159.08 104.32 159.08H100.8C100.347 160.893 99.8533 162.493 99.32 163.88C98.7867 165.267 98.1333 166.52 97.36 167.64C99.68 168.52 101.387 169.547 102.48 170.72C103.573 171.893 104.12 173.013 104.12 174.08C104.12 174.8 103.907 175.387 103.48 175.84C103.053 176.293 102.507 176.52 101.84 176.52C101.413 176.52 100.933 176.4 100.4 176.16C99.28 174.507 97.3867 172.653 94.72 170.6C93.0667 172.04 91 173.227 88.52 174.16C86.0667 175.12 83.0133 175.893 79.36 176.48L79.16 175.92C82.1467 174.987 84.6533 173.933 86.68 172.76C88.7333 171.56 90.4267 170.16 91.76 168.56C90.56 167.787 89.28 167.067 87.92 166.4L87.56 167.24L86.88 168.68C86.4 168.893 85.8133 169 85.12 169C84.1333 169 83.16 168.787 82.2 168.36C83.2667 166.253 84.6 163.16 86.2 159.08H83.6C83.5467 159.693 83.3333 160.2 82.96 160.6C82.5867 160.973 82.1467 161.16 81.64 161.16C81.0267 161.16 80.4533 160.893 79.92 160.36C79.9467 159.427 79.8133 158.44 79.52 157.4C79.2267 156.36 78.8533 155.373 78.4 154.44V165.6C78.4533 168.907 78.56 172.04 78.72 175C78.56 175.347 78.0667 175.693 77.24 176.04C76.44 176.387 75.6533 176.56 74.88 176.56C74.48 176.56 74.16 176.48 73.92 176.32C73.7067 176.16 73.6 175.973 73.6 175.76C73.7067 174.293 73.7867 172.853 73.84 171.44C73.92 170 73.9733 168.173 74 165.96V160.64C72.5067 163.173 70.7867 165.373 68.84 167.24L68.32 166.76C70.8 162.733 72.56 157.16 73.6 150.04H72.2C71.4533 150.067 70.68 150.253 69.88 150.6L68.88 148.6C69.84 148.76 71.0133 148.867 72.4 148.92H74V146.96C74 143.6 73.8267 140.867 73.48 138.76C75.72 139.267 77.2667 139.667 78.12 139.96C78.9733 140.227 79.4 140.467 79.4 140.68C79.4 140.787 79.2933 140.907 79.08 141.04L78.4 141.52V148.92L79.28 147.4ZM102.6 141.12C104.36 141.76 105.24 142.213 105.24 142.48C105.24 142.56 105.12 142.627 104.88 142.68L104.24 142.8C103.44 144.64 102.253 146.68 100.68 148.92C99.1067 151.16 97.48 153.08 95.8 154.68L95.4 154.24C96.3067 152.347 97.1467 150.093 97.92 147.48C98.32 146.2 98.64 144.84 98.88 143.4C99.12 141.933 99.24 140.653 99.24 139.56L102.6 141.12ZM90.08 139.64C91.8933 140.76 93.2133 141.987 94.04 143.32C94.8933 144.627 95.32 145.88 95.32 147.08C95.32 148.013 95.0933 148.787 94.64 149.4C94.1867 149.987 93.64 150.28 93 150.28C92.28 150.28 91.6 149.92 90.96 149.2C90.9867 148.933 91 148.533 91 148C91 145.6 90.5333 142.867 89.6 139.8L90.08 139.64ZM82.28 140.88C84.3867 141.893 85.9333 143.053 86.92 144.36C87.9067 145.667 88.4 146.947 88.4 148.2C88.4 149.08 88.1867 149.8 87.76 150.36C87.3333 150.92 86.8 151.2 86.16 151.2C85.4933 151.2 84.8267 150.867 84.16 150.2C84.2133 148.76 84.0267 147.227 83.6 145.6C83.1733 143.947 82.6133 142.44 81.92 141.08L82.28 140.88ZM90.88 159.08C90.1067 161.24 89.2267 163.427 88.24 165.64C89.9467 165.827 91.6133 166.093 93.24 166.44C94.4133 164.467 95.2933 162.013 95.88 159.08H90.88ZM96.96 188.48C97.0933 188.32 97.2533 188.12 97.44 187.88C97.6533 187.613 97.8133 187.427 97.92 187.32C98.0533 187.187 98.1733 187.12 98.28 187.12C98.44 187.12 98.88 187.413 99.6 188C100.32 188.56 100.987 189.16 101.6 189.8C102.24 190.413 102.56 190.813 102.56 191C102.293 191.347 101.733 191.6 100.88 191.76C100.693 193.973 100.6 196.733 100.6 200.04C100.6 203.96 100.773 207.453 101.12 210.52C101.467 213.56 102.027 215.573 102.8 216.56C102.933 216.72 103.04 216.8 103.12 216.8C103.28 216.8 103.413 216.64 103.52 216.32C103.973 214.987 104.387 213.493 104.76 211.84L105.12 211.88L104.68 219.2C105.107 220.453 105.32 221.507 105.32 222.36C105.32 223.187 105.133 223.72 104.76 223.96C104.253 224.253 103.8 224.4 103.4 224.4C102.2 224.4 101.053 223.56 99.96 221.88C98.52 219.933 97.5333 216.853 97 212.64C96.4933 208.4 96.24 203.293 96.24 197.32C96.24 195.853 96.2667 193.733 96.32 190.96H77.4V196.64C79.88 196.16 82.52 195.467 85.32 194.56C88.1467 193.627 90.3867 192.72 92.04 191.84L96.12 196.04C95.88 196.227 95.5733 196.32 95.2 196.32C94.8533 196.32 94.36 196.213 93.72 196C92.2 196.293 90.52 196.52 88.68 196.68V201.2H90.92L91.6 200.32C91.68 200.213 91.8267 200.04 92.04 199.8C92.2533 199.56 92.44 199.44 92.6 199.44C92.76 199.44 93.12 199.627 93.68 200C94.24 200.347 94.7467 200.733 95.2 201.16C95.68 201.587 95.92 201.893 95.92 202.08C95.76 202.373 95.36 202.587 94.72 202.72V205.6C94.7733 207.947 94.8533 209.8 94.96 211.16C94.8267 211.4 94.4 211.667 93.68 211.96C92.9867 212.227 92.36 212.36 91.8 212.36H91.24V210.6H88.68V217.2L92.16 217C91.7333 216.013 91.1333 214.853 90.36 213.52L90.72 213.28C92.9867 214.187 94.64 215.267 95.68 216.52C96.7467 217.773 97.28 219 97.28 220.2C97.28 220.947 97.08 221.56 96.68 222.04C96.3067 222.547 95.8267 222.8 95.24 222.8C94.6 222.8 93.9867 222.52 93.4 221.96C93.32 220.68 93.04 219.427 92.56 218.2C89.8667 219.08 85.3333 220.347 78.96 222C78.8533 222.24 78.7067 222.427 78.52 222.56C78.3333 222.72 78.12 222.827 77.88 222.88L75.64 217.72C77.5067 217.72 80.5467 217.613 84.76 217.4V210.6H82.36V212.2C82.36 212.387 82.0267 212.627 81.36 212.92C80.72 213.187 80.08 213.32 79.44 213.32C79.2 213.32 79.0133 213.24 78.88 213.08C78.7467 212.92 78.68 212.733 78.68 212.52C78.7867 211.533 78.8667 210.28 78.92 208.76V206.48C78.92 203.52 78.7733 201.173 78.48 199.44L82.56 201.2H84.76V197.04C82.4933 197.173 80.4667 197.24 78.68 197.24H77.44L77.4 196.92V200.48C77.4 203.733 77.2267 206.693 76.88 209.36C76.56 212.027 75.8 214.72 74.6 217.44C73.4267 220.16 71.6533 222.547 69.28 224.6L68.88 224.28C70.5867 221.107 71.6933 217.613 72.2 213.8C72.7333 209.96 73 205.52 73 200.48V194.04C73 191.32 72.8667 189.107 72.6 187.4L78.08 189.84H95.92L96.96 188.48ZM82.36 202.32V209.44H84.76V202.32H82.36ZM91.24 209.44V202.32H88.68V209.44H91.24ZM102.24 256.92C101.387 256.467 100.507 255.92 99.6 255.28V258.56C99.6533 261.2 99.7333 263.293 99.84 264.84C99.68 265.107 99.1733 265.4 98.32 265.72C97.4933 266.013 96.76 266.16 96.12 266.16C95.5867 266.16 95.32 265.893 95.32 265.36C95.3467 265.28 95.36 265.2 95.36 265.12C95.3867 265.013 95.4133 264.907 95.44 264.8V264.12H91.68V266.84C91.68 267.24 91.7867 267.52 92 267.68C92.2133 267.813 92.6533 267.88 93.32 267.88H97.08C98.4933 267.88 99.5467 267.853 100.24 267.8C100.72 267.8 101.093 267.667 101.36 267.4C101.547 267.16 101.787 266.707 102.08 266.04C102.373 265.373 102.64 264.64 102.88 263.84H103.32L103.48 267.44C104.093 267.68 104.507 267.947 104.72 268.24C104.96 268.507 105.08 268.853 105.08 269.28C105.08 269.947 104.84 270.467 104.36 270.84C103.88 271.24 103.027 271.533 101.8 271.72C100.6 271.907 98.8933 272 96.68 272H92.48C91.1467 272 90.12 271.88 89.4 271.64C88.7067 271.427 88.2133 271.04 87.92 270.48C87.6533 269.92 87.52 269.093 87.52 268V264.12H83.84V264.88C83.8667 265.173 83.88 265.44 83.88 265.68C83.9067 265.893 83.9333 266.053 83.96 266.16C83.88 266.48 83.52 266.813 82.88 267.16C82.2667 267.48 81.5067 267.64 80.6 267.64C80.2533 267.64 79.9867 267.56 79.8 267.4C79.6133 267.24 79.52 267.053 79.52 266.84C79.7067 264.52 79.8267 261.933 79.88 259.08V254.8C78.7867 255.413 77.6 255.973 76.32 256.48C76.08 259.627 75.44 262.547 74.4 265.24C73.36 267.907 71.72 270.24 69.48 272.24L69.08 271.96C70.0133 269.96 70.7067 267.773 71.16 265.4C71.6133 263.027 71.8933 260.707 72 258.44C72.1067 256.173 72.16 253.48 72.16 250.36V244.12C72.16 241.48 72.0267 239.347 71.76 237.72L77.24 240H85.64C85.64 237.813 85.5333 236.08 85.32 234.8C87.4533 235.253 88.9333 235.627 89.76 235.92C90.5867 236.187 91 236.413 91 236.6C91 236.707 90.9067 236.827 90.72 236.96L90.04 237.4V240H98.36L99.48 238.32C99.5867 238.187 99.7467 237.96 99.96 237.64C100.2 237.293 100.387 237.04 100.52 236.88C100.68 236.72 100.813 236.64 100.92 236.64C101.08 236.64 101.493 236.92 102.16 237.48C102.853 238.04 103.493 238.64 104.08 239.28C104.693 239.893 105 240.293 105 240.48C104.893 240.907 104.547 241.12 103.96 241.12H87.04C89.92 242.16 91.36 242.853 91.36 243.2C91.36 243.333 91.2267 243.44 90.96 243.52L90.2 243.76C90.0667 244.053 89.6933 244.733 89.08 245.8H98.24L99.28 244.24C99.4133 244.053 99.5733 243.813 99.76 243.52C99.9733 243.227 100.133 243.013 100.24 242.88C100.373 242.72 100.493 242.64 100.6 242.64C100.76 242.64 101.16 242.907 101.8 243.44C102.467 243.973 103.093 244.533 103.68 245.12C104.267 245.707 104.56 246.093 104.56 246.28C104.48 246.707 104.133 246.92 103.52 246.92H94.28C95.4 248.36 96.92 249.573 98.84 250.56C100.787 251.547 102.893 252.28 105.16 252.76L105.12 253.2C103.653 253.653 102.693 254.893 102.24 256.92ZM76.56 241.12V245.8H83.92C84.7733 244.04 85.4 242.48 85.8 241.12H76.56ZM76.44 255.4C79.16 253.187 81.4667 250.36 83.36 246.92H76.64L76.56 246.64V250.36C76.56 252.547 76.52 254.227 76.44 255.4ZM95.16 253L96.12 252C94.9733 250.587 94.04 248.893 93.32 246.92H88.36L87.28 248.4C89.28 248.88 90.6667 249.267 91.44 249.56C92.2133 249.827 92.6 250.053 92.6 250.24C92.6 250.32 92.5067 250.427 92.32 250.56L91.68 251V253H95.16ZM84.32 253H87.52C87.52 251.16 87.4267 249.64 87.24 248.44C86.0133 250.013 84.6667 251.373 83.2 252.52L84.32 253ZM83.84 257.88H87.52V254.12H83.84V257.88ZM91.68 257.88H95.44V254.12H91.68V257.88ZM83.84 263H87.52V259.04H83.84V263ZM91.68 263H95.44V259.04H91.68V263ZM94.6473 283.096C95.1806 283.096 95.7139 283.224 96.2473 283.48C96.8019 283.715 97.2606 284.024 97.6233 284.408C97.9859 284.792 98.1673 285.197 98.1673 285.624C98.1673 286.008 98.0393 286.328 97.7833 286.584C97.5273 286.84 97.2073 286.968 96.8233 286.968C96.5886 286.968 96.1513 286.904 95.5113 286.776C95.1913 286.712 94.8286 286.648 94.4233 286.584C94.0393 286.52 93.6339 286.488 93.2073 286.488C92.5886 286.488 91.8099 286.605 90.8713 286.84C89.9113 287.139 89.0473 287.939 88.2793 289.24C87.5326 290.541 86.9459 292.035 86.5193 293.72C86.0926 295.405 85.8793 296.909 85.8793 298.232C85.8793 299.597 85.9859 300.664 86.1993 301.432C86.4126 302.179 86.7753 302.723 87.2873 303.064C87.7993 303.384 88.5246 303.544 89.4633 303.544L90.2633 303.48C91.2233 303.416 91.7566 303.384 91.8633 303.384C92.7806 303.384 93.4846 303.565 93.9753 303.928C94.4659 304.291 94.7113 304.739 94.7113 305.272C94.7113 306.488 93.3353 307.096 90.5833 307.096C87.8739 307.096 85.9006 306.413 84.6633 305.048C83.4473 303.683 82.8393 301.581 82.8393 298.744C82.8393 295.992 83.4899 293.56 84.7913 291.448C86.1139 289.315 87.7886 287.629 89.8153 286.392H89.3673C88.5779 286.435 87.5006 286.723 86.1353 287.256C84.7699 287.789 83.3619 288.493 81.9113 289.368C81.3779 289.688 80.8873 290.04 80.4392 290.424C79.8419 290.893 79.3299 291.245 78.9033 291.48C78.4979 291.693 78.0073 291.8 77.4313 291.8C76.8766 291.8 76.3326 291.608 75.7993 291.224C75.2659 290.819 74.8073 290.339 74.4233 289.784C74.0393 289.208 73.7939 288.696 73.6873 288.248C73.6446 287.992 73.6233 287.843 73.6233 287.8C73.6233 287.715 73.6446 287.651 73.6873 287.608C73.7299 287.544 73.7833 287.512 73.8473 287.512C73.9539 287.512 74.0926 287.565 74.2633 287.672C74.7113 287.971 75.2233 288.12 75.7993 288.12C75.9913 288.12 76.2153 288.099 76.4713 288.056C76.7913 287.992 77.6873 287.715 79.1593 287.224C81.2499 286.52 83.1806 285.912 84.9513 285.4C86.7219 284.888 88.3539 284.515 89.8472 284.28C90.3593 284.216 90.8606 284.109 91.3513 283.96C91.8633 283.789 92.1833 283.683 92.3113 283.64C92.8446 283.448 93.2819 283.309 93.6233 283.224C93.9646 283.139 94.3059 283.096 94.6473 283.096ZM99.0313 293.656C98.7326 293.656 98.4339 293.549 98.1353 293.336C97.8366 293.123 97.6126 292.845 97.4633 292.504C97.0579 291.672 96.7166 291.064 96.4393 290.68C96.1619 290.275 95.6819 289.827 94.9993 289.336C94.8926 289.272 94.7433 289.176 94.5513 289.048C94.3806 288.92 94.2953 288.824 94.2953 288.76C94.2953 288.632 94.4553 288.568 94.7753 288.568C95.2233 288.568 95.8953 288.675 96.7913 288.888C97.7086 289.101 98.5406 289.485 99.2873 290.04C100.055 290.573 100.439 291.288 100.439 292.184C100.439 292.653 100.29 293.016 99.9913 293.272C99.6926 293.528 99.3726 293.656 99.0313 293.656ZM95.3193 295.832C94.9779 295.832 94.6579 295.725 94.3593 295.512C94.0606 295.299 93.8473 294.989 93.7193 294.584C93.4206 293.731 93.1433 293.059 92.8873 292.568C92.6526 292.056 92.2686 291.555 91.7353 291.064C91.6499 291 91.5219 290.904 91.3513 290.776C91.1806 290.648 91.0953 290.541 91.0953 290.456C91.0953 290.349 91.1699 290.296 91.3193 290.296C91.6819 290.296 92.3113 290.445 93.2073 290.744C94.1033 291.021 94.9246 291.459 95.6713 292.056C96.4179 292.653 96.7913 293.4 96.7913 294.296C96.7913 294.808 96.6313 295.192 96.3113 295.448C96.0126 295.704 95.6819 295.832 95.3193 295.832Z" fill="#3A3A3A"/>
<path d="M93.696 16.56C93.776 16.48 93.88 16.376 94.008 16.248C94.136 16.104 94.24 16 94.32 15.936C94.4 15.872 94.472 15.84 94.536 15.84C94.632 15.84 94.872 16 95.256 16.32C95.656 16.624 96.024 16.952 96.36 17.304C96.712 17.64 96.888 17.864 96.888 17.976C96.712 18.2 96.392 18.344 95.928 18.408C95.768 21.064 95.512 23.08 95.16 24.456C94.824 25.832 94.336 26.76 93.696 27.24C92.96 27.832 91.976 28.128 90.744 28.128C90.744 27.648 90.72 27.264 90.672 26.976C90.624 26.688 90.52 26.456 90.36 26.28C90.136 25.96 89.68 25.68 88.992 25.44C88.928 25.456 88.832 25.464 88.704 25.464C88.48 25.464 88.232 25.416 87.96 25.32C87.4 24.728 86.712 24.136 85.896 23.544C84.968 24.76 83.76 25.784 82.272 26.616C80.784 27.432 78.976 28.072 76.848 28.536L76.728 28.248C78.52 27.512 79.992 26.648 81.144 25.656C82.312 24.664 83.216 23.512 83.856 22.2C82.48 21.352 81.04 20.632 79.536 20.04L79.608 19.752C81.48 19.816 83.136 20.008 84.576 20.328C84.816 19.576 84.984 18.784 85.08 17.952H81.84C80.704 17.968 79.504 18.08 78.24 18.288L77.592 17.064C78.472 17.16 79.536 17.224 80.784 17.256H93.048L93.696 16.56ZM88.2 17.952C87.976 19.216 87.664 20.304 87.264 21.216C88.192 21.648 88.872 22.128 89.304 22.656C89.752 23.168 89.976 23.672 89.976 24.168C89.976 24.52 89.856 24.832 89.616 25.104C90.176 25.152 90.648 25.176 91.032 25.176C91.224 25.176 91.376 25.16 91.488 25.128C91.6 25.08 91.72 25.016 91.848 24.936C92.168 24.648 92.448 23.912 92.688 22.728C92.944 21.528 93.136 19.936 93.264 17.952H88.2ZM84.6 27.264C85.832 27.376 86.848 27.616 87.648 27.984C88.448 28.352 89.024 28.784 89.376 29.28C89.744 29.76 89.928 30.24 89.928 30.72C89.928 31.152 89.8 31.512 89.544 31.8C89.304 32.072 88.992 32.208 88.608 32.208C88.304 32.208 88 32.12 87.696 31.944C87.424 31.192 86.976 30.408 86.352 29.592C85.728 28.76 85.08 28.04 84.408 27.432L84.6 27.264ZM82.08 32.328C82.08 31.08 82.016 30.08 81.888 29.328C84.144 29.808 85.272 30.16 85.272 30.384C85.272 30.464 85.224 30.528 85.128 30.576L84.768 30.816V34.608C84.768 34.784 84.824 34.904 84.936 34.968C85.048 35.016 85.296 35.04 85.68 35.04H88.248C89.384 35.04 90.064 35.032 90.288 35.016C90.48 35 90.616 34.976 90.696 34.944C90.792 34.896 90.88 34.808 90.96 34.68C91.088 34.504 91.248 34.168 91.44 33.672C91.632 33.16 91.84 32.584 92.064 31.944H92.304L92.376 34.776C92.744 34.92 92.992 35.08 93.12 35.256C93.264 35.416 93.336 35.632 93.336 35.904C93.336 36.32 93.184 36.64 92.88 36.864C92.576 37.104 92.032 37.272 91.248 37.368C90.48 37.48 89.376 37.536 87.936 37.536H85.176C84.312 37.536 83.664 37.472 83.232 37.344C82.8 37.216 82.496 36.984 82.32 36.648C82.16 36.328 82.08 35.848 82.08 35.208V32.328ZM92.352 29.424C93.632 29.776 94.68 30.232 95.496 30.792C96.312 31.336 96.896 31.912 97.248 32.52C97.616 33.128 97.8 33.72 97.8 34.296C97.8 34.824 97.664 35.264 97.392 35.616C97.12 35.968 96.776 36.144 96.36 36.144C95.96 36.144 95.552 35.968 95.136 35.616C95.072 34.576 94.752 33.504 94.176 32.4C93.616 31.296 92.936 30.36 92.136 29.592L92.352 29.424ZM79.752 29.736C80.152 30.76 80.352 31.744 80.352 32.688C80.352 33.472 80.216 34.152 79.944 34.728C79.672 35.288 79.32 35.712 78.888 36C78.584 36.224 78.256 36.336 77.904 36.336C77.52 36.336 77.184 36.208 76.896 35.952C76.624 35.696 76.488 35.36 76.488 34.944C76.488 34.352 76.824 33.864 77.496 33.48C78.024 33.192 78.488 32.704 78.888 32.016C79.288 31.312 79.472 30.552 79.44 29.736H79.752ZM94.178 44.576C95.026 44.576 95.714 44.744 96.242 45.08C96.786 45.416 97.058 45.824 97.058 46.304C97.058 46.56 96.978 46.76 96.818 46.904C96.658 47.048 96.466 47.12 96.242 47.12C95.858 47.12 95.546 46.976 95.306 46.688C94.922 46.272 94.594 45.96 94.322 45.752C94.066 45.528 93.746 45.344 93.362 45.2C93.202 45.136 93.034 45.08 92.858 45.032C92.698 44.984 92.618 44.944 92.618 44.912C92.618 44.816 92.81 44.736 93.194 44.672C93.578 44.608 93.906 44.576 94.178 44.576ZM91.97 46.592C92.338 46.592 92.818 46.672 93.41 46.832C94.018 46.992 94.554 47.248 95.018 47.6C95.498 47.952 95.738 48.4 95.738 48.944C95.738 49.296 95.634 49.552 95.426 49.712C95.234 49.856 95.01 49.928 94.754 49.928C94.274 49.928 93.93 49.696 93.722 49.232C93.498 48.736 93.266 48.328 93.026 48.008C92.786 47.672 92.482 47.36 92.114 47.072C92.002 46.992 91.89 46.92 91.778 46.856C91.682 46.776 91.634 46.72 91.634 46.688C91.634 46.624 91.746 46.592 91.97 46.592ZM94.514 54.824C95.154 55.32 95.474 55.912 95.474 56.6C95.474 56.904 95.386 57.144 95.21 57.32C95.034 57.496 94.802 57.584 94.514 57.584C94.018 57.584 93.538 57.352 93.074 56.888C92.146 55.944 91.45 54.976 90.986 53.984C90.538 52.992 90.17 51.976 89.882 50.936C89.946 51.8 90.058 52.632 90.218 53.432C90.314 54.008 90.386 54.536 90.434 55.016C90.498 55.48 90.53 56.04 90.53 56.696C90.53 59.256 89.994 61.384 88.922 63.08C87.866 64.76 86.186 65.6 83.882 65.6C82.666 65.6 81.586 65.344 80.642 64.832C79.714 64.304 78.994 63.568 78.482 62.624C77.97 61.68 77.714 60.584 77.714 59.336C77.714 57.928 78.058 56.544 78.746 55.184C79.434 53.808 80.386 52.376 81.602 50.888C81.218 51.112 80.826 51.272 80.426 51.368C80.042 51.448 79.722 51.488 79.466 51.488C78.922 51.488 78.402 51.296 77.906 50.912C77.65 50.688 77.426 50.432 77.234 50.144C77.042 49.84 76.946 49.624 76.946 49.496C76.946 49.448 76.962 49.424 76.994 49.424C77.026 49.424 77.066 49.44 77.114 49.472C77.178 49.488 77.258 49.504 77.354 49.52C77.754 49.6 78.138 49.64 78.506 49.64C79.354 49.64 80.018 49.536 80.498 49.328C80.978 49.12 81.418 48.84 81.818 48.488C82.01 48.328 82.162 48.216 82.274 48.152C82.402 48.072 82.538 48.032 82.682 48.032C83.146 48.032 83.602 48.168 84.05 48.44C84.514 48.712 84.746 48.992 84.746 49.28C84.746 49.488 84.658 49.68 84.482 49.856C84.306 50.032 84.05 50.224 83.714 50.432C83.378 50.656 83.194 50.784 83.162 50.816C82.106 51.808 81.29 52.984 80.714 54.344C80.138 55.704 79.85 57.04 79.85 58.352C79.85 59.744 80.178 60.888 80.834 61.784C81.49 62.664 82.498 63.104 83.858 63.104C85.81 63.104 87.242 62.4 88.154 60.992C89.082 59.584 89.546 57.584 89.546 54.992C89.546 53.76 89.434 52.36 89.21 50.792C89.178 50.504 89.098 50.056 88.97 49.448C88.81 48.616 88.73 48.064 88.73 47.792C88.73 47.456 88.81 47.176 88.97 46.952C89.146 46.728 89.394 46.616 89.714 46.616C90.018 46.616 90.258 46.768 90.434 47.072C90.61 47.36 90.746 47.856 90.842 48.56C90.97 49.552 91.146 50.384 91.37 51.056C91.61 51.728 91.97 52.368 92.45 52.976C92.946 53.568 93.634 54.184 94.514 54.824ZM87.4197 77.152C88.8757 77.152 90.2917 77.44 91.6677 78.016C93.0597 78.576 94.2037 79.48 95.0997 80.728C96.0117 81.96 96.4677 83.528 96.4677 85.432C96.4677 87.432 95.9077 89.096 94.7877 90.424C93.6677 91.752 92.2117 92.728 90.4197 93.352C88.6277 93.976 86.7077 94.288 84.6597 94.288C84.1797 94.288 83.9397 94.248 83.9397 94.168C83.9397 94.088 84.0757 94.024 84.3477 93.976C84.6357 93.928 84.7957 93.904 84.8277 93.904C86.5237 93.616 88.0437 93.112 89.3877 92.392C90.7477 91.656 91.8197 90.688 92.6037 89.488C93.4037 88.288 93.8037 86.888 93.8037 85.288C93.8037 83.32 93.4037 81.792 92.6037 80.704C91.8037 79.6 90.8917 78.864 89.8677 78.496C88.8597 78.112 87.9477 77.92 87.1317 77.92C86.9237 77.92 86.7717 77.928 86.6757 77.944C86.8677 78.344 87.0357 78.872 87.1797 79.528C87.3237 80.168 87.3957 80.784 87.3957 81.376C87.3957 83.024 87.1077 84.56 86.5317 85.984C86.0357 87.2 85.4517 88.304 84.7797 89.296C84.1237 90.288 83.4677 91.064 82.8117 91.624C82.1557 92.168 81.6037 92.44 81.1557 92.44C80.5637 92.44 79.9877 92.12 79.4277 91.48C78.8677 90.84 78.4117 90.032 78.0597 89.056C77.7077 88.064 77.5317 87.104 77.5317 86.176C77.5317 84.368 78.0197 82.776 78.9957 81.4C79.9717 80.024 81.2197 78.976 82.7397 78.256C84.2597 77.52 85.8197 77.152 87.4197 77.152ZM86.4837 79.696C86.4837 79.04 86.3957 78.464 86.2197 77.968C84.9557 78.112 83.8037 78.544 82.7637 79.264C81.7397 79.968 80.9317 80.856 80.3397 81.928C79.7637 83 79.4757 84.128 79.4757 85.312C79.4757 86.16 79.5877 86.88 79.8117 87.472C80.0357 88.064 80.2997 88.512 80.6037 88.816C80.9077 89.12 81.1557 89.272 81.3477 89.272C82.0197 89.272 82.9797 88.344 84.2277 86.488C85.0277 85.256 85.6037 84.12 85.9557 83.08C86.3077 82.04 86.4837 80.912 86.4837 79.696ZM92.4 117.336C92.48 117.224 92.592 117.072 92.736 116.88C92.88 116.688 92.992 116.544 93.072 116.448C93.168 116.352 93.248 116.304 93.312 116.304C93.408 116.304 93.688 116.48 94.152 116.832C94.616 117.184 95.048 117.552 95.448 117.936C95.864 118.32 96.072 118.568 96.072 118.68C96.024 118.936 95.816 119.064 95.448 119.064H88.392V123.432H93.216L93.984 122.352C94.08 122.224 94.2 122.056 94.344 121.848C94.488 121.64 94.6 121.488 94.68 121.392C94.776 121.296 94.856 121.248 94.92 121.248C95.016 121.248 95.304 121.44 95.784 121.824C96.28 122.192 96.744 122.576 97.176 122.976C97.608 123.376 97.824 123.632 97.824 123.744C97.76 124 97.536 124.128 97.152 124.128H80.28C79.144 124.144 77.944 124.256 76.68 124.464L76.08 123.24C76.96 123.336 78.024 123.4 79.272 123.432H85.512V119.064H82.272C81.136 119.08 79.936 119.192 78.672 119.4L78.072 118.176C78.952 118.272 80.016 118.336 81.264 118.368H85.512V114.6H81.624V115.56C81.624 115.656 81.504 115.784 81.264 115.944C81.024 116.104 80.72 116.24 80.352 116.352C79.984 116.464 79.616 116.52 79.248 116.52C79.056 116.52 78.904 116.472 78.792 116.376C78.68 116.28 78.624 116.168 78.624 116.04C78.736 114.488 78.808 112.776 78.84 110.904V108.072C78.84 106.056 78.736 104.416 78.528 103.152L81.816 104.52H92.064L92.664 103.776C92.744 103.696 92.84 103.584 92.952 103.44C93.08 103.296 93.176 103.192 93.24 103.128C93.32 103.048 93.392 103.008 93.456 103.008C93.552 103.008 93.808 103.168 94.224 103.488C94.656 103.808 95.056 104.144 95.424 104.496C95.808 104.832 96 105.056 96 105.168C95.84 105.424 95.544 105.592 95.112 105.672V109.344C95.144 111.328 95.208 113.208 95.304 114.984C95.192 115.144 94.848 115.328 94.272 115.536C93.696 115.744 93.192 115.848 92.76 115.848C92.408 115.848 92.232 115.688 92.232 115.368C92.248 115.32 92.256 115.272 92.256 115.224C92.272 115.16 92.288 115.096 92.304 115.032V114.6H88.392V118.368H91.68L92.4 117.336ZM85.512 109.176V105.192H81.624V109.176H85.512ZM92.304 109.176V105.192H88.392V109.176H92.304ZM81.624 109.872V113.952H85.512V109.872H81.624ZM88.392 109.872V113.952H92.304V109.872H88.392Z" fill="#3A3A3A"/>
<path d="M39.584 56.384C39.704 56.216 39.872 55.976 40.088 55.664C40.304 55.328 40.472 55.088 40.592 54.944C40.736 54.776 40.856 54.692 40.952 54.692C41.096 54.692 41.516 54.98 42.212 55.556C42.908 56.132 43.568 56.732 44.192 57.356C44.816 57.956 45.128 58.34 45.128 58.508C45.056 58.892 44.72 59.084 44.12 59.084H31.628C33.068 62.06 35.06 64.712 37.604 67.04C40.148 69.368 42.836 71.12 45.668 72.296L45.524 72.692C44.708 72.86 43.976 73.28 43.328 73.952C42.68 74.6 42.212 75.428 41.924 76.436C36.86 73.052 33.212 67.292 30.98 59.156V74.42H31.988L32.924 72.836C33.02 72.692 33.164 72.476 33.356 72.188C33.548 71.876 33.704 71.648 33.824 71.504C33.944 71.336 34.052 71.252 34.148 71.252C34.292 71.252 34.664 71.528 35.264 72.08C35.888 72.608 36.464 73.172 36.992 73.772C37.544 74.348 37.82 74.72 37.82 74.888C37.724 75.248 37.4 75.428 36.848 75.428H30.98V77.624L31.016 78.956C31.04 79.94 31.088 80.876 31.16 81.764C31.064 82.1 30.644 82.424 29.9 82.736C29.18 83.048 28.412 83.204 27.596 83.204C27.236 83.204 26.972 83.132 26.804 82.988C26.636 82.868 26.552 82.7 26.552 82.484C26.648 81.38 26.732 79.892 26.804 78.02V75.428H24.644C23.42 75.452 22.124 75.62 20.756 75.932L19.82 74.132C21.14 74.276 22.724 74.372 24.572 74.42H26.804V64.592C23.516 69.872 18.884 73.952 12.908 76.832L12.584 76.472C15.248 74.408 17.6 71.828 19.64 68.732C21.704 65.636 23.264 62.42 24.32 59.084H18.884C17.18 59.108 15.38 59.276 13.484 59.588L12.548 57.752C13.868 57.896 15.464 57.992 17.336 58.04H26.804V56.636C26.804 53.612 26.648 51.152 26.336 49.256C28.52 49.712 30.02 50.072 30.836 50.336C31.652 50.6 32.06 50.828 32.06 51.02C32.06 51.092 32 51.176 31.88 51.272C31.784 51.344 31.724 51.392 31.7 51.416L30.98 51.884V58.04H38.468L39.584 56.384ZM24.284 98.196C25.148 99.108 25.916 99.936 26.588 100.68L27.02 99.492C27.404 98.34 27.716 97.08 27.956 95.712C28.196 94.344 28.304 93.156 28.28 92.148C30.272 92.748 31.652 93.204 32.42 93.516C33.188 93.828 33.572 94.068 33.572 94.236C33.572 94.308 33.464 94.392 33.248 94.488L32.6 94.74C32.096 96.252 31.436 97.824 30.62 99.456H39.836L40.844 98.304C40.988 98.16 41.192 97.932 41.456 97.62C41.744 97.284 41.96 97.116 42.104 97.116C42.248 97.116 42.62 97.368 43.22 97.872C43.82 98.352 44.384 98.868 44.912 99.42C45.44 99.972 45.704 100.332 45.704 100.5C45.392 100.812 44.864 101.04 44.12 101.184C43.88 108.12 43.496 113.376 42.968 116.952C42.44 120.528 41.66 122.856 40.628 123.936C39.956 124.608 39.2 125.1 38.36 125.412C37.544 125.724 36.56 125.88 35.408 125.88C35.408 124.44 35.144 123.456 34.616 122.928C33.92 122.232 32.672 121.692 30.872 121.308V120.804C33.8 121.044 35.54 121.164 36.092 121.164C36.428 121.164 36.692 121.128 36.884 121.056C37.1 120.96 37.316 120.816 37.532 120.624C38.876 119.424 39.776 112.716 40.232 100.5H39.908C38.012 111.444 33.044 119.232 25.004 123.864L24.716 123.504C27.932 120.696 30.44 117.3 32.24 113.316C34.064 109.332 35.24 105.06 35.768 100.5H34.868C33.956 103.788 32.564 106.836 30.692 109.644C28.82 112.428 26.552 114.756 23.888 116.628L23.564 116.232C25.46 114.168 27.068 111.744 28.388 108.96C29.708 106.176 30.632 103.356 31.16 100.5H30.044C28.34 103.38 26.228 105.66 23.708 107.34L23.348 107.016C24.332 105.6 25.208 103.968 25.976 102.12H22.376V109.392L26.804 108.132L26.876 108.564C25.844 109.26 24.344 110.232 22.376 111.48V116.376C22.424 119.352 22.52 122.172 22.664 124.836C22.496 125.124 22.064 125.412 21.368 125.7C20.696 126.012 20.012 126.168 19.316 126.168C18.956 126.168 18.68 126.096 18.488 125.952C18.32 125.808 18.236 125.64 18.236 125.448C18.404 123.192 18.512 120.684 18.56 117.924V113.784C17.816 114.24 16.736 114.864 15.32 115.656C15.248 115.872 15.128 116.076 14.96 116.268C14.816 116.436 14.648 116.556 14.456 116.628L12.728 111.876C14.384 111.516 16.328 111.036 18.56 110.436V102.12H16.256C15.392 104.616 14.384 106.584 13.232 108.024L12.728 107.772C13.112 106.284 13.436 104.508 13.7 102.444C13.868 101.268 13.952 99.816 13.952 98.088C13.952 96.6 13.892 95.484 13.772 94.74L18.56 95.748C18.56 94.404 18.488 93.228 18.344 92.22C20.216 92.676 21.5 93.036 22.196 93.3C22.916 93.54 23.276 93.756 23.276 93.948C23.276 94.02 23.18 94.128 22.988 94.272L22.376 94.668V101.076H22.52L24.284 98.196ZM18.56 96.432C18.32 96.6 18.044 96.696 17.732 96.72C17.372 98.4 16.988 99.852 16.58 101.076H18.56V96.432ZM29.5596 138.536C31.501 138.536 33.389 138.92 35.2236 139.688C37.0796 140.435 38.605 141.64 39.7996 143.304C41.0156 144.947 41.6236 147.037 41.6236 149.576C41.6236 152.243 40.877 154.461 39.3836 156.232C37.8903 158.003 35.949 159.304 33.5596 160.136C31.1703 160.968 28.6103 161.384 25.8796 161.384C25.2396 161.384 24.9196 161.331 24.9196 161.224C24.9196 161.117 25.101 161.032 25.4636 160.968C25.8476 160.904 26.061 160.872 26.1036 160.872C28.365 160.488 30.3916 159.816 32.1836 158.856C33.997 157.875 35.4263 156.584 36.4716 154.984C37.5383 153.384 38.0716 151.517 38.0716 149.384C38.0716 146.76 37.5383 144.723 36.4716 143.272C35.405 141.8 34.189 140.819 32.8236 140.328C31.4796 139.816 30.2636 139.56 29.1756 139.56C28.8983 139.56 28.6956 139.571 28.5676 139.592C28.8236 140.125 29.0476 140.829 29.2396 141.704C29.4316 142.557 29.5276 143.379 29.5276 144.168C29.5276 146.365 29.1436 148.413 28.3756 150.312C27.7143 151.933 26.9356 153.405 26.0396 154.728C25.165 156.051 24.2903 157.085 23.4156 157.832C22.541 158.557 21.805 158.92 21.2076 158.92C20.4183 158.92 19.6503 158.493 18.9036 157.64C18.157 156.787 17.549 155.709 17.0796 154.408C16.6103 153.085 16.3756 151.805 16.3756 150.568C16.3756 148.157 17.0263 146.035 18.3276 144.2C19.629 142.365 21.293 140.968 23.3196 140.008C25.3463 139.027 27.4263 138.536 29.5596 138.536ZM28.3116 141.928C28.3116 141.053 28.1943 140.285 27.9596 139.624C26.2743 139.816 24.7383 140.392 23.3516 141.352C21.9863 142.291 20.909 143.475 20.1196 144.904C19.3516 146.333 18.9676 147.837 18.9676 149.416C18.9676 150.547 19.117 151.507 19.4156 152.296C19.7143 153.085 20.0663 153.683 20.4716 154.088C20.877 154.493 21.2076 154.696 21.4636 154.696C22.3596 154.696 23.6396 153.459 25.3036 150.984C26.3703 149.341 27.1383 147.827 27.6076 146.44C28.077 145.053 28.3116 143.549 28.3116 141.928ZM19.244 193.92C17.588 196.728 15.476 199.224 12.908 201.408L12.476 200.976C13.82 199.128 14.972 196.92 15.932 194.352C16.916 191.76 17.672 189.084 18.2 186.324H16.508C15.548 186.348 14.54 186.516 13.484 186.828L12.584 185.028C13.832 185.172 15.344 185.268 17.12 185.316H19.244V179.268C17.3 179.628 15.236 179.88 13.052 180.024L12.944 179.556C15.008 178.836 17.18 177.912 19.46 176.784C21.764 175.632 23.552 174.576 24.824 173.616L29.216 177.54C29 177.756 28.688 177.864 28.28 177.864C27.944 177.864 27.488 177.768 26.912 177.576C26.072 177.84 24.836 178.164 23.204 178.548V185.316H24.248L25.112 183.912C25.208 183.744 25.34 183.528 25.508 183.264C25.676 183 25.808 182.808 25.904 182.688C26.024 182.544 26.132 182.472 26.228 182.472C26.372 182.472 26.72 182.712 27.272 183.192C27.824 183.672 28.34 184.176 28.82 184.704C29.324 185.232 29.576 185.58 29.576 185.748C29.48 186.132 29.168 186.324 28.64 186.324H23.204V189.024C25.148 189.6 26.576 190.356 27.488 191.292C28.4 192.204 28.856 193.116 28.856 194.028C28.856 194.604 28.688 195.084 28.352 195.468C28.016 195.852 27.596 196.044 27.092 196.044C26.564 196.044 26.048 195.828 25.544 195.396C25.424 194.556 25.148 193.644 24.716 192.66C24.284 191.676 23.78 190.752 23.204 189.888V197.376C23.252 200.352 23.348 203.172 23.492 205.836C23.3 206.124 22.88 206.424 22.232 206.736C21.584 207.048 20.828 207.204 19.964 207.204C19.628 207.204 19.364 207.132 19.172 206.988C18.98 206.844 18.884 206.676 18.884 206.484C18.98 205.26 19.052 204.06 19.1 202.884C19.172 201.684 19.22 200.172 19.244 198.348V193.92ZM33.824 203.136C33.848 203.4 33.86 203.64 33.86 203.856C33.884 204.072 33.908 204.228 33.932 204.324C33.884 204.708 33.512 205.08 32.816 205.44C32.144 205.824 31.388 206.016 30.548 206.016C30.212 206.016 29.948 205.944 29.756 205.8C29.564 205.656 29.468 205.488 29.468 205.296C29.564 203.88 29.648 202.512 29.72 201.192C29.792 199.848 29.84 198.096 29.864 195.936V184.524C29.864 181.5 29.708 179.04 29.396 177.144L34.004 179.16H39.44L40.34 178.044C40.46 177.924 40.604 177.756 40.772 177.54C40.964 177.324 41.108 177.168 41.204 177.072C41.324 176.952 41.432 176.892 41.528 176.892C41.672 176.892 42.056 177.132 42.68 177.612C43.304 178.092 43.892 178.596 44.444 179.124C44.996 179.628 45.272 179.964 45.272 180.132C44.96 180.516 44.492 180.78 43.868 180.924V195.648C43.916 198.624 44.012 201.444 44.156 204.108C43.964 204.396 43.46 204.696 42.644 205.008C41.852 205.344 41.12 205.512 40.448 205.512C39.92 205.512 39.656 205.272 39.656 204.792C39.656 204.744 39.704 204.3 39.8 203.46V202.416H33.824V203.136ZM33.824 180.204V201.372H39.8V180.204H33.824ZM34.868 226.948C34.988 226.828 35.168 226.636 35.408 226.372C35.648 226.108 35.84 225.976 35.984 225.976C36.128 225.976 36.5 226.192 37.1 226.624C37.7 227.032 38.264 227.464 38.792 227.92C39.32 228.376 39.584 228.688 39.584 228.856C39.344 229.144 38.984 229.336 38.504 229.432V237.532C38.504 237.58 38.432 237.664 38.288 237.784C40.76 239.512 41.996 240.532 41.996 240.844C41.996 240.916 41.888 240.976 41.672 241.024L41.024 241.06C39.296 241.876 37.148 242.596 34.58 243.22C37.076 244.516 40.532 245.392 44.948 245.848L44.912 246.244C44.096 246.484 43.412 246.952 42.86 247.648C42.332 248.344 41.96 249.208 41.744 250.24C39.392 249.568 37.364 248.74 35.66 247.756C33.98 246.796 32.54 245.56 31.34 244.048V244.084C28.124 245.596 23.684 247.372 18.02 249.412C17.804 249.892 17.492 250.168 17.084 250.24L14.744 245.452C15.488 245.404 17.18 245.248 19.82 244.984V227.416C17.468 228.688 15.248 229.684 13.16 230.404L12.98 229.972C14.732 228.964 16.496 227.728 18.272 226.264C20.048 224.776 21.608 223.252 22.952 221.692C24.632 219.724 25.64 217.828 25.976 216.004L32.456 217.948C32.408 218.188 32.252 218.368 31.988 218.488C31.748 218.608 31.34 218.704 30.764 218.776C33.284 221.272 38.084 223.18 45.164 224.5V225.04C44.348 225.28 43.664 225.796 43.112 226.588C42.584 227.38 42.26 228.22 42.14 229.108C39.5 227.98 37.124 226.576 35.012 224.896C32.9 223.192 31.304 221.284 30.224 219.172C29.264 220.444 27.98 221.74 26.372 223.06C24.764 224.356 22.988 225.568 21.044 226.696L23.996 227.92H27.02C27.02 226.12 26.936 224.644 26.768 223.492C28.736 223.9 30.08 224.224 30.8 224.464C31.52 224.704 31.88 224.908 31.88 225.076C31.88 225.172 31.808 225.256 31.664 225.328L31.124 225.688V227.92H34.04L34.868 226.948ZM34.364 232.276V228.964H23.744V232.276H34.364ZM23.744 236.704H34.364V233.32H23.744V236.704ZM31.052 243.652C29.828 241.924 28.892 239.944 28.244 237.712H23.744V244.552L31.052 243.652ZM37.352 238.36C36.488 238.744 35.732 238.936 35.084 238.936H34.364V237.712H28.892C29.924 239.752 31.46 241.384 33.5 242.608C34.82 241.432 36.104 240.016 37.352 238.36ZM40.412 266.888C40.532 266.72 40.688 266.492 40.88 266.204C41.072 265.916 41.228 265.712 41.348 265.592C41.468 265.448 41.576 265.376 41.672 265.376C41.816 265.376 42.188 265.628 42.788 266.132C43.412 266.636 43.988 267.176 44.516 267.752C45.068 268.304 45.344 268.664 45.344 268.832C45.272 269.216 44.948 269.408 44.372 269.408H35.624C36.56 272.096 37.928 274.436 39.728 276.428C41.552 278.42 43.58 279.956 45.812 281.036L45.74 281.504C44.444 282.584 43.616 284.156 43.256 286.22C41.288 284.516 39.584 282.176 38.144 279.2C36.704 276.224 35.612 272.96 34.868 269.408H34.796V284.6H35.696L36.56 283.16C36.656 283.016 36.788 282.812 36.956 282.548C37.124 282.26 37.268 282.044 37.388 281.9C37.508 281.756 37.616 281.684 37.712 281.684C37.856 281.684 38.192 281.936 38.72 282.44C39.272 282.92 39.788 283.436 40.268 283.988C40.748 284.54 40.988 284.9 40.988 285.068C40.892 285.428 40.568 285.608 40.016 285.608H34.796V287.66L34.832 288.884C34.856 289.844 34.904 290.72 34.976 291.512C34.88 291.848 34.46 292.196 33.716 292.556C32.972 292.94 32.24 293.132 31.52 293.132C30.872 293.132 30.548 292.892 30.548 292.412C30.644 291.284 30.716 289.856 30.764 288.128V285.608H29.108C28.172 285.632 27.212 285.8 26.228 286.112L25.292 284.312C26.324 284.456 27.572 284.552 29.036 284.6H30.764V276.212C28.436 280.004 25.256 283.256 21.224 285.968L21.008 285.716V287.804L21.044 289.1C21.068 290.084 21.116 290.984 21.188 291.8C21.068 292.088 20.636 292.388 19.892 292.7C19.172 293.036 18.44 293.204 17.696 293.204C17.336 293.204 17.048 293.132 16.832 292.988C16.64 292.844 16.544 292.676 16.544 292.484C16.64 291.068 16.724 289.7 16.796 288.38C16.868 287.036 16.916 285.284 16.94 283.124V274.448C15.596 276.176 14.216 277.64 12.8 278.84L12.368 278.552C13.256 277.04 14.132 275.264 14.996 273.224C15.884 271.184 16.7 269.048 17.444 266.816C17.828 265.688 18.176 264.368 18.488 262.856C18.824 261.32 19.016 260.06 19.064 259.076C21.2 259.748 22.676 260.264 23.492 260.624C24.308 260.984 24.716 261.248 24.716 261.416C24.716 261.512 24.62 261.596 24.428 261.668L23.744 261.956C22.568 265.004 21.272 267.752 19.856 270.2C21.176 271.016 21.836 271.58 21.836 271.892C21.836 272.036 21.74 272.144 21.548 272.216L21.008 272.468V285.356C22.832 283.364 24.452 280.952 25.868 278.12C27.308 275.264 28.424 272.36 29.216 269.408H26.768C25.352 269.432 23.888 269.6 22.376 269.912L21.44 268.112C22.76 268.256 24.356 268.352 26.228 268.4H30.764V267.032C30.764 264.008 30.608 261.548 30.296 259.652C32.36 260.108 33.776 260.468 34.544 260.732C35.312 260.972 35.696 261.188 35.696 261.38C35.696 261.476 35.6 261.584 35.408 261.704L34.796 262.136V268.4H39.44L40.412 266.888ZM36.812 304.848C36.188 306.264 35.3 307.644 34.148 308.988C32.996 310.308 31.688 311.496 30.224 312.552C31.496 312.672 32.96 312.756 34.616 312.804H36.992L37.748 311.688C37.82 311.568 37.928 311.412 38.072 311.22C38.24 311.004 38.372 310.848 38.468 310.752C38.564 310.632 38.66 310.572 38.756 310.572C38.9 310.572 39.2 310.764 39.656 311.148C40.136 311.508 40.58 311.904 40.988 312.336C41.396 312.768 41.6 313.068 41.6 313.236C41.528 313.62 41.228 313.812 40.7 313.812H37.496V316.98H40.052L40.772 316.044C40.868 315.924 40.964 315.792 41.06 315.648C41.18 315.504 41.3 315.372 41.42 315.252C41.54 315.132 41.648 315.072 41.744 315.072C41.888 315.072 42.212 315.252 42.716 315.612C43.244 315.948 43.724 316.32 44.156 316.728C44.612 317.136 44.84 317.424 44.84 317.592C44.648 317.904 44.228 318.12 43.58 318.24V320.616L43.616 322.056C43.64 323.16 43.688 324.192 43.76 325.152C43.64 325.344 43.304 325.548 42.752 325.764C42.2 325.98 41.54 326.088 40.772 326.088H40.16V324.576H37.532C38.252 326.376 39.332 327.912 40.772 329.184C42.212 330.456 43.856 331.344 45.704 331.848L45.668 332.244C44.132 332.724 43.172 334.044 42.788 336.204C41.252 335.124 40.04 333.768 39.152 332.136C38.288 330.504 37.628 328.428 37.172 325.908C36.692 328.236 35.564 330.252 33.788 331.956C32.012 333.66 29.216 335.052 25.4 336.132L25.112 335.7C28.064 334.284 30.176 332.676 31.448 330.876C32.744 329.076 33.524 326.976 33.788 324.576H31.736V325.656C31.736 325.824 31.46 326.016 30.908 326.232C30.38 326.424 29.732 326.52 28.964 326.52C28.46 326.52 28.208 326.28 28.208 325.8C28.28 325.2 28.328 324.612 28.352 324.036L28.388 323.208V321.552C28.124 321.72 27.776 321.816 27.344 321.84C27.104 325.704 26.744 328.608 26.264 330.552C25.784 332.496 25.124 333.816 24.284 334.512C23.42 335.28 22.232 335.664 20.72 335.664C20.72 334.584 20.564 333.876 20.252 333.54C19.916 333.108 19.232 332.772 18.2 332.532V331.956C19.208 332.076 20.192 332.136 21.152 332.136C21.632 332.136 22.016 332.028 22.304 331.812C22.904 331.284 23.42 329.664 23.852 326.952C23.708 327.024 23.552 327.06 23.384 327.06C23.168 327.06 22.904 326.964 22.592 326.772C22.496 326.124 22.22 325.44 21.764 324.72C21.308 324 20.804 323.412 20.252 322.956L20.648 322.668C22.304 323.028 23.468 323.676 24.14 324.612C24.188 324.132 24.236 323.376 24.284 322.344L24.356 321.372H17.696V322.452C17.696 322.548 17.576 322.68 17.336 322.848C17.12 323.016 16.808 323.172 16.4 323.316C16.016 323.436 15.572 323.496 15.068 323.496C14.804 323.496 14.588 323.424 14.42 323.28C14.276 323.136 14.204 322.968 14.204 322.776C14.372 320.496 14.48 317.964 14.528 315.18V311.004C14.528 307.98 14.372 305.52 14.06 303.624L18.164 305.28H23.528L24.32 304.092C24.416 303.972 24.536 303.804 24.68 303.588C24.848 303.348 24.98 303.18 25.076 303.084C25.196 302.964 25.304 302.904 25.4 302.904C25.544 302.904 25.88 303.108 26.408 303.516C26.96 303.924 27.464 304.356 27.92 304.812C28.4 305.268 28.64 305.58 28.64 305.748C28.568 306.132 28.256 306.324 27.704 306.324H22.952V310.284H23.744L24.428 309.204C24.5 309.108 24.596 308.964 24.716 308.772C24.86 308.556 24.98 308.4 25.076 308.304C25.172 308.184 25.268 308.124 25.364 308.124C25.508 308.124 25.796 308.304 26.228 308.664C26.684 309.024 27.104 309.42 27.488 309.852C27.872 310.26 28.064 310.548 28.064 310.716C27.992 311.1 27.692 311.292 27.164 311.292H22.952V315.324H23.672L25.184 313.2L26.444 314.28C27.86 312.936 29.216 311.22 30.512 309.132C31.16 308.076 31.7 306.936 32.132 305.712C32.564 304.464 32.792 303.36 32.816 302.4C36.368 303.144 38.144 303.684 38.144 304.02C38.144 304.092 38.048 304.164 37.856 304.236L37.208 304.488C37.952 305.736 39.104 306.792 40.664 307.656C42.224 308.496 43.916 309.18 45.74 309.708V310.14C45.02 310.38 44.432 310.836 43.976 311.508C43.544 312.18 43.28 312.948 43.184 313.812C41.672 312.828 40.352 311.568 39.224 310.032C38.12 308.496 37.316 306.768 36.812 304.848ZM17.696 310.284H19.856V306.324H17.696V310.284ZM17.696 315.324H19.856V311.292H17.696V315.324ZM29.936 312.768C28.976 313.44 27.932 314.064 26.804 314.64C27.308 315.048 27.716 315.432 28.028 315.792C27.956 316.176 27.656 316.368 27.128 316.368H22.952V320.364H24.068L25.688 318.636L28.388 320.94C28.388 318.636 28.268 316.752 28.028 315.288L32.06 316.98H33.932V313.812H32.744C32.072 313.836 31.4 314.004 30.728 314.316L29.936 312.768ZM17.696 320.364H19.856V316.368H17.696V320.364ZM33.932 318.024H31.736V323.568H33.896C33.92 323.16 33.932 322.548 33.932 321.732V318.024ZM37.496 321.696C37.496 322.536 37.472 323.16 37.424 323.568H40.16V318.024H37.496V321.696ZM20.828 329.58C20.516 329.58 20.204 329.424 19.892 329.112C19.868 328.32 19.688 327.42 19.352 326.412C19.04 325.404 18.668 324.492 18.236 323.676L18.704 323.46C19.832 324.204 20.648 324.984 21.152 325.8C21.656 326.592 21.908 327.336 21.908 328.032C21.908 328.488 21.8 328.86 21.584 329.148C21.392 329.436 21.14 329.58 20.828 329.58ZM18.92 328.932C18.92 329.604 18.776 330.156 18.488 330.588C18.224 330.996 17.9 331.2 17.516 331.2C17.18 331.2 16.856 331.008 16.544 330.624C16.64 330.072 16.688 329.412 16.688 328.644C16.688 327.108 16.52 325.644 16.184 324.252L16.688 324.144C17.456 324.96 18.02 325.788 18.38 326.628C18.74 327.444 18.92 328.212 18.92 328.932ZM14.816 324.504C15.368 326.232 15.644 327.78 15.644 329.148C15.644 330.348 15.44 331.248 15.032 331.848C14.624 332.424 14.156 332.712 13.628 332.712C13.292 332.712 13.004 332.592 12.764 332.352C12.548 332.112 12.44 331.8 12.44 331.416C12.44 331.008 12.596 330.54 12.908 330.012C13.34 329.46 13.676 328.704 13.916 327.744C14.156 326.76 14.288 325.68 14.312 324.504H14.816ZM34.0933 360.344C32.0879 361.005 30.7119 361.485 29.9653 361.784C29.9653 362.168 30.0079 362.68 30.0933 363.32C30.1573 363.789 30.1893 364.355 30.1893 365.016C30.1893 365.507 30.0186 365.976 29.6772 366.424C29.3359 366.872 28.9413 367.096 28.4933 367.096C28.0453 367.096 27.6506 366.925 27.3093 366.584C26.9893 366.221 26.8293 365.795 26.8293 365.304C26.8293 365.027 26.8933 364.291 27.0213 363.096C24.6533 364.333 23.4693 365.603 23.4693 366.904C23.4693 368.291 24.7919 368.984 27.4373 368.984C28.2693 368.984 28.9733 368.941 29.5493 368.856C30.1253 368.749 30.7759 368.6 31.5013 368.408C32.3546 368.173 33.0479 368.056 33.5813 368.056C34.1573 368.056 34.6159 368.184 34.9573 368.44C35.3199 368.696 35.5013 369.059 35.5013 369.528C35.5013 370.424 34.8506 371.064 33.5493 371.448C32.2693 371.853 30.8293 372.056 29.2292 372.056C27.0746 372.056 25.3573 371.704 24.0773 371C22.7973 370.296 22.1573 369.208 22.1573 367.736C22.1573 366.627 22.5946 365.592 23.4693 364.632C24.3653 363.672 25.5813 362.723 27.1173 361.784C27.1386 361.571 27.1493 361.24 27.1493 360.792C27.1493 359.917 26.9999 359.107 26.7013 358.36C26.4026 357.592 26.0506 357.208 25.6453 357.208C25.0479 357.208 24.5039 357.549 24.0133 358.232C23.5226 358.893 22.9786 359.8 22.3813 360.952C22.1679 361.421 21.9653 361.805 21.7733 362.104C21.2826 362.851 20.8879 363.395 20.5893 363.736C20.2906 364.056 19.9386 364.216 19.5333 364.216C19.0639 364.216 18.6693 364.003 18.3493 363.576C18.0506 363.128 17.9013 362.616 17.9013 362.04C17.9013 361.507 18.0293 361.048 18.2853 360.664C18.5413 360.28 18.9786 359.811 19.5973 359.256C20.7279 358.253 21.5813 357.379 22.1573 356.632C23.1813 355.331 23.9706 353.869 24.5253 352.248C23.6293 352.355 22.8399 352.408 22.1573 352.408C21.3466 352.408 20.6319 352.205 20.0133 351.8C19.4159 351.373 18.7759 350.755 18.0933 349.944C18.0079 349.859 17.9653 349.773 17.9653 349.688C17.9653 349.624 18.0079 349.592 18.0933 349.592C18.1999 349.592 18.3493 349.624 18.5413 349.688C19.4159 350.051 20.2906 350.232 21.1653 350.232C21.6559 350.232 22.2639 350.189 22.9893 350.104C23.7146 349.997 24.4399 349.837 25.1653 349.624C25.2506 349.176 25.2933 348.675 25.2933 348.12C25.2933 347.181 24.9199 346.509 24.1733 346.104C24.1306 346.083 24.0559 346.051 23.9493 346.008C23.8639 345.944 23.7999 345.891 23.7573 345.848C23.7146 345.784 23.6933 345.709 23.6933 345.624C23.7146 345.389 23.7999 345.187 23.9493 345.016C24.0986 344.824 24.3119 344.728 24.5893 344.728C25.1013 344.728 25.6346 344.792 26.1893 344.92C26.7439 345.048 27.1599 345.229 27.4373 345.464C27.6719 345.677 27.7893 345.997 27.7893 346.424C27.7893 346.531 27.7679 346.733 27.7253 347.032C28.1733 347.245 28.6319 347.352 29.1013 347.352C29.3786 347.352 29.6453 347.32 29.9013 347.256C30.2426 347.213 30.4986 347.192 30.6693 347.192C30.9039 347.192 31.0959 347.256 31.2453 347.384C31.4159 347.512 31.5013 347.693 31.5013 347.928C31.5013 348.419 31.3093 348.909 30.9253 349.4C30.5413 349.891 29.9759 350.349 29.2292 350.776C28.3546 351.267 27.3839 351.64 26.3173 351.896C25.8266 353.347 25.1439 354.893 24.2693 356.536C24.7386 356.301 25.2079 356.184 25.6773 356.184C27.5973 356.184 28.8239 357.123 29.3573 359C29.9119 357.507 30.6906 356.205 31.6933 355.096C32.3333 354.392 33.1013 353.752 33.9973 353.176C34.9146 352.579 35.8853 352.28 36.9093 352.28C37.8693 352.28 38.6479 352.568 39.2453 353.144C39.8639 353.699 40.1733 354.435 40.1733 355.352C40.1733 356.461 39.6613 357.4 38.6373 358.168C37.6133 358.936 36.3866 359.565 34.9573 360.056L34.0933 360.344ZM27.2773 348.824C27.6186 348.653 27.8746 348.515 28.0453 348.408C28.1946 348.323 28.2693 348.237 28.2693 348.152C28.2693 348.088 28.1839 347.992 28.0133 347.864C27.9706 347.821 27.8426 347.736 27.6293 347.608L27.2773 348.824ZM32.2053 355.608C31.0746 356.931 30.3706 358.445 30.0933 360.152L30.5093 359.928L31.7893 359.256C32.9839 358.659 33.8373 358.211 34.3493 357.912C35.2026 357.443 35.8533 356.92 36.3013 356.344C36.7493 355.768 36.9733 355.235 36.9733 354.744C36.9733 354.381 36.8559 354.093 36.6213 353.88C36.4079 353.667 36.0986 353.56 35.6933 353.56C35.1599 353.56 34.5839 353.731 33.9653 354.072C33.3679 354.413 32.7813 354.925 32.2053 355.608Z" fill="#3A3A3A"/>
</svg>
