<svg width="284" height="750" viewBox="0 0 284 750" fill="none" xmlns="http://www.w3.org/2000/svg">
<rect x="284" width="750" height="284" transform="rotate(90 284 0)" fill="#E8E0DC" fill-opacity="0.8"/>
<path d="M180.56 296.8C180.72 296.533 180.987 296.107 181.36 295.52C181.733 294.933 182.027 294.507 182.24 294.24C182.507 293.92 182.747 293.76 182.96 293.76C183.28 293.76 183.973 294.267 185.04 295.28C186.107 296.293 187.12 297.387 188.08 298.56C189.04 299.68 189.52 300.427 189.52 300.8C189.307 301.653 188.64 302.08 187.52 302.08H178.8V308.8C181.787 310.027 184.107 311.44 185.76 313.04C187.413 314.64 188.48 316.267 188.96 317.92H195.2C197.28 312.053 198.427 307.547 198.64 304.4C202.96 305.253 205.947 305.947 207.6 306.48C209.253 307.013 210.08 307.467 210.08 307.84C210.08 308 209.84 308.213 209.36 308.48L207.76 309.2C206.587 312.72 205.547 315.627 204.64 317.92H219.12L221.36 314.56C221.573 314.293 221.893 313.84 222.32 313.2C222.8 312.507 223.173 312 223.44 311.68C223.76 311.36 224.027 311.2 224.24 311.2C224.56 311.2 225.44 311.787 226.88 312.96C228.32 314.08 229.653 315.253 230.88 316.48C232.16 317.707 232.8 318.507 232.8 318.88C232.587 319.733 231.867 320.16 230.64 320.16H223.6C222.693 323.787 221.707 326.987 220.64 329.76C219.573 332.533 218.267 335.04 216.72 337.28C221.36 339.04 224.773 341.093 226.96 343.44C229.147 345.787 230.24 348.027 230.24 350.16C230.24 351.6 229.813 352.773 228.96 353.68C228.107 354.587 227.013 355.04 225.68 355.04C224.827 355.04 223.867 354.8 222.8 354.32C220.56 351.013 216.773 347.307 211.44 343.2C208.133 346.08 204 348.453 199.04 350.32C194.133 352.24 188.027 353.787 180.72 354.96L180.32 353.84C186.293 351.973 191.307 349.867 195.36 347.52C199.467 345.12 202.853 342.32 205.52 339.12C203.12 337.573 200.56 336.133 197.84 334.8L197.12 336.48L195.76 339.36C194.8 339.787 193.627 340 192.24 340C190.267 340 188.32 339.573 186.4 338.72C188.533 334.507 191.2 328.32 194.4 320.16H189.2C189.093 321.387 188.667 322.4 187.92 323.2C187.173 323.947 186.293 324.32 185.28 324.32C184.053 324.32 182.907 323.787 181.84 322.72C181.893 320.853 181.627 318.88 181.04 316.8C180.453 314.72 179.707 312.747 178.8 310.88V333.2C178.907 339.813 179.12 346.08 179.44 352C179.12 352.693 178.133 353.387 176.48 354.08C174.88 354.773 173.307 355.12 171.76 355.12C170.96 355.12 170.32 354.96 169.84 354.64C169.413 354.32 169.2 353.947 169.2 353.52C169.413 350.587 169.573 347.707 169.68 344.88C169.84 342 169.947 338.347 170 333.92V323.28C167.013 328.347 163.573 332.747 159.68 336.48L158.64 335.52C163.6 327.467 167.12 316.32 169.2 302.08H166.4C164.907 302.133 163.36 302.507 161.76 303.2L159.76 299.2C161.68 299.52 164.027 299.733 166.8 299.84H170V295.92C170 289.2 169.653 283.733 168.96 279.52C173.44 280.533 176.533 281.333 178.24 281.92C179.947 282.453 180.8 282.933 180.8 283.36C180.8 283.573 180.587 283.813 180.16 284.08L178.8 285.04V299.84L180.56 296.8ZM227.2 284.24C230.72 285.52 232.48 286.427 232.48 286.96C232.48 287.12 232.24 287.253 231.76 287.36L230.48 287.6C228.88 291.28 226.507 295.36 223.36 299.84C220.213 304.32 216.96 308.16 213.6 311.36L212.8 310.48C214.613 306.693 216.293 302.187 217.84 296.96C218.64 294.4 219.28 291.68 219.76 288.8C220.24 285.867 220.48 283.307 220.48 281.12L227.2 284.24ZM202.16 281.28C205.787 283.52 208.427 285.973 210.08 288.64C211.787 291.253 212.64 293.76 212.64 296.16C212.64 298.027 212.187 299.573 211.28 300.8C210.373 301.973 209.28 302.56 208 302.56C206.56 302.56 205.2 301.84 203.92 300.4C203.973 299.867 204 299.067 204 298C204 293.2 203.067 287.733 201.2 281.6L202.16 281.28ZM186.56 283.76C190.773 285.787 193.867 288.107 195.84 290.72C197.813 293.333 198.8 295.893 198.8 298.4C198.8 300.16 198.373 301.6 197.52 302.72C196.667 303.84 195.6 304.4 194.32 304.4C192.987 304.4 191.653 303.733 190.32 302.4C190.427 299.52 190.053 296.453 189.2 293.2C188.347 289.893 187.227 286.88 185.84 284.16L186.56 283.76ZM203.76 320.16C202.213 324.48 200.453 328.853 198.48 333.28C201.893 333.653 205.227 334.187 208.48 334.88C210.827 330.933 212.587 326.027 213.76 320.16H203.76ZM215.92 378.96C216.187 378.64 216.507 378.24 216.88 377.76C217.307 377.227 217.627 376.853 217.84 376.64C218.107 376.373 218.347 376.24 218.56 376.24C218.88 376.24 219.76 376.827 221.2 378C222.64 379.12 223.973 380.32 225.2 381.6C226.48 382.827 227.12 383.627 227.12 384C226.587 384.693 225.467 385.2 223.76 385.52C223.387 389.947 223.2 395.467 223.2 402.08C223.2 409.92 223.547 416.907 224.24 423.04C224.933 429.12 226.053 433.147 227.6 435.12C227.867 435.44 228.08 435.6 228.24 435.6C228.56 435.6 228.827 435.28 229.04 434.64C229.947 431.973 230.773 428.987 231.52 425.68L232.24 425.76L231.36 440.4C232.213 442.907 232.64 445.013 232.64 446.72C232.64 448.373 232.267 449.44 231.52 449.92C230.507 450.507 229.6 450.8 228.8 450.8C226.4 450.8 224.107 449.12 221.92 445.76C219.04 441.867 217.067 435.707 216 427.28C214.987 418.8 214.48 408.587 214.48 396.64C214.48 393.707 214.533 389.467 214.64 383.92H176.8V395.28C181.76 394.32 187.04 392.933 192.64 391.12C198.293 389.253 202.773 387.44 206.08 385.68L214.24 394.08C213.76 394.453 213.147 394.64 212.4 394.64C211.707 394.64 210.72 394.427 209.44 394C206.4 394.587 203.04 395.04 199.36 395.36V404.4H203.84L205.2 402.64C205.36 402.427 205.653 402.08 206.08 401.6C206.507 401.12 206.88 400.88 207.2 400.88C207.52 400.88 208.24 401.253 209.36 402C210.48 402.693 211.493 403.467 212.4 404.32C213.36 405.173 213.84 405.787 213.84 406.16C213.52 406.747 212.72 407.173 211.44 407.44V413.2C211.547 417.893 211.707 421.6 211.92 424.32C211.653 424.8 210.8 425.333 209.36 425.92C207.973 426.453 206.72 426.72 205.6 426.72H204.48V423.2H199.36V436.4L206.32 436C205.467 434.027 204.267 431.707 202.72 429.04L203.44 428.56C207.973 430.373 211.28 432.533 213.36 435.04C215.493 437.547 216.56 440 216.56 442.4C216.56 443.893 216.16 445.12 215.36 446.08C214.613 447.093 213.653 447.6 212.48 447.6C211.2 447.6 209.973 447.04 208.8 445.92C208.64 443.36 208.08 440.853 207.12 438.4C201.733 440.16 192.667 442.693 179.92 446C179.707 446.48 179.413 446.853 179.04 447.12C178.667 447.44 178.24 447.653 177.76 447.76L173.28 437.44C177.013 437.44 183.093 437.227 191.52 436.8V423.2H186.72V426.4C186.72 426.773 186.053 427.253 184.72 427.84C183.44 428.373 182.16 428.64 180.88 428.64C180.4 428.64 180.027 428.48 179.76 428.16C179.493 427.84 179.36 427.467 179.36 427.04C179.573 425.067 179.733 422.56 179.84 419.52V414.96C179.84 409.04 179.547 404.347 178.96 400.88L187.12 404.4H191.52V396.08C186.987 396.347 182.933 396.48 179.36 396.48H176.88L176.8 395.84V402.96C176.8 409.467 176.453 415.387 175.76 420.72C175.12 426.053 173.6 431.44 171.2 436.88C168.853 442.32 165.307 447.093 160.56 451.2L159.76 450.56C163.173 444.213 165.387 437.227 166.4 429.6C167.467 421.92 168 413.04 168 402.96V390.08C168 384.64 167.733 380.213 167.2 376.8L178.16 381.68H213.84L215.92 378.96ZM186.72 406.64V420.88H191.52V406.64H186.72ZM204.48 420.88V406.64H199.36V420.88H204.48ZM226.48 515.84C224.773 514.933 223.013 513.84 221.2 512.56V519.12C221.307 524.4 221.467 528.587 221.68 531.68C221.36 532.213 220.347 532.8 218.64 533.44C216.987 534.027 215.52 534.32 214.24 534.32C213.173 534.32 212.64 533.787 212.64 532.72C212.693 532.56 212.72 532.4 212.72 532.24C212.773 532.027 212.827 531.813 212.88 531.6V530.24H205.36V535.68C205.36 536.48 205.573 537.04 206 537.36C206.427 537.627 207.307 537.76 208.64 537.76H216.16C218.987 537.76 221.093 537.707 222.48 537.6C223.44 537.6 224.187 537.333 224.72 536.8C225.093 536.32 225.573 535.413 226.16 534.08C226.747 532.747 227.28 531.28 227.76 529.68H228.64L228.96 536.88C230.187 537.36 231.013 537.893 231.44 538.48C231.92 539.013 232.16 539.707 232.16 540.56C232.16 541.893 231.68 542.933 230.72 543.68C229.76 544.48 228.053 545.067 225.6 545.44C223.2 545.813 219.787 546 215.36 546H206.96C204.293 546 202.24 545.76 200.8 545.28C199.413 544.853 198.427 544.08 197.84 542.96C197.307 541.84 197.04 540.187 197.04 538V530.24H189.68V531.76C189.733 532.347 189.76 532.88 189.76 533.36C189.813 533.787 189.867 534.107 189.92 534.32C189.76 534.96 189.04 535.627 187.76 536.32C186.533 536.96 185.013 537.28 183.2 537.28C182.507 537.28 181.973 537.12 181.6 536.8C181.227 536.48 181.04 536.107 181.04 535.68C181.413 531.04 181.653 525.867 181.76 520.16V511.6C179.573 512.827 177.2 513.947 174.64 514.96C174.16 521.253 172.88 527.093 170.8 532.48C168.72 537.813 165.44 542.48 160.96 546.48L160.16 545.92C162.027 541.92 163.413 537.547 164.32 532.8C165.227 528.053 165.787 523.413 166 518.88C166.213 514.347 166.32 508.96 166.32 502.72V490.24C166.32 484.96 166.053 480.693 165.52 477.44L176.48 482H193.28C193.28 477.627 193.067 474.16 192.64 471.6C196.907 472.507 199.867 473.253 201.52 473.84C203.173 474.373 204 474.827 204 475.2C204 475.413 203.813 475.653 203.44 475.92L202.08 476.8V482H218.72L220.96 478.64C221.173 478.373 221.493 477.92 221.92 477.28C222.4 476.587 222.773 476.08 223.04 475.76C223.36 475.44 223.627 475.28 223.84 475.28C224.16 475.28 224.987 475.84 226.32 476.96C227.707 478.08 228.987 479.28 230.16 480.56C231.387 481.787 232 482.587 232 482.96C231.787 483.813 231.093 484.24 229.92 484.24H196.08C201.84 486.32 204.72 487.707 204.72 488.4C204.72 488.667 204.453 488.88 203.92 489.04L202.4 489.52C202.133 490.107 201.387 491.467 200.16 493.6H218.48L220.56 490.48C220.827 490.107 221.147 489.627 221.52 489.04C221.947 488.453 222.267 488.027 222.48 487.76C222.747 487.44 222.987 487.28 223.2 487.28C223.52 487.28 224.32 487.813 225.6 488.88C226.933 489.947 228.187 491.067 229.36 492.24C230.533 493.413 231.12 494.187 231.12 494.56C230.96 495.413 230.267 495.84 229.04 495.84H210.56C212.8 498.72 215.84 501.147 219.68 503.12C223.573 505.093 227.787 506.56 232.32 507.52L232.24 508.4C229.307 509.307 227.387 511.787 226.48 515.84ZM175.12 484.24V493.6H189.84C191.547 490.08 192.8 486.96 193.6 484.24H175.12ZM174.88 512.8C180.32 508.373 184.933 502.72 188.72 495.84H175.28L175.12 495.28V502.72C175.12 507.093 175.04 510.453 174.88 512.8ZM212.32 508L214.24 506C211.947 503.173 210.08 499.787 208.64 495.84H198.72L196.56 498.8C200.56 499.76 203.333 500.533 204.88 501.12C206.427 501.653 207.2 502.107 207.2 502.48C207.2 502.64 207.013 502.853 206.64 503.12L205.36 504V508H212.32ZM190.64 508H197.04C197.04 504.32 196.853 501.28 196.48 498.88C194.027 502.027 191.333 504.747 188.4 507.04L190.64 508ZM189.68 517.76H197.04V510.24H189.68V517.76ZM205.36 517.76H212.88V510.24H205.36V517.76ZM189.68 528H197.04V520.08H189.68V528ZM205.36 528H212.88V520.08H205.36V528ZM209.383 565.168C210.316 565.168 211.249 565.392 212.183 565.84C213.153 566.251 213.956 566.792 214.591 567.464C215.225 568.136 215.543 568.845 215.543 569.592C215.543 570.264 215.319 570.824 214.871 571.272C214.423 571.72 213.863 571.944 213.191 571.944C212.78 571.944 212.015 571.832 210.895 571.608C210.335 571.496 209.7 571.384 208.991 571.272C208.319 571.16 207.609 571.104 206.863 571.104C205.78 571.104 204.417 571.309 202.775 571.72C201.095 572.243 199.583 573.643 198.239 575.92C196.932 578.197 195.905 580.811 195.159 583.76C194.412 586.709 194.039 589.341 194.039 591.656C194.039 594.045 194.225 595.912 194.599 597.256C194.972 598.563 195.607 599.515 196.503 600.112C197.399 600.672 198.668 600.952 200.311 600.952L201.711 600.84C203.391 600.728 204.324 600.672 204.511 600.672C206.116 600.672 207.348 600.989 208.207 601.624C209.065 602.259 209.495 603.043 209.495 603.976C209.495 606.104 207.087 607.168 202.271 607.168C197.529 607.168 194.076 605.973 191.911 603.584C189.783 601.195 188.719 597.517 188.719 592.552C188.719 587.736 189.857 583.48 192.135 579.784C194.449 576.051 197.38 573.101 200.927 570.936H200.143C198.761 571.011 196.876 571.515 194.487 572.448C192.097 573.381 189.633 574.613 187.095 576.144C186.161 576.704 185.303 577.32 184.519 577.992C183.473 578.813 182.577 579.429 181.831 579.84C181.121 580.213 180.263 580.4 179.255 580.4C178.284 580.4 177.332 580.064 176.399 579.392C175.465 578.683 174.663 577.843 173.991 576.872C173.319 575.864 172.889 574.968 172.703 574.184C172.628 573.736 172.591 573.475 172.591 573.4C172.591 573.251 172.628 573.139 172.703 573.064C172.777 572.952 172.871 572.896 172.983 572.896C173.169 572.896 173.412 572.989 173.711 573.176C174.495 573.699 175.391 573.96 176.399 573.96C176.735 573.96 177.127 573.923 177.575 573.848C178.135 573.736 179.703 573.251 182.279 572.392C185.937 571.16 189.316 570.096 192.415 569.2C195.513 568.304 198.369 567.651 200.983 567.24C201.879 567.128 202.756 566.941 203.615 566.68C204.511 566.381 205.071 566.195 205.295 566.12C206.228 565.784 206.993 565.541 207.591 565.392C208.188 565.243 208.785 565.168 209.383 565.168ZM217.055 583.648C216.532 583.648 216.009 583.461 215.487 583.088C214.964 582.715 214.572 582.229 214.311 581.632C213.601 580.176 213.004 579.112 212.519 578.44C212.033 577.731 211.193 576.947 209.999 576.088C209.812 575.976 209.551 575.808 209.215 575.584C208.916 575.36 208.767 575.192 208.767 575.08C208.767 574.856 209.047 574.744 209.607 574.744C210.391 574.744 211.567 574.931 213.135 575.304C214.74 575.677 216.196 576.349 217.503 577.32C218.847 578.253 219.519 579.504 219.519 581.072C219.519 581.893 219.257 582.528 218.735 582.976C218.212 583.424 217.652 583.648 217.055 583.648ZM210.559 587.456C209.961 587.456 209.401 587.269 208.879 586.896C208.356 586.523 207.983 585.981 207.759 585.272C207.236 583.779 206.751 582.603 206.303 581.744C205.892 580.848 205.22 579.971 204.287 579.112C204.137 579 203.913 578.832 203.615 578.608C203.316 578.384 203.167 578.197 203.167 578.048C203.167 577.861 203.297 577.768 203.559 577.768C204.193 577.768 205.295 578.029 206.863 578.552C208.431 579.037 209.868 579.803 211.175 580.848C212.481 581.893 213.135 583.2 213.135 584.768C213.135 585.664 212.855 586.336 212.295 586.784C211.772 587.232 211.193 587.456 210.559 587.456Z" fill="#3A3A3A"/>
<path d="M209.392 43.12C209.552 42.96 209.76 42.752 210.016 42.496C210.272 42.208 210.48 42 210.64 41.872C210.8 41.744 210.944 41.68 211.072 41.68C211.264 41.68 211.744 42 212.512 42.64C213.312 43.248 214.048 43.904 214.72 44.608C215.424 45.28 215.776 45.728 215.776 45.952C215.424 46.4 214.784 46.688 213.856 46.816C213.536 52.128 213.024 56.16 212.32 58.912C211.648 61.664 210.672 63.52 209.392 64.48C207.92 65.664 205.952 66.256 203.488 66.256C203.488 65.296 203.44 64.528 203.344 63.952C203.248 63.376 203.04 62.912 202.72 62.56C202.272 61.92 201.36 61.36 199.984 60.88C199.856 60.912 199.664 60.928 199.408 60.928C198.96 60.928 198.464 60.832 197.92 60.64C196.8 59.456 195.424 58.272 193.792 57.088C191.936 59.52 189.52 61.568 186.544 63.232C183.568 64.864 179.952 66.144 175.696 67.072L175.456 66.496C179.04 65.024 181.984 63.296 184.288 61.312C186.624 59.328 188.432 57.024 189.712 54.4C186.96 52.704 184.08 51.264 181.072 50.08L181.216 49.504C184.96 49.632 188.272 50.016 191.152 50.656C191.632 49.152 191.968 47.568 192.16 45.904H185.68C183.408 45.936 181.008 46.16 178.48 46.576L177.184 44.128C178.944 44.32 181.072 44.448 183.568 44.512H208.096L209.392 43.12ZM198.4 45.904C197.952 48.432 197.328 50.608 196.528 52.432C198.384 53.296 199.744 54.256 200.608 55.312C201.504 56.336 201.952 57.344 201.952 58.336C201.952 59.04 201.712 59.664 201.232 60.208C202.352 60.304 203.296 60.352 204.064 60.352C204.448 60.352 204.752 60.32 204.976 60.256C205.2 60.16 205.44 60.032 205.696 59.872C206.336 59.296 206.896 57.824 207.376 55.456C207.888 53.056 208.272 49.872 208.528 45.904H198.4ZM191.2 64.528C193.664 64.752 195.696 65.232 197.296 65.968C198.896 66.704 200.048 67.568 200.752 68.56C201.488 69.52 201.856 70.48 201.856 71.44C201.856 72.304 201.6 73.024 201.088 73.6C200.608 74.144 199.984 74.416 199.216 74.416C198.608 74.416 198 74.24 197.392 73.888C196.848 72.384 195.952 70.816 194.704 69.184C193.456 67.52 192.16 66.08 190.816 64.864L191.2 64.528ZM186.16 74.656C186.16 72.16 186.032 70.16 185.776 68.656C190.288 69.616 192.544 70.32 192.544 70.768C192.544 70.928 192.448 71.056 192.256 71.152L191.536 71.632V79.216C191.536 79.568 191.648 79.808 191.872 79.936C192.096 80.032 192.592 80.08 193.36 80.08H198.496C200.768 80.08 202.128 80.064 202.576 80.032C202.96 80 203.232 79.952 203.392 79.888C203.584 79.792 203.76 79.616 203.92 79.36C204.176 79.008 204.496 78.336 204.88 77.344C205.264 76.32 205.68 75.168 206.128 73.888H206.608L206.752 79.552C207.488 79.84 207.984 80.16 208.24 80.512C208.528 80.832 208.672 81.264 208.672 81.808C208.672 82.64 208.368 83.28 207.76 83.728C207.152 84.208 206.064 84.544 204.496 84.736C202.96 84.96 200.752 85.072 197.872 85.072H192.352C190.624 85.072 189.328 84.944 188.464 84.688C187.6 84.432 186.992 83.968 186.64 83.296C186.32 82.656 186.16 81.696 186.16 80.416V74.656ZM206.704 68.848C209.264 69.552 211.36 70.464 212.992 71.584C214.624 72.672 215.792 73.824 216.496 75.04C217.232 76.256 217.6 77.44 217.6 78.592C217.6 79.648 217.328 80.528 216.784 81.232C216.24 81.936 215.552 82.288 214.72 82.288C213.92 82.288 213.104 81.936 212.272 81.232C212.144 79.152 211.504 77.008 210.352 74.8C209.232 72.592 207.872 70.72 206.272 69.184L206.704 68.848ZM181.504 69.472C182.304 71.52 182.704 73.488 182.704 75.376C182.704 76.944 182.432 78.304 181.888 79.456C181.344 80.576 180.64 81.424 179.776 82C179.168 82.448 178.512 82.672 177.808 82.672C177.04 82.672 176.368 82.416 175.792 81.904C175.248 81.392 174.976 80.72 174.976 79.888C174.976 78.704 175.648 77.728 176.992 76.96C178.048 76.384 178.976 75.408 179.776 74.032C180.576 72.624 180.944 71.104 180.88 69.472H181.504ZM210.356 99.152C212.052 99.152 213.428 99.488 214.484 100.16C215.572 100.832 216.116 101.648 216.116 102.608C216.116 103.12 215.956 103.52 215.636 103.808C215.316 104.096 214.932 104.24 214.484 104.24C213.716 104.24 213.092 103.952 212.612 103.376C211.844 102.544 211.188 101.92 210.644 101.504C210.132 101.056 209.492 100.688 208.724 100.4C208.404 100.272 208.068 100.16 207.716 100.064C207.396 99.968 207.236 99.888 207.236 99.824C207.236 99.632 207.62 99.472 208.388 99.344C209.156 99.216 209.812 99.152 210.356 99.152ZM205.94 103.184C206.676 103.184 207.636 103.344 208.82 103.664C210.036 103.984 211.108 104.496 212.036 105.2C212.996 105.904 213.476 106.8 213.476 107.888C213.476 108.592 213.268 109.104 212.852 109.424C212.468 109.712 212.02 109.856 211.508 109.856C210.548 109.856 209.86 109.392 209.444 108.464C208.996 107.472 208.532 106.656 208.052 106.016C207.572 105.344 206.964 104.72 206.228 104.144C206.004 103.984 205.78 103.84 205.556 103.712C205.364 103.552 205.268 103.44 205.268 103.376C205.268 103.248 205.492 103.184 205.94 103.184ZM211.028 119.648C212.308 120.64 212.948 121.824 212.948 123.2C212.948 123.808 212.772 124.288 212.42 124.64C212.068 124.992 211.604 125.168 211.028 125.168C210.036 125.168 209.076 124.704 208.148 123.776C206.292 121.888 204.9 119.952 203.972 117.968C203.076 115.984 202.34 113.952 201.764 111.872C201.892 113.6 202.116 115.264 202.436 116.864C202.628 118.016 202.772 119.072 202.868 120.032C202.996 120.96 203.06 122.08 203.06 123.392C203.06 128.512 201.988 132.768 199.844 136.16C197.732 139.52 194.372 141.2 189.764 141.2C187.332 141.2 185.172 140.688 183.284 139.664C181.428 138.608 179.988 137.136 178.964 135.248C177.94 133.36 177.428 131.168 177.428 128.672C177.428 125.856 178.116 123.088 179.492 120.368C180.868 117.616 182.772 114.752 185.204 111.776C184.436 112.224 183.652 112.544 182.852 112.736C182.084 112.896 181.444 112.976 180.932 112.976C179.844 112.976 178.804 112.592 177.812 111.824C177.3 111.376 176.852 110.864 176.468 110.288C176.084 109.68 175.892 109.248 175.892 108.992C175.892 108.896 175.924 108.848 175.988 108.848C176.052 108.848 176.132 108.88 176.228 108.944C176.356 108.976 176.516 109.008 176.708 109.04C177.508 109.2 178.276 109.28 179.012 109.28C180.708 109.28 182.036 109.072 182.996 108.656C183.956 108.24 184.836 107.68 185.636 106.976C186.02 106.656 186.324 106.432 186.548 106.304C186.804 106.144 187.076 106.064 187.364 106.064C188.292 106.064 189.204 106.336 190.1 106.88C191.028 107.424 191.492 107.984 191.492 108.56C191.492 108.976 191.316 109.36 190.964 109.712C190.612 110.064 190.1 110.448 189.428 110.864C188.756 111.312 188.388 111.568 188.324 111.632C186.212 113.616 184.58 115.968 183.428 118.688C182.276 121.408 181.7 124.08 181.7 126.704C181.7 129.488 182.356 131.776 183.668 133.568C184.98 135.328 186.996 136.208 189.716 136.208C193.62 136.208 196.484 134.8 198.308 131.984C200.164 129.168 201.092 125.168 201.092 119.984C201.092 117.52 200.868 114.72 200.42 111.584C200.356 111.008 200.196 110.112 199.94 108.896C199.62 107.232 199.46 106.128 199.46 105.584C199.46 104.912 199.62 104.352 199.94 103.904C200.292 103.456 200.788 103.232 201.428 103.232C202.036 103.232 202.516 103.536 202.868 104.144C203.22 104.72 203.492 105.712 203.684 107.12C203.94 109.104 204.292 110.768 204.74 112.112C205.22 113.456 205.94 114.736 206.9 115.952C207.892 117.136 209.268 118.368 211.028 119.648ZM196.839 164.304C199.751 164.304 202.583 164.88 205.335 166.032C208.119 167.152 210.407 168.96 212.199 171.456C214.023 173.92 214.935 177.056 214.935 180.864C214.935 184.864 213.815 188.192 211.575 190.848C209.335 193.504 206.423 195.456 202.839 196.704C199.255 197.952 195.415 198.576 191.319 198.576C190.359 198.576 189.879 198.496 189.879 198.336C189.879 198.176 190.151 198.048 190.695 197.952C191.271 197.856 191.591 197.808 191.655 197.808C195.047 197.232 198.087 196.224 200.775 194.784C203.495 193.312 205.639 191.376 207.207 188.976C208.807 186.576 209.607 183.776 209.607 180.576C209.607 176.64 208.807 173.584 207.207 171.408C205.607 169.2 203.783 167.728 201.735 166.992C199.719 166.224 197.895 165.84 196.263 165.84C195.847 165.84 195.543 165.856 195.351 165.888C195.735 166.688 196.071 167.744 196.359 169.056C196.647 170.336 196.791 171.568 196.791 172.752C196.791 176.048 196.215 179.12 195.063 181.968C194.071 184.4 192.903 186.608 191.559 188.592C190.247 190.576 188.935 192.128 187.623 193.248C186.311 194.336 185.207 194.88 184.311 194.88C183.127 194.88 181.975 194.24 180.855 192.96C179.735 191.68 178.823 190.064 178.119 188.112C177.415 186.128 177.063 184.208 177.063 182.352C177.063 178.736 178.039 175.552 179.991 172.8C181.943 170.048 184.439 167.952 187.479 166.512C190.519 165.04 193.639 164.304 196.839 164.304ZM194.967 169.392C194.967 168.08 194.791 166.928 194.439 165.936C191.911 166.224 189.607 167.088 187.527 168.528C185.479 169.936 183.863 171.712 182.679 173.856C181.527 176 180.951 178.256 180.951 180.624C180.951 182.32 181.175 183.76 181.623 184.944C182.071 186.128 182.599 187.024 183.207 187.632C183.815 188.24 184.311 188.544 184.695 188.544C186.039 188.544 187.959 186.688 190.455 182.976C192.055 180.512 193.207 178.24 193.911 176.16C194.615 174.08 194.967 171.824 194.967 169.392ZM206.8 244.672C206.96 244.448 207.184 244.144 207.472 243.76C207.76 243.376 207.984 243.088 208.144 242.896C208.336 242.704 208.496 242.608 208.624 242.608C208.816 242.608 209.376 242.96 210.304 243.664C211.232 244.368 212.096 245.104 212.896 245.872C213.728 246.64 214.144 247.136 214.144 247.36C214.048 247.872 213.632 248.128 212.896 248.128H198.784V256.864H208.432L209.968 254.704C210.16 254.448 210.4 254.112 210.688 253.696C210.976 253.28 211.2 252.976 211.36 252.784C211.552 252.592 211.712 252.496 211.84 252.496C212.032 252.496 212.608 252.88 213.568 253.648C214.56 254.384 215.488 255.152 216.352 255.952C217.216 256.752 217.648 257.264 217.648 257.488C217.52 258 217.072 258.256 216.304 258.256H182.56C180.288 258.288 177.888 258.512 175.36 258.928L174.16 256.48C175.92 256.672 178.048 256.8 180.544 256.864H193.024V248.128H186.544C184.272 248.16 181.872 248.384 179.344 248.8L178.144 246.352C179.904 246.544 182.032 246.672 184.528 246.736H193.024V239.2H185.248V241.12C185.248 241.312 185.008 241.568 184.528 241.888C184.048 242.208 183.44 242.48 182.704 242.704C181.968 242.928 181.232 243.04 180.496 243.04C180.112 243.04 179.808 242.944 179.584 242.752C179.36 242.56 179.248 242.336 179.248 242.08C179.472 238.976 179.616 235.552 179.68 231.808V226.144C179.68 222.112 179.472 218.832 179.056 216.304L185.632 219.04H206.128L207.328 217.552C207.488 217.392 207.68 217.168 207.904 216.88C208.16 216.592 208.352 216.384 208.48 216.256C208.64 216.096 208.784 216.016 208.912 216.016C209.104 216.016 209.616 216.336 210.448 216.976C211.312 217.616 212.112 218.288 212.848 218.992C213.616 219.664 214 220.112 214 220.336C213.68 220.848 213.088 221.184 212.224 221.344V228.688C212.288 232.656 212.416 236.416 212.608 239.968C212.384 240.288 211.696 240.656 210.544 241.072C209.392 241.488 208.384 241.696 207.52 241.696C206.816 241.696 206.464 241.376 206.464 240.736C206.496 240.64 206.512 240.544 206.512 240.448C206.544 240.32 206.576 240.192 206.608 240.064V239.2H198.784V246.736H205.36L206.8 244.672ZM193.024 228.352V220.384H185.248V228.352H193.024ZM206.608 228.352V220.384H198.784V228.352H206.608ZM185.248 229.744V237.904H193.024V229.744H185.248ZM198.784 229.744V237.904H206.608V229.744H198.784Z" fill="#3A3A3A"/>
<path d="M109.168 96.768C109.408 96.432 109.744 95.952 110.176 95.328C110.608 94.656 110.944 94.176 111.184 93.888C111.472 93.552 111.712 93.384 111.904 93.384C112.192 93.384 113.032 93.96 114.424 95.112C115.816 96.264 117.136 97.464 118.384 98.712C119.632 99.912 120.256 100.68 120.256 101.016C120.112 101.784 119.44 102.168 118.24 102.168H93.256C96.136 108.12 100.12 113.424 105.208 118.08C110.296 122.736 115.672 126.24 121.336 128.592L121.048 129.384C119.416 129.72 117.952 130.56 116.656 131.904C115.36 133.2 114.424 134.856 113.848 136.872C103.72 130.104 96.424 118.584 91.96 102.312V132.84H93.976L95.848 129.672C96.04 129.384 96.328 128.952 96.712 128.376C97.096 127.752 97.408 127.296 97.648 127.008C97.888 126.672 98.104 126.504 98.296 126.504C98.584 126.504 99.328 127.056 100.528 128.16C101.776 129.216 102.928 130.344 103.984 131.544C105.088 132.696 105.64 133.44 105.64 133.776C105.448 134.496 104.8 134.856 103.696 134.856H91.96V139.248L92.032 141.912C92.08 143.88 92.176 145.752 92.32 147.528C92.128 148.2 91.288 148.848 89.8 149.472C88.36 150.096 86.824 150.408 85.192 150.408C84.472 150.408 83.944 150.264 83.608 149.976C83.272 149.736 83.104 149.4 83.104 148.968C83.296 146.76 83.464 143.784 83.608 140.04V134.856H79.288C76.84 134.904 74.248 135.24 71.512 135.864L69.64 132.264C72.28 132.552 75.448 132.744 79.144 132.84H83.608V113.184C77.032 123.744 67.768 131.904 55.816 137.664L55.168 136.944C60.496 132.816 65.2 127.656 69.28 121.464C73.408 115.272 76.528 108.84 78.64 102.168H67.768C64.36 102.216 60.76 102.552 56.968 103.176L55.096 99.504C57.736 99.792 60.928 99.984 64.672 100.08H83.608V97.272C83.608 91.224 83.296 86.304 82.672 82.512C87.04 83.424 90.04 84.144 91.672 84.672C93.304 85.2 94.12 85.656 94.12 86.04C94.12 86.184 94 86.352 93.76 86.544C93.568 86.688 93.448 86.784 93.4 86.832L91.96 87.768V100.08H106.936L109.168 96.768ZM78.568 180.392C80.296 182.216 81.832 183.872 83.176 185.36L84.04 182.984C84.808 180.68 85.432 178.16 85.912 175.424C86.392 172.688 86.608 170.312 86.56 168.296C90.544 169.496 93.304 170.408 94.84 171.032C96.376 171.656 97.144 172.136 97.144 172.472C97.144 172.616 96.928 172.784 96.496 172.976L95.2 173.48C94.192 176.504 92.872 179.648 91.24 182.912H109.672L111.688 180.608C111.976 180.32 112.384 179.864 112.912 179.24C113.488 178.568 113.92 178.232 114.208 178.232C114.496 178.232 115.24 178.736 116.44 179.744C117.64 180.704 118.768 181.736 119.824 182.84C120.88 183.944 121.408 184.664 121.408 185C120.784 185.624 119.728 186.08 118.24 186.368C117.76 200.24 116.992 210.752 115.936 217.904C114.88 225.056 113.32 229.712 111.256 231.872C109.912 233.216 108.4 234.2 106.72 234.824C105.088 235.448 103.12 235.76 100.816 235.76C100.816 232.88 100.288 230.912 99.232 229.856C97.84 228.464 95.344 227.384 91.744 226.616V225.608C97.6 226.088 101.08 226.328 102.184 226.328C102.856 226.328 103.384 226.256 103.768 226.112C104.2 225.92 104.632 225.632 105.064 225.248C107.752 222.848 109.552 209.432 110.464 185H109.816C106.024 206.888 96.088 222.464 80.008 231.728L79.432 231.008C85.864 225.392 90.88 218.6 94.48 210.632C98.128 202.664 100.48 194.12 101.536 185H99.736C97.912 191.576 95.128 197.672 91.384 203.288C87.64 208.856 83.104 213.512 77.776 217.256L77.128 216.464C80.92 212.336 84.136 207.488 86.776 201.92C89.416 196.352 91.264 190.712 92.32 185H90.088C86.68 190.76 82.456 195.32 77.416 198.68L76.696 198.032C78.664 195.2 80.416 191.936 81.952 188.24H74.752V202.784L83.608 200.264L83.752 201.128C81.688 202.52 78.688 204.464 74.752 206.96V216.752C74.848 222.704 75.04 228.344 75.328 233.672C74.992 234.248 74.128 234.824 72.736 235.4C71.392 236.024 70.024 236.336 68.632 236.336C67.912 236.336 67.36 236.192 66.976 235.904C66.64 235.616 66.472 235.28 66.472 234.896C66.808 230.384 67.024 225.368 67.12 219.848V211.568C65.632 212.48 63.472 213.728 60.64 215.312C60.496 215.744 60.256 216.152 59.92 216.536C59.632 216.872 59.296 217.112 58.912 217.256L55.456 207.752C58.768 207.032 62.656 206.072 67.12 204.872V188.24H62.512C60.784 193.232 58.768 197.168 56.464 200.048L55.456 199.544C56.224 196.568 56.872 193.016 57.4 188.888C57.736 186.536 57.904 183.632 57.904 180.176C57.904 177.2 57.784 174.968 57.544 173.48L67.12 175.496C67.12 172.808 66.976 170.456 66.688 168.44C70.432 169.352 73 170.072 74.392 170.6C75.832 171.08 76.552 171.512 76.552 171.896C76.552 172.04 76.36 172.256 75.976 172.544L74.752 173.336V186.152H75.04L78.568 180.392ZM67.12 176.864C66.64 177.2 66.088 177.392 65.464 177.44C64.744 180.8 63.976 183.704 63.16 186.152H67.12V176.864ZM88.9793 257.688C92.3767 257.688 95.6807 258.36 98.8913 259.704C102.139 261.011 104.809 263.12 106.899 266.032C109.027 268.907 110.091 272.565 110.091 277.008C110.091 281.675 108.785 285.557 106.171 288.656C103.558 291.755 100.161 294.032 95.9793 295.488C91.798 296.944 87.318 297.672 82.5393 297.672C81.4193 297.672 80.8593 297.579 80.8593 297.392C80.8593 297.205 81.1767 297.056 81.8113 296.944C82.4833 296.832 82.8567 296.776 82.9313 296.776C86.8887 296.104 90.4353 294.928 93.5713 293.248C96.7447 291.531 99.246 289.272 101.075 286.472C102.942 283.672 103.875 280.405 103.875 276.672C103.875 272.08 102.942 268.515 101.075 265.976C99.2087 263.4 97.0807 261.683 94.6913 260.824C92.3393 259.928 90.2113 259.48 88.3073 259.48C87.822 259.48 87.4673 259.499 87.2433 259.536C87.6913 260.469 88.0833 261.701 88.4193 263.232C88.7553 264.725 88.9233 266.163 88.9233 267.544C88.9233 271.389 88.2513 274.973 86.9073 278.296C85.75 281.133 84.3873 283.709 82.8193 286.024C81.2887 288.339 79.758 290.149 78.2273 291.456C76.6967 292.725 75.4087 293.36 74.3633 293.36C72.982 293.36 71.638 292.613 70.3313 291.12C69.0247 289.627 67.9607 287.741 67.1393 285.464C66.318 283.149 65.9073 280.909 65.9073 278.744C65.9073 274.525 67.046 270.811 69.3233 267.6C71.6007 264.389 74.5127 261.944 78.0593 260.264C81.606 258.547 85.246 257.688 88.9793 257.688ZM86.7953 263.624C86.7953 262.093 86.59 260.749 86.1793 259.592C83.23 259.928 80.542 260.936 78.1153 262.616C75.726 264.259 73.8407 266.331 72.4593 268.832C71.1153 271.333 70.4433 273.965 70.4433 276.728C70.4433 278.707 70.7047 280.387 71.2273 281.768C71.75 283.149 72.366 284.195 73.0753 284.904C73.7847 285.613 74.3633 285.968 74.8113 285.968C76.3793 285.968 78.6193 283.803 81.5313 279.472C83.398 276.597 84.742 273.947 85.5633 271.52C86.3847 269.093 86.7953 266.461 86.7953 263.624ZM68.488 362.84C65.176 368.456 60.952 373.448 55.816 377.816L54.952 376.952C57.64 373.256 59.944 368.84 61.864 363.704C63.832 358.52 65.344 353.168 66.4 347.648H63.016C61.096 347.696 59.08 348.032 56.968 348.656L55.168 345.056C57.664 345.344 60.688 345.536 64.24 345.632H68.488V333.536C64.6 334.256 60.472 334.76 56.104 335.048L55.888 334.112C60.016 332.672 64.36 330.824 68.92 328.568C73.528 326.264 77.104 324.152 79.648 322.232L88.432 330.08C88 330.512 87.376 330.728 86.56 330.728C85.888 330.728 84.976 330.536 83.824 330.152C82.144 330.68 79.672 331.328 76.408 332.096V345.632H78.496L80.224 342.824C80.416 342.488 80.68 342.056 81.016 341.528C81.352 341 81.616 340.616 81.808 340.376C82.048 340.088 82.264 339.944 82.456 339.944C82.744 339.944 83.44 340.424 84.544 341.384C85.648 342.344 86.68 343.352 87.64 344.408C88.648 345.464 89.152 346.16 89.152 346.496C88.96 347.264 88.336 347.648 87.28 347.648H76.408V353.048C80.296 354.2 83.152 355.712 84.976 357.584C86.8 359.408 87.712 361.232 87.712 363.056C87.712 364.208 87.376 365.168 86.704 365.936C86.032 366.704 85.192 367.088 84.184 367.088C83.128 367.088 82.096 366.656 81.088 365.792C80.848 364.112 80.296 362.288 79.432 360.32C78.568 358.352 77.56 356.504 76.408 354.776V369.752C76.504 375.704 76.696 381.344 76.984 386.672C76.6 387.248 75.76 387.848 74.464 388.472C73.168 389.096 71.656 389.408 69.928 389.408C69.256 389.408 68.728 389.264 68.344 388.976C67.96 388.688 67.768 388.352 67.768 387.968C67.96 385.52 68.104 383.12 68.2 380.768C68.344 378.368 68.44 375.344 68.488 371.696V362.84ZM97.648 381.272C97.696 381.8 97.72 382.28 97.72 382.712C97.768 383.144 97.816 383.456 97.864 383.648C97.768 384.416 97.024 385.16 95.632 385.88C94.288 386.648 92.776 387.032 91.096 387.032C90.424 387.032 89.896 386.888 89.512 386.6C89.128 386.312 88.936 385.976 88.936 385.592C89.128 382.76 89.296 380.024 89.44 377.384C89.584 374.696 89.68 371.192 89.728 366.872V344.048C89.728 338 89.416 333.08 88.792 329.288L98.008 333.32H108.88L110.68 331.088C110.92 330.848 111.208 330.512 111.544 330.08C111.928 329.648 112.216 329.336 112.408 329.144C112.648 328.904 112.864 328.784 113.056 328.784C113.344 328.784 114.112 329.264 115.36 330.224C116.608 331.184 117.784 332.192 118.888 333.248C119.992 334.256 120.544 334.928 120.544 335.264C119.92 336.032 118.984 336.56 117.736 336.848V366.296C117.832 372.248 118.024 377.888 118.312 383.216C117.928 383.792 116.92 384.392 115.288 385.016C113.704 385.688 112.24 386.024 110.896 386.024C109.84 386.024 109.312 385.544 109.312 384.584C109.312 384.488 109.408 383.6 109.6 381.92V379.832H97.648V381.272ZM97.648 335.408V377.744H109.6V335.408H97.648ZM99.736 428.896C99.976 428.656 100.336 428.272 100.816 427.744C101.296 427.216 101.68 426.952 101.968 426.952C102.256 426.952 103 427.384 104.2 428.248C105.4 429.064 106.528 429.928 107.584 430.84C108.64 431.752 109.168 432.376 109.168 432.712C108.688 433.288 107.968 433.672 107.008 433.864V450.064C107.008 450.16 106.864 450.328 106.576 450.568C111.52 454.024 113.992 456.064 113.992 456.688C113.992 456.832 113.776 456.952 113.344 457.048L112.048 457.12C108.592 458.752 104.296 460.192 99.16 461.44C104.152 464.032 111.064 465.784 119.896 466.696L119.824 467.488C118.192 467.968 116.824 468.904 115.72 470.296C114.664 471.688 113.92 473.416 113.488 475.48C108.784 474.136 104.728 472.48 101.32 470.512C97.96 468.592 95.08 466.12 92.68 463.096V463.168C86.248 466.192 77.368 469.744 66.04 473.824C65.608 474.784 64.984 475.336 64.168 475.48L59.488 465.904C60.976 465.808 64.36 465.496 69.64 464.968V429.832C64.936 432.376 60.496 434.368 56.32 435.808L55.96 434.944C59.464 432.928 62.992 430.456 66.544 427.528C70.096 424.552 73.216 421.504 75.904 418.384C79.264 414.448 81.28 410.656 81.952 407.008L94.912 410.896C94.816 411.376 94.504 411.736 93.976 411.976C93.496 412.216 92.68 412.408 91.528 412.552C96.568 417.544 106.168 421.36 120.328 424V425.08C118.696 425.56 117.328 426.592 116.224 428.176C115.168 429.76 114.52 431.44 114.28 433.216C109 430.96 104.248 428.152 100.024 424.792C95.8 421.384 92.608 417.568 90.448 413.344C88.528 415.888 85.96 418.48 82.744 421.12C79.528 423.712 75.976 426.136 72.088 428.392L77.992 430.84H84.04C84.04 427.24 83.872 424.288 83.536 421.984C87.472 422.8 90.16 423.448 91.6 423.928C93.04 424.408 93.76 424.816 93.76 425.152C93.76 425.344 93.616 425.512 93.328 425.656L92.248 426.376V430.84H98.08L99.736 428.896ZM98.728 439.552V432.928H77.488V439.552H98.728ZM77.488 448.408H98.728V441.64H77.488V448.408ZM92.104 462.304C89.656 458.848 87.784 454.888 86.488 450.424H77.488V464.104L92.104 462.304ZM104.704 451.72C102.976 452.488 101.464 452.872 100.168 452.872H98.728V450.424H87.784C89.848 454.504 92.92 457.768 97 460.216C99.64 457.864 102.208 455.032 104.704 451.72ZM110.824 508.776C111.064 508.44 111.376 507.984 111.76 507.408C112.144 506.832 112.456 506.424 112.696 506.184C112.936 505.896 113.152 505.752 113.344 505.752C113.632 505.752 114.376 506.256 115.576 507.264C116.824 508.272 117.976 509.352 119.032 510.504C120.136 511.608 120.688 512.328 120.688 512.664C120.544 513.432 119.896 513.816 118.744 513.816H101.248C103.12 519.192 105.856 523.872 109.456 527.856C113.104 531.84 117.16 534.912 121.624 537.072L121.48 538.008C118.888 540.168 117.232 543.312 116.512 547.44C112.576 544.032 109.168 539.352 106.288 533.4C103.408 527.448 101.224 520.92 99.736 513.816H99.592V544.2H101.392L103.12 541.32C103.312 541.032 103.576 540.624 103.912 540.096C104.248 539.52 104.536 539.088 104.776 538.8C105.016 538.512 105.232 538.368 105.424 538.368C105.712 538.368 106.384 538.872 107.44 539.88C108.544 540.84 109.576 541.872 110.536 542.976C111.496 544.08 111.976 544.8 111.976 545.136C111.784 545.856 111.136 546.216 110.032 546.216H99.592V550.32L99.664 552.768C99.712 554.688 99.808 556.44 99.952 558.024C99.76 558.696 98.92 559.392 97.432 560.112C95.944 560.88 94.48 561.264 93.04 561.264C91.744 561.264 91.096 560.784 91.096 559.824C91.288 557.568 91.432 554.712 91.528 551.256V546.216H88.216C86.344 546.264 84.424 546.6 82.456 547.224L80.584 543.624C82.648 543.912 85.144 544.104 88.072 544.2H91.528V527.424C86.872 535.008 80.512 541.512 72.448 546.936L72.016 546.432V550.608L72.088 553.2C72.136 555.168 72.232 556.968 72.376 558.6C72.136 559.176 71.272 559.776 69.784 560.4C68.344 561.072 66.88 561.408 65.392 561.408C64.672 561.408 64.096 561.264 63.664 560.976C63.28 560.688 63.088 560.352 63.088 559.968C63.28 557.136 63.448 554.4 63.592 551.76C63.736 549.072 63.832 545.568 63.88 541.248V523.896C61.192 527.352 58.432 530.28 55.6 532.68L54.736 532.104C56.512 529.08 58.264 525.528 59.992 521.448C61.768 517.368 63.4 513.096 64.888 508.632C65.656 506.376 66.352 503.736 66.976 500.712C67.648 497.64 68.032 495.12 68.128 493.152C72.4 494.496 75.352 495.528 76.984 496.248C78.616 496.968 79.432 497.496 79.432 497.832C79.432 498.024 79.24 498.192 78.856 498.336L77.488 498.912C75.136 505.008 72.544 510.504 69.712 515.4C72.352 517.032 73.672 518.16 73.672 518.784C73.672 519.072 73.48 519.288 73.096 519.432L72.016 519.936V545.712C75.664 541.728 78.904 536.904 81.736 531.24C84.616 525.528 86.848 519.72 88.432 513.816H83.536C80.704 513.864 77.776 514.2 74.752 514.824L72.88 511.224C75.52 511.512 78.712 511.704 82.456 511.8H91.528V509.064C91.528 503.016 91.216 498.096 90.592 494.304C94.72 495.216 97.552 495.936 99.088 496.464C100.624 496.944 101.392 497.376 101.392 497.76C101.392 497.952 101.2 498.168 100.816 498.408L99.592 499.272V511.8H108.88L110.824 508.776ZM103.624 584.696C102.376 587.528 100.6 590.288 98.296 592.976C95.992 595.616 93.376 597.992 90.448 600.104C92.992 600.344 95.92 600.512 99.232 600.608H103.984L105.496 598.376C105.64 598.136 105.856 597.824 106.144 597.44C106.48 597.008 106.744 596.696 106.936 596.504C107.128 596.264 107.32 596.144 107.512 596.144C107.8 596.144 108.4 596.528 109.312 597.296C110.272 598.016 111.16 598.808 111.976 599.672C112.792 600.536 113.2 601.136 113.2 601.472C113.056 602.24 112.456 602.624 111.4 602.624H104.992V608.96H110.104L111.544 607.088C111.736 606.848 111.928 606.584 112.12 606.296C112.36 606.008 112.6 605.744 112.84 605.504C113.08 605.264 113.296 605.144 113.488 605.144C113.776 605.144 114.424 605.504 115.432 606.224C116.488 606.896 117.448 607.64 118.312 608.456C119.224 609.272 119.68 609.848 119.68 610.184C119.296 610.808 118.456 611.24 117.16 611.48V616.232L117.232 619.112C117.28 621.32 117.376 623.384 117.52 625.304C117.28 625.688 116.608 626.096 115.504 626.528C114.4 626.96 113.08 627.176 111.544 627.176H110.32V624.152H105.064C106.504 627.752 108.664 630.824 111.544 633.368C114.424 635.912 117.712 637.688 121.408 638.696L121.336 639.488C118.264 640.448 116.344 643.088 115.576 647.408C112.504 645.248 110.08 642.536 108.304 639.272C106.576 636.008 105.256 631.856 104.344 626.816C103.384 631.472 101.128 635.504 97.576 638.912C94.024 642.32 88.432 645.104 80.8 647.264L80.224 646.4C86.128 643.568 90.352 640.352 92.896 636.752C95.488 633.152 97.048 628.952 97.576 624.152H93.472V626.312C93.472 626.648 92.92 627.032 91.816 627.464C90.76 627.848 89.464 628.04 87.928 628.04C86.92 628.04 86.416 627.56 86.416 626.6C86.56 625.4 86.656 624.224 86.704 623.072L86.776 621.416V618.104C86.248 618.44 85.552 618.632 84.688 618.68C84.208 626.408 83.488 632.216 82.528 636.104C81.568 639.992 80.248 642.632 78.568 644.024C76.84 645.56 74.464 646.328 71.44 646.328C71.44 644.168 71.128 642.752 70.504 642.08C69.832 641.216 68.464 640.544 66.4 640.064V638.912C68.416 639.152 70.384 639.272 72.304 639.272C73.264 639.272 74.032 639.056 74.608 638.624C75.808 637.568 76.84 634.328 77.704 628.904C77.416 629.048 77.104 629.12 76.768 629.12C76.336 629.12 75.808 628.928 75.184 628.544C74.992 627.248 74.44 625.88 73.528 624.44C72.616 623 71.608 621.824 70.504 620.912L71.296 620.336C74.608 621.056 76.936 622.352 78.28 624.224C78.376 623.264 78.472 621.752 78.568 619.688L78.712 617.744H65.392V619.904C65.392 620.096 65.152 620.36 64.672 620.696C64.24 621.032 63.616 621.344 62.8 621.632C62.032 621.872 61.144 621.992 60.136 621.992C59.608 621.992 59.176 621.848 58.84 621.56C58.552 621.272 58.408 620.936 58.408 620.552C58.744 615.992 58.96 610.928 59.056 605.36V597.008C59.056 590.96 58.744 586.04 58.12 582.248L66.328 585.56H77.056L78.64 583.184C78.832 582.944 79.072 582.608 79.36 582.176C79.696 581.696 79.96 581.36 80.152 581.168C80.392 580.928 80.608 580.808 80.8 580.808C81.088 580.808 81.76 581.216 82.816 582.032C83.92 582.848 84.928 583.712 85.84 584.624C86.8 585.536 87.28 586.16 87.28 586.496C87.136 587.264 86.512 587.648 85.408 587.648H75.904V595.568H77.488L78.856 593.408C79 593.216 79.192 592.928 79.432 592.544C79.72 592.112 79.96 591.8 80.152 591.608C80.344 591.368 80.536 591.248 80.728 591.248C81.016 591.248 81.592 591.608 82.456 592.328C83.368 593.048 84.208 593.84 84.976 594.704C85.744 595.52 86.128 596.096 86.128 596.432C85.984 597.2 85.384 597.584 84.328 597.584H75.904V605.648H77.344L80.368 601.4L82.888 603.56C85.72 600.872 88.432 597.44 91.024 593.264C92.32 591.152 93.4 588.872 94.264 586.424C95.128 583.928 95.584 581.72 95.632 579.8C102.736 581.288 106.288 582.368 106.288 583.04C106.288 583.184 106.096 583.328 105.712 583.472L104.416 583.976C105.904 586.472 108.208 588.584 111.328 590.312C114.448 591.992 117.832 593.36 121.48 594.416V595.28C120.04 595.76 118.864 596.672 117.952 598.016C117.088 599.36 116.56 600.896 116.368 602.624C113.344 600.656 110.704 598.136 108.448 595.064C106.24 591.992 104.632 588.536 103.624 584.696ZM65.392 595.568H69.712V587.648H65.392V595.568ZM65.392 605.648H69.712V597.584H65.392V605.648ZM89.872 600.536C87.952 601.88 85.864 603.128 83.608 604.28C84.616 605.096 85.432 605.864 86.056 606.584C85.912 607.352 85.312 607.736 84.256 607.736H75.904V615.728H78.136L81.376 612.272L86.776 616.88C86.776 612.272 86.536 608.504 86.056 605.576L94.12 608.96H97.864V602.624H95.488C94.144 602.672 92.8 603.008 91.456 603.632L89.872 600.536ZM65.392 615.728H69.712V607.736H65.392V615.728ZM97.864 611.048H93.472V622.136H97.792C97.84 621.32 97.864 620.096 97.864 618.464V611.048ZM104.992 618.392C104.992 620.072 104.944 621.32 104.848 622.136H110.32V611.048H104.992V618.392ZM71.656 634.16C71.032 634.16 70.408 633.848 69.784 633.224C69.736 631.64 69.376 629.84 68.704 627.824C68.08 625.808 67.336 623.984 66.472 622.352L67.408 621.92C69.664 623.408 71.296 624.968 72.304 626.6C73.312 628.184 73.816 629.672 73.816 631.064C73.816 631.976 73.6 632.72 73.168 633.296C72.784 633.872 72.28 634.16 71.656 634.16ZM67.84 632.864C67.84 634.208 67.552 635.312 66.976 636.176C66.448 636.992 65.8 637.4 65.032 637.4C64.36 637.4 63.712 637.016 63.088 636.248C63.28 635.144 63.376 633.824 63.376 632.288C63.376 629.216 63.04 626.288 62.368 623.504L63.376 623.288C64.912 624.92 66.04 626.576 66.76 628.256C67.48 629.888 67.84 631.424 67.84 632.864ZM59.632 624.008C60.736 627.464 61.288 630.56 61.288 633.296C61.288 635.696 60.88 637.496 60.064 638.696C59.248 639.848 58.312 640.424 57.256 640.424C56.584 640.424 56.008 640.184 55.528 639.704C55.096 639.224 54.88 638.6 54.88 637.832C54.88 637.016 55.192 636.08 55.816 635.024C56.68 633.92 57.352 632.408 57.832 630.488C58.312 628.52 58.576 626.36 58.624 624.008H59.632ZM96.9132 689.352C93.4039 690.509 90.9959 691.349 89.6892 691.872C89.6892 692.544 89.7639 693.44 89.9132 694.56C90.0252 695.381 90.0812 696.371 90.0812 697.528C90.0812 698.387 89.7825 699.208 89.1852 699.992C88.5879 700.776 87.8972 701.168 87.1132 701.168C86.3292 701.168 85.6385 700.869 85.0412 700.272C84.4812 699.637 84.2012 698.891 84.2012 698.032C84.2012 697.547 84.3132 696.259 84.5372 694.168C80.3932 696.333 78.3212 698.555 78.3212 700.832C78.3212 703.259 80.6359 704.472 85.2652 704.472C86.7212 704.472 87.9532 704.397 88.9612 704.248C89.9692 704.061 91.1079 703.8 92.3772 703.464C93.8705 703.053 95.0839 702.848 96.0172 702.848C97.0252 702.848 97.8279 703.072 98.4252 703.52C99.0599 703.968 99.3772 704.603 99.3772 705.424C99.3772 706.992 98.2385 708.112 95.9612 708.784C93.7212 709.493 91.2012 709.848 88.4012 709.848C84.6305 709.848 81.6252 709.232 79.3852 708C77.1452 706.768 76.0252 704.864 76.0252 702.288C76.0252 700.347 76.7905 698.536 78.3212 696.856C79.8892 695.176 82.0172 693.515 84.7052 691.872C84.7425 691.499 84.7612 690.92 84.7612 690.136C84.7612 688.605 84.4999 687.187 83.9772 685.88C83.4545 684.536 82.8385 683.864 82.1292 683.864C81.0839 683.864 80.1319 684.461 79.2732 685.656C78.4145 686.813 77.4625 688.4 76.4172 690.416C76.0439 691.237 75.6892 691.909 75.3532 692.432C74.4945 693.739 73.8039 694.691 73.2812 695.288C72.7585 695.848 72.1425 696.128 71.4332 696.128C70.6119 696.128 69.9212 695.755 69.3612 695.008C68.8385 694.224 68.5772 693.328 68.5772 692.32C68.5772 691.387 68.8012 690.584 69.2492 689.912C69.6972 689.24 70.4625 688.419 71.5452 687.448C73.5239 685.693 75.0172 684.163 76.0252 682.856C77.8172 680.579 79.1985 678.021 80.1692 675.184C78.6012 675.371 77.2199 675.464 76.0252 675.464C74.6065 675.464 73.3559 675.109 72.2732 674.4C71.2279 673.653 70.1079 672.571 68.9132 671.152C68.7639 671.003 68.6892 670.853 68.6892 670.704C68.6892 670.592 68.7639 670.536 68.9132 670.536C69.0999 670.536 69.3612 670.592 69.6972 670.704C71.2279 671.339 72.7585 671.656 74.2892 671.656C75.1479 671.656 76.2119 671.581 77.4812 671.432C78.7505 671.245 80.0199 670.965 81.2892 670.592C81.4385 669.808 81.5132 668.931 81.5132 667.96C81.5132 666.317 80.8599 665.141 79.5532 664.432C79.4785 664.395 79.3479 664.339 79.1612 664.264C79.0119 664.152 78.8999 664.059 78.8252 663.984C78.7505 663.872 78.7132 663.741 78.7132 663.592C78.7505 663.181 78.8999 662.827 79.1612 662.528C79.4225 662.192 79.7959 662.024 80.2812 662.024C81.1772 662.024 82.1105 662.136 83.0812 662.36C84.0519 662.584 84.7799 662.901 85.2652 663.312C85.6759 663.685 85.8812 664.245 85.8812 664.992C85.8812 665.179 85.8439 665.533 85.7692 666.056C86.5532 666.429 87.3559 666.616 88.1772 666.616C88.6625 666.616 89.1292 666.56 89.5772 666.448C90.1745 666.373 90.6225 666.336 90.9212 666.336C91.3319 666.336 91.6679 666.448 91.9292 666.672C92.2279 666.896 92.3772 667.213 92.3772 667.624C92.3772 668.483 92.0412 669.341 91.3692 670.2C90.6972 671.059 89.7079 671.861 88.4012 672.608C86.8705 673.467 85.1719 674.12 83.3052 674.568C82.4465 677.107 81.2519 679.813 79.7212 682.688C80.5425 682.277 81.3639 682.072 82.1852 682.072C85.5452 682.072 87.6919 683.715 88.6252 687C89.5959 684.387 90.9585 682.109 92.7132 680.168C93.8332 678.936 95.1772 677.816 96.7452 676.808C98.3505 675.763 100.049 675.24 101.841 675.24C103.521 675.24 104.884 675.744 105.929 676.752C107.012 677.723 107.553 679.011 107.553 680.616C107.553 682.557 106.657 684.2 104.865 685.544C103.073 686.888 100.927 687.989 98.4252 688.848L96.9132 689.352ZM84.9852 669.192C85.5825 668.893 86.0305 668.651 86.3292 668.464C86.5905 668.315 86.7212 668.165 86.7212 668.016C86.7212 667.904 86.5719 667.736 86.2732 667.512C86.1985 667.437 85.9745 667.288 85.6012 667.064L84.9852 669.192ZM93.6092 681.064C91.6305 683.379 90.3985 686.029 89.9132 689.016L90.6412 688.624L92.8812 687.448C94.9719 686.403 96.4652 685.619 97.3612 685.096C98.8545 684.275 99.9932 683.36 100.777 682.352C101.561 681.344 101.953 680.411 101.953 679.552C101.953 678.917 101.748 678.413 101.337 678.04C100.964 677.667 100.423 677.48 99.7132 677.48C98.7799 677.48 97.7719 677.779 96.6892 678.376C95.6439 678.973 94.6172 679.869 93.6092 681.064Z" fill="#3A3A3A"/>
</svg>
