<svg width="114" height="387" viewBox="0 0 114 387" fill="none" xmlns="http://www.w3.org/2000/svg">
<path d="M88.864 11.464C88.896 11.416 88.936 11.36 88.984 11.296C89.048 11.216 89.104 11.136 89.152 11.056C89.2 10.992 89.296 10.864 89.44 10.672C89.6 10.48 89.72 10.384 89.8 10.384C89.896 10.384 90.176 10.568 90.64 10.936C91.12 11.304 91.568 11.688 91.984 12.088C92.416 12.472 92.632 12.72 92.632 12.832C92.568 13.072 92.352 13.192 91.984 13.192H79.744C78.992 14.712 78.144 16.104 77.2 17.368L77.944 17.584C77.88 17.824 77.608 17.976 77.128 18.04V29.296C77.112 29.376 77.008 29.48 76.816 29.608C76.64 29.736 76.376 29.848 76.024 29.944C75.688 30.04 75.28 30.088 74.8 30.088L74.416 30.112V20.464C73.408 21.36 72.376 22.12 71.32 22.744L71.08 22.528C72.344 21.328 73.456 19.944 74.416 18.376V16.6L75.304 16.84C75.912 15.736 76.464 14.52 76.96 13.192H75.184C74.144 13.208 73.072 13.32 71.968 13.528L71.344 12.328C72.224 12.424 73.288 12.488 74.536 12.52H77.2L77.32 12.16C77.576 11.424 77.792 10.608 77.968 9.712C78.144 8.816 78.248 8.032 78.28 7.36C80.792 8.032 82.048 8.48 82.048 8.704C82.048 8.768 81.984 8.824 81.856 8.872L81.424 9.04C81.104 10.032 80.648 11.192 80.056 12.52H88.096L88.864 11.464ZM88.336 19.096C88.432 18.984 88.528 18.856 88.624 18.712C88.736 18.568 88.84 18.44 88.936 18.328C89.032 18.216 89.112 18.16 89.176 18.16C89.272 18.16 89.528 18.32 89.944 18.64C90.376 18.96 90.776 19.296 91.144 19.648C91.512 19.984 91.696 20.208 91.696 20.32C91.632 20.576 91.416 20.704 91.048 20.704H86.008V28.672H88.6L89.296 27.664C89.392 27.536 89.504 27.376 89.632 27.184C89.776 26.992 89.888 26.856 89.968 26.776C90.048 26.68 90.12 26.632 90.184 26.632C90.28 26.632 90.552 26.808 91 27.16C91.464 27.496 91.896 27.848 92.296 28.216C92.696 28.6 92.896 28.848 92.896 28.96C92.848 29.216 92.632 29.344 92.248 29.344H81.88C80.744 29.36 79.544 29.472 78.28 29.68L77.656 28.48C78.536 28.576 79.6 28.64 80.848 28.672H83.296V20.704H81.808C80.944 20.72 80.032 20.832 79.072 21.04L78.448 19.84C79.328 19.936 80.392 20 81.64 20.032H83.296V19.192C83.296 17.176 83.192 15.536 82.984 14.272C84.328 14.56 85.256 14.792 85.768 14.968C86.28 15.144 86.536 15.288 86.536 15.4C86.536 15.448 86.48 15.512 86.368 15.592L86.008 15.832V20.032H87.664L88.336 19.096ZM88.696 37.56C88.776 37.48 88.88 37.376 89.008 37.248C89.136 37.104 89.24 37 89.32 36.936C89.4 36.872 89.472 36.84 89.536 36.84C89.632 36.84 89.872 37 90.256 37.32C90.656 37.624 91.024 37.952 91.36 38.304C91.712 38.64 91.888 38.864 91.888 38.976C91.712 39.2 91.392 39.344 90.928 39.408C90.768 42.064 90.512 44.08 90.16 45.456C89.824 46.832 89.336 47.76 88.696 48.24C87.96 48.832 86.976 49.128 85.744 49.128C85.744 48.648 85.72 48.264 85.672 47.976C85.624 47.688 85.52 47.456 85.36 47.28C85.136 46.96 84.68 46.68 83.992 46.44C83.928 46.456 83.832 46.464 83.704 46.464C83.48 46.464 83.232 46.416 82.96 46.32C82.4 45.728 81.712 45.136 80.896 44.544C79.968 45.76 78.76 46.784 77.272 47.616C75.784 48.432 73.976 49.072 71.848 49.536L71.728 49.248C73.52 48.512 74.992 47.648 76.144 46.656C77.312 45.664 78.216 44.512 78.856 43.2C77.48 42.352 76.04 41.632 74.536 41.04L74.608 40.752C76.48 40.816 78.136 41.008 79.576 41.328C79.816 40.576 79.984 39.784 80.08 38.952H76.84C75.704 38.968 74.504 39.08 73.24 39.288L72.592 38.064C73.472 38.16 74.536 38.224 75.784 38.256H88.048L88.696 37.56ZM83.2 38.952C82.976 40.216 82.664 41.304 82.264 42.216C83.192 42.648 83.872 43.128 84.304 43.656C84.752 44.168 84.976 44.672 84.976 45.168C84.976 45.52 84.856 45.832 84.616 46.104C85.176 46.152 85.648 46.176 86.032 46.176C86.224 46.176 86.376 46.16 86.488 46.128C86.6 46.08 86.72 46.016 86.848 45.936C87.168 45.648 87.448 44.912 87.688 43.728C87.944 42.528 88.136 40.936 88.264 38.952H83.2ZM79.6 48.264C80.832 48.376 81.848 48.616 82.648 48.984C83.448 49.352 84.024 49.784 84.376 50.28C84.744 50.76 84.928 51.24 84.928 51.72C84.928 52.152 84.8 52.512 84.544 52.8C84.304 53.072 83.992 53.208 83.608 53.208C83.304 53.208 83 53.12 82.696 52.944C82.424 52.192 81.976 51.408 81.352 50.592C80.728 49.76 80.08 49.04 79.408 48.432L79.6 48.264ZM77.08 53.328C77.08 52.08 77.016 51.08 76.888 50.328C79.144 50.808 80.272 51.16 80.272 51.384C80.272 51.464 80.224 51.528 80.128 51.576L79.768 51.816V55.608C79.768 55.784 79.824 55.904 79.936 55.968C80.048 56.016 80.296 56.04 80.68 56.04H83.248C84.384 56.04 85.064 56.032 85.288 56.016C85.48 56 85.616 55.976 85.696 55.944C85.792 55.896 85.88 55.808 85.96 55.68C86.088 55.504 86.248 55.168 86.44 54.672C86.632 54.16 86.84 53.584 87.064 52.944H87.304L87.376 55.776C87.744 55.92 87.992 56.08 88.12 56.256C88.264 56.416 88.336 56.632 88.336 56.904C88.336 57.32 88.184 57.64 87.88 57.864C87.576 58.104 87.032 58.272 86.248 58.368C85.48 58.48 84.376 58.536 82.936 58.536H80.176C79.312 58.536 78.664 58.472 78.232 58.344C77.8 58.216 77.496 57.984 77.32 57.648C77.16 57.328 77.08 56.848 77.08 56.208V53.328ZM87.352 50.424C88.632 50.776 89.68 51.232 90.496 51.792C91.312 52.336 91.896 52.912 92.248 53.52C92.616 54.128 92.8 54.72 92.8 55.296C92.8 55.824 92.664 56.264 92.392 56.616C92.12 56.968 91.776 57.144 91.36 57.144C90.96 57.144 90.552 56.968 90.136 56.616C90.072 55.576 89.752 54.504 89.176 53.4C88.616 52.296 87.936 51.36 87.136 50.592L87.352 50.424ZM74.752 50.736C75.152 51.76 75.352 52.744 75.352 53.688C75.352 54.472 75.216 55.152 74.944 55.728C74.672 56.288 74.32 56.712 73.888 57C73.584 57.224 73.256 57.336 72.904 57.336C72.52 57.336 72.184 57.208 71.896 56.952C71.624 56.696 71.488 56.36 71.488 55.944C71.488 55.352 71.824 54.864 72.496 54.48C73.024 54.192 73.488 53.704 73.888 53.016C74.288 52.312 74.472 51.552 74.44 50.736H74.752ZM84.4 67.568C85.2 68.224 85.896 68.808 86.488 69.32C87.336 68.344 88.112 67.304 88.816 66.2L91.768 68.432C91.64 68.592 91.464 68.672 91.24 68.672C91.176 68.672 91.016 68.64 90.76 68.576C89.24 70.448 87.456 72.216 85.408 73.88H88.624L89.296 72.92C89.376 72.824 89.48 72.68 89.608 72.488C89.736 72.296 89.84 72.16 89.92 72.08C90.016 71.984 90.096 71.936 90.16 71.936C90.256 71.936 90.512 72.104 90.928 72.44C91.36 72.76 91.76 73.104 92.128 73.472C92.512 73.824 92.704 74.056 92.704 74.168C92.656 74.424 92.448 74.552 92.08 74.552H84.568C83.128 75.64 81.688 76.608 80.248 77.456H86.104L86.68 76.76C86.728 76.696 86.808 76.6 86.92 76.472C87.048 76.328 87.152 76.224 87.232 76.16C87.312 76.08 87.384 76.04 87.448 76.04C87.544 76.04 87.8 76.192 88.216 76.496C88.648 76.8 89.048 77.12 89.416 77.456C89.8 77.776 89.992 77.992 89.992 78.104C89.768 78.36 89.456 78.528 89.056 78.608V81.536C89.088 83.52 89.152 85.4 89.248 87.176C89.136 87.336 88.8 87.512 88.24 87.704C87.696 87.912 87.208 88.016 86.776 88.016C86.408 88.016 86.224 87.856 86.224 87.536C86.224 87.536 86.256 87.312 86.32 86.864V86.288H79.12V87.224C79.12 87.32 79.008 87.44 78.784 87.584C78.56 87.744 78.272 87.872 77.92 87.968C77.568 88.08 77.216 88.136 76.864 88.136C76.672 88.136 76.52 88.088 76.408 87.992C76.296 87.896 76.24 87.784 76.24 87.656C76.352 86.072 76.424 84.304 76.456 82.352V79.448C74.68 80.28 72.904 80.96 71.128 81.488L70.96 81.152C72.784 80.32 74.616 79.312 76.456 78.128V77.216C76.456 76.752 76.44 76.408 76.408 76.184L78.136 77C79.336 76.12 80.376 75.304 81.256 74.552H75.424C74.288 74.568 73.088 74.68 71.824 74.888L71.2 73.688C72.08 73.784 73.144 73.848 74.392 73.88H79.096V70.136H77.248C76.16 70.152 75.04 70.264 73.888 70.472L73.288 69.272C74.168 69.368 75.232 69.432 76.48 69.464H79.096C79.096 67.816 79.016 66.48 78.856 65.456C80.168 65.744 81.072 65.976 81.568 66.152C82.08 66.312 82.336 66.448 82.336 66.56C82.336 66.608 82.28 66.672 82.168 66.752L81.784 66.992V69.464H82.984L84.4 67.568ZM81.784 70.136V73.88H82.024C83.272 72.776 84.528 71.528 85.792 70.136H81.784ZM86.32 81.416V78.152H79.12V81.416H86.32ZM79.12 82.112V85.592H86.32V82.112H79.12ZM75.688 110.896C74.68 113.056 73.96 114.528 73.528 115.312C73.608 115.456 73.648 115.608 73.648 115.768C73.648 115.96 73.584 116.136 73.456 116.296L71.416 113.968C71.944 113.552 72.584 113 73.336 112.312C74.104 111.608 74.752 110.984 75.28 110.44L75.568 108.544L76.936 108.928L75.832 110.56C76.056 110.928 76.304 111.272 76.576 111.592C78.64 110.248 80.584 108.624 82.408 106.72C84.248 104.8 85.688 102.88 86.728 100.96H76.84C75.704 100.976 74.504 101.088 73.24 101.296L72.592 100.096C73.472 100.192 74.536 100.256 75.784 100.288H80.56V99.88C80.56 97.864 80.456 96.224 80.248 94.96C81.656 95.248 82.624 95.48 83.152 95.656C83.696 95.816 83.968 95.952 83.968 96.064C83.968 96.112 83.904 96.184 83.776 96.28L83.368 96.544V100.288H86.8L87.568 99.52C87.68 99.424 87.84 99.272 88.048 99.064C88.256 98.84 88.408 98.728 88.504 98.728C88.6 98.728 88.848 98.904 89.248 99.256C89.664 99.608 90.048 99.984 90.4 100.384C90.768 100.768 90.952 101.016 90.952 101.128C90.888 101.256 90.784 101.344 90.64 101.392C90.512 101.424 90.288 101.456 89.968 101.488C88.592 103.68 86.76 105.696 84.472 107.536C82.2 109.36 79.672 110.816 76.888 111.904C77.672 112.656 78.688 113.16 79.936 113.416C81.184 113.656 82.928 113.776 85.168 113.776C89.04 113.776 91.592 113.76 92.824 113.728V114.016C92.376 114.144 92.032 114.424 91.792 114.856C91.568 115.272 91.448 115.776 91.432 116.368H85.12C83.296 116.368 81.8 116.216 80.632 115.912C79.464 115.608 78.48 115.064 77.68 114.28C76.88 113.496 76.216 112.368 75.688 110.896ZM87.4 138.336C87.48 138.224 87.592 138.072 87.736 137.88C87.88 137.688 87.992 137.544 88.072 137.448C88.168 137.352 88.248 137.304 88.312 137.304C88.408 137.304 88.688 137.48 89.152 137.832C89.616 138.184 90.048 138.552 90.448 138.936C90.864 139.32 91.072 139.568 91.072 139.68C91.024 139.936 90.816 140.064 90.448 140.064H83.392V144.432H88.216L88.984 143.352C89.08 143.224 89.2 143.056 89.344 142.848C89.488 142.64 89.6 142.488 89.68 142.392C89.776 142.296 89.856 142.248 89.92 142.248C90.016 142.248 90.304 142.44 90.784 142.824C91.28 143.192 91.744 143.576 92.176 143.976C92.608 144.376 92.824 144.632 92.824 144.744C92.76 145 92.536 145.128 92.152 145.128H75.28C74.144 145.144 72.944 145.256 71.68 145.464L71.08 144.24C71.96 144.336 73.024 144.4 74.272 144.432H80.512V140.064H77.272C76.136 140.08 74.936 140.192 73.672 140.4L73.072 139.176C73.952 139.272 75.016 139.336 76.264 139.368H80.512V135.6H76.624V136.56C76.624 136.656 76.504 136.784 76.264 136.944C76.024 137.104 75.72 137.24 75.352 137.352C74.984 137.464 74.616 137.52 74.248 137.52C74.056 137.52 73.904 137.472 73.792 137.376C73.68 137.28 73.624 137.168 73.624 137.04C73.736 135.488 73.808 133.776 73.84 131.904V129.072C73.84 127.056 73.736 125.416 73.528 124.152L76.816 125.52H87.064L87.664 124.776C87.744 124.696 87.84 124.584 87.952 124.44C88.08 124.296 88.176 124.192 88.24 124.128C88.32 124.048 88.392 124.008 88.456 124.008C88.552 124.008 88.808 124.168 89.224 124.488C89.656 124.808 90.056 125.144 90.424 125.496C90.808 125.832 91 126.056 91 126.168C90.84 126.424 90.544 126.592 90.112 126.672V130.344C90.144 132.328 90.208 134.208 90.304 135.984C90.192 136.144 89.848 136.328 89.272 136.536C88.696 136.744 88.192 136.848 87.76 136.848C87.408 136.848 87.232 136.688 87.232 136.368C87.248 136.32 87.256 136.272 87.256 136.224C87.272 136.16 87.288 136.096 87.304 136.032V135.6H83.392V139.368H86.68L87.4 138.336ZM80.512 130.176V126.192H76.624V130.176H80.512ZM87.304 130.176V126.192H83.392V130.176H87.304ZM76.624 130.872V134.952H80.512V130.872H76.624ZM83.392 130.872V134.952H87.304V130.872H83.392Z" fill="#3A3A3A"/>
<path d="M63.36 170.52H75.12V174.92H63.36V170.52ZM68.08 163.04H72.24V200.6H68.08V163.04ZM68 173.8L70.6 174.8C69.64 181.28 67.52 189.24 64.92 193.4C64.52 192 63.44 189.8 62.72 188.52C65.08 185.12 67.16 178.8 68 173.8ZM72 174.84C72.92 175.92 76.12 180.76 76.8 181.92L74.04 185.2C73.2 182.88 71 178.44 69.92 176.52L72 174.84ZM78.12 193.6L81.36 190.84C87.16 192.32 95.52 195.08 100.08 197.2L96.52 200.32C92.48 198.28 84.2 195.28 78.12 193.6ZM75.16 185.88H100.76V189.52H75.16V185.88ZM91.96 187.88H96.92C95.04 194.88 90.88 198.76 75.84 200.56C75.56 199.44 74.68 197.76 73.96 196.84C87.6 195.52 90.52 192.72 91.96 187.88ZM78.12 193.6C80.12 190.76 82.56 186.4 83.88 182.8L88.24 183.68C86.92 187.16 84.64 191.2 83.04 193.6H78.12ZM75.88 164.24H87.24V177.88H84.12V167.52H78.88V177.88H75.88V164.24ZM80.12 168.72H83.12C83 177.64 82.28 181.96 76.96 184.6C76.6 183.8 75.72 182.52 75 181.92C79.64 179.8 80.04 176.6 80.12 168.72ZM80.92 179.24L83.08 177.48C84.52 178.52 86.56 180.12 87.6 181.08L85.4 183.12C84.4 182.08 82.44 180.44 80.92 179.24ZM92.4 168.6H95.36C95.32 177.84 94.64 182 88.92 184.64C88.64 183.84 87.72 182.64 87 182C91.96 179.92 92.36 176.84 92.4 168.6ZM93.2 179.8L95.6 178.2C97.24 179.64 99.36 181.68 100.36 183L97.8 184.8C96.84 183.48 94.8 181.32 93.2 179.8ZM88.12 164.28H99.52V177.92H96.4V167.56H91.12V177.92H88.12V164.28ZM89.8 212.48C89.9067 212.373 90.0667 212.187 90.28 211.92C90.4933 211.653 90.6667 211.453 90.8 211.32C90.9333 211.187 91.0533 211.12 91.16 211.12C91.32 211.12 91.76 211.413 92.48 212C93.2 212.56 93.8667 213.16 94.48 213.8C95.12 214.413 95.44 214.813 95.44 215C95.12 215.347 94.5467 215.613 93.72 215.8C93.5333 218.547 93.44 221.187 93.44 223.72C93.44 228.12 93.72 231.933 94.28 235.16C94.8667 238.387 95.8133 240.387 97.12 241.16C97.3067 241.267 97.4533 241.32 97.56 241.32C97.7733 241.32 97.9333 241.147 98.04 240.8C98.4133 239.76 98.84 238.213 99.32 236.16L99.72 236.24L99.32 243.2C99.9067 244.4 100.2 245.453 100.2 246.36C100.2 246.947 100.067 247.36 99.8 247.6C99.2933 248.107 98.7333 248.36 98.12 248.36C97.1867 248.36 96.12 247.853 94.92 246.84C92.6533 245.187 91.12 242.173 90.32 237.8C89.52 233.427 89.12 227.96 89.12 221.4C89.12 219.933 89.1467 217.787 89.2 214.96H73.16V228.28C73.16 231.4 72.9733 234.107 72.6 236.4C72.2533 238.667 71.4267 240.88 70.12 243.04C68.84 245.173 66.88 247.04 64.24 248.64L63.88 248.32C65.24 246.613 66.2667 244.72 66.96 242.64C67.6533 240.56 68.1067 238.4 68.32 236.16C68.5333 233.92 68.64 231.307 68.64 228.32V219.88C68.64 216.52 68.4667 213.787 68.12 211.68L73.88 213.84H88.72L89.8 212.48ZM81.68 233.08C78.9333 237.347 75.7067 240.787 72 243.4L71.56 243C73.1067 241.24 74.5733 239.2 75.96 236.88C77.3733 234.56 78.6267 232.067 79.72 229.4C77.96 226.36 76.08 223.387 74.08 220.48L74.64 220.2C77.0133 221.933 79.1733 223.8 81.12 225.8L81.2 225.56C81.6267 224.28 81.9867 222.907 82.28 221.44C82.6 219.947 82.7867 218.64 82.84 217.52C86.5467 218.72 88.4 219.507 88.4 219.88C88.4 219.96 88.28 220.053 88.04 220.16L87.28 220.44C86.3733 223.453 85.2667 226.32 83.96 229.04C85.4 230.933 86.4533 232.72 87.12 234.4C87.8133 236.08 88.16 237.533 88.16 238.76C88.16 239.613 88 240.293 87.68 240.8C87.36 241.28 86.9333 241.52 86.4 241.52C85.84 241.52 85.2533 241.253 84.64 240.72C84.1333 238.613 83.1467 236.067 81.68 233.08ZM97.24 280.92C96.3867 280.467 95.5067 279.92 94.6 279.28V282.56C94.6533 285.2 94.7333 287.293 94.84 288.84C94.68 289.107 94.1733 289.4 93.32 289.72C92.4933 290.013 91.76 290.16 91.12 290.16C90.5867 290.16 90.32 289.893 90.32 289.36C90.3467 289.28 90.36 289.2 90.36 289.12C90.3867 289.013 90.4133 288.907 90.44 288.8V288.12H86.68V290.84C86.68 291.24 86.7867 291.52 87 291.68C87.2133 291.813 87.6533 291.88 88.32 291.88H92.08C93.4933 291.88 94.5467 291.853 95.24 291.8C95.72 291.8 96.0933 291.667 96.36 291.4C96.5467 291.16 96.7867 290.707 97.08 290.04C97.3733 289.373 97.64 288.64 97.88 287.84H98.32L98.48 291.44C99.0933 291.68 99.5067 291.947 99.72 292.24C99.96 292.507 100.08 292.853 100.08 293.28C100.08 293.947 99.84 294.467 99.36 294.84C98.88 295.24 98.0267 295.533 96.8 295.72C95.6 295.907 93.8933 296 91.68 296H87.48C86.1467 296 85.12 295.88 84.4 295.64C83.7067 295.427 83.2133 295.04 82.92 294.48C82.6533 293.92 82.52 293.093 82.52 292V288.12H78.84V288.88C78.8667 289.173 78.88 289.44 78.88 289.68C78.9067 289.893 78.9333 290.053 78.96 290.16C78.88 290.48 78.52 290.813 77.88 291.16C77.2667 291.48 76.5067 291.64 75.6 291.64C75.2533 291.64 74.9867 291.56 74.8 291.4C74.6133 291.24 74.52 291.053 74.52 290.84C74.7067 288.52 74.8267 285.933 74.88 283.08V278.8C73.7867 279.413 72.6 279.973 71.32 280.48C71.08 283.627 70.44 286.547 69.4 289.24C68.36 291.907 66.72 294.24 64.48 296.24L64.08 295.96C65.0133 293.96 65.7067 291.773 66.16 289.4C66.6133 287.027 66.8933 284.707 67 282.44C67.1067 280.173 67.16 277.48 67.16 274.36V268.12C67.16 265.48 67.0267 263.347 66.76 261.72L72.24 264H80.64C80.64 261.813 80.5333 260.08 80.32 258.8C82.4533 259.253 83.9333 259.627 84.76 259.92C85.5867 260.187 86 260.413 86 260.6C86 260.707 85.9067 260.827 85.72 260.96L85.04 261.4V264H93.36L94.48 262.32C94.5867 262.187 94.7467 261.96 94.96 261.64C95.2 261.293 95.3867 261.04 95.52 260.88C95.68 260.72 95.8133 260.64 95.92 260.64C96.08 260.64 96.4933 260.92 97.16 261.48C97.8533 262.04 98.4933 262.64 99.08 263.28C99.6933 263.893 100 264.293 100 264.48C99.8933 264.907 99.5467 265.12 98.96 265.12H82.04C84.92 266.16 86.36 266.853 86.36 267.2C86.36 267.333 86.2267 267.44 85.96 267.52L85.2 267.76C85.0667 268.053 84.6933 268.733 84.08 269.8H93.24L94.28 268.24C94.4133 268.053 94.5733 267.813 94.76 267.52C94.9733 267.227 95.1333 267.013 95.24 266.88C95.3733 266.72 95.4933 266.64 95.6 266.64C95.76 266.64 96.16 266.907 96.8 267.44C97.4667 267.973 98.0933 268.533 98.68 269.12C99.2667 269.707 99.56 270.093 99.56 270.28C99.48 270.707 99.1333 270.92 98.52 270.92H89.28C90.4 272.36 91.92 273.573 93.84 274.56C95.7867 275.547 97.8933 276.28 100.16 276.76L100.12 277.2C98.6533 277.653 97.6933 278.893 97.24 280.92ZM71.56 265.12V269.8H78.92C79.7733 268.04 80.4 266.48 80.8 265.12H71.56ZM71.44 279.4C74.16 277.187 76.4667 274.36 78.36 270.92H71.64L71.56 270.64V274.36C71.56 276.547 71.52 278.227 71.44 279.4ZM90.16 277L91.12 276C89.9733 274.587 89.04 272.893 88.32 270.92H83.36L82.28 272.4C84.28 272.88 85.6667 273.267 86.44 273.56C87.2133 273.827 87.6 274.053 87.6 274.24C87.6 274.32 87.5067 274.427 87.32 274.56L86.68 275V277H90.16ZM79.32 277H82.52C82.52 275.16 82.4267 273.64 82.24 272.44C81.0133 274.013 79.6667 275.373 78.2 276.52L79.32 277ZM78.84 281.88H82.52V278.12H78.84V281.88ZM86.68 281.88H90.44V278.12H86.68V281.88ZM78.84 287H82.52V283.04H78.84V287ZM86.68 287H90.44V283.04H86.68V287Z" fill="#3A3A3A"/>
<path d="M43.412 13.888C43.532 13.72 43.688 13.492 43.88 13.204C44.072 12.916 44.228 12.712 44.348 12.592C44.468 12.448 44.576 12.376 44.672 12.376C44.816 12.376 45.188 12.628 45.788 13.132C46.412 13.636 46.988 14.176 47.516 14.752C48.068 15.304 48.344 15.664 48.344 15.832C48.272 16.216 47.948 16.408 47.372 16.408H38.624C39.56 19.096 40.928 21.436 42.728 23.428C44.552 25.42 46.58 26.956 48.812 28.036L48.74 28.504C47.444 29.584 46.616 31.156 46.256 33.22C44.288 31.516 42.584 29.176 41.144 26.2C39.704 23.224 38.612 19.96 37.868 16.408H37.796V31.6H38.696L39.56 30.16C39.656 30.016 39.788 29.812 39.956 29.548C40.124 29.26 40.268 29.044 40.388 28.9C40.508 28.756 40.616 28.684 40.712 28.684C40.856 28.684 41.192 28.936 41.72 29.44C42.272 29.92 42.788 30.436 43.268 30.988C43.748 31.54 43.988 31.9 43.988 32.068C43.892 32.428 43.568 32.608 43.016 32.608H37.796V34.66L37.832 35.884C37.856 36.844 37.904 37.72 37.976 38.512C37.88 38.848 37.46 39.196 36.716 39.556C35.972 39.94 35.24 40.132 34.52 40.132C33.872 40.132 33.548 39.892 33.548 39.412C33.644 38.284 33.716 36.856 33.764 35.128V32.608H32.108C31.172 32.632 30.212 32.8 29.228 33.112L28.292 31.312C29.324 31.456 30.572 31.552 32.036 31.6H33.764V23.212C31.436 27.004 28.256 30.256 24.224 32.968L24.008 32.716V34.804L24.044 36.1C24.068 37.084 24.116 37.984 24.188 38.8C24.068 39.088 23.636 39.388 22.892 39.7C22.172 40.036 21.44 40.204 20.696 40.204C20.336 40.204 20.048 40.132 19.832 39.988C19.64 39.844 19.544 39.676 19.544 39.484C19.64 38.068 19.724 36.7 19.796 35.38C19.868 34.036 19.916 32.284 19.94 30.124V21.448C18.596 23.176 17.216 24.64 15.8 25.84L15.368 25.552C16.256 24.04 17.132 22.264 17.996 20.224C18.884 18.184 19.7 16.048 20.444 13.816C20.828 12.688 21.176 11.368 21.488 9.856C21.824 8.32 22.016 7.06 22.064 6.076C24.2 6.748 25.676 7.264 26.492 7.624C27.308 7.984 27.716 8.248 27.716 8.416C27.716 8.512 27.62 8.596 27.428 8.668L26.744 8.956C25.568 12.004 24.272 14.752 22.856 17.2C24.176 18.016 24.836 18.58 24.836 18.892C24.836 19.036 24.74 19.144 24.548 19.216L24.008 19.468V32.356C25.832 30.364 27.452 27.952 28.868 25.12C30.308 22.264 31.424 19.36 32.216 16.408H29.768C28.352 16.432 26.888 16.6 25.376 16.912L24.44 15.112C25.76 15.256 27.356 15.352 29.228 15.4H33.764V14.032C33.764 11.008 33.608 8.548 33.296 6.652C35.36 7.108 36.776 7.468 37.544 7.732C38.312 7.972 38.696 8.188 38.696 8.38C38.696 8.476 38.6 8.584 38.408 8.704L37.796 9.136V15.4H42.44L43.412 13.888ZM25.556 66.14H29.264C29.264 66.14 29.228 67.184 29.192 67.652C28.76 76.688 28.292 80.216 27.176 81.44C26.42 82.376 25.628 82.664 24.44 82.808C23.468 82.952 21.776 82.916 20.048 82.88C20.012 81.8 19.58 80.36 18.968 79.388C20.588 79.568 22.064 79.604 22.748 79.604C23.324 79.604 23.684 79.532 24.008 79.136C24.728 78.344 25.196 75.104 25.556 66.752V66.14ZM14.684 73.988C17.132 73.556 20.552 72.8 24.008 72.044L24.368 75.212C21.272 75.968 18.068 76.724 15.404 77.336L14.684 73.988ZM15.62 50.768H25.088V54.368H15.62V50.768ZM23.972 50.768H27.572C27.32 56.06 26.816 62.9 26.384 66.932H22.784C23.324 62.72 23.828 55.916 23.972 50.768ZM17.06 56.78L20.696 56.96C20.48 61.064 20.084 66.32 19.724 69.524H16.088C16.52 66.212 16.88 60.848 17.06 56.78ZM17.312 66.176H25.988V69.524H17.312V66.176ZM39.02 50.408C41.252 53.576 45.572 57.464 49.388 59.48C48.704 60.56 47.84 62.54 47.48 63.764C43.232 60.956 38.624 56.348 35.852 52.496L39.02 50.408ZM37.472 49.004L41.216 50.3C38.48 55.736 33.98 60.74 29.408 63.836C28.976 62.972 27.716 61.172 26.96 60.308C31.172 57.788 35.204 53.612 37.472 49.004ZM33.044 60.452H44.168V64.088H33.044V60.452ZM30.56 67.436L33.872 66.608C34.736 69.272 35.636 72.728 35.96 75.032L32.468 76.004C32.252 73.7 31.388 70.136 30.56 67.436ZM36.824 66.464L40.1 65.996C40.784 68.696 41.396 72.152 41.648 74.456L38.156 74.996C38.012 72.692 37.4 69.128 36.824 66.464ZM44.636 66.176L48.524 67.004C47.012 71.288 45.032 76.328 43.376 79.496L40.244 78.632C41.828 75.356 43.7 70.064 44.636 66.176ZM29.66 77.984H48.416V81.656H29.66V77.984ZM40.028 107.124C40.148 106.956 40.316 106.728 40.532 106.44C40.748 106.128 40.916 105.9 41.036 105.756C41.18 105.588 41.3 105.504 41.396 105.504C41.54 105.504 41.96 105.78 42.656 106.332C43.352 106.86 44.012 107.424 44.636 108.024C45.26 108.6 45.572 108.972 45.572 109.14C45.476 109.5 45.152 109.68 44.6 109.68H34.808V123.216H41.216L42.368 121.596C42.464 121.452 42.632 121.224 42.872 120.912C43.112 120.576 43.304 120.336 43.448 120.192C43.592 120.024 43.712 119.94 43.808 119.94C43.952 119.94 44.396 120.228 45.14 120.804C45.884 121.356 46.58 121.932 47.228 122.532C47.9 123.132 48.236 123.516 48.236 123.684C48.14 124.068 47.804 124.26 47.228 124.26H21.812C20.108 124.284 18.308 124.452 16.412 124.764L15.512 122.928C16.496 123.072 17.696 123.168 19.112 123.216H20.768V111.624C20.768 108.6 20.612 106.14 20.3 104.244C22.46 104.676 23.948 105.024 24.764 105.288C25.604 105.552 26.024 105.768 26.024 105.936C26.024 106.008 25.928 106.116 25.736 106.26L25.124 106.692V123.216H30.38V97.08H23.576C21.872 97.104 20.072 97.272 18.176 97.584L17.276 95.748C18.596 95.892 20.192 95.988 22.064 96.036H39.992L41.144 94.416C41.192 94.344 41.252 94.26 41.324 94.164C41.42 94.044 41.504 93.924 41.576 93.804C41.648 93.708 41.792 93.516 42.008 93.228C42.248 92.94 42.428 92.796 42.548 92.796C42.692 92.796 43.124 93.072 43.844 93.624C44.564 94.176 45.248 94.752 45.896 95.352C46.544 95.952 46.868 96.336 46.868 96.504C46.772 96.888 46.448 97.08 45.896 97.08H34.808V108.708H38.912L40.028 107.124ZM44.564 138.856C44.708 138.856 45.068 139.12 45.644 139.648C46.244 140.176 46.796 140.74 47.3 141.34C47.828 141.916 48.092 142.288 48.092 142.456C47.972 142.6 47.816 142.708 47.624 142.78C47.432 142.828 47.132 142.876 46.724 142.924C46.052 143.5 45.224 144.124 44.24 144.796C43.256 145.444 42.356 145.96 41.54 146.344C42.092 146.824 42.368 147.16 42.368 147.352C42.272 147.736 41.948 147.928 41.396 147.928H28.292C26.588 147.952 24.788 148.12 22.892 148.432L21.956 146.596C23.276 146.74 24.872 146.836 26.744 146.884H36.464L37.436 145.552C37.532 145.432 37.676 145.24 37.868 144.976C38.06 144.712 38.216 144.52 38.336 144.4C38.456 144.256 38.564 144.184 38.66 144.184C38.78 144.184 39.104 144.376 39.632 144.76C40.184 145.144 40.7 145.564 41.18 146.02C41.636 144.916 42.08 143.596 42.512 142.06H21.452C21.548 143.26 21.416 144.304 21.056 145.192C20.696 146.056 20.204 146.728 19.58 147.208C19.196 147.52 18.728 147.676 18.176 147.676C17.6 147.676 17.108 147.508 16.7 147.172C16.292 146.836 16.088 146.344 16.088 145.696C16.088 145.24 16.22 144.82 16.484 144.436C16.772 144.052 17.144 143.74 17.6 143.5C18.32 143.116 18.944 142.468 19.472 141.556C20 140.62 20.252 139.636 20.228 138.604H20.696C20.936 139.252 21.152 140.068 21.344 141.052H29.84C29.84 138.628 29.72 136.66 29.48 135.148C31.544 135.556 32.972 135.892 33.764 136.156C34.556 136.396 34.952 136.6 34.952 136.768C34.952 136.864 34.856 136.972 34.664 137.092L34.052 137.488V141.052H42.368L43.34 139.972C43.46 139.852 43.604 139.696 43.772 139.504C43.964 139.288 44.12 139.132 44.24 139.036C44.36 138.916 44.468 138.856 44.564 138.856ZM43.628 150.232C43.772 150.232 44.156 150.472 44.78 150.952C45.428 151.432 46.028 151.936 46.58 152.464C47.156 152.968 47.444 153.304 47.444 153.472C47.348 153.856 47.012 154.048 46.436 154.048H34.016V164.272C34.016 165.304 33.884 166.144 33.62 166.792C33.356 167.464 32.828 168.004 32.036 168.412C31.244 168.844 30.104 169.12 28.616 169.24C28.544 168.52 28.448 167.932 28.328 167.476C28.208 167.02 28.016 166.66 27.752 166.396C27.464 166.06 27.068 165.784 26.564 165.568C26.06 165.352 25.364 165.172 24.476 165.028V164.56C27.092 164.728 28.652 164.812 29.156 164.812C29.444 164.812 29.636 164.764 29.732 164.668C29.852 164.548 29.912 164.38 29.912 164.164V154.048H22.712C21.008 154.072 19.208 154.24 17.312 154.552L16.376 152.716C17.696 152.86 19.292 152.956 21.164 153.004H41.324L42.332 151.636C42.452 151.492 42.608 151.288 42.8 151.024C42.992 150.76 43.148 150.568 43.268 150.448C43.412 150.304 43.532 150.232 43.628 150.232ZM26.744 158.944C25.52 160.576 23.96 162.16 22.064 163.696C20.192 165.208 18.164 166.432 15.98 167.368L15.656 166.972C17.216 165.652 18.668 164.032 20.012 162.112C20.708 161.128 21.332 160.048 21.884 158.872C22.436 157.672 22.808 156.592 23 155.632L25.7 157.216C27.068 157.864 27.752 158.308 27.752 158.548C27.752 158.668 27.632 158.752 27.392 158.8L26.744 158.944ZM36.86 156.82C39.188 157.324 41.096 158.032 42.584 158.944C44.096 159.832 45.188 160.78 45.86 161.788C46.532 162.796 46.868 163.756 46.868 164.668C46.868 165.364 46.688 165.928 46.328 166.36C45.968 166.816 45.488 167.044 44.888 167.044C44.36 167.044 43.844 166.876 43.34 166.54C42.884 164.956 42.008 163.3 40.712 161.572C39.44 159.82 38.06 158.332 36.572 157.108L36.86 156.82ZM43.772 184.088C43.916 183.944 44.12 183.716 44.384 183.404C44.672 183.068 44.888 182.9 45.032 182.9C45.176 182.9 45.536 183.152 46.112 183.656C46.712 184.16 47.276 184.7 47.804 185.276C48.332 185.828 48.596 186.188 48.596 186.356C48.26 186.692 47.732 186.908 47.012 187.004C46.748 194.108 46.34 199.46 45.788 203.06C45.26 206.66 44.48 209 43.448 210.08C42.776 210.752 42.02 211.22 41.18 211.484C40.364 211.772 39.356 211.916 38.156 211.916C38.156 211.244 38.096 210.692 37.976 210.26C37.88 209.828 37.688 209.468 37.4 209.18C36.776 208.508 35.564 207.98 33.764 207.596V207.128C36.308 207.344 38 207.452 38.84 207.452C39.176 207.452 39.452 207.416 39.668 207.344C39.884 207.248 40.076 207.104 40.244 206.912C40.988 206.264 41.588 204.212 42.044 200.756C42.524 197.276 42.872 192.464 43.088 186.32H35.276C33.644 189.008 31.748 191.18 29.588 192.836L29.156 192.548C30.236 190.628 31.184 188.42 32 185.924C32.384 184.772 32.72 183.44 33.008 181.928C33.296 180.392 33.44 179.144 33.44 178.184C35.504 178.784 36.932 179.252 37.724 179.588C38.516 179.924 38.912 180.176 38.912 180.344C38.912 180.416 38.804 180.5 38.588 180.596L37.904 180.848C37.352 182.36 36.68 183.836 35.888 185.276H42.764L43.772 184.088ZM25.88 184.376C25.976 184.256 26.108 184.1 26.276 183.908C26.444 183.692 26.576 183.536 26.672 183.44C26.792 183.344 26.9 183.296 26.996 183.296C27.14 183.296 27.512 183.524 28.112 183.98C28.712 184.412 29.276 184.868 29.804 185.348C30.332 185.828 30.596 186.152 30.596 186.32C30.308 186.656 29.828 186.908 29.156 187.076V199.1C29.204 202.076 29.3 204.896 29.444 207.56C29.276 207.824 28.808 208.112 28.04 208.424C27.272 208.736 26.588 208.892 25.988 208.892C25.484 208.892 25.232 208.652 25.232 208.172C25.232 208.172 25.28 207.788 25.376 207.02V206.048H21.164V206.912C21.236 207.824 21.284 208.328 21.308 208.424C21.236 208.784 20.864 209.132 20.192 209.468C19.52 209.828 18.812 210.008 18.068 210.008C17.78 210.008 17.54 209.936 17.348 209.792C17.18 209.648 17.096 209.48 17.096 209.288C17.192 207.872 17.276 206.504 17.348 205.184C17.42 203.84 17.468 202.088 17.492 199.928V190.892C17.492 187.868 17.336 185.408 17.024 183.512L21.272 185.42H21.308C21.572 183.692 21.704 181.916 21.704 180.092C21.704 179.636 21.68 179.048 21.632 178.328C23.768 178.832 25.244 179.228 26.06 179.516C26.9 179.78 27.32 179.996 27.32 180.164C27.32 180.236 27.212 180.332 26.996 180.452L26.312 180.776C24.872 182.672 23.636 184.22 22.604 185.42H25.016L25.88 184.376ZM25.376 194.96V186.428H21.164V194.96H25.376ZM33.008 191.288C35.168 192.008 36.752 192.932 37.76 194.06C38.792 195.164 39.308 196.256 39.308 197.336C39.308 198.032 39.104 198.62 38.696 199.1C38.312 199.556 37.832 199.784 37.256 199.784C36.632 199.784 36.032 199.508 35.456 198.956C35.408 197.732 35.12 196.46 34.592 195.14C34.064 193.82 33.428 192.62 32.684 191.54L33.008 191.288ZM21.164 195.932V205.04H25.376V195.932H21.164ZM25.376 252.072C25.4 252.312 25.412 252.528 25.412 252.72C25.436 252.936 25.46 253.08 25.484 253.152C25.436 253.416 25.232 253.692 24.872 253.98C24.536 254.268 24.092 254.508 23.54 254.7C22.988 254.892 22.412 254.988 21.812 254.988C21.476 254.988 21.2 254.916 20.984 254.772C20.792 254.628 20.696 254.46 20.696 254.268C20.792 252.852 20.876 251.484 20.948 250.164C21.02 248.82 21.068 247.068 21.092 244.908V230.508C21.092 227.484 20.936 225.024 20.624 223.128L25.628 225.252H38.66L39.632 224.064C39.752 223.944 39.896 223.776 40.064 223.56C40.256 223.32 40.412 223.152 40.532 223.056C40.652 222.936 40.76 222.876 40.856 222.876C41 222.876 41.396 223.128 42.044 223.632C42.716 224.136 43.34 224.664 43.916 225.216C44.492 225.744 44.78 226.092 44.78 226.26C44.468 226.596 44.012 226.848 43.412 227.016V244.656C43.46 247.632 43.556 250.452 43.7 253.116C43.508 253.404 42.968 253.74 42.08 254.124C41.216 254.508 40.424 254.7 39.704 254.7C39.152 254.7 38.876 254.46 38.876 253.98C38.876 253.98 38.924 253.5 39.02 252.54V251.424H25.376V252.072ZM39.02 237.6V226.296H25.376V237.6H39.02ZM25.376 238.608V250.38H39.02V238.608H25.376ZM42.584 271.384C42.704 271.216 42.872 270.976 43.088 270.664C43.304 270.328 43.472 270.088 43.592 269.944C43.736 269.776 43.856 269.692 43.952 269.692C44.096 269.692 44.516 269.98 45.212 270.556C45.908 271.132 46.568 271.732 47.192 272.356C47.816 272.956 48.128 273.34 48.128 273.508C48.056 273.892 47.72 274.084 47.12 274.084H34.628C36.068 277.06 38.06 279.712 40.604 282.04C43.148 284.368 45.836 286.12 48.668 287.296L48.524 287.692C47.708 287.86 46.976 288.28 46.328 288.952C45.68 289.6 45.212 290.428 44.924 291.436C39.86 288.052 36.212 282.292 33.98 274.156V289.42H34.988L35.924 287.836C36.02 287.692 36.164 287.476 36.356 287.188C36.548 286.876 36.704 286.648 36.824 286.504C36.944 286.336 37.052 286.252 37.148 286.252C37.292 286.252 37.664 286.528 38.264 287.08C38.888 287.608 39.464 288.172 39.992 288.772C40.544 289.348 40.82 289.72 40.82 289.888C40.724 290.248 40.4 290.428 39.848 290.428H33.98V292.624L34.016 293.956C34.04 294.94 34.088 295.876 34.16 296.764C34.064 297.1 33.644 297.424 32.9 297.736C32.18 298.048 31.412 298.204 30.596 298.204C30.236 298.204 29.972 298.132 29.804 297.988C29.636 297.868 29.552 297.7 29.552 297.484C29.648 296.38 29.732 294.892 29.804 293.02V290.428H27.644C26.42 290.452 25.124 290.62 23.756 290.932L22.82 289.132C24.14 289.276 25.724 289.372 27.572 289.42H29.804V279.592C26.516 284.872 21.884 288.952 15.908 291.832L15.584 291.472C18.248 289.408 20.6 286.828 22.64 283.732C24.704 280.636 26.264 277.42 27.32 274.084H21.884C20.18 274.108 18.38 274.276 16.484 274.588L15.548 272.752C16.868 272.896 18.464 272.992 20.336 273.04H29.804V271.636C29.804 268.612 29.648 266.152 29.336 264.256C31.52 264.712 33.02 265.072 33.836 265.336C34.652 265.6 35.06 265.828 35.06 266.02C35.06 266.092 35 266.176 34.88 266.272C34.784 266.344 34.724 266.392 34.7 266.416L33.98 266.884V273.04H41.468L42.584 271.384ZM44.672 327.596C44.744 327.452 44.84 327.236 44.96 326.948C45.104 326.636 45.224 326.408 45.32 326.264C45.416 326.096 45.512 326.012 45.608 326.012C45.752 326.012 46.112 326.192 46.688 326.552C47.264 326.912 47.792 327.296 48.272 327.704C48.776 328.088 49.028 328.364 49.028 328.532C49.028 328.724 48.956 328.892 48.812 329.036C48.668 329.156 48.488 329.24 48.272 329.288L43.916 330.188V333.392C43.964 336.008 44.036 338.06 44.132 339.548C44.012 339.884 43.592 340.232 42.872 340.592C42.152 340.976 41.444 341.168 40.748 341.168C40.388 341.168 40.124 341.096 39.956 340.952C39.788 340.808 39.704 340.64 39.704 340.448C39.848 338.432 39.944 336.416 39.992 334.4V331.016L30.956 332.924L30.524 331.988L39.992 330.008V314.636C39.992 311.612 39.836 309.152 39.524 307.256C41.516 307.712 42.884 308.072 43.628 308.336C44.396 308.576 44.78 308.792 44.78 308.984C44.78 309.08 44.696 309.188 44.528 309.308L43.916 309.74V329.18L44.024 329.144L44.672 327.596ZM27.536 320.216C27.632 320.072 27.764 319.88 27.932 319.64C28.1 319.4 28.232 319.22 28.328 319.1C28.448 318.98 28.556 318.92 28.652 318.92C28.796 318.92 29.144 319.148 29.696 319.604C30.272 320.036 30.812 320.504 31.316 321.008C31.82 321.488 32.072 321.812 32.072 321.98C31.976 322.364 31.664 322.556 31.136 322.556H25.52V324.464C27.632 324.92 29.192 325.616 30.2 326.552C31.208 327.464 31.712 328.4 31.712 329.36C31.712 329.96 31.532 330.464 31.172 330.872C30.812 331.28 30.368 331.484 29.84 331.484C29.336 331.484 28.844 331.292 28.364 330.908C28.244 329.948 27.92 328.94 27.392 327.884C26.864 326.828 26.24 325.868 25.52 325.004V331.196C25.568 334.172 25.664 336.992 25.808 339.656C25.64 339.992 25.22 340.328 24.548 340.664C23.876 341.024 23.216 341.204 22.568 341.204C22.232 341.204 21.968 341.132 21.776 340.988C21.608 340.844 21.524 340.676 21.524 340.484C21.692 338.324 21.8 335.948 21.848 333.356V329.432C20.312 331.784 18.368 333.908 16.016 335.804L15.62 335.372C16.772 333.74 17.768 331.808 18.608 329.576C19.472 327.344 20.156 325.004 20.66 322.556H19.04C18.152 322.58 17.24 322.748 16.304 323.06L15.368 321.224C16.568 321.368 18.032 321.464 19.76 321.512H21.848V314.672C21.848 311.648 21.692 309.188 21.38 307.292C23.3 307.724 24.62 308.072 25.34 308.336C26.084 308.576 26.456 308.792 26.456 308.984C26.456 309.08 26.36 309.188 26.168 309.308L25.52 309.74V321.512H26.672L27.536 320.216ZM30.056 311.252C31.4 311.588 32.072 311.876 32.072 312.116C32.072 312.236 31.94 312.356 31.676 312.476L31.028 312.764C29.708 315.092 28.328 317.192 26.888 319.064L26.348 318.812C26.396 318.644 26.432 318.476 26.456 318.308C26.48 318.14 26.504 317.984 26.528 317.84C26.768 316.64 26.96 315.32 27.104 313.88C27.272 312.44 27.344 311.24 27.32 310.28L30.056 311.252ZM16.34 310.64C17.9 311.528 19.028 312.488 19.724 313.52C20.444 314.552 20.804 315.548 20.804 316.508C20.804 317.204 20.624 317.78 20.264 318.236C19.928 318.692 19.508 318.92 19.004 318.92C18.428 318.92 17.912 318.656 17.456 318.128C17.504 316.112 17.012 313.664 15.98 310.784L16.34 310.64ZM32.324 310.64C34.46 311.024 36.032 311.66 37.04 312.548C38.048 313.412 38.552 314.324 38.552 315.284C38.552 315.86 38.372 316.352 38.012 316.76C37.676 317.144 37.244 317.336 36.716 317.336C36.188 317.336 35.696 317.156 35.24 316.796C35.072 315.836 34.676 314.816 34.052 313.736C33.452 312.656 32.78 311.696 32.036 310.856L32.324 310.64ZM31.64 319.244C33.176 319.412 34.436 319.736 35.42 320.216C36.428 320.696 37.148 321.248 37.58 321.872C38.036 322.472 38.264 323.084 38.264 323.708C38.264 324.284 38.084 324.776 37.724 325.184C37.388 325.568 36.956 325.76 36.428 325.76C35.972 325.76 35.516 325.604 35.06 325.292C34.844 324.308 34.388 323.288 33.692 322.232C32.996 321.152 32.228 320.24 31.388 319.496L31.64 319.244ZM42.764 372.972C42.86 372.852 43.004 372.648 43.196 372.36C43.388 372.048 43.544 371.82 43.664 371.676C43.784 371.532 43.892 371.46 43.988 371.46C44.132 371.46 44.492 371.712 45.068 372.216C45.668 372.72 46.22 373.248 46.724 373.8C47.252 374.352 47.516 374.712 47.516 374.88C47.444 375.264 47.12 375.456 46.544 375.456H39.272V381.864H42.872L43.88 380.244C44.024 380.052 44.18 379.812 44.348 379.524C44.54 379.212 44.696 378.984 44.816 378.84C44.936 378.696 45.044 378.624 45.14 378.624C45.284 378.624 45.668 378.9 46.292 379.452C46.916 380.004 47.504 380.58 48.056 381.18C48.632 381.78 48.92 382.164 48.92 382.332C48.848 382.716 48.536 382.908 47.984 382.908H30.884C29.18 382.932 27.38 383.1 25.484 383.412L24.548 381.576C25.868 381.72 27.464 381.816 29.336 381.864H35.312V375.456H32.9C31.532 375.48 30.092 375.648 28.58 375.96L27.68 374.16C29 374.304 30.596 374.4 32.468 374.448H35.312V368.76H32.072V369.768C32.072 369.912 31.904 370.104 31.568 370.344C31.232 370.56 30.812 370.752 30.308 370.92C29.804 371.064 29.288 371.136 28.76 371.136C28.472 371.136 28.256 371.064 28.112 370.92C27.968 370.776 27.896 370.608 27.896 370.416C27.992 369.48 28.064 368.316 28.112 366.924V364.8C28.016 365.04 27.752 365.16 27.32 365.16H23.468V374.052L28.184 372.576L28.328 372.972C25.736 375.012 22.28 377.376 17.96 380.064C17.912 380.304 17.804 380.52 17.636 380.712C17.492 380.88 17.324 381 17.132 381.072L15.296 376.356C15.896 376.236 17.288 375.864 19.472 375.24V365.16H18.32C17.72 365.184 17.072 365.352 16.376 365.664L15.476 363.864C16.22 364.008 17.132 364.104 18.212 364.152H19.472V355.224H18.284C17.684 355.248 17.036 355.416 16.34 355.728L15.404 353.892C16.724 354.036 18.32 354.132 20.192 354.18H23.072L25.16 351.228C26.312 352.236 27.296 353.136 28.112 353.928C28.112 352.872 28.064 352.008 27.968 351.336L32.288 353.244H42.332L43.196 352.164C43.268 352.068 43.388 351.924 43.556 351.732C43.748 351.516 43.904 351.36 44.024 351.264C44.144 351.144 44.252 351.084 44.348 351.084C44.492 351.084 44.864 351.312 45.464 351.768C46.088 352.224 46.664 352.704 47.192 353.208C47.744 353.712 48.02 354.048 48.02 354.216C47.924 354.36 47.756 354.504 47.516 354.648C47.276 354.792 46.988 354.9 46.652 354.972V360.444C46.7 363.42 46.796 366.24 46.94 368.904C46.748 369.192 46.256 369.504 45.464 369.84C44.696 370.176 43.988 370.344 43.34 370.344H42.692V368.76H39.272V374.448H41.828L42.764 372.972ZM35.312 360.48V354.288H32.072V360.48H35.312ZM42.692 360.48V354.288H39.272V360.48H42.692ZM28.112 355.224H23.468V364.152H23.576L25.268 361.308C26.54 362.604 27.488 363.66 28.112 364.476V355.224ZM32.072 361.524V367.716H35.312V361.524H32.072ZM39.272 361.524V367.716H42.692V361.524H39.272Z" fill="#3A3A3A"/>
</svg>
