<svg width="284" height="750" viewBox="0 0 284 750" fill="none" xmlns="http://www.w3.org/2000/svg">
<rect x="284" width="750" height="284" transform="rotate(90 284 0)" fill="#E8E0DC" fill-opacity="0.8"/>
<path d="M158.72 361.04H182.24V369.84H158.72V361.04ZM168.16 346.08H176.48V421.2H168.16V346.08ZM168 367.6L173.2 369.6C171.28 382.56 167.04 398.48 161.84 406.8C161.04 404 158.88 399.6 157.44 397.04C162.16 390.24 166.32 377.6 168 367.6ZM176 369.68C177.84 371.84 184.24 381.52 185.6 383.84L180.08 390.4C178.4 385.76 174 376.88 171.84 373.04L176 369.68ZM188.24 407.2L194.72 401.68C206.32 404.64 223.04 410.16 232.16 414.4L225.04 420.64C216.96 416.56 200.4 410.56 188.24 407.2ZM182.32 391.76H233.52V399.04H182.32V391.76ZM215.92 395.76H225.84C222.08 409.76 213.76 417.52 183.68 421.12C183.12 418.88 181.36 415.52 179.92 413.68C207.2 411.04 213.04 405.44 215.92 395.76ZM188.24 407.2C192.24 401.52 197.12 392.8 199.76 385.6L208.48 387.36C205.84 394.32 201.28 402.4 198.08 407.2H188.24ZM183.76 348.48H206.48V375.76H200.24V355.04H189.76V375.76H183.76V348.48ZM192.24 357.44H198.24C198 375.28 196.56 383.92 185.92 389.2C185.2 387.6 183.44 385.04 182 383.84C191.28 379.6 192.08 373.2 192.24 357.44ZM193.84 378.48L198.16 374.96C201.04 377.04 205.12 380.24 207.2 382.16L202.8 386.24C200.8 384.16 196.88 380.88 193.84 378.48ZM216.8 357.2H222.72C222.64 375.68 221.28 384 209.84 389.28C209.28 387.68 207.44 385.28 206 384C215.92 379.84 216.72 373.68 216.8 357.2ZM218.4 379.6L223.2 376.4C226.48 379.28 230.72 383.36 232.72 386L227.6 389.6C225.68 386.96 221.6 382.64 218.4 379.6ZM208.24 348.56H231.04V375.84H224.8V355.12H214.24V375.84H208.24V348.56ZM211.6 444.96C211.813 444.747 212.133 444.373 212.56 443.84C212.987 443.307 213.333 442.907 213.6 442.64C213.867 442.373 214.107 442.24 214.32 442.24C214.64 442.24 215.52 442.827 216.96 444C218.4 445.12 219.733 446.32 220.96 447.6C222.24 448.827 222.88 449.627 222.88 450C222.24 450.693 221.093 451.227 219.44 451.6C219.067 457.093 218.88 462.373 218.88 467.44C218.88 476.24 219.44 483.867 220.56 490.32C221.733 496.773 223.627 500.773 226.24 502.32C226.613 502.533 226.907 502.64 227.12 502.64C227.547 502.64 227.867 502.293 228.08 501.6C228.827 499.52 229.68 496.427 230.64 492.32L231.44 492.48L230.64 506.4C231.813 508.8 232.4 510.907 232.4 512.72C232.4 513.893 232.133 514.72 231.6 515.2C230.587 516.213 229.467 516.72 228.24 516.72C226.373 516.72 224.24 515.707 221.84 513.68C217.307 510.373 214.24 504.347 212.64 495.6C211.04 486.853 210.24 475.92 210.24 462.8C210.24 459.867 210.293 455.573 210.4 449.92H178.32V476.56C178.32 482.8 177.947 488.213 177.2 492.8C176.507 497.333 174.853 501.76 172.24 506.08C169.68 510.347 165.76 514.08 160.48 517.28L159.76 516.64C162.48 513.227 164.533 509.44 165.92 505.28C167.307 501.12 168.213 496.8 168.64 492.32C169.067 487.84 169.28 482.613 169.28 476.64V459.76C169.28 453.04 168.933 447.573 168.24 443.36L179.76 447.68H209.44L211.6 444.96ZM195.36 486.16C189.867 494.693 183.413 501.573 176 506.8L175.12 506C178.213 502.48 181.147 498.4 183.92 493.76C186.747 489.12 189.253 484.133 191.44 478.8C187.92 472.72 184.16 466.773 180.16 460.96L181.28 460.4C186.027 463.867 190.347 467.6 194.24 471.6L194.4 471.12C195.253 468.56 195.973 465.813 196.56 462.88C197.2 459.893 197.573 457.28 197.68 455.04C205.093 457.44 208.8 459.013 208.8 459.76C208.8 459.92 208.56 460.107 208.08 460.32L206.56 460.88C204.747 466.907 202.533 472.64 199.92 478.08C202.8 481.867 204.907 485.44 206.24 488.8C207.627 492.16 208.32 495.067 208.32 497.52C208.32 499.227 208 500.587 207.36 501.6C206.72 502.56 205.867 503.04 204.8 503.04C203.68 503.04 202.507 502.507 201.28 501.44C200.267 497.227 198.293 492.133 195.36 486.16ZM226.48 581.84C224.773 580.933 223.013 579.84 221.2 578.56V585.12C221.307 590.4 221.467 594.587 221.68 597.68C221.36 598.213 220.347 598.8 218.64 599.44C216.987 600.027 215.52 600.32 214.24 600.32C213.173 600.32 212.64 599.787 212.64 598.72C212.693 598.56 212.72 598.4 212.72 598.24C212.773 598.027 212.827 597.813 212.88 597.6V596.24H205.36V601.68C205.36 602.48 205.573 603.04 206 603.36C206.427 603.627 207.307 603.76 208.64 603.76H216.16C218.987 603.76 221.093 603.707 222.48 603.6C223.44 603.6 224.187 603.333 224.72 602.8C225.093 602.32 225.573 601.413 226.16 600.08C226.747 598.747 227.28 597.28 227.76 595.68H228.64L228.96 602.88C230.187 603.36 231.013 603.893 231.44 604.48C231.92 605.013 232.16 605.707 232.16 606.56C232.16 607.893 231.68 608.933 230.72 609.68C229.76 610.48 228.053 611.067 225.6 611.44C223.2 611.813 219.787 612 215.36 612H206.96C204.293 612 202.24 611.76 200.8 611.28C199.413 610.853 198.427 610.08 197.84 608.96C197.307 607.84 197.04 606.187 197.04 604V596.24H189.68V597.76C189.733 598.347 189.76 598.88 189.76 599.36C189.813 599.787 189.867 600.107 189.92 600.32C189.76 600.96 189.04 601.627 187.76 602.32C186.533 602.96 185.013 603.28 183.2 603.28C182.507 603.28 181.973 603.12 181.6 602.8C181.227 602.48 181.04 602.107 181.04 601.68C181.413 597.04 181.653 591.867 181.76 586.16V577.6C179.573 578.827 177.2 579.947 174.64 580.96C174.16 587.253 172.88 593.093 170.8 598.48C168.72 603.813 165.44 608.48 160.96 612.48L160.16 611.92C162.027 607.92 163.413 603.547 164.32 598.8C165.227 594.053 165.787 589.413 166 584.88C166.213 580.347 166.32 574.96 166.32 568.72V556.24C166.32 550.96 166.053 546.693 165.52 543.44L176.48 548H193.28C193.28 543.627 193.067 540.16 192.64 537.6C196.907 538.507 199.867 539.253 201.52 539.84C203.173 540.373 204 540.827 204 541.2C204 541.413 203.813 541.653 203.44 541.92L202.08 542.8V548H218.72L220.96 544.64C221.173 544.373 221.493 543.92 221.92 543.28C222.4 542.587 222.773 542.08 223.04 541.76C223.36 541.44 223.627 541.28 223.84 541.28C224.16 541.28 224.987 541.84 226.32 542.96C227.707 544.08 228.987 545.28 230.16 546.56C231.387 547.787 232 548.587 232 548.96C231.787 549.813 231.093 550.24 229.92 550.24H196.08C201.84 552.32 204.72 553.707 204.72 554.4C204.72 554.667 204.453 554.88 203.92 555.04L202.4 555.52C202.133 556.107 201.387 557.467 200.16 559.6H218.48L220.56 556.48C220.827 556.107 221.147 555.627 221.52 555.04C221.947 554.453 222.267 554.027 222.48 553.76C222.747 553.44 222.987 553.28 223.2 553.28C223.52 553.28 224.32 553.813 225.6 554.88C226.933 555.947 228.187 557.067 229.36 558.24C230.533 559.413 231.12 560.187 231.12 560.56C230.96 561.413 230.267 561.84 229.04 561.84H210.56C212.8 564.72 215.84 567.147 219.68 569.12C223.573 571.093 227.787 572.56 232.32 573.52L232.24 574.4C229.307 575.307 227.387 577.787 226.48 581.84ZM175.12 550.24V559.6H189.84C191.547 556.08 192.8 552.96 193.6 550.24H175.12ZM174.88 578.8C180.32 574.373 184.933 568.72 188.72 561.84H175.28L175.12 561.28V568.72C175.12 573.093 175.04 576.453 174.88 578.8ZM212.32 574L214.24 572C211.947 569.173 210.08 565.787 208.64 561.84H198.72L196.56 564.8C200.56 565.76 203.333 566.533 204.88 567.12C206.427 567.653 207.2 568.107 207.2 568.48C207.2 568.64 207.013 568.853 206.64 569.12L205.36 570V574H212.32ZM190.64 574H197.04C197.04 570.32 196.853 567.28 196.48 564.88C194.027 568.027 191.333 570.747 188.4 573.04L190.64 574ZM189.68 583.76H197.04V576.24H189.68V583.76ZM205.36 583.76H212.88V576.24H205.36V583.76ZM189.68 594H197.04V586.08H189.68V594ZM205.36 594H212.88V586.08H205.36V594Z" fill="#3A3A3A"/>
<path d="M209.728 48.928C209.792 48.832 209.872 48.72 209.968 48.592C210.096 48.432 210.208 48.272 210.304 48.112C210.4 47.984 210.592 47.728 210.88 47.344C211.2 46.96 211.44 46.768 211.6 46.768C211.792 46.768 212.352 47.136 213.28 47.872C214.24 48.608 215.136 49.376 215.968 50.176C216.832 50.944 217.264 51.44 217.264 51.664C217.136 52.144 216.704 52.384 215.968 52.384H191.488C189.984 55.424 188.288 58.208 186.4 60.736L187.888 61.168C187.76 61.648 187.216 61.952 186.256 62.08V84.592C186.224 84.752 186.016 84.96 185.632 85.216C185.28 85.472 184.752 85.696 184.048 85.888C183.376 86.08 182.56 86.176 181.6 86.176L180.832 86.224V66.928C178.816 68.72 176.752 70.24 174.64 71.488L174.16 71.056C176.688 68.656 178.912 65.888 180.832 62.752V59.2L182.608 59.68C183.824 57.472 184.928 55.04 185.92 52.384H182.368C180.288 52.416 178.144 52.64 175.936 53.056L174.688 50.656C176.448 50.848 178.576 50.976 181.072 51.04H186.4L186.64 50.32C187.152 48.848 187.584 47.216 187.936 45.424C188.288 43.632 188.496 42.064 188.56 40.72C193.584 42.064 196.096 42.96 196.096 43.408C196.096 43.536 195.968 43.648 195.712 43.744L194.848 44.08C194.208 46.064 193.296 48.384 192.112 51.04H208.192L209.728 48.928ZM208.672 64.192C208.864 63.968 209.056 63.712 209.248 63.424C209.472 63.136 209.68 62.88 209.872 62.656C210.064 62.432 210.224 62.32 210.352 62.32C210.544 62.32 211.056 62.64 211.888 63.28C212.752 63.92 213.552 64.592 214.288 65.296C215.024 65.968 215.392 66.416 215.392 66.64C215.264 67.152 214.832 67.408 214.096 67.408H204.016V83.344H209.2L210.592 81.328C210.784 81.072 211.008 80.752 211.264 80.368C211.552 79.984 211.776 79.712 211.936 79.552C212.096 79.36 212.24 79.264 212.368 79.264C212.56 79.264 213.104 79.616 214 80.32C214.928 80.992 215.792 81.696 216.592 82.432C217.392 83.2 217.792 83.696 217.792 83.92C217.696 84.432 217.264 84.688 216.496 84.688H195.76C193.488 84.72 191.088 84.944 188.56 85.36L187.312 82.96C189.072 83.152 191.2 83.28 193.696 83.344H198.592V67.408H195.616C193.888 67.44 192.064 67.664 190.144 68.08L188.896 65.68C190.656 65.872 192.784 66 195.28 66.064H198.592V64.384C198.592 60.352 198.384 57.072 197.968 54.544C200.656 55.12 202.512 55.584 203.536 55.936C204.56 56.288 205.072 56.576 205.072 56.8C205.072 56.896 204.96 57.024 204.736 57.184L204.016 57.664V66.064H207.328L208.672 64.192ZM209.392 101.12C209.552 100.96 209.76 100.752 210.016 100.496C210.272 100.208 210.48 100 210.64 99.872C210.8 99.744 210.944 99.68 211.072 99.68C211.264 99.68 211.744 100 212.512 100.64C213.312 101.248 214.048 101.904 214.72 102.608C215.424 103.28 215.776 103.728 215.776 103.952C215.424 104.4 214.784 104.688 213.856 104.816C213.536 110.128 213.024 114.16 212.32 116.912C211.648 119.664 210.672 121.52 209.392 122.48C207.92 123.664 205.952 124.256 203.488 124.256C203.488 123.296 203.44 122.528 203.344 121.952C203.248 121.376 203.04 120.912 202.72 120.56C202.272 119.92 201.36 119.36 199.984 118.88C199.856 118.912 199.664 118.928 199.408 118.928C198.96 118.928 198.464 118.832 197.92 118.64C196.8 117.456 195.424 116.272 193.792 115.088C191.936 117.52 189.52 119.568 186.544 121.232C183.568 122.864 179.952 124.144 175.696 125.072L175.456 124.496C179.04 123.024 181.984 121.296 184.288 119.312C186.624 117.328 188.432 115.024 189.712 112.4C186.96 110.704 184.08 109.264 181.072 108.08L181.216 107.504C184.96 107.632 188.272 108.016 191.152 108.656C191.632 107.152 191.968 105.568 192.16 103.904H185.68C183.408 103.936 181.008 104.16 178.48 104.576L177.184 102.128C178.944 102.32 181.072 102.448 183.568 102.512H208.096L209.392 101.12ZM198.4 103.904C197.952 106.432 197.328 108.608 196.528 110.432C198.384 111.296 199.744 112.256 200.608 113.312C201.504 114.336 201.952 115.344 201.952 116.336C201.952 117.04 201.712 117.664 201.232 118.208C202.352 118.304 203.296 118.352 204.064 118.352C204.448 118.352 204.752 118.32 204.976 118.256C205.2 118.16 205.44 118.032 205.696 117.872C206.336 117.296 206.896 115.824 207.376 113.456C207.888 111.056 208.272 107.872 208.528 103.904H198.4ZM191.2 122.528C193.664 122.752 195.696 123.232 197.296 123.968C198.896 124.704 200.048 125.568 200.752 126.56C201.488 127.52 201.856 128.48 201.856 129.44C201.856 130.304 201.6 131.024 201.088 131.6C200.608 132.144 199.984 132.416 199.216 132.416C198.608 132.416 198 132.24 197.392 131.888C196.848 130.384 195.952 128.816 194.704 127.184C193.456 125.52 192.16 124.08 190.816 122.864L191.2 122.528ZM186.16 132.656C186.16 130.16 186.032 128.16 185.776 126.656C190.288 127.616 192.544 128.32 192.544 128.768C192.544 128.928 192.448 129.056 192.256 129.152L191.536 129.632V137.216C191.536 137.568 191.648 137.808 191.872 137.936C192.096 138.032 192.592 138.08 193.36 138.08H198.496C200.768 138.08 202.128 138.064 202.576 138.032C202.96 138 203.232 137.952 203.392 137.888C203.584 137.792 203.76 137.616 203.92 137.36C204.176 137.008 204.496 136.336 204.88 135.344C205.264 134.32 205.68 133.168 206.128 131.888H206.608L206.752 137.552C207.488 137.84 207.984 138.16 208.24 138.512C208.528 138.832 208.672 139.264 208.672 139.808C208.672 140.64 208.368 141.28 207.76 141.728C207.152 142.208 206.064 142.544 204.496 142.736C202.96 142.96 200.752 143.072 197.872 143.072H192.352C190.624 143.072 189.328 142.944 188.464 142.688C187.6 142.432 186.992 141.968 186.64 141.296C186.32 140.656 186.16 139.696 186.16 138.416V132.656ZM206.704 126.848C209.264 127.552 211.36 128.464 212.992 129.584C214.624 130.672 215.792 131.824 216.496 133.04C217.232 134.256 217.6 135.44 217.6 136.592C217.6 137.648 217.328 138.528 216.784 139.232C216.24 139.936 215.552 140.288 214.72 140.288C213.92 140.288 213.104 139.936 212.272 139.232C212.144 137.152 211.504 135.008 210.352 132.8C209.232 130.592 207.872 128.72 206.272 127.184L206.704 126.848ZM181.504 127.472C182.304 129.52 182.704 131.488 182.704 133.376C182.704 134.944 182.432 136.304 181.888 137.456C181.344 138.576 180.64 139.424 179.776 140C179.168 140.448 178.512 140.672 177.808 140.672C177.04 140.672 176.368 140.416 175.792 139.904C175.248 139.392 174.976 138.72 174.976 137.888C174.976 136.704 175.648 135.728 176.992 134.96C178.048 134.384 178.976 133.408 179.776 132.032C180.576 130.624 180.944 129.104 180.88 127.472H181.504ZM200.8 161.136C202.4 162.448 203.792 163.616 204.976 164.64C206.672 162.688 208.224 160.608 209.632 158.4L215.536 162.864C215.28 163.184 214.928 163.344 214.48 163.344C214.352 163.344 214.032 163.28 213.52 163.152C210.48 166.896 206.912 170.432 202.816 173.76H209.248L210.592 171.84C210.752 171.648 210.96 171.36 211.216 170.976C211.472 170.592 211.68 170.32 211.84 170.16C212.032 169.968 212.192 169.872 212.32 169.872C212.512 169.872 213.024 170.208 213.856 170.88C214.72 171.52 215.52 172.208 216.256 172.944C217.024 173.648 217.408 174.112 217.408 174.336C217.312 174.848 216.896 175.104 216.16 175.104H201.136C198.256 177.28 195.376 179.216 192.496 180.912H204.208L205.36 179.52C205.456 179.392 205.616 179.2 205.84 178.944C206.096 178.656 206.304 178.448 206.464 178.32C206.624 178.16 206.768 178.08 206.896 178.08C207.088 178.08 207.6 178.384 208.432 178.992C209.296 179.6 210.096 180.24 210.832 180.912C211.6 181.552 211.984 181.984 211.984 182.208C211.536 182.72 210.912 183.056 210.112 183.216V189.072C210.176 193.04 210.304 196.8 210.496 200.352C210.272 200.672 209.6 201.024 208.48 201.408C207.392 201.824 206.416 202.032 205.552 202.032C204.816 202.032 204.448 201.712 204.448 201.072C204.448 201.072 204.512 200.624 204.64 199.728V198.576H190.24V200.448C190.24 200.64 190.016 200.88 189.568 201.168C189.12 201.488 188.544 201.744 187.84 201.936C187.136 202.16 186.432 202.272 185.728 202.272C185.344 202.272 185.04 202.176 184.816 201.984C184.592 201.792 184.48 201.568 184.48 201.312C184.704 198.144 184.848 194.608 184.912 190.704V184.896C181.36 186.56 177.808 187.92 174.256 188.976L173.92 188.304C177.568 186.64 181.232 184.624 184.912 182.256V180.432C184.912 179.504 184.88 178.816 184.816 178.368L188.272 180C190.672 178.24 192.752 176.608 194.512 175.104H182.848C180.576 175.136 178.176 175.36 175.648 175.776L174.4 173.376C176.16 173.568 178.288 173.696 180.784 173.76H190.192V166.272H186.496C184.32 166.304 182.08 166.528 179.776 166.944L178.576 164.544C180.336 164.736 182.464 164.864 184.96 164.928H190.192C190.192 161.632 190.032 158.96 189.712 156.912C192.336 157.488 194.144 157.952 195.136 158.304C196.16 158.624 196.672 158.896 196.672 159.12C196.672 159.216 196.56 159.344 196.336 159.504L195.568 159.984V164.928H197.968L200.8 161.136ZM195.568 166.272V173.76H196.048C198.544 171.552 201.056 169.056 203.584 166.272H195.568ZM204.64 188.832V182.304H190.24V188.832H204.64ZM190.24 190.224V197.184H204.64V190.224H190.24ZM183.376 247.792C181.36 252.112 179.92 255.056 179.056 256.624C179.216 256.912 179.296 257.216 179.296 257.536C179.296 257.92 179.168 258.272 178.912 258.592L174.832 253.936C175.888 253.104 177.168 252 178.672 250.624C180.208 249.216 181.504 247.968 182.56 246.88L183.136 243.088L185.872 243.856L183.664 247.12C184.112 247.856 184.608 248.544 185.152 249.184C189.28 246.496 193.168 243.248 196.816 239.44C200.496 235.6 203.376 231.76 205.456 227.92H185.68C183.408 227.952 181.008 228.176 178.48 228.592L177.184 226.192C178.944 226.384 181.072 226.512 183.568 226.576H193.12V225.76C193.12 221.728 192.912 218.448 192.496 215.92C195.312 216.496 197.248 216.96 198.304 217.312C199.392 217.632 199.936 217.904 199.936 218.128C199.936 218.224 199.808 218.368 199.552 218.56L198.736 219.088V226.576H205.6L207.136 225.04C207.36 224.848 207.68 224.544 208.096 224.128C208.512 223.68 208.816 223.456 209.008 223.456C209.2 223.456 209.696 223.808 210.496 224.512C211.328 225.216 212.096 225.968 212.8 226.768C213.536 227.536 213.904 228.032 213.904 228.256C213.776 228.512 213.568 228.688 213.28 228.784C213.024 228.848 212.576 228.912 211.936 228.976C209.184 233.36 205.52 237.392 200.944 241.072C196.4 244.72 191.344 247.632 185.776 249.808C187.344 251.312 189.376 252.32 191.872 252.832C194.368 253.312 197.856 253.552 202.336 253.552C210.08 253.552 215.184 253.52 217.648 253.456V254.032C216.752 254.288 216.064 254.848 215.584 255.712C215.136 256.544 214.896 257.552 214.864 258.736H202.24C198.592 258.736 195.6 258.432 193.264 257.824C190.928 257.216 188.96 256.128 187.36 254.56C185.76 252.992 184.432 250.736 183.376 247.792ZM206.8 302.672C206.96 302.448 207.184 302.144 207.472 301.76C207.76 301.376 207.984 301.088 208.144 300.896C208.336 300.704 208.496 300.608 208.624 300.608C208.816 300.608 209.376 300.96 210.304 301.664C211.232 302.368 212.096 303.104 212.896 303.872C213.728 304.64 214.144 305.136 214.144 305.36C214.048 305.872 213.632 306.128 212.896 306.128H198.784V314.864H208.432L209.968 312.704C210.16 312.448 210.4 312.112 210.688 311.696C210.976 311.28 211.2 310.976 211.36 310.784C211.552 310.592 211.712 310.496 211.84 310.496C212.032 310.496 212.608 310.88 213.568 311.648C214.56 312.384 215.488 313.152 216.352 313.952C217.216 314.752 217.648 315.264 217.648 315.488C217.52 316 217.072 316.256 216.304 316.256H182.56C180.288 316.288 177.888 316.512 175.36 316.928L174.16 314.48C175.92 314.672 178.048 314.8 180.544 314.864H193.024V306.128H186.544C184.272 306.16 181.872 306.384 179.344 306.8L178.144 304.352C179.904 304.544 182.032 304.672 184.528 304.736H193.024V297.2H185.248V299.12C185.248 299.312 185.008 299.568 184.528 299.888C184.048 300.208 183.44 300.48 182.704 300.704C181.968 300.928 181.232 301.04 180.496 301.04C180.112 301.04 179.808 300.944 179.584 300.752C179.36 300.56 179.248 300.336 179.248 300.08C179.472 296.976 179.616 293.552 179.68 289.808V284.144C179.68 280.112 179.472 276.832 179.056 274.304L185.632 277.04H206.128L207.328 275.552C207.488 275.392 207.68 275.168 207.904 274.88C208.16 274.592 208.352 274.384 208.48 274.256C208.64 274.096 208.784 274.016 208.912 274.016C209.104 274.016 209.616 274.336 210.448 274.976C211.312 275.616 212.112 276.288 212.848 276.992C213.616 277.664 214 278.112 214 278.336C213.68 278.848 213.088 279.184 212.224 279.344V286.688C212.288 290.656 212.416 294.416 212.608 297.968C212.384 298.288 211.696 298.656 210.544 299.072C209.392 299.488 208.384 299.696 207.52 299.696C206.816 299.696 206.464 299.376 206.464 298.736C206.496 298.64 206.512 298.544 206.512 298.448C206.544 298.32 206.576 298.192 206.608 298.064V297.2H198.784V304.736H205.36L206.8 302.672ZM193.024 286.352V278.384H185.248V286.352H193.024ZM206.608 286.352V278.384H198.784V286.352H206.608ZM185.248 287.744V295.904H193.024V287.744H185.248ZM198.784 287.744V295.904H206.608V287.744H198.784Z" fill="#3A3A3A"/>
<path d="M108.288 57.912C108.501 57.6133 108.779 57.208 109.12 56.696C109.461 56.184 109.739 55.8213 109.952 55.608C110.165 55.352 110.357 55.224 110.528 55.224C110.784 55.224 111.445 55.672 112.512 56.568C113.621 57.464 114.645 58.424 115.584 59.448C116.565 60.4293 117.056 61.0693 117.056 61.368C116.928 62.0507 116.352 62.392 115.328 62.392H99.776C101.44 67.1707 103.872 71.3307 107.072 74.872C110.315 78.4133 113.92 81.144 117.888 83.064L117.76 83.896C115.456 85.816 113.984 88.6107 113.344 92.28C109.845 89.2507 106.816 85.0907 104.256 79.8C101.696 74.5093 99.7547 68.7067 98.432 62.392H98.304V89.4H99.904L101.44 86.84C101.611 86.584 101.845 86.2213 102.144 85.752C102.443 85.24 102.699 84.856 102.912 84.6C103.125 84.344 103.317 84.216 103.488 84.216C103.744 84.216 104.341 84.664 105.28 85.56C106.261 86.4133 107.179 87.3307 108.032 88.312C108.885 89.2933 109.312 89.9333 109.312 90.232C109.141 90.872 108.565 91.192 107.584 91.192H98.304V94.84L98.368 97.016C98.4107 98.7227 98.496 100.28 98.624 101.688C98.4533 102.285 97.7067 102.904 96.384 103.544C95.0613 104.227 93.76 104.568 92.48 104.568C91.328 104.568 90.752 104.141 90.752 103.288C90.9227 101.283 91.0507 98.744 91.136 95.672V91.192H88.192C86.528 91.2347 84.8213 91.5333 83.072 92.088L81.408 88.888C83.2427 89.144 85.4613 89.3147 88.064 89.4H91.136V74.488C86.9973 81.2293 81.344 87.0107 74.176 91.832L73.792 91.384V95.096L73.856 97.4C73.8987 99.1493 73.984 100.749 74.112 102.2C73.8987 102.712 73.1307 103.245 71.808 103.8C70.528 104.397 69.2267 104.696 67.904 104.696C67.264 104.696 66.752 104.568 66.368 104.312C66.0267 104.056 65.856 103.757 65.856 103.416C66.0267 100.899 66.176 98.4667 66.304 96.12C66.432 93.7307 66.5173 90.616 66.56 86.776V71.352C64.1707 74.424 61.7173 77.0267 59.2 79.16L58.432 78.648C60.0107 75.96 61.568 72.8027 63.104 69.176C64.6827 65.5493 66.1333 61.752 67.456 57.784C68.1387 55.7787 68.7573 53.432 69.312 50.744C69.9093 48.0133 70.2507 45.7733 70.336 44.024C74.1333 45.2187 76.7573 46.136 78.208 46.776C79.6587 47.416 80.384 47.8853 80.384 48.184C80.384 48.3547 80.2133 48.504 79.872 48.632L78.656 49.144C76.5653 54.5627 74.2613 59.448 71.744 63.8C74.0907 65.2507 75.264 66.2533 75.264 66.808C75.264 67.064 75.0933 67.256 74.752 67.384L73.792 67.832V90.744C77.0347 87.2027 79.9147 82.9147 82.432 77.88C84.992 72.8027 86.976 67.64 88.384 62.392H84.032C81.5147 62.4347 78.912 62.7333 76.224 63.288L74.56 60.088C76.9067 60.344 79.744 60.5147 83.072 60.6H91.136V58.168C91.136 52.792 90.8587 48.4187 90.304 45.048C93.9733 45.8587 96.4907 46.4987 97.856 46.968C99.2213 47.3947 99.904 47.7787 99.904 48.12C99.904 48.2907 99.7333 48.4827 99.392 48.696L98.304 49.464V60.6H106.56L108.288 57.912ZM76.544 151.36H83.136C83.136 151.36 83.072 153.216 83.008 154.048C82.24 170.112 81.408 176.384 79.424 178.56C78.08 180.224 76.672 180.736 74.56 180.992C72.832 181.248 69.824 181.184 66.752 181.12C66.688 179.2 65.92 176.64 64.832 174.912C67.712 175.232 70.336 175.296 71.552 175.296C72.576 175.296 73.216 175.168 73.792 174.464C75.072 173.056 75.904 167.296 76.544 152.448V151.36ZM57.216 165.312C61.568 164.544 67.648 163.2 73.792 161.856L74.432 167.488C68.928 168.832 63.232 170.176 58.496 171.264L57.216 165.312ZM58.88 124.032H75.712V130.432H58.88V124.032ZM73.728 124.032H80.128C79.68 133.44 78.784 145.6 78.016 152.768H71.616C72.576 145.28 73.472 133.184 73.728 124.032ZM61.44 134.72L67.904 135.04C67.52 142.336 66.816 151.68 66.176 157.376H59.712C60.48 151.488 61.12 141.952 61.44 134.72ZM61.888 151.424H77.312V157.376H61.888V151.424ZM100.48 123.392C104.448 129.024 112.128 135.936 118.912 139.52C117.696 141.44 116.16 144.96 115.52 147.136C107.968 142.144 99.776 133.952 94.848 127.104L100.48 123.392ZM97.728 120.896L104.384 123.2C99.52 132.864 91.52 141.76 83.392 147.264C82.624 145.728 80.384 142.528 79.04 140.992C86.528 136.512 93.696 129.088 97.728 120.896ZM89.856 141.248H109.632V147.712H89.856V141.248ZM85.44 153.664L91.328 152.192C92.864 156.928 94.464 163.072 95.04 167.168L88.832 168.896C88.448 164.8 86.912 158.464 85.44 153.664ZM96.576 151.936L102.4 151.104C103.616 155.904 104.704 162.048 105.152 166.144L98.944 167.104C98.688 163.008 97.6 156.672 96.576 151.936ZM110.464 151.424L117.376 152.896C114.688 160.512 111.168 169.472 108.224 175.104L102.656 173.568C105.472 167.744 108.8 158.336 110.464 151.424ZM83.84 172.416H117.184V178.944H83.84V172.416ZM102.272 224.776C102.485 224.477 102.784 224.072 103.168 223.56C103.552 223.005 103.851 222.6 104.064 222.344C104.32 222.045 104.533 221.896 104.704 221.896C104.96 221.896 105.707 222.387 106.944 223.368C108.181 224.307 109.355 225.309 110.464 226.376C111.573 227.4 112.128 228.061 112.128 228.36C111.957 229 111.381 229.32 110.4 229.32H92.992V253.384H104.384L106.432 250.504C106.603 250.248 106.901 249.843 107.328 249.288C107.755 248.691 108.096 248.264 108.352 248.008C108.608 247.709 108.821 247.56 108.992 247.56C109.248 247.56 110.037 248.072 111.36 249.096C112.683 250.077 113.92 251.101 115.072 252.168C116.267 253.235 116.864 253.917 116.864 254.216C116.693 254.899 116.096 255.24 115.072 255.24H69.888C66.8587 255.283 63.6587 255.581 60.288 256.136L58.688 252.872C60.4373 253.128 62.5707 253.299 65.088 253.384H68.032V232.776C68.032 227.4 67.7547 223.027 67.2 219.656C71.04 220.424 73.6853 221.043 75.136 221.512C76.6293 221.981 77.376 222.365 77.376 222.664C77.376 222.792 77.2053 222.984 76.864 223.24L75.776 224.008V253.384H85.12V206.92H73.024C69.9947 206.963 66.7947 207.261 63.424 207.816L61.824 204.552C64.1707 204.808 67.008 204.979 70.336 205.064H102.208L104.256 202.184C104.341 202.056 104.448 201.907 104.576 201.736C104.747 201.523 104.896 201.309 105.024 201.096C105.152 200.925 105.408 200.584 105.792 200.072C106.219 199.56 106.539 199.304 106.752 199.304C107.008 199.304 107.776 199.795 109.056 200.776C110.336 201.757 111.552 202.781 112.704 203.848C113.856 204.915 114.432 205.597 114.432 205.896C114.261 206.579 113.685 206.92 112.704 206.92H92.992V227.592H100.288L102.272 224.776ZM110.336 281.744C110.592 281.744 111.232 282.213 112.256 283.152C113.323 284.091 114.304 285.093 115.2 286.16C116.139 287.184 116.608 287.845 116.608 288.144C116.395 288.4 116.117 288.592 115.776 288.72C115.435 288.805 114.901 288.891 114.176 288.976C112.981 290 111.509 291.109 109.76 292.304C108.011 293.456 106.411 294.373 104.96 295.056C105.941 295.909 106.432 296.507 106.432 296.848C106.261 297.531 105.685 297.872 104.704 297.872H81.408C78.3787 297.915 75.1787 298.213 71.808 298.768L70.144 295.504C72.4907 295.76 75.328 295.931 78.656 296.016H95.936L97.664 293.648C97.8347 293.435 98.0907 293.093 98.432 292.624C98.7733 292.155 99.0507 291.813 99.264 291.6C99.4773 291.344 99.6693 291.216 99.84 291.216C100.053 291.216 100.629 291.557 101.568 292.24C102.549 292.923 103.467 293.669 104.32 294.48C105.131 292.517 105.92 290.171 106.688 287.44H69.248C69.4187 289.573 69.184 291.429 68.544 293.008C67.904 294.544 67.0293 295.739 65.92 296.592C65.2373 297.147 64.4053 297.424 63.424 297.424C62.4 297.424 61.5253 297.125 60.8 296.528C60.0747 295.931 59.712 295.056 59.712 293.904C59.712 293.093 59.9467 292.347 60.416 291.664C60.928 290.981 61.5893 290.427 62.4 290C63.68 289.317 64.7893 288.165 65.728 286.544C66.6667 284.88 67.1147 283.131 67.072 281.296H67.904C68.3307 282.448 68.7147 283.899 69.056 285.648H84.16C84.16 281.339 83.9467 277.84 83.52 275.152C87.1893 275.877 89.728 276.475 91.136 276.944C92.544 277.371 93.248 277.733 93.248 278.032C93.248 278.203 93.0773 278.395 92.736 278.608L91.648 279.312V285.648H106.432L108.16 283.728C108.373 283.515 108.629 283.237 108.928 282.896C109.269 282.512 109.547 282.235 109.76 282.064C109.973 281.851 110.165 281.744 110.336 281.744ZM108.672 301.968C108.928 301.968 109.611 302.395 110.72 303.248C111.872 304.101 112.939 304.997 113.92 305.936C114.944 306.832 115.456 307.429 115.456 307.728C115.285 308.411 114.688 308.752 113.664 308.752H91.584V326.928C91.584 328.763 91.3493 330.256 90.88 331.408C90.4107 332.603 89.472 333.563 88.064 334.288C86.656 335.056 84.6293 335.547 81.984 335.76C81.856 334.48 81.6853 333.435 81.472 332.624C81.2587 331.813 80.9173 331.173 80.448 330.704C79.936 330.107 79.232 329.616 78.336 329.232C77.44 328.848 76.2027 328.528 74.624 328.272V327.44C79.2747 327.739 82.048 327.888 82.944 327.888C83.456 327.888 83.7973 327.803 83.968 327.632C84.1813 327.419 84.288 327.12 84.288 326.736V308.752H71.488C68.4587 308.795 65.2587 309.093 61.888 309.648L60.224 306.384C62.5707 306.64 65.408 306.811 68.736 306.896H104.576L106.368 304.464C106.581 304.208 106.859 303.845 107.2 303.376C107.541 302.907 107.819 302.565 108.032 302.352C108.288 302.096 108.501 301.968 108.672 301.968ZM78.656 317.456C76.48 320.357 73.7067 323.173 70.336 325.904C67.008 328.592 63.4027 330.768 59.52 332.432L58.944 331.728C61.7173 329.381 64.2987 326.501 66.688 323.088C67.9253 321.339 69.0347 319.419 70.016 317.328C70.9973 315.195 71.6587 313.275 72 311.568L76.8 314.384C79.232 315.536 80.448 316.325 80.448 316.752C80.448 316.965 80.2347 317.115 79.808 317.2L78.656 317.456ZM96.64 313.68C100.779 314.576 104.171 315.835 106.816 317.456C109.504 319.035 111.445 320.72 112.64 322.512C113.835 324.304 114.432 326.011 114.432 327.632C114.432 328.869 114.112 329.872 113.472 330.64C112.832 331.451 111.979 331.856 110.912 331.856C109.973 331.856 109.056 331.557 108.16 330.96C107.349 328.144 105.792 325.2 103.488 322.128C101.227 319.013 98.7733 316.368 96.128 314.192L96.64 313.68ZM108.928 362.712C109.184 362.456 109.547 362.051 110.016 361.496C110.528 360.899 110.912 360.6 111.168 360.6C111.424 360.6 112.064 361.048 113.088 361.944C114.155 362.84 115.157 363.8 116.096 364.824C117.035 365.805 117.504 366.445 117.504 366.744C116.907 367.341 115.968 367.725 114.688 367.896C114.219 380.525 113.493 390.04 112.512 396.44C111.573 402.84 110.187 407 108.352 408.92C107.157 410.115 105.813 410.947 104.32 411.416C102.869 411.928 101.077 412.184 98.944 412.184C98.944 410.989 98.8373 410.008 98.624 409.24C98.4533 408.472 98.112 407.832 97.6 407.32C96.4907 406.125 94.336 405.187 91.136 404.504V403.672C95.6587 404.056 98.6667 404.248 100.16 404.248C100.757 404.248 101.248 404.184 101.632 404.056C102.016 403.885 102.357 403.629 102.656 403.288C103.979 402.136 105.045 398.488 105.856 392.344C106.709 386.157 107.328 377.603 107.712 366.68H93.824C90.9227 371.459 87.552 375.32 83.712 378.264L82.944 377.752C84.864 374.339 86.5493 370.413 88 365.976C88.6827 363.928 89.28 361.56 89.792 358.872C90.304 356.141 90.56 353.923 90.56 352.216C94.2293 353.283 96.768 354.115 98.176 354.712C99.584 355.309 100.288 355.757 100.288 356.056C100.288 356.184 100.096 356.333 99.712 356.504L98.496 356.952C97.5147 359.64 96.32 362.264 94.912 364.824H107.136L108.928 362.712ZM77.12 363.224C77.2907 363.011 77.5253 362.733 77.824 362.392C78.1227 362.008 78.3573 361.731 78.528 361.56C78.7413 361.389 78.9333 361.304 79.104 361.304C79.36 361.304 80.0213 361.709 81.088 362.52C82.1547 363.288 83.1573 364.099 84.096 364.952C85.0347 365.805 85.504 366.381 85.504 366.68C84.992 367.277 84.1387 367.725 82.944 368.024V389.4C83.0293 394.691 83.2 399.704 83.456 404.44C83.1573 404.909 82.3253 405.421 80.96 405.976C79.5947 406.531 78.3787 406.808 77.312 406.808C76.416 406.808 75.968 406.381 75.968 405.528C75.968 405.528 76.0533 404.845 76.224 403.48V401.752H68.736V403.288C68.864 404.909 68.9493 405.805 68.992 405.976C68.864 406.616 68.2027 407.235 67.008 407.832C65.8133 408.472 64.5547 408.792 63.232 408.792C62.72 408.792 62.2933 408.664 61.952 408.408C61.6533 408.152 61.504 407.853 61.504 407.512C61.6747 404.995 61.824 402.563 61.952 400.216C62.08 397.827 62.1653 394.712 62.208 390.872V374.808C62.208 369.432 61.9307 365.059 61.376 361.688L68.928 365.08H68.992C69.4613 362.008 69.696 358.851 69.696 355.608C69.696 354.797 69.6533 353.752 69.568 352.472C73.3653 353.368 75.9893 354.072 77.44 354.584C78.9333 355.053 79.68 355.437 79.68 355.736C79.68 355.864 79.488 356.035 79.104 356.248L77.888 356.824C75.328 360.195 73.1307 362.947 71.296 365.08H75.584L77.12 363.224ZM76.224 382.04V366.872H68.736V382.04H76.224ZM89.792 375.512C93.632 376.792 96.448 378.435 98.24 380.44C100.075 382.403 100.992 384.344 100.992 386.264C100.992 387.501 100.629 388.547 99.904 389.4C99.2213 390.211 98.368 390.616 97.344 390.616C96.2347 390.616 95.168 390.125 94.144 389.144C94.0587 386.968 93.5467 384.707 92.608 382.36C91.6693 380.013 90.5387 377.88 89.216 375.96L89.792 375.512ZM68.736 383.768V399.96H76.224V383.768H68.736ZM76.224 484.128C76.2667 484.555 76.288 484.939 76.288 485.28C76.3307 485.664 76.3733 485.92 76.416 486.048C76.3307 486.517 75.968 487.008 75.328 487.52C74.7307 488.032 73.9413 488.459 72.96 488.8C71.9787 489.141 70.9547 489.312 69.888 489.312C69.2907 489.312 68.8 489.184 68.416 488.928C68.0747 488.672 67.904 488.373 67.904 488.032C68.0747 485.515 68.224 483.083 68.352 480.736C68.48 478.347 68.5653 475.232 68.608 471.392V445.792C68.608 440.416 68.3307 436.043 67.776 432.672L76.672 436.448H99.84L101.568 434.336C101.781 434.123 102.037 433.824 102.336 433.44C102.677 433.013 102.955 432.715 103.168 432.544C103.381 432.331 103.573 432.224 103.744 432.224C104 432.224 104.704 432.672 105.856 433.568C107.051 434.464 108.16 435.403 109.184 436.384C110.208 437.323 110.72 437.941 110.72 438.24C110.165 438.837 109.355 439.285 108.288 439.584V470.944C108.373 476.235 108.544 481.248 108.8 485.984C108.459 486.496 107.499 487.093 105.92 487.776C104.384 488.459 102.976 488.8 101.696 488.8C100.715 488.8 100.224 488.373 100.224 487.52C100.224 487.52 100.309 486.667 100.48 484.96V482.976H76.224V484.128ZM100.48 458.4V438.304H76.224V458.4H100.48ZM76.224 460.192V481.12H100.48V460.192H76.224ZM106.816 519.016C107.029 518.717 107.328 518.291 107.712 517.736C108.096 517.139 108.395 516.712 108.608 516.456C108.864 516.157 109.077 516.008 109.248 516.008C109.504 516.008 110.251 516.52 111.488 517.544C112.725 518.568 113.899 519.635 115.008 520.744C116.117 521.811 116.672 522.493 116.672 522.792C116.544 523.475 115.947 523.816 114.88 523.816H92.672C95.232 529.107 98.7733 533.821 103.296 537.96C107.819 542.099 112.597 545.213 117.632 547.304L117.376 548.008C115.925 548.307 114.624 549.053 113.472 550.248C112.32 551.4 111.488 552.872 110.976 554.664C101.973 548.648 95.488 538.408 91.52 523.944V551.08H93.312L94.976 548.264C95.1467 548.008 95.4027 547.624 95.744 547.112C96.0853 546.557 96.3627 546.152 96.576 545.896C96.7893 545.597 96.9813 545.448 97.152 545.448C97.408 545.448 98.0693 545.939 99.136 546.92C100.245 547.859 101.269 548.861 102.208 549.928C103.189 550.952 103.68 551.613 103.68 551.912C103.509 552.552 102.933 552.872 101.952 552.872H91.52V556.776L91.584 559.144C91.6267 560.893 91.712 562.557 91.84 564.136C91.6693 564.733 90.9227 565.309 89.6 565.864C88.32 566.419 86.9547 566.696 85.504 566.696C84.864 566.696 84.3947 566.568 84.096 566.312C83.7973 566.099 83.648 565.8 83.648 565.416C83.8187 563.453 83.968 560.808 84.096 557.48V552.872H80.256C78.08 552.915 75.776 553.213 73.344 553.768L71.68 550.568C74.0267 550.824 76.8427 550.995 80.128 551.08H84.096V533.608C78.2507 542.995 70.016 550.248 59.392 555.368L58.816 554.728C63.552 551.059 67.7333 546.472 71.36 540.968C75.0293 535.464 77.8027 529.747 79.68 523.816H70.016C66.9867 523.859 63.7867 524.157 60.416 524.712L58.752 521.448C61.0987 521.704 63.936 521.875 67.264 521.96H84.096V519.464C84.096 514.088 83.8187 509.715 83.264 506.344C87.1467 507.155 89.8133 507.795 91.264 508.264C92.7147 508.733 93.44 509.139 93.44 509.48C93.44 509.608 93.3333 509.757 93.12 509.928C92.9493 510.056 92.8427 510.141 92.8 510.184L91.52 511.016V521.96H104.832L106.816 519.016ZM110.528 619.504C110.656 619.248 110.827 618.864 111.04 618.352C111.296 617.797 111.509 617.392 111.68 617.136C111.851 616.837 112.021 616.688 112.192 616.688C112.448 616.688 113.088 617.008 114.112 617.648C115.136 618.288 116.075 618.971 116.928 619.696C117.824 620.379 118.272 620.869 118.272 621.168C118.272 621.509 118.144 621.808 117.888 622.064C117.632 622.277 117.312 622.427 116.928 622.512L109.184 624.112V629.808C109.269 634.459 109.397 638.107 109.568 640.752C109.355 641.349 108.608 641.968 107.328 642.608C106.048 643.291 104.789 643.632 103.552 643.632C102.912 643.632 102.443 643.504 102.144 643.248C101.845 642.992 101.696 642.693 101.696 642.352C101.952 638.768 102.123 635.184 102.208 631.6V625.584L86.144 628.976L85.376 627.312L102.208 623.792V596.464C102.208 591.088 101.931 586.715 101.376 583.344C104.917 584.155 107.349 584.795 108.672 585.264C110.037 585.691 110.72 586.075 110.72 586.416C110.72 586.587 110.571 586.779 110.272 586.992L109.184 587.76V622.32L109.376 622.256L110.528 619.504ZM80.064 606.384C80.2347 606.128 80.4693 605.787 80.768 605.36C81.0667 604.933 81.3013 604.613 81.472 604.4C81.6853 604.187 81.8773 604.08 82.048 604.08C82.304 604.08 82.9227 604.485 83.904 605.296C84.928 606.064 85.888 606.896 86.784 607.792C87.68 608.645 88.128 609.221 88.128 609.52C87.9573 610.203 87.4027 610.544 86.464 610.544H76.48V613.936C80.2347 614.747 83.008 615.984 84.8 617.648C86.592 619.269 87.488 620.933 87.488 622.64C87.488 623.707 87.168 624.603 86.528 625.328C85.888 626.053 85.0987 626.416 84.16 626.416C83.264 626.416 82.3893 626.075 81.536 625.392C81.3227 623.685 80.7467 621.893 79.808 620.016C78.8693 618.139 77.76 616.432 76.48 614.896V625.904C76.5653 631.195 76.736 636.208 76.992 640.944C76.6933 641.541 75.9467 642.139 74.752 642.736C73.5573 643.376 72.384 643.696 71.232 643.696C70.6347 643.696 70.1653 643.568 69.824 643.312C69.5253 643.056 69.376 642.757 69.376 642.416C69.6747 638.576 69.8667 634.352 69.952 629.744V622.768C67.2213 626.949 63.7653 630.725 59.584 634.096L58.88 633.328C60.928 630.427 62.6987 626.992 64.192 623.024C65.728 619.056 66.944 614.896 67.84 610.544H64.96C63.3813 610.587 61.76 610.885 60.096 611.44L58.432 608.176C60.5653 608.432 63.168 608.603 66.24 608.688H69.952V596.528C69.952 591.152 69.6747 586.779 69.12 583.408C72.5333 584.176 74.88 584.795 76.16 585.264C77.4827 585.691 78.144 586.075 78.144 586.416C78.144 586.587 77.9733 586.779 77.632 586.992L76.48 587.76V608.688H78.528L80.064 606.384ZM84.544 590.448C86.9333 591.045 88.128 591.557 88.128 591.984C88.128 592.197 87.8933 592.411 87.424 592.624L86.272 593.136C83.9253 597.275 81.472 601.008 78.912 604.336L77.952 603.888C78.0373 603.589 78.1013 603.291 78.144 602.992C78.1867 602.693 78.2293 602.416 78.272 602.16C78.6987 600.027 79.04 597.68 79.296 595.12C79.5947 592.56 79.7227 590.427 79.68 588.72L84.544 590.448ZM60.16 589.36C62.9333 590.939 64.9387 592.645 66.176 594.48C67.456 596.315 68.096 598.085 68.096 599.792C68.096 601.029 67.776 602.053 67.136 602.864C66.5387 603.675 65.792 604.08 64.896 604.08C63.872 604.08 62.9547 603.611 62.144 602.672C62.2293 599.088 61.3547 594.736 59.52 589.616L60.16 589.36ZM88.576 589.36C92.3733 590.043 95.168 591.173 96.96 592.752C98.752 594.288 99.648 595.909 99.648 597.616C99.648 598.64 99.328 599.515 98.688 600.24C98.0907 600.923 97.3227 601.264 96.384 601.264C95.4453 601.264 94.5707 600.944 93.76 600.304C93.4613 598.597 92.7573 596.784 91.648 594.864C90.5813 592.944 89.3867 591.237 88.064 589.744L88.576 589.36ZM87.36 604.656C90.0907 604.955 92.3307 605.531 94.08 606.384C95.872 607.237 97.152 608.219 97.92 609.328C98.7307 610.395 99.136 611.483 99.136 612.592C99.136 613.616 98.816 614.491 98.176 615.216C97.5787 615.899 96.8107 616.24 95.872 616.24C95.0613 616.24 94.2507 615.963 93.44 615.408C93.056 613.659 92.2453 611.845 91.008 609.968C89.7707 608.048 88.4053 606.427 86.912 605.104L87.36 604.656ZM107.136 700.728C107.307 700.515 107.563 700.152 107.904 699.64C108.245 699.085 108.523 698.68 108.736 698.424C108.949 698.168 109.141 698.04 109.312 698.04C109.568 698.04 110.208 698.488 111.232 699.384C112.299 700.28 113.28 701.219 114.176 702.2C115.115 703.181 115.584 703.821 115.584 704.12C115.456 704.803 114.88 705.144 113.856 705.144H100.928V716.536H107.328L109.12 713.656C109.376 713.315 109.653 712.888 109.952 712.376C110.293 711.821 110.571 711.416 110.784 711.16C110.997 710.904 111.189 710.776 111.36 710.776C111.616 710.776 112.299 711.267 113.408 712.248C114.517 713.229 115.563 714.253 116.544 715.32C117.568 716.387 118.08 717.069 118.08 717.368C117.952 718.051 117.397 718.392 116.416 718.392H86.016C82.9867 718.435 79.7867 718.733 76.416 719.288L74.752 716.024C77.0987 716.28 79.936 716.451 83.264 716.536H93.888V705.144H89.6C87.168 705.187 84.608 705.485 81.92 706.04L80.32 702.84C82.6667 703.096 85.504 703.267 88.832 703.352H93.888V693.24H88.128V695.032C88.128 695.288 87.8293 695.629 87.232 696.056C86.6347 696.44 85.888 696.781 84.992 697.08C84.096 697.336 83.1787 697.464 82.24 697.464C81.728 697.464 81.344 697.336 81.088 697.08C80.832 696.824 80.704 696.525 80.704 696.184C80.8747 694.52 81.0027 692.451 81.088 689.976V686.2C80.9173 686.627 80.448 686.84 79.68 686.84H72.832V702.648L81.216 700.024L81.472 700.728C76.864 704.355 70.72 708.557 63.04 713.336C62.9547 713.763 62.7627 714.147 62.464 714.488C62.208 714.787 61.9093 715 61.568 715.128L58.304 706.744C59.3707 706.531 61.8453 705.869 65.728 704.76V686.84H63.68C62.6133 686.883 61.4613 687.181 60.224 687.736L58.624 684.536C59.9467 684.792 61.568 684.963 63.488 685.048H65.728V669.176H63.616C62.5493 669.219 61.3973 669.517 60.16 670.072L58.496 666.808C60.8427 667.064 63.68 667.235 67.008 667.32H72.128L75.84 662.072C77.888 663.864 79.6373 665.464 81.088 666.872C81.088 664.995 81.0027 663.459 80.832 662.264L88.512 665.656H106.368L107.904 663.736C108.032 663.565 108.245 663.309 108.544 662.968C108.885 662.584 109.163 662.307 109.376 662.136C109.589 661.923 109.781 661.816 109.952 661.816C110.208 661.816 110.869 662.221 111.936 663.032C113.045 663.843 114.069 664.696 115.008 665.592C115.989 666.488 116.48 667.085 116.48 667.384C116.309 667.64 116.011 667.896 115.584 668.152C115.157 668.408 114.645 668.6 114.048 668.728V678.456C114.133 683.747 114.304 688.76 114.56 693.496C114.219 694.008 113.344 694.563 111.936 695.16C110.571 695.757 109.312 696.056 108.16 696.056H107.008V693.24H100.928V703.352H105.472L107.136 700.728ZM93.888 678.52V667.512H88.128V678.52H93.888ZM107.008 678.52V667.512H100.928V678.52H107.008ZM81.088 669.176H72.832V685.048H73.024L76.032 679.992C78.2933 682.296 79.9787 684.173 81.088 685.624V669.176ZM88.128 680.376V691.384H93.888V680.376H88.128ZM100.928 680.376V691.384H107.008V680.376H100.928Z" fill="#3A3A3A"/>
</svg>
