<svg width="353" height="256" viewBox="0 0 353 256" fill="none" xmlns="http://www.w3.org/2000/svg">
<path d="M22.688 29.6C22.8373 29.664 22.912 29.7813 22.912 29.952C22.912 30.0373 22.8907 30.1227 22.848 30.208C22.8053 30.2933 22.7733 30.368 22.752 30.432L21.504 33.728L20.672 36H1.76C1.58933 36 1.504 35.8613 1.504 35.584C1.504 35.3493 1.58933 35.232 1.76 35.232H2.144C2.95467 35.232 3.60533 35.0507 4.096 34.688C4.58667 34.3253 4.832 33.6427 4.832 32.64V15.744C4.832 14.7413 4.576 14.0693 4.064 13.728C3.57333 13.3653 2.93333 13.184 2.144 13.184H1.76C1.58933 13.184 1.504 13.0453 1.504 12.768C1.504 12.5333 1.58933 12.416 1.76 12.416H19.904C20.3307 13.1413 20.7573 13.92 21.184 14.752C21.632 15.584 21.952 16.192 22.144 16.576L22.176 16.704C22.176 16.7893 22.1013 16.8853 21.952 16.992C21.8667 17.0347 21.792 17.056 21.728 17.056C21.6213 17.056 21.5253 17.0133 21.44 16.928C20.544 16.0107 19.328 15.1893 17.792 14.464C16.2773 13.7173 14.752 13.344 13.216 13.344H12.608C11.7333 13.344 11.0507 13.3867 10.56 13.472C10.0907 13.536 9.71733 13.7067 9.44 13.984C9.16267 14.2613 9.024 14.7093 9.024 15.328V23.232H11.616C12.7893 23.232 13.5787 23.2213 13.984 23.2C14.9013 23.1787 15.616 22.8587 16.128 22.24C16.6613 21.6 16.928 20.8747 16.928 20.064C16.928 19.9147 17.0667 19.84 17.344 19.84C17.4933 19.84 17.5893 19.8613 17.632 19.904C17.696 19.9253 17.728 19.9787 17.728 20.064V27.52C17.728 27.6053 17.696 27.6693 17.632 27.712C17.5893 27.7333 17.4933 27.744 17.344 27.744C17.0667 27.744 16.928 27.6693 16.928 27.52C16.928 26.7093 16.6613 25.9947 16.128 25.376C15.616 24.7573 14.9013 24.4373 13.984 24.416C13.5787 24.3947 12.7893 24.384 11.616 24.384H9.024V33.024C9.024 33.7707 9.248 34.2827 9.696 34.56C10.1653 34.816 10.8907 34.976 11.872 35.04C12.0853 35.0613 12.416 35.072 12.864 35.072C13.312 35.072 13.6747 35.0613 13.952 35.04C15.8293 34.9333 17.3973 34.3787 18.656 33.376C19.936 32.352 21.1093 31.1147 22.176 29.664C22.24 29.5787 22.3253 29.536 22.432 29.536C22.5173 29.536 22.6027 29.5573 22.688 29.6ZM42.778 35.232C42.9273 35.232 43.002 35.3493 43.002 35.584C43.002 35.8613 42.9273 36 42.778 36H34.586C34.4153 36 34.33 35.8613 34.33 35.584C34.33 35.3493 34.426 35.232 34.618 35.232C35.066 35.1893 35.418 35.0933 35.674 34.944C35.93 34.7733 36.058 34.56 36.058 34.304C36.058 34.1333 35.962 33.92 35.77 33.664L34.618 32.16C33.4447 30.624 32.826 29.8133 32.762 29.728L29.914 33.12C29.6367 33.4613 29.498 33.792 29.498 34.112C29.498 34.4747 29.6793 34.752 30.042 34.944C30.4047 35.136 30.81 35.2427 31.258 35.264C31.4073 35.264 31.482 35.3707 31.482 35.584C31.482 35.8613 31.4073 36 31.258 36H24.794C24.6233 36 24.538 35.8613 24.538 35.584C24.538 35.456 24.57 35.3707 24.634 35.328C24.698 35.2853 24.826 35.2427 25.018 35.2C26.17 35.072 27.3647 34.3253 28.602 32.96C29.5833 31.7653 30.746 30.3893 32.09 28.832L27.354 22.688C26.8847 22.112 26.5007 21.7387 26.202 21.568C25.9033 21.376 25.466 21.2693 24.89 21.248C24.7407 21.248 24.666 21.1093 24.666 20.832C24.666 20.5973 24.7407 20.48 24.89 20.48H32.794C32.986 20.48 33.082 20.5973 33.082 20.832C33.082 21.1093 32.986 21.248 32.794 21.248C32.346 21.2693 31.9727 21.3653 31.674 21.536C31.3967 21.7067 31.258 21.92 31.258 22.176C31.258 22.368 31.3327 22.5387 31.482 22.688C31.674 22.9653 32.5913 24.16 34.234 26.272C35.258 25.0773 36.1007 24.064 36.762 23.232C37.018 22.8693 37.146 22.56 37.146 22.304C37.146 21.9413 36.9647 21.6747 36.602 21.504C36.2393 21.3333 35.7913 21.2373 35.258 21.216C35.0873 21.216 35.002 21.088 35.002 20.832C35.002 20.5973 35.0873 20.48 35.258 20.48H41.69C41.8607 20.48 41.946 20.5973 41.946 20.832C41.946 20.9813 41.914 21.0773 41.85 21.12C41.786 21.1627 41.658 21.2053 41.466 21.248C40.314 21.376 39.1087 22.176 37.85 23.648C37.7433 23.7973 37.6047 23.968 37.434 24.16C37.2633 24.352 37.0927 24.5547 36.922 24.768C36.1113 25.7067 35.45 26.5067 34.938 27.168C37.6473 30.624 39.3433 32.7467 40.026 33.536C40.6447 34.24 41.1247 34.688 41.466 34.88C41.8073 35.072 42.2447 35.1893 42.778 35.232ZM55.4718 20.128C56.6878 20.128 57.8078 20.48 58.8318 21.184C59.8558 21.8667 60.6558 22.816 61.2318 24.032C61.8291 25.2267 62.1278 26.5813 62.1278 28.096C62.1278 29.6533 61.8398 31.072 61.2638 32.352C60.6878 33.6107 59.8878 34.6027 58.8638 35.328C57.8611 36.0533 56.7198 36.416 55.4398 36.416C53.6051 36.416 51.9731 35.7653 50.5438 34.464V41.024C50.5438 41.664 50.7038 42.08 51.0238 42.272C51.3438 42.464 51.8024 42.56 52.3998 42.56H52.7198C52.8691 42.56 52.9438 42.6773 52.9438 42.912C52.9438 43.1893 52.8691 43.328 52.7198 43.328H44.6238C44.4744 43.328 44.3997 43.1893 44.3997 42.912C44.3997 42.6773 44.4744 42.56 44.6238 42.56H44.9758C45.5944 42.56 46.0638 42.464 46.3838 42.272C46.7038 42.08 46.8638 41.664 46.8638 41.024L46.7998 23.872C46.7998 23.1893 46.6398 22.7413 46.3198 22.528C46.0211 22.3147 45.4984 22.1867 44.7518 22.144C44.5598 22.1227 44.4638 21.952 44.4638 21.632C44.4638 21.4827 44.5278 21.3973 44.6558 21.376L50.5438 20.128V22.112C51.1411 21.536 51.8558 21.0667 52.6878 20.704C53.5198 20.32 54.4478 20.128 55.4718 20.128ZM54.1598 35.008C54.7998 35.008 55.4291 34.752 56.0478 34.24C56.6664 33.7067 57.1678 32.9067 57.5518 31.84C57.9571 30.7733 58.1598 29.4827 58.1598 27.968C58.1598 26.6453 57.9891 25.504 57.6478 24.544C57.3064 23.5627 56.8264 22.816 56.2078 22.304C55.6104 21.7707 54.9384 21.504 54.1918 21.504C53.6158 21.504 52.9864 21.6747 52.3038 22.016C51.6424 22.336 51.0558 22.7627 50.5438 23.296V33.248C51.0771 33.7813 51.6638 34.208 52.3038 34.528C52.9651 34.848 53.5838 35.008 54.1598 35.008ZM79.3408 31.904C79.4474 31.968 79.5008 32.0747 79.5008 32.224L79.4688 32.448C78.9781 33.4933 78.1888 34.4213 77.1008 35.232C76.0341 36.0213 74.6901 36.416 73.0688 36.416C71.5114 36.416 70.1034 36.064 68.8448 35.36C67.5861 34.656 66.5941 33.696 65.8688 32.48C65.1648 31.2427 64.8128 29.8987 64.8128 28.448C64.8128 27.1253 65.1114 25.824 65.7088 24.544C66.3274 23.264 67.2341 22.208 68.4288 21.376C69.6234 20.544 71.0421 20.128 72.6848 20.128C73.8794 20.128 74.9781 20.4053 75.9808 20.96C76.9834 21.5147 77.8048 22.304 78.4448 23.328C79.1061 24.352 79.5114 25.568 79.6608 26.976L68.8448 27.04C68.8234 27.2747 68.8128 27.648 68.8128 28.16C68.8128 30.0373 69.2501 31.616 70.1248 32.896C70.9994 34.176 72.2581 34.816 73.9008 34.816C75.9061 34.816 77.5488 33.8773 78.8288 32C78.8928 31.8933 78.9888 31.84 79.1168 31.84C79.1381 31.84 79.2128 31.8613 79.3408 31.904ZM72.5568 21.024C71.8101 21.024 71.0741 21.3867 70.3488 22.112C69.6448 22.816 69.1754 24.0853 68.9408 25.92L75.7248 25.856V25.312C75.7034 23.968 75.3834 22.9227 74.7648 22.176C74.1674 21.408 73.4314 21.024 72.5568 21.024ZM93.0915 20.096C93.9448 20.096 94.6382 20.3307 95.1715 20.8C95.7048 21.2693 95.9715 21.8133 95.9715 22.432C95.9715 22.9227 95.8008 23.328 95.4595 23.648C95.1395 23.968 94.7342 24.128 94.2435 24.128C93.9235 24.128 93.6355 24.064 93.3795 23.936C93.1448 23.7867 92.8568 23.5733 92.5155 23.296C92.2168 23.0613 91.9502 22.88 91.7155 22.752C91.4808 22.624 91.2355 22.56 90.9795 22.56C90.4675 22.56 89.9875 22.816 89.5395 23.328C89.0915 23.8187 88.6755 24.48 88.2915 25.312V33.696C88.2915 34.336 88.4515 34.752 88.7715 34.944C89.0915 35.136 89.5502 35.232 90.1475 35.232H90.5315C90.6808 35.232 90.7555 35.36 90.7555 35.616C90.7555 35.872 90.6808 36 90.5315 36H82.4355C82.2862 36 82.2115 35.872 82.2115 35.616C82.2115 35.36 82.2862 35.232 82.4355 35.232H82.7555C83.3528 35.232 83.8115 35.136 84.1315 34.944C84.4515 34.752 84.6115 34.336 84.6115 33.696V23.808C84.6115 23.1467 84.4515 22.7093 84.1315 22.496C83.8115 22.2827 83.2782 22.1547 82.5315 22.112C82.3395 22.0907 82.2435 21.92 82.2435 21.6C82.2435 21.472 82.3075 21.3973 82.4355 21.376C82.6488 21.2907 84.6008 20.8747 88.2915 20.128V23.744C88.9102 22.6347 89.6355 21.7493 90.4675 21.088C91.3208 20.4267 92.1955 20.096 93.0915 20.096ZM101.374 16.8C100.712 16.8 100.147 16.576 99.6778 16.128C99.2298 15.6587 99.0058 15.104 99.0058 14.464C99.0058 13.8027 99.2298 13.248 99.6778 12.8C100.147 12.3307 100.712 12.096 101.374 12.096C102.014 12.096 102.568 12.3307 103.038 12.8C103.507 13.248 103.742 13.8027 103.742 14.464C103.742 15.104 103.507 15.6587 103.038 16.128C102.568 16.576 102.014 16.8 101.374 16.8ZM97.3738 36C97.2244 36 97.1497 35.8613 97.1497 35.584C97.1497 35.3493 97.2244 35.232 97.3738 35.232H97.7578C98.3764 35.232 98.8564 35.136 99.1978 34.944C99.5604 34.752 99.7418 34.336 99.7418 33.696L99.7098 23.84C99.7098 23.1787 99.5498 22.7413 99.2298 22.528C98.9098 22.3147 98.3764 22.1867 97.6298 22.144C97.4378 22.1227 97.3418 21.9627 97.3418 21.664C97.3418 21.4933 97.4058 21.3973 97.5338 21.376C97.7684 21.2907 99.7311 20.8747 103.422 20.128L103.39 33.696C103.39 34.336 103.571 34.752 103.934 34.944C104.296 35.136 104.787 35.232 105.406 35.232H105.79C105.939 35.232 106.014 35.3493 106.014 35.584C106.014 35.8613 105.939 36 105.79 36H97.3738ZM122.872 31.904C122.979 31.968 123.032 32.0747 123.032 32.224L123 32.448C122.509 33.4933 121.72 34.4213 120.632 35.232C119.565 36.0213 118.221 36.416 116.6 36.416C115.043 36.416 113.635 36.064 112.376 35.36C111.117 34.656 110.125 33.696 109.4 32.48C108.696 31.2427 108.344 29.8987 108.344 28.448C108.344 27.1253 108.643 25.824 109.24 24.544C109.859 23.264 110.765 22.208 111.96 21.376C113.155 20.544 114.573 20.128 116.216 20.128C117.411 20.128 118.509 20.4053 119.512 20.96C120.515 21.5147 121.336 22.304 121.976 23.328C122.637 24.352 123.043 25.568 123.192 26.976L112.376 27.04C112.355 27.2747 112.344 27.648 112.344 28.16C112.344 30.0373 112.781 31.616 113.656 32.896C114.531 34.176 115.789 34.816 117.432 34.816C119.437 34.816 121.08 33.8773 122.36 32C122.424 31.8933 122.52 31.84 122.648 31.84C122.669 31.84 122.744 31.8613 122.872 31.904ZM116.088 21.024C115.341 21.024 114.605 21.3867 113.88 22.112C113.176 22.816 112.707 24.0853 112.472 25.92L119.256 25.856V25.312C119.235 23.968 118.915 22.9227 118.296 22.176C117.699 21.408 116.963 21.024 116.088 21.024ZM144.175 35.232C144.345 35.232 144.431 35.36 144.431 35.616C144.431 35.872 144.345 36 144.175 36H136.111C135.961 36 135.887 35.872 135.887 35.616C135.887 35.36 135.961 35.232 136.111 35.232H136.495C137.092 35.232 137.54 35.136 137.839 34.944C138.159 34.752 138.319 34.336 138.319 33.696L138.351 28.064C138.351 27.04 138.329 26.144 138.287 25.376C138.244 24.2667 138.02 23.3813 137.615 22.72C137.209 22.0587 136.516 21.728 135.535 21.728C134.831 21.728 134.159 21.9627 133.519 22.432C132.879 22.9013 132.313 23.5627 131.823 24.416V33.696C131.823 34.336 131.983 34.752 132.303 34.944C132.623 35.136 133.081 35.232 133.679 35.232H134.063C134.212 35.232 134.287 35.36 134.287 35.616C134.287 35.872 134.212 36 134.063 36H125.967C125.796 36 125.711 35.872 125.711 35.616C125.711 35.36 125.796 35.232 125.967 35.232H126.287C126.905 35.232 127.375 35.136 127.695 34.944C128.015 34.752 128.175 34.336 128.175 33.696L128.143 23.84C128.143 23.1787 127.972 22.7413 127.631 22.528C127.311 22.2933 126.788 22.1547 126.063 22.112C125.871 22.0907 125.775 21.92 125.775 21.6C125.775 21.472 125.839 21.3973 125.967 21.376C126.18 21.2907 128.132 20.8747 131.823 20.128V22.976C132.42 22.1013 133.135 21.408 133.967 20.896C134.799 20.384 135.716 20.128 136.719 20.128C137.871 20.128 138.841 20.3627 139.631 20.832C140.42 21.3013 141.007 21.9093 141.391 22.656C141.775 23.4027 141.977 24.192 141.999 25.024V27.968V33.696C141.999 34.336 142.159 34.752 142.479 34.944C142.799 35.136 143.257 35.232 143.855 35.232H144.175ZM154.464 36.416C153.141 36.416 151.872 36.1067 150.656 35.488C149.44 34.8693 148.448 33.9627 147.68 32.768C146.912 31.552 146.528 30.1013 146.528 28.416C146.528 27.1147 146.837 25.824 147.456 24.544C148.096 23.264 149.024 22.208 150.24 21.376C151.456 20.544 152.906 20.128 154.592 20.128C156.042 20.128 157.237 20.3413 158.176 20.768C159.114 21.1733 159.797 21.6747 160.224 22.272C160.65 22.848 160.864 23.3813 160.864 23.872C160.864 24.384 160.693 24.8107 160.352 25.152C160.032 25.4933 159.658 25.664 159.232 25.664C158.698 25.664 158.261 25.504 157.92 25.184C157.578 24.8427 157.237 24.3627 156.896 23.744C156.469 22.8693 156.053 22.208 155.648 21.76C155.242 21.312 154.752 21.088 154.176 21.088C153.472 21.088 152.842 21.3867 152.288 21.984C151.754 22.5813 151.328 23.424 151.008 24.512C150.709 25.6 150.56 26.848 150.56 28.256C150.56 29.792 150.784 31.0613 151.232 32.064C151.701 33.0667 152.288 33.792 152.992 34.24C153.717 34.688 154.485 34.912 155.296 34.912C157.322 34.912 158.933 34.0587 160.128 32.352C160.213 32.2453 160.298 32.192 160.384 32.192C160.49 32.192 160.576 32.2133 160.64 32.256C160.789 32.32 160.864 32.416 160.864 32.544C160.864 32.6293 160.842 32.6933 160.8 32.736C160.224 33.7813 159.392 34.656 158.304 35.36C157.237 36.064 155.957 36.416 154.464 36.416ZM178.06 31.904C178.166 31.968 178.22 32.0747 178.22 32.224L178.188 32.448C177.697 33.4933 176.908 34.4213 175.82 35.232C174.753 36.0213 173.409 36.416 171.788 36.416C170.23 36.416 168.822 36.064 167.564 35.36C166.305 34.656 165.313 33.696 164.588 32.48C163.884 31.2427 163.532 29.8987 163.532 28.448C163.532 27.1253 163.83 25.824 164.428 24.544C165.046 23.264 165.953 22.208 167.148 21.376C168.342 20.544 169.761 20.128 171.404 20.128C172.598 20.128 173.697 20.4053 174.7 20.96C175.702 21.5147 176.524 22.304 177.164 23.328C177.825 24.352 178.23 25.568 178.38 26.976L167.564 27.04C167.542 27.2747 167.532 27.648 167.532 28.16C167.532 30.0373 167.969 31.616 168.844 32.896C169.718 34.176 170.977 34.816 172.62 34.816C174.625 34.816 176.268 33.8773 177.548 32C177.612 31.8933 177.708 31.84 177.836 31.84C177.857 31.84 177.932 31.8613 178.06 31.904ZM171.276 21.024C170.529 21.024 169.793 21.3867 169.068 22.112C168.364 22.816 167.894 24.0853 167.66 25.92L174.444 25.856V25.312C174.422 23.968 174.102 22.9227 173.484 22.176C172.886 21.408 172.15 21.024 171.276 21.024ZM212.864 35.232C212.992 35.232 213.056 35.36 213.056 35.616C213.056 35.872 212.992 36 212.864 36H202.336C202.251 36 202.187 35.968 202.144 35.904C202.123 35.84 202.112 35.744 202.112 35.616C202.112 35.36 202.187 35.232 202.336 35.232C203.275 35.1893 203.979 35.072 204.448 34.88C204.917 34.6667 205.152 34.3147 205.152 33.824C205.152 33.5253 205.045 33.0773 204.832 32.48C204.832 32.5013 204.523 31.616 203.904 29.824C203.755 29.44 203.531 28.8 203.232 27.904H195.264C194.688 29.4827 194.176 30.944 193.728 32.288C193.6 32.5867 193.536 32.9387 193.536 33.344C193.536 34.6027 194.592 35.232 196.704 35.232C196.832 35.232 196.896 35.36 196.896 35.616C196.896 35.872 196.832 36 196.704 36H188.608C188.523 36 188.459 35.968 188.416 35.904C188.395 35.84 188.384 35.744 188.384 35.616C188.384 35.36 188.459 35.232 188.608 35.232C189.312 35.232 189.973 35.0187 190.592 34.592C191.232 34.144 191.755 33.4293 192.16 32.448L193.824 28.032C194.784 25.536 195.819 22.7947 196.928 19.808C198.059 16.8213 198.976 14.4107 199.68 12.576L201.792 11.968C202.005 11.968 202.144 12.0853 202.208 12.32C202.869 14.2613 204.096 17.8347 205.888 23.04C207.701 28.224 208.8 31.3173 209.184 32.32C209.504 33.1947 209.813 33.8347 210.112 34.24C210.432 34.6453 210.784 34.912 211.168 35.04C211.573 35.168 212.139 35.232 212.864 35.232ZM202.848 26.72L199.36 16.672L195.68 26.72H202.848ZM232.348 34.816C232.711 34.816 232.892 34.9653 232.892 35.264C232.892 35.4347 232.817 35.5413 232.668 35.584C232.476 35.6267 230.46 35.8827 226.62 36.352L226.588 33.568C226.033 34.3787 225.351 35.0507 224.54 35.584C223.729 36.096 222.791 36.352 221.724 36.352C219.975 36.352 218.684 35.872 217.852 34.912C217.02 33.952 216.583 32.8 216.54 31.456C216.497 29.7493 216.476 27.2 216.476 23.808C216.455 23.1253 216.284 22.6773 215.964 22.464C215.665 22.2507 215.153 22.1333 214.428 22.112C214.236 22.0907 214.14 21.9413 214.14 21.664C214.14 21.4933 214.204 21.3973 214.332 21.376C214.545 21.2907 216.497 20.8747 220.188 20.128C220.124 22.752 220.092 25.024 220.092 26.944C220.092 28.9493 220.113 30.3573 220.156 31.168C220.241 32.2347 220.476 33.0987 220.86 33.76C221.265 34.4213 221.948 34.752 222.908 34.752C223.591 34.752 224.252 34.528 224.892 34.08C225.532 33.6107 226.097 32.9707 226.588 32.16L226.524 23.84C226.503 23.1573 226.332 22.7093 226.012 22.496C225.713 22.2827 225.201 22.1547 224.476 22.112C224.284 22.0907 224.188 21.92 224.188 21.6C224.188 21.472 224.252 21.3973 224.38 21.376C224.593 21.2907 226.545 20.8747 230.236 20.128V33.312C230.236 34.2507 230.769 34.7627 231.836 34.848L232.348 34.816ZM241.458 36.416C240.071 36.416 239.015 36.0213 238.29 35.232C237.564 34.4427 237.18 33.2907 237.138 31.776V21.568H234.354V20.48C235.868 20.1387 237.116 19.488 238.098 18.528C239.1 17.5467 239.794 16.0107 240.178 13.92H240.818V20.48H244.882V21.568H240.818L240.754 28.96L240.786 31.616C240.892 33.6 241.639 34.592 243.026 34.592C243.474 34.592 243.858 34.5067 244.178 34.336C244.498 34.1653 244.86 33.8667 245.266 33.44C245.372 33.312 245.468 33.248 245.554 33.248C245.639 33.248 245.724 33.3013 245.81 33.408C245.916 33.4933 245.97 33.5787 245.97 33.664C245.97 33.7067 245.948 33.7707 245.906 33.856C245.308 34.7733 244.647 35.4347 243.922 35.84C243.196 36.224 242.375 36.416 241.458 36.416ZM265.552 35.232C265.701 35.232 265.776 35.36 265.776 35.616C265.776 35.872 265.701 36 265.552 36H257.488C257.317 36 257.232 35.872 257.232 35.616C257.232 35.36 257.317 35.232 257.488 35.232H257.808C258.405 35.232 258.864 35.136 259.184 34.944C259.504 34.752 259.664 34.336 259.664 33.696C259.707 31.6053 259.728 29.792 259.728 28.256C259.728 27.1467 259.707 26.1867 259.664 25.376C259.579 24.2453 259.333 23.36 258.928 22.72C258.544 22.0587 257.872 21.728 256.912 21.728C256.208 21.728 255.536 21.9627 254.896 22.432C254.256 22.88 253.691 23.5307 253.2 24.384V33.696C253.2 34.336 253.36 34.752 253.68 34.944C254 35.136 254.459 35.232 255.056 35.232H255.408C255.579 35.232 255.664 35.36 255.664 35.616C255.664 35.872 255.579 36 255.408 36H247.312C247.141 36 247.056 35.872 247.056 35.616C247.056 35.36 247.141 35.232 247.312 35.232H247.664C248.261 35.232 248.72 35.136 249.04 34.944C249.36 34.752 249.52 34.336 249.52 33.696L249.488 15.776C249.488 15.1147 249.328 14.6773 249.008 14.464C248.709 14.2507 248.187 14.112 247.44 14.048C247.355 14.048 247.28 14.016 247.216 13.952C247.173 13.888 247.152 13.824 247.152 13.76V13.568C247.152 13.44 247.216 13.3653 247.344 13.344C247.536 13.2587 249.488 12.8427 253.2 12.096V22.976C253.819 22.1013 254.533 21.408 255.344 20.896C256.176 20.384 257.093 20.128 258.096 20.128C259.248 20.128 260.208 20.3627 260.976 20.832C261.744 21.3013 262.32 21.92 262.704 22.688C263.088 23.4347 263.291 24.224 263.312 25.056V27.84V33.696C263.312 34.336 263.472 34.752 263.792 34.944C264.133 35.136 264.603 35.232 265.2 35.232H265.552ZM282.622 31.904C282.729 31.968 282.782 32.0747 282.782 32.224L282.75 32.448C282.259 33.4933 281.47 34.4213 280.382 35.232C279.315 36.0213 277.971 36.416 276.35 36.416C274.793 36.416 273.385 36.064 272.126 35.36C270.867 34.656 269.875 33.696 269.15 32.48C268.446 31.2427 268.094 29.8987 268.094 28.448C268.094 27.1253 268.393 25.824 268.99 24.544C269.609 23.264 270.515 22.208 271.71 21.376C272.905 20.544 274.323 20.128 275.966 20.128C277.161 20.128 278.259 20.4053 279.262 20.96C280.265 21.5147 281.086 22.304 281.726 23.328C282.387 24.352 282.793 25.568 282.942 26.976L272.126 27.04C272.105 27.2747 272.094 27.648 272.094 28.16C272.094 30.0373 272.531 31.616 273.406 32.896C274.281 34.176 275.539 34.816 277.182 34.816C279.187 34.816 280.83 33.8773 282.11 32C282.174 31.8933 282.27 31.84 282.398 31.84C282.419 31.84 282.494 31.8613 282.622 31.904ZM275.838 21.024C275.091 21.024 274.355 21.3867 273.63 22.112C272.926 22.816 272.457 24.0853 272.222 25.92L279.006 25.856V25.312C278.985 23.968 278.665 22.9227 278.046 22.176C277.449 21.408 276.713 21.024 275.838 21.024ZM303.925 35.232C304.095 35.232 304.181 35.36 304.181 35.616C304.181 35.872 304.095 36 303.925 36H295.861C295.711 36 295.637 35.872 295.637 35.616C295.637 35.36 295.711 35.232 295.861 35.232H296.245C296.842 35.232 297.29 35.136 297.589 34.944C297.909 34.752 298.069 34.336 298.069 33.696L298.101 28.064C298.101 27.04 298.079 26.144 298.037 25.376C297.994 24.2667 297.77 23.3813 297.365 22.72C296.959 22.0587 296.266 21.728 295.285 21.728C294.581 21.728 293.909 21.9627 293.269 22.432C292.629 22.9013 292.063 23.5627 291.573 24.416V33.696C291.573 34.336 291.733 34.752 292.053 34.944C292.373 35.136 292.831 35.232 293.429 35.232H293.813C293.962 35.232 294.037 35.36 294.037 35.616C294.037 35.872 293.962 36 293.813 36H285.717C285.546 36 285.461 35.872 285.461 35.616C285.461 35.36 285.546 35.232 285.717 35.232H286.037C286.655 35.232 287.125 35.136 287.445 34.944C287.765 34.752 287.925 34.336 287.925 33.696L287.893 23.84C287.893 23.1787 287.722 22.7413 287.381 22.528C287.061 22.2933 286.538 22.1547 285.813 22.112C285.621 22.0907 285.525 21.92 285.525 21.6C285.525 21.472 285.589 21.3973 285.717 21.376C285.93 21.2907 287.882 20.8747 291.573 20.128V22.976C292.17 22.1013 292.885 21.408 293.717 20.896C294.549 20.384 295.466 20.128 296.469 20.128C297.621 20.128 298.591 20.3627 299.381 20.832C300.17 21.3013 300.757 21.9093 301.141 22.656C301.525 23.4027 301.727 24.192 301.749 25.024V27.968V33.696C301.749 34.336 301.909 34.752 302.229 34.944C302.549 35.136 303.007 35.232 303.605 35.232H303.925ZM312.614 36.416C311.227 36.416 310.171 36.0213 309.446 35.232C308.72 34.4427 308.336 33.2907 308.294 31.776V21.568H305.51V20.48C307.024 20.1387 308.272 19.488 309.254 18.528C310.256 17.5467 310.95 16.0107 311.334 13.92H311.974V20.48H316.038V21.568H311.974L311.91 28.96L311.942 31.616C312.048 33.6 312.795 34.592 314.182 34.592C314.63 34.592 315.014 34.5067 315.334 34.336C315.654 34.1653 316.016 33.8667 316.422 33.44C316.528 33.312 316.624 33.248 316.71 33.248C316.795 33.248 316.88 33.3013 316.966 33.408C317.072 33.4933 317.126 33.5787 317.126 33.664C317.126 33.7067 317.104 33.7707 317.062 33.856C316.464 34.7733 315.803 35.4347 315.078 35.84C314.352 36.224 313.531 36.416 312.614 36.416ZM322.436 16.8C321.775 16.8 321.21 16.576 320.74 16.128C320.292 15.6587 320.068 15.104 320.068 14.464C320.068 13.8027 320.292 13.248 320.74 12.8C321.21 12.3307 321.775 12.096 322.436 12.096C323.076 12.096 323.631 12.3307 324.1 12.8C324.57 13.248 324.804 13.8027 324.804 14.464C324.804 15.104 324.57 15.6587 324.1 16.128C323.631 16.576 323.076 16.8 322.436 16.8ZM318.436 36C318.287 36 318.212 35.8613 318.212 35.584C318.212 35.3493 318.287 35.232 318.436 35.232H318.82C319.439 35.232 319.919 35.136 320.26 34.944C320.623 34.752 320.804 34.336 320.804 33.696L320.772 23.84C320.772 23.1787 320.612 22.7413 320.292 22.528C319.972 22.3147 319.439 22.1867 318.692 22.144C318.5 22.1227 318.404 21.9627 318.404 21.664C318.404 21.4933 318.468 21.3973 318.596 21.376C318.831 21.2907 320.794 20.8747 324.484 20.128L324.452 33.696C324.452 34.336 324.634 34.752 324.996 34.944C325.359 35.136 325.85 35.232 326.468 35.232H326.852C327.002 35.232 327.076 35.3493 327.076 35.584C327.076 35.8613 327.002 36 326.852 36H318.436ZM337.183 36.416C335.86 36.416 334.591 36.1067 333.375 35.488C332.159 34.8693 331.167 33.9627 330.399 32.768C329.631 31.552 329.247 30.1013 329.247 28.416C329.247 27.1147 329.556 25.824 330.174 24.544C330.815 23.264 331.743 22.208 332.959 21.376C334.175 20.544 335.625 20.128 337.311 20.128C338.761 20.128 339.956 20.3413 340.895 20.768C341.833 21.1733 342.516 21.6747 342.943 22.272C343.369 22.848 343.583 23.3813 343.583 23.872C343.583 24.384 343.412 24.8107 343.071 25.152C342.751 25.4933 342.377 25.664 341.951 25.664C341.417 25.664 340.98 25.504 340.639 25.184C340.297 24.8427 339.956 24.3627 339.615 23.744C339.188 22.8693 338.772 22.208 338.367 21.76C337.961 21.312 337.471 21.088 336.895 21.088C336.191 21.088 335.561 21.3867 335.007 21.984C334.473 22.5813 334.047 23.424 333.727 24.512C333.428 25.6 333.279 26.848 333.279 28.256C333.279 29.792 333.503 31.0613 333.951 32.064C334.42 33.0667 335.007 33.792 335.711 34.24C336.436 34.688 337.204 34.912 338.015 34.912C340.041 34.912 341.652 34.0587 342.847 32.352C342.932 32.2453 343.017 32.192 343.103 32.192C343.209 32.192 343.295 32.2133 343.359 32.256C343.508 32.32 343.583 32.416 343.583 32.544C343.583 32.6293 343.561 32.6933 343.519 32.736C342.943 33.7813 342.111 34.656 341.023 35.36C339.956 36.064 338.676 36.416 337.183 36.416ZM39.3459 86.44C38.5139 86.44 37.7672 86.2907 37.1059 85.992C36.4659 85.6933 35.9645 85.32 35.6019 84.872C35.2392 84.424 35.0579 83.976 35.0579 83.528C35.0579 83.016 35.2179 82.6107 35.5379 82.312C35.8365 82.0347 36.1779 81.896 36.5619 81.896C37.1592 81.896 37.7352 82.1413 38.2899 82.632C38.5885 82.8667 39.0045 83.3147 39.5379 83.976C39.8152 84.296 40.0499 84.5413 40.2419 84.712C40.4552 84.8827 40.6685 84.968 40.8819 84.968C41.0312 84.968 41.1699 84.936 41.2979 84.872C41.4259 84.808 41.5112 84.7333 41.5539 84.648C42.0232 84.2853 42.3645 83.528 42.5779 82.376C42.7912 81.224 42.8979 79.528 42.8979 77.288V60.808C42.8979 59.784 42.6419 59.1013 42.1299 58.76C41.6392 58.3973 40.9885 58.216 40.1779 58.216H39.7619C39.6125 58.216 39.5379 58.088 39.5379 57.832C39.5379 57.5547 39.6125 57.416 39.7619 57.416H50.1299C50.3005 57.416 50.3859 57.5547 50.3859 57.832C50.3859 58.088 50.3005 58.216 50.1299 58.216H49.7459C48.9565 58.216 48.3059 58.3973 47.7939 58.76C47.3032 59.1227 47.0579 59.8053 47.0579 60.808L47.0899 77.48C47.0899 79.6987 46.6632 81.4693 45.8099 82.792C44.9565 84.136 43.9325 85.0747 42.7379 85.608C41.5645 86.1627 40.4339 86.44 39.3459 86.44ZM69.3709 78.184C69.5415 78.184 69.6269 78.2587 69.6269 78.408L69.5949 78.6C69.3389 79.4107 68.8589 80.072 68.1549 80.584C67.4722 81.096 66.7575 81.352 66.0109 81.352C64.4749 81.352 63.4829 80.6373 63.0349 79.208C62.2029 79.9333 61.2749 80.488 60.2509 80.872C59.2269 81.256 58.2135 81.448 57.2109 81.448C55.8882 81.448 54.8535 81.1493 54.1069 80.552C53.3602 79.9333 52.9869 79.0693 52.9869 77.96C52.9869 76.3387 53.8722 75.048 55.6429 74.088C56.1335 73.832 56.6882 73.6293 57.3069 73.48C57.9255 73.3093 58.7575 73.1173 59.8029 72.904C60.1229 72.84 60.5815 72.744 61.1789 72.616C61.7975 72.4667 62.3415 72.328 62.8109 72.2V70.76C62.8109 69.544 62.7682 68.68 62.6829 68.168C62.6189 67.6347 62.4482 67.1973 62.1709 66.856C61.7655 66.3227 61.1362 66.056 60.2829 66.056C59.7069 66.056 59.2162 66.2373 58.8109 66.6C58.4055 66.9413 58.0749 67.6133 57.8189 68.616C57.6269 69.3413 57.3389 69.8853 56.9549 70.248C56.5922 70.5893 56.1655 70.76 55.6749 70.76C55.1842 70.76 54.7469 70.6213 54.3629 70.344C53.9789 70.0453 53.7869 69.6293 53.7869 69.096C53.7869 68.6907 53.9469 68.1893 54.2669 67.592C54.6082 66.9733 55.2589 66.408 56.2189 65.896C57.1789 65.384 58.5335 65.128 60.2829 65.128C61.5629 65.128 62.6402 65.2987 63.5149 65.64C64.3895 65.9813 65.0722 66.44 65.5629 67.016C65.9469 67.4427 66.2029 67.912 66.3309 68.424C66.4589 68.936 66.5229 69.5653 66.5229 70.312C66.5229 71.7627 66.5122 72.872 66.4909 73.64L66.4589 77.224C66.4589 78.1413 66.5655 78.7387 66.7789 79.016C67.0135 79.2933 67.2909 79.432 67.6109 79.432C67.8669 79.432 68.1335 79.3467 68.4109 79.176C68.6882 78.984 68.9335 78.7067 69.1469 78.344C69.2109 78.2373 69.2855 78.184 69.3709 78.184ZM59.3549 79.688C59.9309 79.688 60.5175 79.5707 61.1149 79.336C61.7335 79.1013 62.2989 78.76 62.8109 78.312C62.7469 77.8213 62.7149 77.3307 62.7149 76.84L62.7789 73.096C60.7309 73.608 59.2269 74.2373 58.2669 74.984C57.3069 75.7093 56.8269 76.616 56.8269 77.704C56.8269 78.28 57.0509 78.76 57.4989 79.144C57.9469 79.5067 58.5655 79.688 59.3549 79.688ZM81.9249 65.128C83.1409 65.128 84.2609 65.48 85.2849 66.184C86.3089 66.8667 87.1089 67.816 87.6849 69.032C88.2822 70.2267 88.5809 71.5813 88.5809 73.096C88.5809 74.6533 88.2929 76.072 87.7169 77.352C87.1409 78.6107 86.3409 79.6027 85.3169 80.328C84.3142 81.0533 83.1729 81.416 81.8929 81.416C80.0582 81.416 78.4262 80.7653 76.9969 79.464V86.024C76.9969 86.664 77.1569 87.08 77.4769 87.272C77.7969 87.464 78.2555 87.56 78.8529 87.56H79.1729C79.3222 87.56 79.3969 87.6773 79.3969 87.912C79.3969 88.1893 79.3222 88.328 79.1729 88.328H71.0769C70.9275 88.328 70.8529 88.1893 70.8529 87.912C70.8529 87.6773 70.9275 87.56 71.0769 87.56H71.4289C72.0475 87.56 72.5169 87.464 72.8369 87.272C73.1569 87.08 73.3169 86.664 73.3169 86.024L73.2529 68.872C73.2529 68.1893 73.0929 67.7413 72.7729 67.528C72.4742 67.3147 71.9515 67.1867 71.2049 67.144C71.0129 67.1227 70.9169 66.952 70.9169 66.632C70.9169 66.4827 70.9809 66.3973 71.1089 66.376L76.9969 65.128V67.112C77.5942 66.536 78.3089 66.0667 79.1409 65.704C79.9729 65.32 80.9009 65.128 81.9249 65.128ZM80.6129 80.008C81.2529 80.008 81.8822 79.752 82.5009 79.24C83.1195 78.7067 83.6209 77.9067 84.0049 76.84C84.4102 75.7733 84.6129 74.4827 84.6129 72.968C84.6129 71.6453 84.4422 70.504 84.1009 69.544C83.7595 68.5627 83.2795 67.816 82.6609 67.304C82.0635 66.7707 81.3915 66.504 80.6449 66.504C80.0689 66.504 79.4395 66.6747 78.7569 67.016C78.0955 67.336 77.5089 67.7627 76.9969 68.296V78.248C77.5302 78.7813 78.1169 79.208 78.7569 79.528C79.4182 79.848 80.0369 80.008 80.6129 80.008ZM107.746 78.184C107.917 78.184 108.002 78.2587 108.002 78.408L107.97 78.6C107.714 79.4107 107.234 80.072 106.53 80.584C105.847 81.096 105.133 81.352 104.386 81.352C102.85 81.352 101.858 80.6373 101.41 79.208C100.578 79.9333 99.6499 80.488 98.6259 80.872C97.6019 81.256 96.5885 81.448 95.5859 81.448C94.2632 81.448 93.2285 81.1493 92.4819 80.552C91.7352 79.9333 91.3619 79.0693 91.3619 77.96C91.3619 76.3387 92.2472 75.048 94.0179 74.088C94.5085 73.832 95.0632 73.6293 95.6819 73.48C96.3005 73.3093 97.1325 73.1173 98.1779 72.904C98.4979 72.84 98.9565 72.744 99.5539 72.616C100.173 72.4667 100.717 72.328 101.186 72.2V70.76C101.186 69.544 101.143 68.68 101.058 68.168C100.994 67.6347 100.823 67.1973 100.546 66.856C100.141 66.3227 99.5112 66.056 98.6579 66.056C98.0819 66.056 97.5912 66.2373 97.1859 66.6C96.7805 66.9413 96.4499 67.6133 96.1939 68.616C96.0019 69.3413 95.7139 69.8853 95.3299 70.248C94.9672 70.5893 94.5405 70.76 94.0499 70.76C93.5592 70.76 93.1219 70.6213 92.7379 70.344C92.3539 70.0453 92.1619 69.6293 92.1619 69.096C92.1619 68.6907 92.3219 68.1893 92.6419 67.592C92.9832 66.9733 93.6339 66.408 94.5939 65.896C95.5539 65.384 96.9085 65.128 98.6579 65.128C99.9379 65.128 101.015 65.2987 101.89 65.64C102.765 65.9813 103.447 66.44 103.938 67.016C104.322 67.4427 104.578 67.912 104.706 68.424C104.834 68.936 104.898 69.5653 104.898 70.312C104.898 71.7627 104.887 72.872 104.866 73.64L104.834 77.224C104.834 78.1413 104.941 78.7387 105.154 79.016C105.389 79.2933 105.666 79.432 105.986 79.432C106.242 79.432 106.509 79.3467 106.786 79.176C107.063 78.984 107.309 78.7067 107.522 78.344C107.586 78.2373 107.661 78.184 107.746 78.184ZM97.7299 79.688C98.3059 79.688 98.8925 79.5707 99.4899 79.336C100.109 79.1013 100.674 78.76 101.186 78.312C101.122 77.8213 101.09 77.3307 101.09 76.84L101.154 73.096C99.1059 73.608 97.6019 74.2373 96.6419 74.984C95.6819 75.7093 95.2019 76.616 95.2019 77.704C95.2019 78.28 95.4259 78.76 95.8739 79.144C96.3219 79.5067 96.9405 79.688 97.7299 79.688ZM127.628 80.232C127.799 80.232 127.884 80.36 127.884 80.616C127.884 80.872 127.799 81 127.628 81H119.564C119.415 81 119.34 80.872 119.34 80.616C119.34 80.36 119.415 80.232 119.564 80.232H119.948C120.545 80.232 120.993 80.136 121.292 79.944C121.612 79.752 121.772 79.336 121.772 78.696L121.804 73.064C121.804 72.04 121.783 71.144 121.74 70.376C121.697 69.2667 121.473 68.3813 121.068 67.72C120.663 67.0587 119.969 66.728 118.988 66.728C118.284 66.728 117.612 66.9627 116.972 67.432C116.332 67.9013 115.767 68.5627 115.276 69.416V78.696C115.276 79.336 115.436 79.752 115.756 79.944C116.076 80.136 116.535 80.232 117.132 80.232H117.516C117.665 80.232 117.74 80.36 117.74 80.616C117.74 80.872 117.665 81 117.516 81H109.42C109.249 81 109.164 80.872 109.164 80.616C109.164 80.36 109.249 80.232 109.42 80.232H109.74C110.359 80.232 110.828 80.136 111.148 79.944C111.468 79.752 111.628 79.336 111.628 78.696L111.596 68.84C111.596 68.1787 111.425 67.7413 111.084 67.528C110.764 67.2933 110.241 67.1547 109.516 67.112C109.324 67.0907 109.228 66.92 109.228 66.6C109.228 66.472 109.292 66.3973 109.42 66.376C109.633 66.2907 111.585 65.8747 115.276 65.128V67.976C115.873 67.1013 116.588 66.408 117.42 65.896C118.252 65.384 119.169 65.128 120.172 65.128C121.324 65.128 122.295 65.3627 123.084 65.832C123.873 66.3013 124.46 66.9093 124.844 67.656C125.228 68.4027 125.431 69.192 125.452 70.024V72.968V78.696C125.452 79.336 125.612 79.752 125.932 79.944C126.252 80.136 126.711 80.232 127.308 80.232H127.628ZM144.669 76.904C144.776 76.968 144.829 77.0747 144.829 77.224L144.797 77.448C144.306 78.4933 143.517 79.4213 142.429 80.232C141.362 81.0213 140.018 81.416 138.397 81.416C136.84 81.416 135.432 81.064 134.173 80.36C132.914 79.656 131.922 78.696 131.197 77.48C130.493 76.2427 130.141 74.8987 130.141 73.448C130.141 72.1253 130.44 70.824 131.037 69.544C131.656 68.264 132.562 67.208 133.757 66.376C134.952 65.544 136.37 65.128 138.013 65.128C139.208 65.128 140.306 65.4053 141.309 65.96C142.312 66.5147 143.133 67.304 143.773 68.328C144.434 69.352 144.84 70.568 144.989 71.976L134.173 72.04C134.152 72.2747 134.141 72.648 134.141 73.16C134.141 75.0373 134.578 76.616 135.453 77.896C136.328 79.176 137.586 79.816 139.229 79.816C141.234 79.816 142.877 78.8773 144.157 77C144.221 76.8933 144.317 76.84 144.445 76.84C144.466 76.84 144.541 76.8613 144.669 76.904ZM137.885 66.024C137.138 66.024 136.402 66.3867 135.677 67.112C134.973 67.816 134.504 69.0853 134.269 70.92L141.053 70.856V70.312C141.032 68.968 140.712 67.9227 140.093 67.176C139.496 66.408 138.76 66.024 137.885 66.024ZM148.02 76.2L147.988 76.04C147.988 75.8693 148.073 75.752 148.244 75.688C148.286 75.6667 148.35 75.656 148.436 75.656C148.585 75.656 148.702 75.7307 148.788 75.88C150.686 78.888 152.969 80.392 155.636 80.392C156.617 80.392 157.353 80.1573 157.844 79.688C158.356 79.2187 158.612 78.6213 158.612 77.896C158.612 77.4267 158.462 76.9893 158.164 76.584C157.865 76.1787 157.449 75.8587 156.916 75.624C156.382 75.3893 155.422 75.0693 154.036 74.664C153.908 74.6213 153.524 74.504 152.884 74.312C152.244 74.12 151.742 73.928 151.38 73.736C150.505 73.3093 149.822 72.7653 149.332 72.104C148.841 71.4427 148.596 70.664 148.596 69.768C148.596 69.0213 148.788 68.296 149.172 67.592C149.577 66.8667 150.164 66.28 150.932 65.832C151.7 65.3627 152.617 65.128 153.684 65.128C154.302 65.128 154.846 65.1813 155.316 65.288C155.806 65.3733 156.404 65.512 157.108 65.704C157.598 65.8533 157.897 65.928 158.004 65.928C158.324 65.928 158.633 65.832 158.932 65.64C159.252 65.4267 159.497 65.16 159.668 64.84L161.076 69.576L161.108 69.768C161.108 69.896 161.022 70.0027 160.852 70.088C160.766 70.1307 160.681 70.152 160.596 70.152C160.468 70.152 160.361 70.088 160.276 69.96C159.444 68.7227 158.409 67.7733 157.172 67.112C155.934 66.4507 154.782 66.12 153.716 66.12C152.777 66.12 152.094 66.3547 151.668 66.824C151.262 67.2933 151.06 67.7733 151.06 68.264C151.06 68.6693 151.198 69.032 151.476 69.352C151.774 69.672 152.244 69.992 152.884 70.312C153.289 70.504 154.078 70.7813 155.252 71.144C156.809 71.6347 157.929 72.04 158.612 72.36C159.529 72.808 160.254 73.384 160.788 74.088C161.342 74.792 161.62 75.624 161.62 76.584C161.62 78.0773 161.076 79.2613 159.988 80.136C158.921 80.9893 157.524 81.416 155.796 81.416C155.198 81.416 154.633 81.3627 154.1 81.256C153.566 81.1493 152.937 81 152.212 80.808C151.55 80.616 151.134 80.52 150.964 80.52C150.665 80.52 150.388 80.6053 150.132 80.776C149.876 80.9467 149.609 81.192 149.332 81.512L148.02 76.2ZM178.638 76.904C178.744 76.968 178.798 77.0747 178.798 77.224L178.766 77.448C178.275 78.4933 177.486 79.4213 176.398 80.232C175.331 81.0213 173.987 81.416 172.366 81.416C170.808 81.416 169.4 81.064 168.142 80.36C166.883 79.656 165.891 78.696 165.166 77.48C164.462 76.2427 164.11 74.8987 164.11 73.448C164.11 72.1253 164.408 70.824 165.006 69.544C165.624 68.264 166.531 67.208 167.726 66.376C168.92 65.544 170.339 65.128 171.982 65.128C173.176 65.128 174.275 65.4053 175.278 65.96C176.28 66.5147 177.102 67.304 177.742 68.328C178.403 69.352 178.808 70.568 178.958 71.976L168.142 72.04C168.12 72.2747 168.11 72.648 168.11 73.16C168.11 75.0373 168.547 76.616 169.422 77.896C170.296 79.176 171.555 79.816 173.198 79.816C175.203 79.816 176.846 78.8773 178.126 77C178.19 76.8933 178.286 76.84 178.414 76.84C178.435 76.84 178.51 76.8613 178.638 76.904ZM171.854 66.024C171.107 66.024 170.371 66.3867 169.646 67.112C168.942 67.816 168.472 69.0853 168.238 70.92L175.022 70.856V70.312C175 68.968 174.68 67.9227 174.062 67.176C173.464 66.408 172.728 66.024 171.854 66.024ZM202.018 81.416C200.205 81.416 198.381 81 196.546 80.168C194.733 79.336 193.207 78.0347 191.97 76.264C190.754 74.4933 190.146 72.2853 190.146 69.64C190.146 67.528 190.626 65.512 191.586 63.592C192.546 61.6507 193.879 60.0827 195.586 58.888C197.293 57.6933 199.202 57.096 201.314 57.096C201.954 57.096 202.573 57.1707 203.17 57.32C203.789 57.4693 204.45 57.672 205.154 57.928C205.986 58.2267 206.551 58.376 206.85 58.376C207.383 58.376 208.002 58.088 208.706 57.512L209.954 62.824L210.018 63.144C210.018 63.272 209.933 63.3787 209.762 63.464C209.719 63.4853 209.666 63.496 209.602 63.496C209.474 63.496 209.357 63.432 209.25 63.304C208.567 62.3013 207.927 61.4693 207.33 60.808C206.754 60.1467 205.986 59.56 205.026 59.048C204.066 58.5147 202.935 58.248 201.634 58.248C199.735 58.248 198.274 58.9733 197.25 60.424C196.226 61.8747 195.554 63.4427 195.234 65.128C194.914 66.8133 194.754 68.232 194.754 69.384C194.754 71.6667 195.127 73.608 195.874 75.208C196.642 76.7867 197.613 77.9707 198.786 78.76C199.981 79.5493 201.229 79.944 202.53 79.944C204.301 79.944 205.741 79.496 206.85 78.6C207.981 77.704 209.037 76.488 210.018 74.952C210.125 74.8453 210.221 74.792 210.306 74.792C210.349 74.792 210.423 74.824 210.53 74.888C210.679 74.9733 210.754 75.08 210.754 75.208C210.754 75.2507 210.733 75.3147 210.69 75.4C209.879 76.9573 208.77 78.3547 207.362 79.592C205.975 80.808 204.194 81.416 202.018 81.416ZM230.989 79.816C231.351 79.816 231.533 79.9653 231.533 80.264C231.533 80.4347 231.458 80.5413 231.309 80.584C231.117 80.6267 229.101 80.8827 225.261 81.352L225.229 78.568C224.674 79.3787 223.991 80.0507 223.181 80.584C222.37 81.096 221.431 81.352 220.365 81.352C218.615 81.352 217.325 80.872 216.493 79.912C215.661 78.952 215.223 77.8 215.181 76.456C215.138 74.7493 215.117 72.2 215.117 68.808C215.095 68.1253 214.925 67.6773 214.605 67.464C214.306 67.2507 213.794 67.1333 213.069 67.112C212.877 67.0907 212.781 66.9413 212.781 66.664C212.781 66.4933 212.845 66.3973 212.973 66.376C213.186 66.2907 215.138 65.8747 218.829 65.128C218.765 67.752 218.733 70.024 218.733 71.944C218.733 73.9493 218.754 75.3573 218.797 76.168C218.882 77.2347 219.117 78.0987 219.501 78.76C219.906 79.4213 220.589 79.752 221.549 79.752C222.231 79.752 222.893 79.528 223.533 79.08C224.173 78.6107 224.738 77.9707 225.229 77.16L225.165 68.84C225.143 68.1573 224.973 67.7093 224.653 67.496C224.354 67.2827 223.842 67.1547 223.117 67.112C222.925 67.0907 222.829 66.92 222.829 66.6C222.829 66.472 222.893 66.3973 223.021 66.376C223.234 66.2907 225.186 65.8747 228.877 65.128V78.312C228.877 79.2507 229.41 79.7627 230.477 79.848L230.989 79.816ZM237.858 61.8C237.197 61.8 236.631 61.576 236.162 61.128C235.714 60.6587 235.49 60.104 235.49 59.464C235.49 58.8027 235.714 58.248 236.162 57.8C236.631 57.3307 237.197 57.096 237.858 57.096C238.498 57.096 239.053 57.3307 239.522 57.8C239.991 58.248 240.226 58.8027 240.226 59.464C240.226 60.104 239.991 60.6587 239.522 61.128C239.053 61.576 238.498 61.8 237.858 61.8ZM233.858 81C233.709 81 233.634 80.8613 233.634 80.584C233.634 80.3493 233.709 80.232 233.858 80.232H234.242C234.861 80.232 235.341 80.136 235.682 79.944C236.045 79.752 236.226 79.336 236.226 78.696L236.194 68.84C236.194 68.1787 236.034 67.7413 235.714 67.528C235.394 67.3147 234.861 67.1867 234.114 67.144C233.922 67.1227 233.826 66.9627 233.826 66.664C233.826 66.4933 233.89 66.3973 234.018 66.376C234.253 66.2907 236.215 65.8747 239.906 65.128L239.874 78.696C239.874 79.336 240.055 79.752 240.418 79.944C240.781 80.136 241.271 80.232 241.89 80.232H242.274C242.423 80.232 242.498 80.3493 242.498 80.584C242.498 80.8613 242.423 81 242.274 81H233.858ZM244.988 76.2L244.956 76.04C244.956 75.8693 245.042 75.752 245.212 75.688C245.255 75.6667 245.319 75.656 245.404 75.656C245.554 75.656 245.671 75.7307 245.756 75.88C247.655 78.888 249.938 80.392 252.604 80.392C253.586 80.392 254.322 80.1573 254.812 79.688C255.324 79.2187 255.58 78.6213 255.58 77.896C255.58 77.4267 255.431 76.9893 255.132 76.584C254.834 76.1787 254.418 75.8587 253.884 75.624C253.351 75.3893 252.391 75.0693 251.004 74.664C250.876 74.6213 250.492 74.504 249.852 74.312C249.212 74.12 248.711 73.928 248.348 73.736C247.474 73.3093 246.791 72.7653 246.3 72.104C245.81 71.4427 245.564 70.664 245.564 69.768C245.564 69.0213 245.756 68.296 246.14 67.592C246.546 66.8667 247.132 66.28 247.9 65.832C248.668 65.3627 249.586 65.128 250.652 65.128C251.271 65.128 251.815 65.1813 252.284 65.288C252.775 65.3733 253.372 65.512 254.076 65.704C254.567 65.8533 254.866 65.928 254.972 65.928C255.292 65.928 255.602 65.832 255.9 65.64C256.22 65.4267 256.466 65.16 256.636 64.84L258.044 69.576L258.076 69.768C258.076 69.896 257.991 70.0027 257.82 70.088C257.735 70.1307 257.65 70.152 257.564 70.152C257.436 70.152 257.33 70.088 257.244 69.96C256.412 68.7227 255.378 67.7733 254.14 67.112C252.903 66.4507 251.751 66.12 250.684 66.12C249.746 66.12 249.063 66.3547 248.636 66.824C248.231 67.2933 248.028 67.7733 248.028 68.264C248.028 68.6693 248.167 69.032 248.444 69.352C248.743 69.672 249.212 69.992 249.852 70.312C250.258 70.504 251.047 70.7813 252.22 71.144C253.778 71.6347 254.898 72.04 255.58 72.36C256.498 72.808 257.223 73.384 257.756 74.088C258.311 74.792 258.588 75.624 258.588 76.584C258.588 78.0773 258.044 79.2613 256.956 80.136C255.89 80.9893 254.492 81.416 252.764 81.416C252.167 81.416 251.602 81.3627 251.068 81.256C250.535 81.1493 249.906 81 249.18 80.808C248.519 80.616 248.103 80.52 247.932 80.52C247.634 80.52 247.356 80.6053 247.1 80.776C246.844 80.9467 246.578 81.192 246.3 81.512L244.988 76.2ZM265.014 61.8C264.353 61.8 263.788 61.576 263.318 61.128C262.87 60.6587 262.646 60.104 262.646 59.464C262.646 58.8027 262.87 58.248 263.318 57.8C263.788 57.3307 264.353 57.096 265.014 57.096C265.654 57.096 266.209 57.3307 266.678 57.8C267.148 58.248 267.382 58.8027 267.382 59.464C267.382 60.104 267.148 60.6587 266.678 61.128C266.209 61.576 265.654 61.8 265.014 61.8ZM261.014 81C260.865 81 260.79 80.8613 260.79 80.584C260.79 80.3493 260.865 80.232 261.014 80.232H261.398C262.017 80.232 262.497 80.136 262.838 79.944C263.201 79.752 263.382 79.336 263.382 78.696L263.35 68.84C263.35 68.1787 263.19 67.7413 262.87 67.528C262.55 67.3147 262.017 67.1867 261.27 67.144C261.078 67.1227 260.982 66.9627 260.982 66.664C260.982 66.4933 261.046 66.3973 261.174 66.376C261.409 66.2907 263.372 65.8747 267.062 65.128L267.03 78.696C267.03 79.336 267.212 79.752 267.574 79.944C267.937 80.136 268.428 80.232 269.046 80.232H269.43C269.58 80.232 269.654 80.3493 269.654 80.584C269.654 80.8613 269.58 81 269.43 81H261.014ZM290.097 80.232C290.267 80.232 290.353 80.36 290.353 80.616C290.353 80.872 290.267 81 290.097 81H282.033C281.883 81 281.809 80.872 281.809 80.616C281.809 80.36 281.883 80.232 282.033 80.232H282.417C283.014 80.232 283.462 80.136 283.761 79.944C284.081 79.752 284.241 79.336 284.241 78.696L284.273 73.064C284.273 72.04 284.251 71.144 284.209 70.376C284.166 69.2667 283.942 68.3813 283.537 67.72C283.131 67.0587 282.438 66.728 281.457 66.728C280.753 66.728 280.081 66.9627 279.441 67.432C278.801 67.9013 278.235 68.5627 277.745 69.416V78.696C277.745 79.336 277.905 79.752 278.225 79.944C278.545 80.136 279.003 80.232 279.601 80.232H279.985C280.134 80.232 280.209 80.36 280.209 80.616C280.209 80.872 280.134 81 279.985 81H271.889C271.718 81 271.633 80.872 271.633 80.616C271.633 80.36 271.718 80.232 271.889 80.232H272.209C272.827 80.232 273.297 80.136 273.617 79.944C273.937 79.752 274.097 79.336 274.097 78.696L274.065 68.84C274.065 68.1787 273.894 67.7413 273.553 67.528C273.233 67.2933 272.71 67.1547 271.985 67.112C271.793 67.0907 271.697 66.92 271.697 66.6C271.697 66.472 271.761 66.3973 271.889 66.376C272.102 66.2907 274.054 65.8747 277.745 65.128V67.976C278.342 67.1013 279.057 66.408 279.889 65.896C280.721 65.384 281.638 65.128 282.641 65.128C283.793 65.128 284.763 65.3627 285.553 65.832C286.342 66.3013 286.929 66.9093 287.313 67.656C287.697 68.4027 287.899 69.192 287.921 70.024V72.968V78.696C287.921 79.336 288.081 79.752 288.401 79.944C288.721 80.136 289.179 80.232 289.777 80.232H290.097ZM307.138 76.904C307.244 76.968 307.298 77.0747 307.298 77.224L307.266 77.448C306.775 78.4933 305.986 79.4213 304.898 80.232C303.831 81.0213 302.487 81.416 300.866 81.416C299.308 81.416 297.9 81.064 296.642 80.36C295.383 79.656 294.391 78.696 293.666 77.48C292.962 76.2427 292.61 74.8987 292.61 73.448C292.61 72.1253 292.908 70.824 293.506 69.544C294.124 68.264 295.031 67.208 296.226 66.376C297.42 65.544 298.839 65.128 300.482 65.128C301.676 65.128 302.775 65.4053 303.778 65.96C304.78 66.5147 305.602 67.304 306.242 68.328C306.903 69.352 307.308 70.568 307.458 71.976L296.642 72.04C296.62 72.2747 296.61 72.648 296.61 73.16C296.61 75.0373 297.047 76.616 297.922 77.896C298.796 79.176 300.055 79.816 301.698 79.816C303.703 79.816 305.346 78.8773 306.626 77C306.69 76.8933 306.786 76.84 306.914 76.84C306.935 76.84 307.01 76.8613 307.138 76.904ZM300.354 66.024C299.607 66.024 298.871 66.3867 298.146 67.112C297.442 67.816 296.972 69.0853 296.738 70.92L303.522 70.856V70.312C303.5 68.968 303.18 67.9227 302.562 67.176C301.964 66.408 301.228 66.024 300.354 66.024ZM179.168 131.184C179.338 131.184 179.424 131.259 179.424 131.408L179.392 131.6C179.136 132.411 178.656 133.072 177.952 133.584C177.269 134.096 176.554 134.352 175.808 134.352C174.272 134.352 173.28 133.637 172.832 132.208C172 132.933 171.072 133.488 170.048 133.872C169.024 134.256 168.01 134.448 167.008 134.448C165.685 134.448 164.65 134.149 163.904 133.552C163.157 132.933 162.784 132.069 162.784 130.96C162.784 129.339 163.669 128.048 165.44 127.088C165.93 126.832 166.485 126.629 167.104 126.48C167.722 126.309 168.554 126.117 169.6 125.904C169.92 125.84 170.378 125.744 170.976 125.616C171.594 125.467 172.138 125.328 172.608 125.2V123.76C172.608 122.544 172.565 121.68 172.48 121.168C172.416 120.635 172.245 120.197 171.968 119.856C171.562 119.323 170.933 119.056 170.08 119.056C169.504 119.056 169.013 119.237 168.608 119.6C168.202 119.941 167.872 120.613 167.616 121.616C167.424 122.341 167.136 122.885 166.752 123.248C166.389 123.589 165.962 123.76 165.472 123.76C164.981 123.76 164.544 123.621 164.16 123.344C163.776 123.045 163.584 122.629 163.584 122.096C163.584 121.691 163.744 121.189 164.064 120.592C164.405 119.973 165.056 119.408 166.016 118.896C166.976 118.384 168.33 118.128 170.08 118.128C171.36 118.128 172.437 118.299 173.312 118.64C174.186 118.981 174.869 119.44 175.36 120.016C175.744 120.443 176 120.912 176.128 121.424C176.256 121.936 176.32 122.565 176.32 123.312C176.32 124.763 176.309 125.872 176.288 126.64L176.256 130.224C176.256 131.141 176.362 131.739 176.576 132.016C176.81 132.293 177.088 132.432 177.408 132.432C177.664 132.432 177.93 132.347 178.208 132.176C178.485 131.984 178.73 131.707 178.944 131.344C179.008 131.237 179.082 131.184 179.168 131.184ZM169.152 132.688C169.728 132.688 170.314 132.571 170.912 132.336C171.53 132.101 172.096 131.76 172.608 131.312C172.544 130.821 172.512 130.331 172.512 129.84L172.576 126.096C170.528 126.608 169.024 127.237 168.064 127.984C167.104 128.709 166.624 129.616 166.624 130.704C166.624 131.28 166.848 131.76 167.296 132.144C167.744 132.507 168.362 132.688 169.152 132.688ZM187.114 134.416C185.727 134.416 184.671 134.021 183.946 133.232C183.22 132.443 182.836 131.291 182.794 129.776V119.568H180.01V118.48C181.524 118.139 182.772 117.488 183.754 116.528C184.756 115.547 185.45 114.011 185.834 111.92H186.474V118.48H190.538V119.568H186.474L186.41 126.96L186.442 129.616C186.548 131.6 187.295 132.592 188.682 132.592C189.13 132.592 189.514 132.507 189.834 132.336C190.154 132.165 190.516 131.867 190.922 131.44C191.028 131.312 191.124 131.248 191.21 131.248C191.295 131.248 191.38 131.301 191.466 131.408C191.572 131.493 191.626 131.579 191.626 131.664C191.626 131.707 191.604 131.771 191.562 131.856C190.964 132.773 190.303 133.435 189.578 133.84C188.852 134.224 188.031 134.416 187.114 134.416ZM60.602 182.416C59.002 182.416 57.178 182.011 55.13 181.2C54.8527 181.072 54.586 181.008 54.33 181.008C54.0314 181.008 53.722 181.115 53.402 181.328C53.082 181.52 52.698 181.84 52.25 182.288L50.778 176.016L50.714 175.728C50.714 175.685 50.7354 175.643 50.778 175.6C50.842 175.557 50.8954 175.525 50.938 175.504C51.002 175.483 51.0447 175.461 51.066 175.44C51.1087 175.419 51.1727 175.408 51.258 175.408C51.3434 175.408 51.4607 175.493 51.61 175.664C53.9994 179.291 56.89 181.104 60.282 181.104C61.6474 181.104 62.7887 180.752 63.706 180.048C64.6447 179.344 65.114 178.299 65.114 176.912C65.114 175.291 64.2287 174.085 62.458 173.296C61.5834 172.912 60.41 172.485 58.938 172.016C58.746 171.952 58.266 171.792 57.498 171.536C56.73 171.28 56.0474 171.003 55.45 170.704C52.9327 169.424 51.674 167.504 51.674 164.944C51.674 163.984 51.898 162.981 52.346 161.936C52.794 160.891 53.5727 159.995 54.682 159.248C55.8127 158.48 57.306 158.096 59.162 158.096C59.8234 158.096 60.4634 158.171 61.082 158.32C61.722 158.469 62.49 158.693 63.386 158.992C63.7274 159.12 64.026 159.184 64.282 159.184C64.8794 159.184 65.4767 158.821 66.074 158.096L67.706 163.632L67.77 163.856C67.77 163.984 67.674 164.08 67.482 164.144C67.354 164.187 67.258 164.208 67.194 164.208C67.0874 164.208 66.9807 164.144 66.874 164.016C66.618 163.589 66.1594 163.013 65.498 162.288C64.8367 161.541 63.9407 160.848 62.81 160.208C61.7007 159.547 60.4527 159.216 59.066 159.216C57.8287 159.216 56.8794 159.483 56.218 160.016C55.5567 160.528 55.1194 161.083 54.906 161.68C54.6927 162.277 54.586 162.789 54.586 163.216C54.586 164.581 55.29 165.637 56.698 166.384C57.146 166.619 57.7327 166.875 58.458 167.152C59.2047 167.408 59.962 167.664 60.73 167.92C62.522 168.496 63.866 168.987 64.762 169.392C66.2767 170.117 67.354 171.003 67.994 172.048C68.634 173.072 68.954 174.181 68.954 175.376C68.954 176.699 68.6234 177.893 67.962 178.96C67.322 180.027 66.3727 180.869 65.114 181.488C63.8554 182.107 62.3514 182.416 60.602 182.416ZM89.884 181.232C90.0334 181.232 90.108 181.36 90.108 181.616C90.108 181.872 90.0334 182 89.884 182H81.82C81.6494 182 81.564 181.872 81.564 181.616C81.564 181.36 81.6494 181.232 81.82 181.232H82.14C82.7374 181.232 83.196 181.136 83.516 180.944C83.836 180.752 83.996 180.336 83.996 179.696C84.0387 177.605 84.06 175.792 84.06 174.256C84.06 173.147 84.0387 172.187 83.996 171.376C83.9107 170.245 83.6654 169.36 83.26 168.72C82.876 168.059 82.204 167.728 81.244 167.728C80.54 167.728 79.868 167.963 79.228 168.432C78.588 168.88 78.0227 169.531 77.532 170.384V179.696C77.532 180.336 77.692 180.752 78.012 180.944C78.332 181.136 78.7907 181.232 79.388 181.232H79.74C79.9107 181.232 79.996 181.36 79.996 181.616C79.996 181.872 79.9107 182 79.74 182H71.644C71.4734 182 71.388 181.872 71.388 181.616C71.388 181.36 71.4734 181.232 71.644 181.232H71.996C72.5934 181.232 73.052 181.136 73.372 180.944C73.692 180.752 73.852 180.336 73.852 179.696L73.82 161.776C73.82 161.115 73.66 160.677 73.34 160.464C73.0414 160.251 72.5187 160.112 71.772 160.048C71.6867 160.048 71.612 160.016 71.548 159.952C71.5054 159.888 71.484 159.824 71.484 159.76V159.568C71.484 159.44 71.548 159.365 71.676 159.344C71.868 159.259 73.82 158.843 77.532 158.096V168.976C78.1507 168.101 78.8654 167.408 79.676 166.896C80.508 166.384 81.4254 166.128 82.428 166.128C83.58 166.128 84.54 166.363 85.308 166.832C86.076 167.301 86.652 167.92 87.036 168.688C87.42 169.435 87.6227 170.224 87.644 171.056V173.84V179.696C87.644 180.336 87.804 180.752 88.124 180.944C88.4654 181.136 88.9347 181.232 89.532 181.232H89.884ZM96.362 162.8C95.7007 162.8 95.1354 162.576 94.666 162.128C94.218 161.659 93.994 161.104 93.994 160.464C93.994 159.803 94.218 159.248 94.666 158.8C95.1354 158.331 95.7007 158.096 96.362 158.096C97.002 158.096 97.5567 158.331 98.026 158.8C98.4954 159.248 98.73 159.803 98.73 160.464C98.73 161.104 98.4954 161.659 98.026 162.128C97.5567 162.576 97.002 162.8 96.362 162.8ZM92.362 182C92.2127 182 92.138 181.861 92.138 181.584C92.138 181.349 92.2127 181.232 92.362 181.232H92.746C93.3647 181.232 93.8447 181.136 94.186 180.944C94.5487 180.752 94.73 180.336 94.73 179.696L94.698 169.84C94.698 169.179 94.538 168.741 94.218 168.528C93.898 168.315 93.3647 168.187 92.618 168.144C92.426 168.123 92.33 167.963 92.33 167.664C92.33 167.493 92.394 167.397 92.522 167.376C92.7567 167.291 94.7194 166.875 98.41 166.128L98.378 179.696C98.378 180.336 98.5594 180.752 98.922 180.944C99.2847 181.136 99.7754 181.232 100.394 181.232H100.778C100.927 181.232 101.002 181.349 101.002 181.584C101.002 181.861 100.927 182 100.778 182H92.362ZM121.444 181.232C121.615 181.232 121.7 181.36 121.7 181.616C121.7 181.872 121.615 182 121.444 182H113.38C113.231 182 113.156 181.872 113.156 181.616C113.156 181.36 113.231 181.232 113.38 181.232H113.764C114.362 181.232 114.81 181.136 115.108 180.944C115.428 180.752 115.588 180.336 115.588 179.696L115.62 174.064C115.62 173.04 115.599 172.144 115.556 171.376C115.514 170.267 115.29 169.381 114.884 168.72C114.479 168.059 113.786 167.728 112.804 167.728C112.1 167.728 111.428 167.963 110.788 168.432C110.148 168.901 109.583 169.563 109.092 170.416V179.696C109.092 180.336 109.252 180.752 109.572 180.944C109.892 181.136 110.351 181.232 110.948 181.232H111.332C111.482 181.232 111.556 181.36 111.556 181.616C111.556 181.872 111.482 182 111.332 182H103.236C103.066 182 102.98 181.872 102.98 181.616C102.98 181.36 103.066 181.232 103.236 181.232H103.556C104.175 181.232 104.644 181.136 104.964 180.944C105.284 180.752 105.444 180.336 105.444 179.696L105.412 169.84C105.412 169.179 105.242 168.741 104.9 168.528C104.58 168.293 104.058 168.155 103.332 168.112C103.14 168.091 103.044 167.92 103.044 167.6C103.044 167.472 103.108 167.397 103.236 167.376C103.45 167.291 105.402 166.875 109.092 166.128V168.976C109.69 168.101 110.404 167.408 111.236 166.896C112.068 166.384 112.986 166.128 113.988 166.128C115.14 166.128 116.111 166.363 116.9 166.832C117.69 167.301 118.276 167.909 118.66 168.656C119.044 169.403 119.247 170.192 119.268 171.024V173.968V179.696C119.268 180.336 119.428 180.752 119.748 180.944C120.068 181.136 120.527 181.232 121.124 181.232H121.444ZM131.957 182.416C130.379 182.416 128.981 182.032 127.765 181.264C126.549 180.475 125.611 179.451 124.949 178.192C124.288 176.933 123.957 175.621 123.957 174.256C123.957 172.848 124.288 171.525 124.949 170.288C125.611 169.029 126.549 168.027 127.765 167.28C128.981 166.512 130.379 166.128 131.957 166.128C133.536 166.128 134.933 166.512 136.149 167.28C137.387 168.027 138.336 169.029 138.997 170.288C139.68 171.525 140.021 172.848 140.021 174.256C140.021 175.621 139.68 176.933 138.997 178.192C138.336 179.451 137.387 180.475 136.149 181.264C134.933 182.032 133.536 182.416 131.957 182.416ZM131.957 181.552C133.259 181.552 134.272 180.848 134.997 179.44C135.744 178.011 136.117 176.283 136.117 174.256C136.117 172.187 135.755 170.469 135.029 169.104C134.304 167.717 133.28 167.024 131.957 167.024C130.677 167.024 129.675 167.717 128.949 169.104C128.224 170.491 127.861 172.208 127.861 174.256C127.861 176.283 128.224 178.011 128.949 179.44C129.675 180.848 130.677 181.552 131.957 181.552ZM153.171 166.128C154.345 166.128 155.433 166.469 156.435 167.152C157.459 167.813 158.27 168.741 158.867 169.936C159.465 171.109 159.763 172.432 159.763 173.904C159.763 175.504 159.454 176.955 158.835 178.256C158.217 179.557 157.385 180.581 156.339 181.328C155.315 182.053 154.206 182.416 153.011 182.416C150.942 182.416 149.161 181.616 147.667 180.016C146.174 181.445 145.374 182.203 145.267 182.288C145.182 182.373 145.107 182.416 145.043 182.416L144.851 182.384C144.766 182.363 144.691 182.331 144.627 182.288C144.585 182.245 144.563 182.192 144.563 182.128L144.531 161.776C144.531 161.115 144.371 160.677 144.051 160.464C143.753 160.251 143.219 160.112 142.451 160.048C142.323 160.048 142.238 160.027 142.195 159.984C142.174 159.941 142.163 159.867 142.163 159.76V159.568C142.163 159.44 142.227 159.365 142.355 159.344C142.569 159.259 144.521 158.843 148.211 158.096V168.112C149.662 166.789 151.315 166.128 153.171 166.128ZM151.827 181.008C153.065 181.008 154.035 180.336 154.739 178.992C155.465 177.648 155.827 175.941 155.827 173.872C155.827 172.656 155.635 171.568 155.251 170.608C154.867 169.648 154.366 168.901 153.747 168.368C153.129 167.813 152.489 167.536 151.827 167.536C151.23 167.536 150.601 167.707 149.939 168.048C149.299 168.368 148.723 168.805 148.211 169.36V179.344C148.745 179.835 149.342 180.24 150.003 180.56C150.665 180.859 151.273 181.008 151.827 181.008ZM166.393 162.8C165.732 162.8 165.167 162.576 164.697 162.128C164.249 161.659 164.025 161.104 164.025 160.464C164.025 159.803 164.249 159.248 164.697 158.8C165.167 158.331 165.732 158.096 166.393 158.096C167.033 158.096 167.588 158.331 168.057 158.8C168.527 159.248 168.761 159.803 168.761 160.464C168.761 161.104 168.527 161.659 168.057 162.128C167.588 162.576 167.033 162.8 166.393 162.8ZM162.393 182C162.244 182 162.169 181.861 162.169 181.584C162.169 181.349 162.244 181.232 162.393 181.232H162.777C163.396 181.232 163.876 181.136 164.217 180.944C164.58 180.752 164.761 180.336 164.761 179.696L164.729 169.84C164.729 169.179 164.569 168.741 164.249 168.528C163.929 168.315 163.396 168.187 162.649 168.144C162.457 168.123 162.361 167.963 162.361 167.664C162.361 167.493 162.425 167.397 162.553 167.376C162.788 167.291 164.751 166.875 168.441 166.128L168.409 179.696C168.409 180.336 168.591 180.752 168.953 180.944C169.316 181.136 169.807 181.232 170.425 181.232H170.809C170.959 181.232 171.033 181.349 171.033 181.584C171.033 181.861 170.959 182 170.809 182H162.393ZM180.628 175.76H173.46V173.232H180.628V175.76ZM201.569 181.232C201.74 181.232 201.825 181.36 201.825 181.616C201.825 181.872 201.74 182 201.569 182H193.505C193.356 182 193.281 181.872 193.281 181.616C193.281 181.36 193.356 181.232 193.505 181.232H193.889C194.487 181.232 194.935 181.136 195.233 180.944C195.553 180.752 195.713 180.336 195.713 179.696L195.745 174.064C195.745 173.04 195.724 172.144 195.681 171.376C195.639 170.267 195.415 169.381 195.009 168.72C194.604 168.059 193.911 167.728 192.929 167.728C192.225 167.728 191.553 167.963 190.913 168.432C190.273 168.901 189.708 169.563 189.217 170.416V179.696C189.217 180.336 189.377 180.752 189.697 180.944C190.017 181.136 190.476 181.232 191.073 181.232H191.457C191.607 181.232 191.681 181.36 191.681 181.616C191.681 181.872 191.607 182 191.457 182H183.361C183.191 182 183.105 181.872 183.105 181.616C183.105 181.36 183.191 181.232 183.361 181.232H183.681C184.3 181.232 184.769 181.136 185.089 180.944C185.409 180.752 185.569 180.336 185.569 179.696L185.537 169.84C185.537 169.179 185.367 168.741 185.025 168.528C184.705 168.293 184.183 168.155 183.457 168.112C183.265 168.091 183.169 167.92 183.169 167.6C183.169 167.472 183.233 167.397 183.361 167.376C183.575 167.291 185.527 166.875 189.217 166.128V168.976C189.815 168.101 190.529 167.408 191.361 166.896C192.193 166.384 193.111 166.128 194.113 166.128C195.265 166.128 196.236 166.363 197.025 166.832C197.815 167.301 198.401 167.909 198.785 168.656C199.169 169.403 199.372 170.192 199.393 171.024V173.968V179.696C199.393 180.336 199.553 180.752 199.873 180.944C200.193 181.136 200.652 181.232 201.249 181.232H201.569ZM212.082 182.416C210.504 182.416 209.106 182.032 207.89 181.264C206.674 180.475 205.736 179.451 205.074 178.192C204.413 176.933 204.082 175.621 204.082 174.256C204.082 172.848 204.413 171.525 205.074 170.288C205.736 169.029 206.674 168.027 207.89 167.28C209.106 166.512 210.504 166.128 212.082 166.128C213.661 166.128 215.058 166.512 216.274 167.28C217.512 168.027 218.461 169.029 219.122 170.288C219.805 171.525 220.146 172.848 220.146 174.256C220.146 175.621 219.805 176.933 219.122 178.192C218.461 179.451 217.512 180.475 216.274 181.264C215.058 182.032 213.661 182.416 212.082 182.416ZM212.082 181.552C213.384 181.552 214.397 180.848 215.122 179.44C215.869 178.011 216.242 176.283 216.242 174.256C216.242 172.187 215.88 170.469 215.154 169.104C214.429 167.717 213.405 167.024 212.082 167.024C210.802 167.024 209.8 167.717 209.074 169.104C208.349 170.491 207.986 172.208 207.986 174.256C207.986 176.283 208.349 178.011 209.074 179.44C209.8 180.848 210.802 181.552 212.082 181.552ZM230.096 175.76H222.928V173.232H230.096V175.76ZM243.102 182.416C241.502 182.416 239.678 182.011 237.63 181.2C237.353 181.072 237.086 181.008 236.83 181.008C236.531 181.008 236.222 181.115 235.902 181.328C235.582 181.52 235.198 181.84 234.75 182.288L233.278 176.016L233.214 175.728C233.214 175.685 233.235 175.643 233.278 175.6C233.342 175.557 233.395 175.525 233.438 175.504C233.502 175.483 233.545 175.461 233.566 175.44C233.609 175.419 233.673 175.408 233.758 175.408C233.843 175.408 233.961 175.493 234.11 175.664C236.499 179.291 239.39 181.104 242.782 181.104C244.147 181.104 245.289 180.752 246.206 180.048C247.145 179.344 247.614 178.299 247.614 176.912C247.614 175.291 246.729 174.085 244.958 173.296C244.083 172.912 242.91 172.485 241.438 172.016C241.246 171.952 240.766 171.792 239.998 171.536C239.23 171.28 238.547 171.003 237.95 170.704C235.433 169.424 234.174 167.504 234.174 164.944C234.174 163.984 234.398 162.981 234.846 161.936C235.294 160.891 236.073 159.995 237.182 159.248C238.313 158.48 239.806 158.096 241.662 158.096C242.323 158.096 242.963 158.171 243.582 158.32C244.222 158.469 244.99 158.693 245.886 158.992C246.227 159.12 246.526 159.184 246.782 159.184C247.379 159.184 247.977 158.821 248.574 158.096L250.206 163.632L250.27 163.856C250.27 163.984 250.174 164.08 249.982 164.144C249.854 164.187 249.758 164.208 249.694 164.208C249.587 164.208 249.481 164.144 249.374 164.016C249.118 163.589 248.659 163.013 247.998 162.288C247.337 161.541 246.441 160.848 245.31 160.208C244.201 159.547 242.953 159.216 241.566 159.216C240.329 159.216 239.379 159.483 238.718 160.016C238.057 160.528 237.619 161.083 237.406 161.68C237.193 162.277 237.086 162.789 237.086 163.216C237.086 164.581 237.79 165.637 239.198 166.384C239.646 166.619 240.233 166.875 240.958 167.152C241.705 167.408 242.462 167.664 243.23 167.92C245.022 168.496 246.366 168.987 247.262 169.392C248.777 170.117 249.854 171.003 250.494 172.048C251.134 173.072 251.454 174.181 251.454 175.376C251.454 176.699 251.123 177.893 250.462 178.96C249.822 180.027 248.873 180.869 247.614 181.488C246.355 182.107 244.851 182.416 243.102 182.416ZM270.656 179.184C270.827 179.184 270.912 179.259 270.912 179.408L270.88 179.6C270.624 180.411 270.144 181.072 269.44 181.584C268.757 182.096 268.043 182.352 267.296 182.352C265.76 182.352 264.768 181.637 264.32 180.208C263.488 180.933 262.56 181.488 261.536 181.872C260.512 182.256 259.499 182.448 258.496 182.448C257.173 182.448 256.139 182.149 255.392 181.552C254.645 180.933 254.272 180.069 254.272 178.96C254.272 177.339 255.157 176.048 256.928 175.088C257.419 174.832 257.973 174.629 258.592 174.48C259.211 174.309 260.043 174.117 261.088 173.904C261.408 173.84 261.867 173.744 262.464 173.616C263.083 173.467 263.627 173.328 264.096 173.2V171.76C264.096 170.544 264.053 169.68 263.968 169.168C263.904 168.635 263.733 168.197 263.456 167.856C263.051 167.323 262.421 167.056 261.568 167.056C260.992 167.056 260.501 167.237 260.096 167.6C259.691 167.941 259.36 168.613 259.104 169.616C258.912 170.341 258.624 170.885 258.24 171.248C257.877 171.589 257.451 171.76 256.96 171.76C256.469 171.76 256.032 171.621 255.648 171.344C255.264 171.045 255.072 170.629 255.072 170.096C255.072 169.691 255.232 169.189 255.552 168.592C255.893 167.973 256.544 167.408 257.504 166.896C258.464 166.384 259.819 166.128 261.568 166.128C262.848 166.128 263.925 166.299 264.8 166.64C265.675 166.981 266.357 167.44 266.848 168.016C267.232 168.443 267.488 168.912 267.616 169.424C267.744 169.936 267.808 170.565 267.808 171.312C267.808 172.763 267.797 173.872 267.776 174.64L267.744 178.224C267.744 179.141 267.851 179.739 268.064 180.016C268.299 180.293 268.576 180.432 268.896 180.432C269.152 180.432 269.419 180.347 269.696 180.176C269.973 179.984 270.219 179.707 270.432 179.344C270.496 179.237 270.571 179.184 270.656 179.184ZM260.64 180.688C261.216 180.688 261.803 180.571 262.4 180.336C263.019 180.101 263.584 179.76 264.096 179.312C264.032 178.821 264 178.331 264 177.84L264.064 174.096C262.016 174.608 260.512 175.237 259.552 175.984C258.592 176.709 258.112 177.616 258.112 178.704C258.112 179.28 258.336 179.76 258.784 180.144C259.232 180.507 259.851 180.688 260.64 180.688ZM278.602 182.416C277.215 182.416 276.159 182.021 275.434 181.232C274.709 180.443 274.325 179.291 274.282 177.776V167.568H271.498V166.48C273.013 166.139 274.261 165.488 275.242 164.528C276.245 163.547 276.938 162.011 277.322 159.92H277.962V166.48H282.026V167.568H277.962L277.898 174.96L277.93 177.616C278.037 179.6 278.783 180.592 280.17 180.592C280.618 180.592 281.002 180.507 281.322 180.336C281.642 180.165 282.005 179.867 282.41 179.44C282.517 179.312 282.613 179.248 282.698 179.248C282.783 179.248 282.869 179.301 282.954 179.408C283.061 179.493 283.114 179.579 283.114 179.664C283.114 179.707 283.093 179.771 283.05 179.856C282.453 180.773 281.791 181.435 281.066 181.84C280.341 182.224 279.519 182.416 278.602 182.416ZM292.489 182.416C290.91 182.416 289.513 182.032 288.297 181.264C287.081 180.475 286.142 179.451 285.481 178.192C284.819 176.933 284.489 175.621 284.489 174.256C284.489 172.848 284.819 171.525 285.481 170.288C286.142 169.029 287.081 168.027 288.297 167.28C289.513 166.512 290.91 166.128 292.489 166.128C294.067 166.128 295.465 166.512 296.681 167.28C297.918 168.027 298.867 169.029 299.529 170.288C300.211 171.525 300.553 172.848 300.553 174.256C300.553 175.621 300.211 176.933 299.529 178.192C298.867 179.451 297.918 180.475 296.681 181.264C295.465 182.032 294.067 182.416 292.489 182.416ZM292.489 181.552C293.79 181.552 294.803 180.848 295.529 179.44C296.275 178.011 296.649 176.283 296.649 174.256C296.649 172.187 296.286 170.469 295.561 169.104C294.835 167.717 293.811 167.024 292.489 167.024C291.209 167.024 290.206 167.717 289.481 169.104C288.755 170.491 288.393 172.208 288.393 174.256C288.393 176.283 288.755 178.011 289.481 179.44C290.206 180.848 291.209 181.552 292.489 181.552ZM131.445 242.52C129.205 242.52 127.005 241.933 124.845 240.76C122.685 239.587 120.899 237.853 119.485 235.56C118.099 233.267 117.405 230.52 117.405 227.32C117.405 224.12 118.099 221.373 119.485 219.08C120.899 216.787 122.685 215.053 124.845 213.88C127.005 212.707 129.205 212.12 131.445 212.12C133.685 212.12 135.872 212.707 138.005 213.88C140.165 215.053 141.939 216.787 143.325 219.08C144.739 221.373 145.445 224.12 145.445 227.32C145.445 230.52 144.739 233.267 143.325 235.56C141.939 237.853 140.165 239.587 138.005 240.76C135.872 241.933 133.685 242.52 131.445 242.52ZM131.445 241.28C133.019 241.28 134.432 240.76 135.685 239.72C136.939 238.68 137.939 237.12 138.685 235.04C139.432 232.933 139.805 230.373 139.805 227.36C139.805 224.347 139.432 221.787 138.685 219.68C137.939 217.573 136.939 216 135.685 214.96C134.432 213.92 133.032 213.4 131.485 213.4C129.912 213.4 128.485 213.92 127.205 214.96C125.952 216 124.952 217.573 124.205 219.68C123.485 221.76 123.125 224.32 123.125 227.36C123.125 230.373 123.485 232.933 124.205 235.04C124.952 237.12 125.952 238.68 127.205 239.72C128.459 240.76 129.872 241.28 131.445 241.28ZM160.678 212.04C161.931 212.04 162.931 212.333 163.678 212.92C164.451 213.48 164.838 214.107 164.838 214.8C164.838 215.36 164.651 215.827 164.278 216.2C163.904 216.573 163.384 216.76 162.718 216.76C161.998 216.76 161.424 216.6 160.998 216.28C160.598 215.933 160.198 215.467 159.798 214.88C159.504 214.48 159.251 214.187 159.038 214C158.851 213.813 158.611 213.72 158.318 213.72C157.891 213.72 157.558 214 157.318 214.56C157.104 215.093 156.971 216.027 156.918 217.36C156.864 217.947 156.838 218.92 156.838 220.28V222.6H160.878V223.96H156.838V239.12C156.838 239.92 157.051 240.44 157.478 240.68C157.931 240.92 158.544 241.04 159.318 241.04H159.798C159.984 241.04 160.078 241.2 160.078 241.52C160.078 241.84 159.984 242 159.798 242H149.278C149.091 242 148.998 241.84 148.998 241.52C148.998 241.2 149.091 241.04 149.278 241.04H149.718C150.491 241.04 151.091 240.92 151.518 240.68C151.971 240.44 152.198 239.92 152.198 239.12V223.96H148.678V222.6H152.238C152.318 220.68 152.691 218.92 153.358 217.32C154.024 215.72 154.984 214.44 156.238 213.48C157.491 212.52 158.971 212.04 160.678 212.04ZM186.974 240.52C187.427 240.52 187.654 240.707 187.654 241.08C187.654 241.293 187.561 241.427 187.374 241.48C187.134 241.533 184.614 241.853 179.814 242.44L179.774 238.96C179.081 239.973 178.227 240.813 177.214 241.48C176.201 242.12 175.027 242.44 173.694 242.44C171.507 242.44 169.894 241.84 168.854 240.64C167.814 239.44 167.267 238 167.214 236.32C167.161 234.187 167.134 231 167.134 226.76C167.107 225.907 166.894 225.347 166.494 225.08C166.121 224.813 165.481 224.667 164.574 224.64C164.334 224.613 164.214 224.427 164.214 224.08C164.214 223.867 164.294 223.747 164.454 223.72C164.721 223.613 167.161 223.093 171.774 222.16C171.694 225.44 171.654 228.28 171.654 230.68C171.654 233.187 171.681 234.947 171.734 235.96C171.841 237.293 172.134 238.373 172.614 239.2C173.121 240.027 173.974 240.44 175.174 240.44C176.027 240.44 176.854 240.16 177.654 239.6C178.454 239.013 179.161 238.213 179.774 237.2L179.694 226.8C179.667 225.947 179.454 225.387 179.054 225.12C178.681 224.853 178.041 224.693 177.134 224.64C176.894 224.613 176.774 224.4 176.774 224C176.774 223.84 176.854 223.747 177.014 223.72C177.281 223.613 179.721 223.093 184.334 222.16V238.64C184.334 239.813 185.001 240.453 186.334 240.56L186.974 240.52ZM211.241 238.48C211.454 238.48 211.561 238.573 211.561 238.76L211.521 239C211.201 240.013 210.601 240.84 209.721 241.48C208.868 242.12 207.974 242.44 207.041 242.44C205.121 242.44 203.881 241.547 203.321 239.76C202.281 240.667 201.121 241.36 199.841 241.84C198.561 242.32 197.294 242.56 196.041 242.56C194.388 242.56 193.094 242.187 192.161 241.44C191.228 240.667 190.761 239.587 190.761 238.2C190.761 236.173 191.868 234.56 194.081 233.36C194.694 233.04 195.388 232.787 196.161 232.6C196.934 232.387 197.974 232.147 199.281 231.88C199.681 231.8 200.254 231.68 201.001 231.52C201.774 231.333 202.454 231.16 203.041 231V229.2C203.041 227.68 202.988 226.6 202.881 225.96C202.801 225.293 202.588 224.747 202.241 224.32C201.734 223.653 200.948 223.32 199.881 223.32C199.161 223.32 198.548 223.547 198.041 224C197.534 224.427 197.121 225.267 196.801 226.52C196.561 227.427 196.201 228.107 195.721 228.56C195.268 228.987 194.734 229.2 194.121 229.2C193.508 229.2 192.961 229.027 192.481 228.68C192.001 228.307 191.761 227.787 191.761 227.12C191.761 226.613 191.961 225.987 192.361 225.24C192.788 224.467 193.601 223.76 194.801 223.12C196.001 222.48 197.694 222.16 199.881 222.16C201.481 222.16 202.828 222.373 203.921 222.8C205.014 223.227 205.868 223.8 206.481 224.52C206.961 225.053 207.281 225.64 207.441 226.28C207.601 226.92 207.681 227.707 207.681 228.64C207.681 230.453 207.668 231.84 207.641 232.8L207.601 237.28C207.601 238.427 207.734 239.173 208.001 239.52C208.294 239.867 208.641 240.04 209.041 240.04C209.361 240.04 209.694 239.933 210.041 239.72C210.388 239.48 210.694 239.133 210.961 238.68C211.041 238.547 211.134 238.48 211.241 238.48ZM198.721 240.36C199.441 240.36 200.174 240.213 200.921 239.92C201.694 239.627 202.401 239.2 203.041 238.64C202.961 238.027 202.921 237.413 202.921 236.8L203.001 232.12C200.441 232.76 198.561 233.547 197.361 234.48C196.161 235.387 195.561 236.52 195.561 237.88C195.561 238.6 195.841 239.2 196.401 239.68C196.961 240.133 197.734 240.36 198.721 240.36ZM236.093 241.04C236.307 241.04 236.413 241.2 236.413 241.52C236.413 241.84 236.307 242 236.093 242H226.013C225.827 242 225.733 241.84 225.733 241.52C225.733 241.2 225.827 241.04 226.013 241.04H226.493C227.24 241.04 227.8 240.92 228.173 240.68C228.573 240.44 228.773 239.92 228.773 239.12L228.813 232.08C228.813 230.8 228.787 229.68 228.733 228.72C228.68 227.333 228.4 226.227 227.893 225.4C227.387 224.573 226.52 224.16 225.293 224.16C224.413 224.16 223.573 224.453 222.773 225.04C221.973 225.627 221.267 226.453 220.653 227.52V239.12C220.653 239.92 220.853 240.44 221.253 240.68C221.653 240.92 222.227 241.04 222.973 241.04H223.453C223.64 241.04 223.733 241.2 223.733 241.52C223.733 241.84 223.64 242 223.453 242H213.333C213.12 242 213.013 241.84 213.013 241.52C213.013 241.2 213.12 241.04 213.333 241.04H213.733C214.507 241.04 215.093 240.92 215.493 240.68C215.893 240.44 216.093 239.92 216.093 239.12L216.053 226.8C216.053 225.973 215.84 225.427 215.413 225.16C215.013 224.867 214.36 224.693 213.453 224.64C213.213 224.613 213.093 224.4 213.093 224C213.093 223.84 213.173 223.747 213.333 223.72C213.6 223.613 216.04 223.093 220.653 222.16V225.72C221.4 224.627 222.293 223.76 223.333 223.12C224.373 222.48 225.52 222.16 226.773 222.16C228.213 222.16 229.427 222.453 230.413 223.04C231.4 223.627 232.133 224.387 232.613 225.32C233.093 226.253 233.347 227.24 233.373 228.28V231.96V239.12C233.373 239.92 233.573 240.44 233.973 240.68C234.373 240.92 234.947 241.04 235.693 241.04H236.093Z" fill="#3A3A3A"/>
<path d="M136.622 205.52H122.286V200.464H136.622V205.52Z" fill="#3A3A3A"/>
<path d="M182.622 205.52H168.286V200.464H182.622V205.52Z" fill="#3A3A3A"/>
</svg>
