<svg width="95" height="366" viewBox="0 0 95 366" fill="none" xmlns="http://www.w3.org/2000/svg">
<path d="M68.28 136.4C68.36 136.267 68.4933 136.053 68.68 135.76C68.8667 135.467 69.0133 135.253 69.12 135.12C69.2533 134.96 69.3733 134.88 69.48 134.88C69.64 134.88 69.9867 135.133 70.52 135.64C71.0533 136.147 71.56 136.693 72.04 137.28C72.52 137.84 72.76 138.213 72.76 138.4C72.6533 138.827 72.32 139.04 71.76 139.04H67.4V142.4C68.8933 143.013 70.0533 143.72 70.88 144.52C71.7067 145.32 72.24 146.133 72.48 146.96H75.6C76.64 144.027 77.2133 141.773 77.32 140.2C79.48 140.627 80.9733 140.973 81.8 141.24C82.6267 141.507 83.04 141.733 83.04 141.92C83.04 142 82.92 142.107 82.68 142.24L81.88 142.6C81.2933 144.36 80.7733 145.813 80.32 146.96H87.56L88.68 145.28C88.7867 145.147 88.9467 144.92 89.16 144.6C89.4 144.253 89.5867 144 89.72 143.84C89.88 143.68 90.0133 143.6 90.12 143.6C90.28 143.6 90.72 143.893 91.44 144.48C92.16 145.04 92.8267 145.627 93.44 146.24C94.08 146.853 94.4 147.253 94.4 147.44C94.2933 147.867 93.9333 148.08 93.32 148.08H89.8C89.3467 149.893 88.8533 151.493 88.32 152.88C87.7867 154.267 87.1333 155.52 86.36 156.64C88.68 157.52 90.3867 158.547 91.48 159.72C92.5733 160.893 93.12 162.013 93.12 163.08C93.12 163.8 92.9067 164.387 92.48 164.84C92.0533 165.293 91.5067 165.52 90.84 165.52C90.4133 165.52 89.9333 165.4 89.4 165.16C88.28 163.507 86.3867 161.653 83.72 159.6C82.0667 161.04 80 162.227 77.52 163.16C75.0667 164.12 72.0133 164.893 68.36 165.48L68.16 164.92C71.1467 163.987 73.6533 162.933 75.68 161.76C77.7333 160.56 79.4267 159.16 80.76 157.56C79.56 156.787 78.28 156.067 76.92 155.4L76.56 156.24L75.88 157.68C75.4 157.893 74.8133 158 74.12 158C73.1333 158 72.16 157.787 71.2 157.36C72.2667 155.253 73.6 152.16 75.2 148.08H72.6C72.5467 148.693 72.3333 149.2 71.96 149.6C71.5867 149.973 71.1467 150.16 70.64 150.16C70.0267 150.16 69.4533 149.893 68.92 149.36C68.9467 148.427 68.8133 147.44 68.52 146.4C68.2267 145.36 67.8533 144.373 67.4 143.44V154.6C67.4533 157.907 67.56 161.04 67.72 164C67.56 164.347 67.0667 164.693 66.24 165.04C65.44 165.387 64.6533 165.56 63.88 165.56C63.48 165.56 63.16 165.48 62.92 165.32C62.7067 165.16 62.6 164.973 62.6 164.76C62.7067 163.293 62.7867 161.853 62.84 160.44C62.92 159 62.9733 157.173 63 154.96V149.64C61.5067 152.173 59.7867 154.373 57.84 156.24L57.32 155.76C59.8 151.733 61.56 146.16 62.6 139.04H61.2C60.4533 139.067 59.68 139.253 58.88 139.6L57.88 137.6C58.84 137.76 60.0133 137.867 61.4 137.92H63V135.96C63 132.6 62.8267 129.867 62.48 127.76C64.72 128.267 66.2667 128.667 67.12 128.96C67.9733 129.227 68.4 129.467 68.4 129.68C68.4 129.787 68.2933 129.907 68.08 130.04L67.4 130.52V137.92L68.28 136.4ZM91.6 130.12C93.36 130.76 94.24 131.213 94.24 131.48C94.24 131.56 94.12 131.627 93.88 131.68L93.24 131.8C92.44 133.64 91.2533 135.68 89.68 137.92C88.1067 140.16 86.48 142.08 84.8 143.68L84.4 143.24C85.3067 141.347 86.1467 139.093 86.92 136.48C87.32 135.2 87.64 133.84 87.88 132.4C88.12 130.933 88.24 129.653 88.24 128.56L91.6 130.12ZM79.08 128.64C80.8933 129.76 82.2133 130.987 83.04 132.32C83.8933 133.627 84.32 134.88 84.32 136.08C84.32 137.013 84.0933 137.787 83.64 138.4C83.1867 138.987 82.64 139.28 82 139.28C81.28 139.28 80.6 138.92 79.96 138.2C79.9867 137.933 80 137.533 80 137C80 134.6 79.5333 131.867 78.6 128.8L79.08 128.64ZM71.28 129.88C73.3867 130.893 74.9333 132.053 75.92 133.36C76.9067 134.667 77.4 135.947 77.4 137.2C77.4 138.08 77.1867 138.8 76.76 139.36C76.3333 139.92 75.8 140.2 75.16 140.2C74.4933 140.2 73.8267 139.867 73.16 139.2C73.2133 137.76 73.0267 136.227 72.6 134.6C72.1733 132.947 71.6133 131.44 70.92 130.08L71.28 129.88ZM79.88 148.08C79.1067 150.24 78.2267 152.427 77.24 154.64C78.9467 154.827 80.6133 155.093 82.24 155.44C83.4133 153.467 84.2933 151.013 84.88 148.08H79.88ZM85.96 177.48C86.0933 177.32 86.2533 177.12 86.44 176.88C86.6533 176.613 86.8133 176.427 86.92 176.32C87.0533 176.187 87.1733 176.12 87.28 176.12C87.44 176.12 87.88 176.413 88.6 177C89.32 177.56 89.9867 178.16 90.6 178.8C91.24 179.413 91.56 179.813 91.56 180C91.2933 180.347 90.7333 180.6 89.88 180.76C89.6933 182.973 89.6 185.733 89.6 189.04C89.6 192.96 89.7733 196.453 90.12 199.52C90.4667 202.56 91.0267 204.573 91.8 205.56C91.9333 205.72 92.04 205.8 92.12 205.8C92.28 205.8 92.4133 205.64 92.52 205.32C92.9733 203.987 93.3867 202.493 93.76 200.84L94.12 200.88L93.68 208.2C94.1067 209.453 94.32 210.507 94.32 211.36C94.32 212.187 94.1333 212.72 93.76 212.96C93.2533 213.253 92.8 213.4 92.4 213.4C91.2 213.4 90.0533 212.56 88.96 210.88C87.52 208.933 86.5333 205.853 86 201.64C85.4933 197.4 85.24 192.293 85.24 186.32C85.24 184.853 85.2667 182.733 85.32 179.96H66.4V185.64C68.88 185.16 71.52 184.467 74.32 183.56C77.1467 182.627 79.3867 181.72 81.04 180.84L85.12 185.04C84.88 185.227 84.5733 185.32 84.2 185.32C83.8533 185.32 83.36 185.213 82.72 185C81.2 185.293 79.52 185.52 77.68 185.68V190.2H79.92L80.6 189.32C80.68 189.213 80.8267 189.04 81.04 188.8C81.2533 188.56 81.44 188.44 81.6 188.44C81.76 188.44 82.12 188.627 82.68 189C83.24 189.347 83.7467 189.733 84.2 190.16C84.68 190.587 84.92 190.893 84.92 191.08C84.76 191.373 84.36 191.587 83.72 191.72V194.6C83.7733 196.947 83.8533 198.8 83.96 200.16C83.8267 200.4 83.4 200.667 82.68 200.96C81.9867 201.227 81.36 201.36 80.8 201.36H80.24V199.6H77.68V206.2L81.16 206C80.7333 205.013 80.1333 203.853 79.36 202.52L79.72 202.28C81.9867 203.187 83.64 204.267 84.68 205.52C85.7467 206.773 86.28 208 86.28 209.2C86.28 209.947 86.08 210.56 85.68 211.04C85.3067 211.547 84.8267 211.8 84.24 211.8C83.6 211.8 82.9867 211.52 82.4 210.96C82.32 209.68 82.04 208.427 81.56 207.2C78.8667 208.08 74.3333 209.347 67.96 211C67.8533 211.24 67.7067 211.427 67.52 211.56C67.3333 211.72 67.12 211.827 66.88 211.88L64.64 206.72C66.5067 206.72 69.5467 206.613 73.76 206.4V199.6H71.36V201.2C71.36 201.387 71.0267 201.627 70.36 201.92C69.72 202.187 69.08 202.32 68.44 202.32C68.2 202.32 68.0133 202.24 67.88 202.08C67.7467 201.92 67.68 201.733 67.68 201.52C67.7867 200.533 67.8667 199.28 67.92 197.76V195.48C67.92 192.52 67.7733 190.173 67.48 188.44L71.56 190.2H73.76V186.04C71.4933 186.173 69.4667 186.24 67.68 186.24H66.44L66.4 185.92V189.48C66.4 192.733 66.2267 195.693 65.88 198.36C65.56 201.027 64.8 203.72 63.6 206.44C62.4267 209.16 60.6533 211.547 58.28 213.6L57.88 213.28C59.5867 210.107 60.6933 206.613 61.2 202.8C61.7333 198.96 62 194.52 62 189.48V183.04C62 180.32 61.8667 178.107 61.6 176.4L67.08 178.84H84.92L85.96 177.48ZM71.36 191.32V198.44H73.76V191.32H71.36ZM80.24 198.44V191.32H77.68V198.44H80.24ZM91.24 245.92C90.3867 245.467 89.5067 244.92 88.6 244.28V247.56C88.6533 250.2 88.7333 252.293 88.84 253.84C88.68 254.107 88.1733 254.4 87.32 254.72C86.4933 255.013 85.76 255.16 85.12 255.16C84.5867 255.16 84.32 254.893 84.32 254.36C84.3467 254.28 84.36 254.2 84.36 254.12C84.3867 254.013 84.4133 253.907 84.44 253.8V253.12H80.68V255.84C80.68 256.24 80.7867 256.52 81 256.68C81.2133 256.813 81.6533 256.88 82.32 256.88H86.08C87.4933 256.88 88.5467 256.853 89.24 256.8C89.72 256.8 90.0933 256.667 90.36 256.4C90.5467 256.16 90.7867 255.707 91.08 255.04C91.3733 254.373 91.64 253.64 91.88 252.84H92.32L92.48 256.44C93.0933 256.68 93.5067 256.947 93.72 257.24C93.96 257.507 94.08 257.853 94.08 258.28C94.08 258.947 93.84 259.467 93.36 259.84C92.88 260.24 92.0267 260.533 90.8 260.72C89.6 260.907 87.8933 261 85.68 261H81.48C80.1467 261 79.12 260.88 78.4 260.64C77.7067 260.427 77.2133 260.04 76.92 259.48C76.6533 258.92 76.52 258.093 76.52 257V253.12H72.84V253.88C72.8667 254.173 72.88 254.44 72.88 254.68C72.9067 254.893 72.9333 255.053 72.96 255.16C72.88 255.48 72.52 255.813 71.88 256.16C71.2667 256.48 70.5067 256.64 69.6 256.64C69.2533 256.64 68.9867 256.56 68.8 256.4C68.6133 256.24 68.52 256.053 68.52 255.84C68.7067 253.52 68.8267 250.933 68.88 248.08V243.8C67.7867 244.413 66.6 244.973 65.32 245.48C65.08 248.627 64.44 251.547 63.4 254.24C62.36 256.907 60.72 259.24 58.48 261.24L58.08 260.96C59.0133 258.96 59.7067 256.773 60.16 254.4C60.6133 252.027 60.8933 249.707 61 247.44C61.1067 245.173 61.16 242.48 61.16 239.36V233.12C61.16 230.48 61.0267 228.347 60.76 226.72L66.24 229H74.64C74.64 226.813 74.5333 225.08 74.32 223.8C76.4533 224.253 77.9333 224.627 78.76 224.92C79.5867 225.187 80 225.413 80 225.6C80 225.707 79.9067 225.827 79.72 225.96L79.04 226.4V229H87.36L88.48 227.32C88.5867 227.187 88.7467 226.96 88.96 226.64C89.2 226.293 89.3867 226.04 89.52 225.88C89.68 225.72 89.8133 225.64 89.92 225.64C90.08 225.64 90.4933 225.92 91.16 226.48C91.8533 227.04 92.4933 227.64 93.08 228.28C93.6933 228.893 94 229.293 94 229.48C93.8933 229.907 93.5467 230.12 92.96 230.12H76.04C78.92 231.16 80.36 231.853 80.36 232.2C80.36 232.333 80.2267 232.44 79.96 232.52L79.2 232.76C79.0667 233.053 78.6933 233.733 78.08 234.8H87.24L88.28 233.24C88.4133 233.053 88.5733 232.813 88.76 232.52C88.9733 232.227 89.1333 232.013 89.24 231.88C89.3733 231.72 89.4933 231.64 89.6 231.64C89.76 231.64 90.16 231.907 90.8 232.44C91.4667 232.973 92.0933 233.533 92.68 234.12C93.2667 234.707 93.56 235.093 93.56 235.28C93.48 235.707 93.1333 235.92 92.52 235.92H83.28C84.4 237.36 85.92 238.573 87.84 239.56C89.7867 240.547 91.8933 241.28 94.16 241.76L94.12 242.2C92.6533 242.653 91.6933 243.893 91.24 245.92ZM65.56 230.12V234.8H72.92C73.7733 233.04 74.4 231.48 74.8 230.12H65.56ZM65.44 244.4C68.16 242.187 70.4667 239.36 72.36 235.92H65.64L65.56 235.64V239.36C65.56 241.547 65.52 243.227 65.44 244.4ZM84.16 242L85.12 241C83.9733 239.587 83.04 237.893 82.32 235.92H77.36L76.28 237.4C78.28 237.88 79.6667 238.267 80.44 238.56C81.2133 238.827 81.6 239.053 81.6 239.24C81.6 239.32 81.5067 239.427 81.32 239.56L80.68 240V242H84.16ZM73.32 242H76.52C76.52 240.16 76.4267 238.64 76.24 237.44C75.0133 239.013 73.6667 240.373 72.2 241.52L73.32 242ZM72.84 246.88H76.52V243.12H72.84V246.88ZM80.68 246.88H84.44V243.12H80.68V246.88ZM72.84 252H76.52V248.04H72.84V252ZM80.68 252H84.44V248.04H80.68V252ZM83.6473 272.096C84.1806 272.096 84.7139 272.224 85.2473 272.48C85.8019 272.715 86.2606 273.024 86.6233 273.408C86.9859 273.792 87.1673 274.197 87.1673 274.624C87.1673 275.008 87.0393 275.328 86.7833 275.584C86.5273 275.84 86.2073 275.968 85.8233 275.968C85.5886 275.968 85.1513 275.904 84.5113 275.776C84.1913 275.712 83.8286 275.648 83.4233 275.584C83.0393 275.52 82.6339 275.488 82.2073 275.488C81.5886 275.488 80.8099 275.605 79.8713 275.84C78.9113 276.139 78.0473 276.939 77.2793 278.24C76.5326 279.541 75.9459 281.035 75.5193 282.72C75.0926 284.405 74.8793 285.909 74.8793 287.232C74.8793 288.597 74.9859 289.664 75.1993 290.432C75.4126 291.179 75.7753 291.723 76.2873 292.064C76.7993 292.384 77.5246 292.544 78.4633 292.544L79.2633 292.48C80.2233 292.416 80.7566 292.384 80.8633 292.384C81.7806 292.384 82.4846 292.565 82.9753 292.928C83.4659 293.291 83.7113 293.739 83.7113 294.272C83.7113 295.488 82.3353 296.096 79.5833 296.096C76.8739 296.096 74.9006 295.413 73.6633 294.048C72.4473 292.683 71.8393 290.581 71.8393 287.744C71.8393 284.992 72.4899 282.56 73.7913 280.448C75.1139 278.315 76.7886 276.629 78.8153 275.392H78.3673C77.5779 275.435 76.5006 275.723 75.1353 276.256C73.7699 276.789 72.3619 277.493 70.9113 278.368C70.3779 278.688 69.8873 279.04 69.4392 279.424C68.8419 279.893 68.3299 280.245 67.9033 280.48C67.4979 280.693 67.0073 280.8 66.4313 280.8C65.8766 280.8 65.3326 280.608 64.7993 280.224C64.2659 279.819 63.8073 279.339 63.4233 278.784C63.0393 278.208 62.7939 277.696 62.6873 277.248C62.6446 276.992 62.6233 276.843 62.6233 276.8C62.6233 276.715 62.6446 276.651 62.6873 276.608C62.7299 276.544 62.7833 276.512 62.8473 276.512C62.9539 276.512 63.0926 276.565 63.2633 276.672C63.7113 276.971 64.2233 277.12 64.7993 277.12C64.9913 277.12 65.2153 277.099 65.4713 277.056C65.7913 276.992 66.6873 276.715 68.1593 276.224C70.2499 275.52 72.1806 274.912 73.9513 274.4C75.7219 273.888 77.3539 273.515 78.8472 273.28C79.3593 273.216 79.8606 273.109 80.3513 272.96C80.8633 272.789 81.1833 272.683 81.3113 272.64C81.8446 272.448 82.2819 272.309 82.6233 272.224C82.9646 272.139 83.3059 272.096 83.6473 272.096ZM88.0313 282.656C87.7326 282.656 87.4339 282.549 87.1353 282.336C86.8366 282.123 86.6126 281.845 86.4633 281.504C86.0579 280.672 85.7166 280.064 85.4393 279.68C85.1619 279.275 84.6819 278.827 83.9993 278.336C83.8926 278.272 83.7433 278.176 83.5513 278.048C83.3806 277.92 83.2953 277.824 83.2953 277.76C83.2953 277.632 83.4553 277.568 83.7753 277.568C84.2233 277.568 84.8953 277.675 85.7913 277.888C86.7086 278.101 87.5406 278.485 88.2873 279.04C89.0553 279.573 89.4393 280.288 89.4393 281.184C89.4393 281.653 89.2899 282.016 88.9913 282.272C88.6926 282.528 88.3726 282.656 88.0313 282.656ZM84.3193 284.832C83.9779 284.832 83.6579 284.725 83.3593 284.512C83.0606 284.299 82.8473 283.989 82.7193 283.584C82.4206 282.731 82.1433 282.059 81.8873 281.568C81.6526 281.056 81.2686 280.555 80.7353 280.064C80.6499 280 80.5219 279.904 80.3513 279.776C80.1806 279.648 80.0953 279.541 80.0953 279.456C80.0953 279.349 80.1699 279.296 80.3193 279.296C80.6819 279.296 81.3113 279.445 82.2073 279.744C83.1033 280.021 83.9246 280.459 84.6713 281.056C85.4179 281.653 85.7913 282.4 85.7913 283.296C85.7913 283.808 85.6313 284.192 85.3113 284.448C85.0126 284.704 84.6819 284.832 84.3193 284.832Z" fill="#3A3A3A"/>
<path d="M82.696 5.56C82.776 5.48 82.88 5.376 83.008 5.248C83.136 5.104 83.24 5 83.32 4.936C83.4 4.872 83.472 4.84 83.536 4.84C83.632 4.84 83.872 5 84.256 5.32C84.656 5.624 85.024 5.952 85.36 6.304C85.712 6.64 85.888 6.864 85.888 6.976C85.712 7.2 85.392 7.344 84.928 7.408C84.768 10.064 84.512 12.08 84.16 13.456C83.824 14.832 83.336 15.76 82.696 16.24C81.96 16.832 80.976 17.128 79.744 17.128C79.744 16.648 79.72 16.264 79.672 15.976C79.624 15.688 79.52 15.456 79.36 15.28C79.136 14.96 78.68 14.68 77.992 14.44C77.928 14.456 77.832 14.464 77.704 14.464C77.48 14.464 77.232 14.416 76.96 14.32C76.4 13.728 75.712 13.136 74.896 12.544C73.968 13.76 72.76 14.784 71.272 15.616C69.784 16.432 67.976 17.072 65.848 17.536L65.728 17.248C67.52 16.512 68.992 15.648 70.144 14.656C71.312 13.664 72.216 12.512 72.856 11.2C71.48 10.352 70.04 9.632 68.536 9.04L68.608 8.752C70.48 8.816 72.136 9.008 73.576 9.328C73.816 8.576 73.984 7.784 74.08 6.952H70.84C69.704 6.968 68.504 7.08 67.24 7.288L66.592 6.064C67.472 6.16 68.536 6.224 69.784 6.256H82.048L82.696 5.56ZM77.2 6.952C76.976 8.216 76.664 9.304 76.264 10.216C77.192 10.648 77.872 11.128 78.304 11.656C78.752 12.168 78.976 12.672 78.976 13.168C78.976 13.52 78.856 13.832 78.616 14.104C79.176 14.152 79.648 14.176 80.032 14.176C80.224 14.176 80.376 14.16 80.488 14.128C80.6 14.08 80.72 14.016 80.848 13.936C81.168 13.648 81.448 12.912 81.688 11.728C81.944 10.528 82.136 8.936 82.264 6.952H77.2ZM73.6 16.264C74.832 16.376 75.848 16.616 76.648 16.984C77.448 17.352 78.024 17.784 78.376 18.28C78.744 18.76 78.928 19.24 78.928 19.72C78.928 20.152 78.8 20.512 78.544 20.8C78.304 21.072 77.992 21.208 77.608 21.208C77.304 21.208 77 21.12 76.696 20.944C76.424 20.192 75.976 19.408 75.352 18.592C74.728 17.76 74.08 17.04 73.408 16.432L73.6 16.264ZM71.08 21.328C71.08 20.08 71.016 19.08 70.888 18.328C73.144 18.808 74.272 19.16 74.272 19.384C74.272 19.464 74.224 19.528 74.128 19.576L73.768 19.816V23.608C73.768 23.784 73.824 23.904 73.936 23.968C74.048 24.016 74.296 24.04 74.68 24.04H77.248C78.384 24.04 79.064 24.032 79.288 24.016C79.48 24 79.616 23.976 79.696 23.944C79.792 23.896 79.88 23.808 79.96 23.68C80.088 23.504 80.248 23.168 80.44 22.672C80.632 22.16 80.84 21.584 81.064 20.944H81.304L81.376 23.776C81.744 23.92 81.992 24.08 82.12 24.256C82.264 24.416 82.336 24.632 82.336 24.904C82.336 25.32 82.184 25.64 81.88 25.864C81.576 26.104 81.032 26.272 80.248 26.368C79.48 26.48 78.376 26.536 76.936 26.536H74.176C73.312 26.536 72.664 26.472 72.232 26.344C71.8 26.216 71.496 25.984 71.32 25.648C71.16 25.328 71.08 24.848 71.08 24.208V21.328ZM81.352 18.424C82.632 18.776 83.68 19.232 84.496 19.792C85.312 20.336 85.896 20.912 86.248 21.52C86.616 22.128 86.8 22.72 86.8 23.296C86.8 23.824 86.664 24.264 86.392 24.616C86.12 24.968 85.776 25.144 85.36 25.144C84.96 25.144 84.552 24.968 84.136 24.616C84.072 23.576 83.752 22.504 83.176 21.4C82.616 20.296 81.936 19.36 81.136 18.592L81.352 18.424ZM68.752 18.736C69.152 19.76 69.352 20.744 69.352 21.688C69.352 22.472 69.216 23.152 68.944 23.728C68.672 24.288 68.32 24.712 67.888 25C67.584 25.224 67.256 25.336 66.904 25.336C66.52 25.336 66.184 25.208 65.896 24.952C65.624 24.696 65.488 24.36 65.488 23.944C65.488 23.352 65.824 22.864 66.496 22.48C67.024 22.192 67.488 21.704 67.888 21.016C68.288 20.312 68.472 19.552 68.44 18.736H68.752ZM83.178 33.576C84.026 33.576 84.714 33.744 85.242 34.08C85.786 34.416 86.058 34.824 86.058 35.304C86.058 35.56 85.978 35.76 85.818 35.904C85.658 36.048 85.466 36.12 85.242 36.12C84.858 36.12 84.546 35.976 84.306 35.688C83.922 35.272 83.594 34.96 83.322 34.752C83.066 34.528 82.746 34.344 82.362 34.2C82.202 34.136 82.034 34.08 81.858 34.032C81.698 33.984 81.618 33.944 81.618 33.912C81.618 33.816 81.81 33.736 82.194 33.672C82.578 33.608 82.906 33.576 83.178 33.576ZM80.97 35.592C81.338 35.592 81.818 35.672 82.41 35.832C83.018 35.992 83.554 36.248 84.018 36.6C84.498 36.952 84.738 37.4 84.738 37.944C84.738 38.296 84.634 38.552 84.426 38.712C84.234 38.856 84.01 38.928 83.754 38.928C83.274 38.928 82.93 38.696 82.722 38.232C82.498 37.736 82.266 37.328 82.026 37.008C81.786 36.672 81.482 36.36 81.114 36.072C81.002 35.992 80.89 35.92 80.778 35.856C80.682 35.776 80.634 35.72 80.634 35.688C80.634 35.624 80.746 35.592 80.97 35.592ZM83.514 43.824C84.154 44.32 84.474 44.912 84.474 45.6C84.474 45.904 84.386 46.144 84.21 46.32C84.034 46.496 83.802 46.584 83.514 46.584C83.018 46.584 82.538 46.352 82.074 45.888C81.146 44.944 80.45 43.976 79.986 42.984C79.538 41.992 79.17 40.976 78.882 39.936C78.946 40.8 79.058 41.632 79.218 42.432C79.314 43.008 79.386 43.536 79.434 44.016C79.498 44.48 79.53 45.04 79.53 45.696C79.53 48.256 78.994 50.384 77.922 52.08C76.866 53.76 75.186 54.6 72.882 54.6C71.666 54.6 70.586 54.344 69.642 53.832C68.714 53.304 67.994 52.568 67.482 51.624C66.97 50.68 66.714 49.584 66.714 48.336C66.714 46.928 67.058 45.544 67.746 44.184C68.434 42.808 69.386 41.376 70.602 39.888C70.218 40.112 69.826 40.272 69.426 40.368C69.042 40.448 68.722 40.488 68.466 40.488C67.922 40.488 67.402 40.296 66.906 39.912C66.65 39.688 66.426 39.432 66.234 39.144C66.042 38.84 65.946 38.624 65.946 38.496C65.946 38.448 65.962 38.424 65.994 38.424C66.026 38.424 66.066 38.44 66.114 38.472C66.178 38.488 66.258 38.504 66.354 38.52C66.754 38.6 67.138 38.64 67.506 38.64C68.354 38.64 69.018 38.536 69.498 38.328C69.978 38.12 70.418 37.84 70.818 37.488C71.01 37.328 71.162 37.216 71.274 37.152C71.402 37.072 71.538 37.032 71.682 37.032C72.146 37.032 72.602 37.168 73.05 37.44C73.514 37.712 73.746 37.992 73.746 38.28C73.746 38.488 73.658 38.68 73.482 38.856C73.306 39.032 73.05 39.224 72.714 39.432C72.378 39.656 72.194 39.784 72.162 39.816C71.106 40.808 70.29 41.984 69.714 43.344C69.138 44.704 68.85 46.04 68.85 47.352C68.85 48.744 69.178 49.888 69.834 50.784C70.49 51.664 71.498 52.104 72.858 52.104C74.81 52.104 76.242 51.4 77.154 49.992C78.082 48.584 78.546 46.584 78.546 43.992C78.546 42.76 78.434 41.36 78.21 39.792C78.178 39.504 78.098 39.056 77.97 38.448C77.81 37.616 77.73 37.064 77.73 36.792C77.73 36.456 77.81 36.176 77.97 35.952C78.146 35.728 78.394 35.616 78.714 35.616C79.018 35.616 79.258 35.768 79.434 36.072C79.61 36.36 79.746 36.856 79.842 37.56C79.97 38.552 80.146 39.384 80.37 40.056C80.61 40.728 80.97 41.368 81.45 41.976C81.946 42.568 82.634 43.184 83.514 43.824ZM76.4197 66.152C77.8757 66.152 79.2917 66.44 80.6677 67.016C82.0597 67.576 83.2037 68.48 84.0997 69.728C85.0117 70.96 85.4677 72.528 85.4677 74.432C85.4677 76.432 84.9077 78.096 83.7877 79.424C82.6677 80.752 81.2117 81.728 79.4197 82.352C77.6277 82.976 75.7077 83.288 73.6597 83.288C73.1797 83.288 72.9397 83.248 72.9397 83.168C72.9397 83.088 73.0757 83.024 73.3477 82.976C73.6357 82.928 73.7957 82.904 73.8277 82.904C75.5237 82.616 77.0437 82.112 78.3877 81.392C79.7477 80.656 80.8197 79.688 81.6037 78.488C82.4037 77.288 82.8037 75.888 82.8037 74.288C82.8037 72.32 82.4037 70.792 81.6037 69.704C80.8037 68.6 79.8917 67.864 78.8677 67.496C77.8597 67.112 76.9477 66.92 76.1317 66.92C75.9237 66.92 75.7717 66.928 75.6757 66.944C75.8677 67.344 76.0357 67.872 76.1797 68.528C76.3237 69.168 76.3957 69.784 76.3957 70.376C76.3957 72.024 76.1077 73.56 75.5317 74.984C75.0357 76.2 74.4517 77.304 73.7797 78.296C73.1237 79.288 72.4677 80.064 71.8117 80.624C71.1557 81.168 70.6037 81.44 70.1557 81.44C69.5637 81.44 68.9877 81.12 68.4277 80.48C67.8677 79.84 67.4117 79.032 67.0597 78.056C66.7077 77.064 66.5317 76.104 66.5317 75.176C66.5317 73.368 67.0197 71.776 67.9957 70.4C68.9717 69.024 70.2197 67.976 71.7397 67.256C73.2597 66.52 74.8197 66.152 76.4197 66.152ZM75.4837 68.696C75.4837 68.04 75.3957 67.464 75.2197 66.968C73.9557 67.112 72.8037 67.544 71.7637 68.264C70.7397 68.968 69.9317 69.856 69.3397 70.928C68.7637 72 68.4757 73.128 68.4757 74.312C68.4757 75.16 68.5877 75.88 68.8117 76.472C69.0357 77.064 69.2997 77.512 69.6037 77.816C69.9077 78.12 70.1557 78.272 70.3477 78.272C71.0197 78.272 71.9797 77.344 73.2277 75.488C74.0277 74.256 74.6037 73.12 74.9557 72.08C75.3077 71.04 75.4837 69.912 75.4837 68.696ZM81.4 106.336C81.48 106.224 81.592 106.072 81.736 105.88C81.88 105.688 81.992 105.544 82.072 105.448C82.168 105.352 82.248 105.304 82.312 105.304C82.408 105.304 82.688 105.48 83.152 105.832C83.616 106.184 84.048 106.552 84.448 106.936C84.864 107.32 85.072 107.568 85.072 107.68C85.024 107.936 84.816 108.064 84.448 108.064H77.392V112.432H82.216L82.984 111.352C83.08 111.224 83.2 111.056 83.344 110.848C83.488 110.64 83.6 110.488 83.68 110.392C83.776 110.296 83.856 110.248 83.92 110.248C84.016 110.248 84.304 110.44 84.784 110.824C85.28 111.192 85.744 111.576 86.176 111.976C86.608 112.376 86.824 112.632 86.824 112.744C86.76 113 86.536 113.128 86.152 113.128H69.28C68.144 113.144 66.944 113.256 65.68 113.464L65.08 112.24C65.96 112.336 67.024 112.4 68.272 112.432H74.512V108.064H71.272C70.136 108.08 68.936 108.192 67.672 108.4L67.072 107.176C67.952 107.272 69.016 107.336 70.264 107.368H74.512V103.6H70.624V104.56C70.624 104.656 70.504 104.784 70.264 104.944C70.024 105.104 69.72 105.24 69.352 105.352C68.984 105.464 68.616 105.52 68.248 105.52C68.056 105.52 67.904 105.472 67.792 105.376C67.68 105.28 67.624 105.168 67.624 105.04C67.736 103.488 67.808 101.776 67.84 99.904V97.072C67.84 95.056 67.736 93.416 67.528 92.152L70.816 93.52H81.064L81.664 92.776C81.744 92.696 81.84 92.584 81.952 92.44C82.08 92.296 82.176 92.192 82.24 92.128C82.32 92.048 82.392 92.008 82.456 92.008C82.552 92.008 82.808 92.168 83.224 92.488C83.656 92.808 84.056 93.144 84.424 93.496C84.808 93.832 85 94.056 85 94.168C84.84 94.424 84.544 94.592 84.112 94.672V98.344C84.144 100.328 84.208 102.208 84.304 103.984C84.192 104.144 83.848 104.328 83.272 104.536C82.696 104.744 82.192 104.848 81.76 104.848C81.408 104.848 81.232 104.688 81.232 104.368C81.248 104.32 81.256 104.272 81.256 104.224C81.272 104.16 81.288 104.096 81.304 104.032V103.6H77.392V107.368H80.68L81.4 106.336ZM74.512 98.176V94.192H70.624V98.176H74.512ZM81.304 98.176V94.192H77.392V98.176H81.304ZM70.624 98.872V102.952H74.512V98.872H70.624ZM77.392 98.872V102.952H81.304V98.872H77.392Z" fill="#3A3A3A"/>
<path d="M28.584 45.384C28.704 45.216 28.872 44.976 29.088 44.664C29.304 44.328 29.472 44.088 29.592 43.944C29.736 43.776 29.856 43.692 29.952 43.692C30.096 43.692 30.516 43.98 31.212 44.556C31.908 45.132 32.568 45.732 33.192 46.356C33.816 46.956 34.128 47.34 34.128 47.508C34.056 47.892 33.72 48.084 33.12 48.084H20.628C22.068 51.06 24.06 53.712 26.604 56.04C29.148 58.368 31.836 60.12 34.668 61.296L34.524 61.692C33.708 61.86 32.976 62.28 32.328 62.952C31.68 63.6 31.212 64.428 30.924 65.436C25.86 62.052 22.212 56.292 19.98 48.156V63.42H20.988L21.924 61.836C22.02 61.692 22.164 61.476 22.356 61.188C22.548 60.876 22.704 60.648 22.824 60.504C22.944 60.336 23.052 60.252 23.148 60.252C23.292 60.252 23.664 60.528 24.264 61.08C24.888 61.608 25.464 62.172 25.992 62.772C26.544 63.348 26.82 63.72 26.82 63.888C26.724 64.248 26.4 64.428 25.848 64.428H19.98V66.624L20.016 67.956C20.04 68.94 20.088 69.876 20.16 70.764C20.064 71.1 19.644 71.424 18.9 71.736C18.18 72.048 17.412 72.204 16.596 72.204C16.236 72.204 15.972 72.132 15.804 71.988C15.636 71.868 15.552 71.7 15.552 71.484C15.648 70.38 15.732 68.892 15.804 67.02V64.428H13.644C12.42 64.452 11.124 64.62 9.756 64.932L8.82 63.132C10.14 63.276 11.724 63.372 13.572 63.42H15.804V53.592C12.516 58.872 7.884 62.952 1.908 65.832L1.584 65.472C4.248 63.408 6.6 60.828 8.64 57.732C10.704 54.636 12.264 51.42 13.32 48.084H7.884C6.18 48.108 4.38 48.276 2.484 48.588L1.548 46.752C2.868 46.896 4.464 46.992 6.336 47.04H15.804V45.636C15.804 42.612 15.648 40.152 15.336 38.256C17.52 38.712 19.02 39.072 19.836 39.336C20.652 39.6 21.06 39.828 21.06 40.02C21.06 40.092 21 40.176 20.88 40.272C20.784 40.344 20.724 40.392 20.7 40.416L19.98 40.884V47.04H27.468L28.584 45.384ZM13.284 87.196C14.148 88.108 14.916 88.936 15.588 89.68L16.02 88.492C16.404 87.34 16.716 86.08 16.956 84.712C17.196 83.344 17.304 82.156 17.28 81.148C19.272 81.748 20.652 82.204 21.42 82.516C22.188 82.828 22.572 83.068 22.572 83.236C22.572 83.308 22.464 83.392 22.248 83.488L21.6 83.74C21.096 85.252 20.436 86.824 19.62 88.456H28.836L29.844 87.304C29.988 87.16 30.192 86.932 30.456 86.62C30.744 86.284 30.96 86.116 31.104 86.116C31.248 86.116 31.62 86.368 32.22 86.872C32.82 87.352 33.384 87.868 33.912 88.42C34.44 88.972 34.704 89.332 34.704 89.5C34.392 89.812 33.864 90.04 33.12 90.184C32.88 97.12 32.496 102.376 31.968 105.952C31.44 109.528 30.66 111.856 29.628 112.936C28.956 113.608 28.2 114.1 27.36 114.412C26.544 114.724 25.56 114.88 24.408 114.88C24.408 113.44 24.144 112.456 23.616 111.928C22.92 111.232 21.672 110.692 19.872 110.308V109.804C22.8 110.044 24.54 110.164 25.092 110.164C25.428 110.164 25.692 110.128 25.884 110.056C26.1 109.96 26.316 109.816 26.532 109.624C27.876 108.424 28.776 101.716 29.232 89.5H28.908C27.012 100.444 22.044 108.232 14.004 112.864L13.716 112.504C16.932 109.696 19.44 106.3 21.24 102.316C23.064 98.332 24.24 94.06 24.768 89.5H23.868C22.956 92.788 21.564 95.836 19.692 98.644C17.82 101.428 15.552 103.756 12.888 105.628L12.564 105.232C14.46 103.168 16.068 100.744 17.388 97.96C18.708 95.176 19.632 92.356 20.16 89.5H19.044C17.34 92.38 15.228 94.66 12.708 96.34L12.348 96.016C13.332 94.6 14.208 92.968 14.976 91.12H11.376V98.392L15.804 97.132L15.876 97.564C14.844 98.26 13.344 99.232 11.376 100.48V105.376C11.424 108.352 11.52 111.172 11.664 113.836C11.496 114.124 11.064 114.412 10.368 114.7C9.696 115.012 9.012 115.168 8.316 115.168C7.956 115.168 7.68 115.096 7.488 114.952C7.32 114.808 7.236 114.64 7.236 114.448C7.404 112.192 7.512 109.684 7.56 106.924V102.784C6.816 103.24 5.736 103.864 4.32 104.656C4.248 104.872 4.128 105.076 3.96 105.268C3.816 105.436 3.648 105.556 3.456 105.628L1.728 100.876C3.384 100.516 5.328 100.036 7.56 99.436V91.12H5.256C4.392 93.616 3.384 95.584 2.232 97.024L1.728 96.772C2.112 95.284 2.436 93.508 2.7 91.444C2.868 90.268 2.952 88.816 2.952 87.088C2.952 85.6 2.892 84.484 2.772 83.74L7.56 84.748C7.56 83.404 7.488 82.228 7.344 81.22C9.216 81.676 10.5 82.036 11.196 82.3C11.916 82.54 12.276 82.756 12.276 82.948C12.276 83.02 12.18 83.128 11.988 83.272L11.376 83.668V90.076H11.52L13.284 87.196ZM7.56 85.432C7.32 85.6 7.044 85.696 6.732 85.72C6.372 87.4 5.988 88.852 5.58 90.076H7.56V85.432ZM18.5596 127.536C20.501 127.536 22.389 127.92 24.2236 128.688C26.0796 129.435 27.605 130.64 28.7996 132.304C30.0156 133.947 30.6236 136.037 30.6236 138.576C30.6236 141.243 29.877 143.461 28.3836 145.232C26.8903 147.003 24.949 148.304 22.5596 149.136C20.1703 149.968 17.6103 150.384 14.8796 150.384C14.2396 150.384 13.9196 150.331 13.9196 150.224C13.9196 150.117 14.101 150.032 14.4636 149.968C14.8476 149.904 15.061 149.872 15.1036 149.872C17.365 149.488 19.3916 148.816 21.1836 147.856C22.997 146.875 24.4263 145.584 25.4716 143.984C26.5383 142.384 27.0716 140.517 27.0716 138.384C27.0716 135.76 26.5383 133.723 25.4716 132.272C24.405 130.8 23.189 129.819 21.8236 129.328C20.4796 128.816 19.2636 128.56 18.1756 128.56C17.8983 128.56 17.6956 128.571 17.5676 128.592C17.8236 129.125 18.0476 129.829 18.2396 130.704C18.4316 131.557 18.5276 132.379 18.5276 133.168C18.5276 135.365 18.1436 137.413 17.3756 139.312C16.7143 140.933 15.9356 142.405 15.0396 143.728C14.165 145.051 13.2903 146.085 12.4156 146.832C11.541 147.557 10.805 147.92 10.2076 147.92C9.41829 147.92 8.65029 147.493 7.90363 146.64C7.15696 145.787 6.54896 144.709 6.07963 143.408C5.61029 142.085 5.37563 140.805 5.37563 139.568C5.37563 137.157 6.02629 135.035 7.32763 133.2C8.62896 131.365 10.293 129.968 12.3196 129.008C14.3463 128.027 16.4263 127.536 18.5596 127.536ZM17.3116 130.928C17.3116 130.053 17.1943 129.285 16.9596 128.624C15.2743 128.816 13.7383 129.392 12.3516 130.352C10.9863 131.291 9.90896 132.475 9.11963 133.904C8.35163 135.333 7.96763 136.837 7.96763 138.416C7.96763 139.547 8.11696 140.507 8.41563 141.296C8.71429 142.085 9.06629 142.683 9.47163 143.088C9.87696 143.493 10.2076 143.696 10.4636 143.696C11.3596 143.696 12.6396 142.459 14.3036 139.984C15.3703 138.341 16.1383 136.827 16.6076 135.44C17.077 134.053 17.3116 132.549 17.3116 130.928ZM8.244 182.92C6.588 185.728 4.476 188.224 1.908 190.408L1.476 189.976C2.82 188.128 3.972 185.92 4.932 183.352C5.916 180.76 6.672 178.084 7.2 175.324H5.508C4.548 175.348 3.54 175.516 2.484 175.828L1.584 174.028C2.832 174.172 4.344 174.268 6.12 174.316H8.244V168.268C6.3 168.628 4.236 168.88 2.052 169.024L1.944 168.556C4.008 167.836 6.18 166.912 8.46 165.784C10.764 164.632 12.552 163.576 13.824 162.616L18.216 166.54C18 166.756 17.688 166.864 17.28 166.864C16.944 166.864 16.488 166.768 15.912 166.576C15.072 166.84 13.836 167.164 12.204 167.548V174.316H13.248L14.112 172.912C14.208 172.744 14.34 172.528 14.508 172.264C14.676 172 14.808 171.808 14.904 171.688C15.024 171.544 15.132 171.472 15.228 171.472C15.372 171.472 15.72 171.712 16.272 172.192C16.824 172.672 17.34 173.176 17.82 173.704C18.324 174.232 18.576 174.58 18.576 174.748C18.48 175.132 18.168 175.324 17.64 175.324H12.204V178.024C14.148 178.6 15.576 179.356 16.488 180.292C17.4 181.204 17.856 182.116 17.856 183.028C17.856 183.604 17.688 184.084 17.352 184.468C17.016 184.852 16.596 185.044 16.092 185.044C15.564 185.044 15.048 184.828 14.544 184.396C14.424 183.556 14.148 182.644 13.716 181.66C13.284 180.676 12.78 179.752 12.204 178.888V186.376C12.252 189.352 12.348 192.172 12.492 194.836C12.3 195.124 11.88 195.424 11.232 195.736C10.584 196.048 9.828 196.204 8.964 196.204C8.628 196.204 8.364 196.132 8.172 195.988C7.98 195.844 7.884 195.676 7.884 195.484C7.98 194.26 8.052 193.06 8.1 191.884C8.172 190.684 8.22 189.172 8.244 187.348V182.92ZM22.824 192.136C22.848 192.4 22.86 192.64 22.86 192.856C22.884 193.072 22.908 193.228 22.932 193.324C22.884 193.708 22.512 194.08 21.816 194.44C21.144 194.824 20.388 195.016 19.548 195.016C19.212 195.016 18.948 194.944 18.756 194.8C18.564 194.656 18.468 194.488 18.468 194.296C18.564 192.88 18.648 191.512 18.72 190.192C18.792 188.848 18.84 187.096 18.864 184.936V173.524C18.864 170.5 18.708 168.04 18.396 166.144L23.004 168.16H28.44L29.34 167.044C29.46 166.924 29.604 166.756 29.772 166.54C29.964 166.324 30.108 166.168 30.204 166.072C30.324 165.952 30.432 165.892 30.528 165.892C30.672 165.892 31.056 166.132 31.68 166.612C32.304 167.092 32.892 167.596 33.444 168.124C33.996 168.628 34.272 168.964 34.272 169.132C33.96 169.516 33.492 169.78 32.868 169.924V184.648C32.916 187.624 33.012 190.444 33.156 193.108C32.964 193.396 32.46 193.696 31.644 194.008C30.852 194.344 30.12 194.512 29.448 194.512C28.92 194.512 28.656 194.272 28.656 193.792C28.656 193.744 28.704 193.3 28.8 192.46V191.416H22.824V192.136ZM22.824 169.204V190.372H28.8V169.204H22.824ZM23.868 215.948C23.988 215.828 24.168 215.636 24.408 215.372C24.648 215.108 24.84 214.976 24.984 214.976C25.128 214.976 25.5 215.192 26.1 215.624C26.7 216.032 27.264 216.464 27.792 216.92C28.32 217.376 28.584 217.688 28.584 217.856C28.344 218.144 27.984 218.336 27.504 218.432V226.532C27.504 226.58 27.432 226.664 27.288 226.784C29.76 228.512 30.996 229.532 30.996 229.844C30.996 229.916 30.888 229.976 30.672 230.024L30.024 230.06C28.296 230.876 26.148 231.596 23.58 232.22C26.076 233.516 29.532 234.392 33.948 234.848L33.912 235.244C33.096 235.484 32.412 235.952 31.86 236.648C31.332 237.344 30.96 238.208 30.744 239.24C28.392 238.568 26.364 237.74 24.66 236.756C22.98 235.796 21.54 234.56 20.34 233.048V233.084C17.124 234.596 12.684 236.372 7.02 238.412C6.804 238.892 6.492 239.168 6.084 239.24L3.744 234.452C4.488 234.404 6.18 234.248 8.82 233.984V216.416C6.468 217.688 4.248 218.684 2.16 219.404L1.98 218.972C3.732 217.964 5.496 216.728 7.272 215.264C9.048 213.776 10.608 212.252 11.952 210.692C13.632 208.724 14.64 206.828 14.976 205.004L21.456 206.948C21.408 207.188 21.252 207.368 20.988 207.488C20.748 207.608 20.34 207.704 19.764 207.776C22.284 210.272 27.084 212.18 34.164 213.5V214.04C33.348 214.28 32.664 214.796 32.112 215.588C31.584 216.38 31.26 217.22 31.14 218.108C28.5 216.98 26.124 215.576 24.012 213.896C21.9 212.192 20.304 210.284 19.224 208.172C18.264 209.444 16.98 210.74 15.372 212.06C13.764 213.356 11.988 214.568 10.044 215.696L12.996 216.92H16.02C16.02 215.12 15.936 213.644 15.768 212.492C17.736 212.9 19.08 213.224 19.8 213.464C20.52 213.704 20.88 213.908 20.88 214.076C20.88 214.172 20.808 214.256 20.664 214.328L20.124 214.688V216.92H23.04L23.868 215.948ZM23.364 221.276V217.964H12.744V221.276H23.364ZM12.744 225.704H23.364V222.32H12.744V225.704ZM20.052 232.652C18.828 230.924 17.892 228.944 17.244 226.712H12.744V233.552L20.052 232.652ZM26.352 227.36C25.488 227.744 24.732 227.936 24.084 227.936H23.364V226.712H17.892C18.924 228.752 20.46 230.384 22.5 231.608C23.82 230.432 25.104 229.016 26.352 227.36ZM29.412 255.888C29.532 255.72 29.688 255.492 29.88 255.204C30.072 254.916 30.228 254.712 30.348 254.592C30.468 254.448 30.576 254.376 30.672 254.376C30.816 254.376 31.188 254.628 31.788 255.132C32.412 255.636 32.988 256.176 33.516 256.752C34.068 257.304 34.344 257.664 34.344 257.832C34.272 258.216 33.948 258.408 33.372 258.408H24.624C25.56 261.096 26.928 263.436 28.728 265.428C30.552 267.42 32.58 268.956 34.812 270.036L34.74 270.504C33.444 271.584 32.616 273.156 32.256 275.22C30.288 273.516 28.584 271.176 27.144 268.2C25.704 265.224 24.612 261.96 23.868 258.408H23.796V273.6H24.696L25.56 272.16C25.656 272.016 25.788 271.812 25.956 271.548C26.124 271.26 26.268 271.044 26.388 270.9C26.508 270.756 26.616 270.684 26.712 270.684C26.856 270.684 27.192 270.936 27.72 271.44C28.272 271.92 28.788 272.436 29.268 272.988C29.748 273.54 29.988 273.9 29.988 274.068C29.892 274.428 29.568 274.608 29.016 274.608H23.796V276.66L23.832 277.884C23.856 278.844 23.904 279.72 23.976 280.512C23.88 280.848 23.46 281.196 22.716 281.556C21.972 281.94 21.24 282.132 20.52 282.132C19.872 282.132 19.548 281.892 19.548 281.412C19.644 280.284 19.716 278.856 19.764 277.128V274.608H18.108C17.172 274.632 16.212 274.8 15.228 275.112L14.292 273.312C15.324 273.456 16.572 273.552 18.036 273.6H19.764V265.212C17.436 269.004 14.256 272.256 10.224 274.968L10.008 274.716V276.804L10.044 278.1C10.068 279.084 10.116 279.984 10.188 280.8C10.068 281.088 9.636 281.388 8.892 281.7C8.172 282.036 7.44 282.204 6.696 282.204C6.336 282.204 6.048 282.132 5.832 281.988C5.64 281.844 5.544 281.676 5.544 281.484C5.64 280.068 5.724 278.7 5.796 277.38C5.868 276.036 5.916 274.284 5.94 272.124V263.448C4.596 265.176 3.216 266.64 1.8 267.84L1.368 267.552C2.256 266.04 3.132 264.264 3.996 262.224C4.884 260.184 5.7 258.048 6.444 255.816C6.828 254.688 7.176 253.368 7.488 251.856C7.824 250.32 8.016 249.06 8.064 248.076C10.2 248.748 11.676 249.264 12.492 249.624C13.308 249.984 13.716 250.248 13.716 250.416C13.716 250.512 13.62 250.596 13.428 250.668L12.744 250.956C11.568 254.004 10.272 256.752 8.856 259.2C10.176 260.016 10.836 260.58 10.836 260.892C10.836 261.036 10.74 261.144 10.548 261.216L10.008 261.468V274.356C11.832 272.364 13.452 269.952 14.868 267.12C16.308 264.264 17.424 261.36 18.216 258.408H15.768C14.352 258.432 12.888 258.6 11.376 258.912L10.44 257.112C11.76 257.256 13.356 257.352 15.228 257.4H19.764V256.032C19.764 253.008 19.608 250.548 19.296 248.652C21.36 249.108 22.776 249.468 23.544 249.732C24.312 249.972 24.696 250.188 24.696 250.38C24.696 250.476 24.6 250.584 24.408 250.704L23.796 251.136V257.4H28.44L29.412 255.888ZM25.812 293.848C25.188 295.264 24.3 296.644 23.148 297.988C21.996 299.308 20.688 300.496 19.224 301.552C20.496 301.672 21.96 301.756 23.616 301.804H25.992L26.748 300.688C26.82 300.568 26.928 300.412 27.072 300.22C27.24 300.004 27.372 299.848 27.468 299.752C27.564 299.632 27.66 299.572 27.756 299.572C27.9 299.572 28.2 299.764 28.656 300.148C29.136 300.508 29.58 300.904 29.988 301.336C30.396 301.768 30.6 302.068 30.6 302.236C30.528 302.62 30.228 302.812 29.7 302.812H26.496V305.98H29.052L29.772 305.044C29.868 304.924 29.964 304.792 30.06 304.648C30.18 304.504 30.3 304.372 30.42 304.252C30.54 304.132 30.648 304.072 30.744 304.072C30.888 304.072 31.212 304.252 31.716 304.612C32.244 304.948 32.724 305.32 33.156 305.728C33.612 306.136 33.84 306.424 33.84 306.592C33.648 306.904 33.228 307.12 32.58 307.24V309.616L32.616 311.056C32.64 312.16 32.688 313.192 32.76 314.152C32.64 314.344 32.304 314.548 31.752 314.764C31.2 314.98 30.54 315.088 29.772 315.088H29.16V313.576H26.532C27.252 315.376 28.332 316.912 29.772 318.184C31.212 319.456 32.856 320.344 34.704 320.848L34.668 321.244C33.132 321.724 32.172 323.044 31.788 325.204C30.252 324.124 29.04 322.768 28.152 321.136C27.288 319.504 26.628 317.428 26.172 314.908C25.692 317.236 24.564 319.252 22.788 320.956C21.012 322.66 18.216 324.052 14.4 325.132L14.112 324.7C17.064 323.284 19.176 321.676 20.448 319.876C21.744 318.076 22.524 315.976 22.788 313.576H20.736V314.656C20.736 314.824 20.46 315.016 19.908 315.232C19.38 315.424 18.732 315.52 17.964 315.52C17.46 315.52 17.208 315.28 17.208 314.8C17.28 314.2 17.328 313.612 17.352 313.036L17.388 312.208V310.552C17.124 310.72 16.776 310.816 16.344 310.84C16.104 314.704 15.744 317.608 15.264 319.552C14.784 321.496 14.124 322.816 13.284 323.512C12.42 324.28 11.232 324.664 9.72 324.664C9.72 323.584 9.564 322.876 9.252 322.54C8.916 322.108 8.232 321.772 7.2 321.532V320.956C8.208 321.076 9.192 321.136 10.152 321.136C10.632 321.136 11.016 321.028 11.304 320.812C11.904 320.284 12.42 318.664 12.852 315.952C12.708 316.024 12.552 316.06 12.384 316.06C12.168 316.06 11.904 315.964 11.592 315.772C11.496 315.124 11.22 314.44 10.764 313.72C10.308 313 9.804 312.412 9.252 311.956L9.648 311.668C11.304 312.028 12.468 312.676 13.14 313.612C13.188 313.132 13.236 312.376 13.284 311.344L13.356 310.372H6.696V311.452C6.696 311.548 6.576 311.68 6.336 311.848C6.12 312.016 5.808 312.172 5.4 312.316C5.016 312.436 4.572 312.496 4.068 312.496C3.804 312.496 3.588 312.424 3.42 312.28C3.276 312.136 3.204 311.968 3.204 311.776C3.372 309.496 3.48 306.964 3.528 304.18V300.004C3.528 296.98 3.372 294.52 3.06 292.624L7.164 294.28H12.528L13.32 293.092C13.416 292.972 13.536 292.804 13.68 292.588C13.848 292.348 13.98 292.18 14.076 292.084C14.196 291.964 14.304 291.904 14.4 291.904C14.544 291.904 14.88 292.108 15.408 292.516C15.96 292.924 16.464 293.356 16.92 293.812C17.4 294.268 17.64 294.58 17.64 294.748C17.568 295.132 17.256 295.324 16.704 295.324H11.952V299.284H12.744L13.428 298.204C13.5 298.108 13.596 297.964 13.716 297.772C13.86 297.556 13.98 297.4 14.076 297.304C14.172 297.184 14.268 297.124 14.364 297.124C14.508 297.124 14.796 297.304 15.228 297.664C15.684 298.024 16.104 298.42 16.488 298.852C16.872 299.26 17.064 299.548 17.064 299.716C16.992 300.1 16.692 300.292 16.164 300.292H11.952V304.324H12.672L14.184 302.2L15.444 303.28C16.86 301.936 18.216 300.22 19.512 298.132C20.16 297.076 20.7 295.936 21.132 294.712C21.564 293.464 21.792 292.36 21.816 291.4C25.368 292.144 27.144 292.684 27.144 293.02C27.144 293.092 27.048 293.164 26.856 293.236L26.208 293.488C26.952 294.736 28.104 295.792 29.664 296.656C31.224 297.496 32.916 298.18 34.74 298.708V299.14C34.02 299.38 33.432 299.836 32.976 300.508C32.544 301.18 32.28 301.948 32.184 302.812C30.672 301.828 29.352 300.568 28.224 299.032C27.12 297.496 26.316 295.768 25.812 293.848ZM6.696 299.284H8.856V295.324H6.696V299.284ZM6.696 304.324H8.856V300.292H6.696V304.324ZM18.936 301.768C17.976 302.44 16.932 303.064 15.804 303.64C16.308 304.048 16.716 304.432 17.028 304.792C16.956 305.176 16.656 305.368 16.128 305.368H11.952V309.364H13.068L14.688 307.636L17.388 309.94C17.388 307.636 17.268 305.752 17.028 304.288L21.06 305.98H22.932V302.812H21.744C21.072 302.836 20.4 303.004 19.728 303.316L18.936 301.768ZM6.696 309.364H8.856V305.368H6.696V309.364ZM22.932 307.024H20.736V312.568H22.896C22.92 312.16 22.932 311.548 22.932 310.732V307.024ZM26.496 310.696C26.496 311.536 26.472 312.16 26.424 312.568H29.16V307.024H26.496V310.696ZM9.828 318.58C9.516 318.58 9.204 318.424 8.892 318.112C8.868 317.32 8.688 316.42 8.352 315.412C8.04 314.404 7.668 313.492 7.236 312.676L7.704 312.46C8.832 313.204 9.648 313.984 10.152 314.8C10.656 315.592 10.908 316.336 10.908 317.032C10.908 317.488 10.8 317.86 10.584 318.148C10.392 318.436 10.14 318.58 9.828 318.58ZM7.92 317.932C7.92 318.604 7.776 319.156 7.488 319.588C7.224 319.996 6.9 320.2 6.516 320.2C6.18 320.2 5.856 320.008 5.544 319.624C5.64 319.072 5.688 318.412 5.688 317.644C5.688 316.108 5.52 314.644 5.184 313.252L5.688 313.144C6.456 313.96 7.02 314.788 7.38 315.628C7.74 316.444 7.92 317.212 7.92 317.932ZM3.816 313.504C4.368 315.232 4.644 316.78 4.644 318.148C4.644 319.348 4.44 320.248 4.032 320.848C3.624 321.424 3.156 321.712 2.628 321.712C2.292 321.712 2.004 321.592 1.764 321.352C1.548 321.112 1.44 320.8 1.44 320.416C1.44 320.008 1.596 319.54 1.908 319.012C2.34 318.46 2.676 317.704 2.916 316.744C3.156 315.76 3.288 314.68 3.312 313.504H3.816ZM23.0933 349.344C21.0879 350.005 19.7119 350.485 18.9653 350.784C18.9653 351.168 19.0079 351.68 19.0933 352.32C19.1573 352.789 19.1893 353.355 19.1893 354.016C19.1893 354.507 19.0186 354.976 18.6772 355.424C18.3359 355.872 17.9413 356.096 17.4933 356.096C17.0453 356.096 16.6506 355.925 16.3093 355.584C15.9893 355.221 15.8293 354.795 15.8293 354.304C15.8293 354.027 15.8933 353.291 16.0213 352.096C13.6533 353.333 12.4693 354.603 12.4693 355.904C12.4693 357.291 13.7919 357.984 16.4373 357.984C17.2693 357.984 17.9733 357.941 18.5493 357.856C19.1253 357.749 19.7759 357.6 20.5013 357.408C21.3546 357.173 22.0479 357.056 22.5813 357.056C23.1573 357.056 23.6159 357.184 23.9573 357.44C24.3199 357.696 24.5013 358.059 24.5013 358.528C24.5013 359.424 23.8506 360.064 22.5493 360.448C21.2693 360.853 19.8293 361.056 18.2292 361.056C16.0746 361.056 14.3573 360.704 13.0773 360C11.7973 359.296 11.1573 358.208 11.1573 356.736C11.1573 355.627 11.5946 354.592 12.4693 353.632C13.3653 352.672 14.5813 351.723 16.1173 350.784C16.1386 350.571 16.1493 350.24 16.1493 349.792C16.1493 348.917 15.9999 348.107 15.7013 347.36C15.4026 346.592 15.0506 346.208 14.6453 346.208C14.0479 346.208 13.5039 346.549 13.0133 347.232C12.5226 347.893 11.9786 348.8 11.3813 349.952C11.1679 350.421 10.9653 350.805 10.7733 351.104C10.2826 351.851 9.88792 352.395 9.58925 352.736C9.29058 353.056 8.93858 353.216 8.53325 353.216C8.06392 353.216 7.66925 353.003 7.34925 352.576C7.05058 352.128 6.90125 351.616 6.90125 351.04C6.90125 350.507 7.02925 350.048 7.28525 349.664C7.54125 349.28 7.97858 348.811 8.59725 348.256C9.72792 347.253 10.5813 346.379 11.1573 345.632C12.1813 344.331 12.9706 342.869 13.5253 341.248C12.6293 341.355 11.8399 341.408 11.1573 341.408C10.3466 341.408 9.63192 341.205 9.01325 340.8C8.41592 340.373 7.77592 339.755 7.09325 338.944C7.00792 338.859 6.96525 338.773 6.96525 338.688C6.96525 338.624 7.00792 338.592 7.09325 338.592C7.19992 338.592 7.34925 338.624 7.54125 338.688C8.41592 339.051 9.29058 339.232 10.1653 339.232C10.6559 339.232 11.2639 339.189 11.9893 339.104C12.7146 338.997 13.4399 338.837 14.1653 338.624C14.2506 338.176 14.2933 337.675 14.2933 337.12C14.2933 336.181 13.9199 335.509 13.1733 335.104C13.1306 335.083 13.0559 335.051 12.9493 335.008C12.8639 334.944 12.7999 334.891 12.7573 334.848C12.7146 334.784 12.6933 334.709 12.6933 334.624C12.7146 334.389 12.7999 334.187 12.9493 334.016C13.0986 333.824 13.3119 333.728 13.5893 333.728C14.1013 333.728 14.6346 333.792 15.1893 333.92C15.7439 334.048 16.1599 334.229 16.4373 334.464C16.6719 334.677 16.7893 334.997 16.7893 335.424C16.7893 335.531 16.7679 335.733 16.7253 336.032C17.1733 336.245 17.6319 336.352 18.1013 336.352C18.3786 336.352 18.6453 336.32 18.9013 336.256C19.2426 336.213 19.4986 336.192 19.6693 336.192C19.9039 336.192 20.0959 336.256 20.2453 336.384C20.4159 336.512 20.5013 336.693 20.5013 336.928C20.5013 337.419 20.3093 337.909 19.9253 338.4C19.5413 338.891 18.9759 339.349 18.2292 339.776C17.3546 340.267 16.3839 340.64 15.3173 340.896C14.8266 342.347 14.1439 343.893 13.2693 345.536C13.7386 345.301 14.2079 345.184 14.6773 345.184C16.5973 345.184 17.8239 346.123 18.3573 348C18.9119 346.507 19.6906 345.205 20.6933 344.096C21.3333 343.392 22.1013 342.752 22.9973 342.176C23.9146 341.579 24.8853 341.28 25.9093 341.28C26.8693 341.28 27.6479 341.568 28.2453 342.144C28.8639 342.699 29.1733 343.435 29.1733 344.352C29.1733 345.461 28.6613 346.4 27.6373 347.168C26.6133 347.936 25.3866 348.565 23.9573 349.056L23.0933 349.344ZM16.2773 337.824C16.6186 337.653 16.8746 337.515 17.0453 337.408C17.1946 337.323 17.2693 337.237 17.2693 337.152C17.2693 337.088 17.1839 336.992 17.0133 336.864C16.9706 336.821 16.8426 336.736 16.6293 336.608L16.2773 337.824ZM21.2053 344.608C20.0746 345.931 19.3706 347.445 19.0933 349.152L19.5093 348.928L20.7893 348.256C21.9839 347.659 22.8373 347.211 23.3493 346.912C24.2026 346.443 24.8533 345.92 25.3013 345.344C25.7493 344.768 25.9733 344.235 25.9733 343.744C25.9733 343.381 25.8559 343.093 25.6213 342.88C25.4079 342.667 25.0986 342.56 24.6933 342.56C24.1599 342.56 23.5839 342.731 22.9653 343.072C22.3679 343.413 21.7813 343.925 21.2053 344.608Z" fill="#3A3A3A"/>
</svg>
