<svg width="714" height="172" viewBox="0 0 714 172" fill="none" xmlns="http://www.w3.org/2000/svg">
<path d="M25.8111 31.8C25.9791 31.872 26.0631 32.004 26.0631 32.196C26.0631 32.292 26.0391 32.388 25.9911 32.484C25.9431 32.58 25.9071 32.664 25.8831 32.736L24.4791 36.444L23.5431 39H2.26711C2.07511 39 1.97911 38.844 1.97911 38.532C1.97911 38.268 2.07511 38.136 2.26711 38.136H2.69911C3.61111 38.136 4.34311 37.932 4.89511 37.524C5.44711 37.116 5.72311 36.348 5.72311 35.22V16.212C5.72311 15.084 5.43511 14.328 4.85911 13.944C4.30711 13.536 3.58711 13.332 2.69911 13.332H2.26711C2.07511 13.332 1.97911 13.176 1.97911 12.864C1.97911 12.6 2.07511 12.468 2.26711 12.468H22.6791C23.1591 13.284 23.6391 14.16 24.1191 15.096C24.6231 16.032 24.9831 16.716 25.1991 17.148L25.2351 17.292C25.2351 17.388 25.1511 17.496 24.9831 17.616C24.8871 17.664 24.8031 17.688 24.7311 17.688C24.6111 17.688 24.5031 17.64 24.4071 17.544C23.3991 16.512 22.0311 15.588 20.3031 14.772C18.5991 13.932 16.8831 13.512 15.1551 13.512H14.4711C13.4871 13.512 12.7191 13.56 12.1671 13.656C11.6391 13.728 11.2191 13.92 10.9071 14.232C10.5951 14.544 10.4391 15.048 10.4391 15.744V24.636H13.3551C14.6751 24.636 15.5631 24.624 16.0191 24.6C17.0511 24.576 17.8551 24.216 18.4311 23.52C19.0311 22.8 19.3311 21.984 19.3311 21.072C19.3311 20.904 19.4871 20.82 19.7991 20.82C19.9671 20.82 20.0751 20.844 20.1231 20.892C20.1951 20.916 20.2311 20.976 20.2311 21.072V29.46C20.2311 29.556 20.1951 29.628 20.1231 29.676C20.0751 29.7 19.9671 29.712 19.7991 29.712C19.4871 29.712 19.3311 29.628 19.3311 29.46C19.3311 28.548 19.0311 27.744 18.4311 27.048C17.8551 26.352 17.0511 25.992 16.0191 25.968C15.5631 25.944 14.6751 25.932 13.3551 25.932H10.4391V35.652C10.4391 36.492 10.6911 37.068 11.1951 37.38C11.7231 37.668 12.5391 37.848 13.6431 37.92C13.8831 37.944 14.2551 37.956 14.7591 37.956C15.2631 37.956 15.6711 37.944 15.9831 37.92C18.0951 37.8 19.8591 37.176 21.2751 36.048C22.7151 34.896 24.0351 33.504 25.2351 31.872C25.3071 31.776 25.4031 31.728 25.5231 31.728C25.6191 31.728 25.7151 31.752 25.8111 31.8ZM48.4124 38.136C48.5804 38.136 48.6644 38.268 48.6644 38.532C48.6644 38.844 48.5804 39 48.4124 39H39.1964C39.0044 39 38.9084 38.844 38.9084 38.532C38.9084 38.268 39.0164 38.136 39.2324 38.136C39.7364 38.088 40.1324 37.98 40.4204 37.812C40.7084 37.62 40.8524 37.38 40.8524 37.092C40.8524 36.9 40.7444 36.66 40.5284 36.372L39.2324 34.68C37.9124 32.952 37.2164 32.04 37.1444 31.944L33.9404 35.76C33.6284 36.144 33.4724 36.516 33.4724 36.876C33.4724 37.284 33.6764 37.596 34.0844 37.812C34.4924 38.028 34.9484 38.148 35.4524 38.172C35.6204 38.172 35.7044 38.292 35.7044 38.532C35.7044 38.844 35.6204 39 35.4524 39H28.1804C27.9884 39 27.8924 38.844 27.8924 38.532C27.8924 38.388 27.9284 38.292 28.0004 38.244C28.0724 38.196 28.2164 38.148 28.4324 38.1C29.7284 37.956 31.0724 37.116 32.4644 35.58C33.5684 34.236 34.8764 32.688 36.3884 30.936L31.0604 24.024C30.5324 23.376 30.1004 22.956 29.7644 22.764C29.4284 22.548 28.9364 22.428 28.2884 22.404C28.1204 22.404 28.0364 22.248 28.0364 21.936C28.0364 21.672 28.1204 21.54 28.2884 21.54H37.1804C37.3964 21.54 37.5044 21.672 37.5044 21.936C37.5044 22.248 37.3964 22.404 37.1804 22.404C36.6764 22.428 36.2564 22.536 35.9204 22.728C35.6084 22.92 35.4524 23.16 35.4524 23.448C35.4524 23.664 35.5364 23.856 35.7044 24.024C35.9204 24.336 36.9524 25.68 38.8004 28.056C39.9524 26.712 40.9004 25.572 41.6444 24.636C41.9324 24.228 42.0764 23.88 42.0764 23.592C42.0764 23.184 41.8724 22.884 41.4644 22.692C41.0564 22.5 40.5524 22.392 39.9524 22.368C39.7604 22.368 39.6644 22.224 39.6644 21.936C39.6644 21.672 39.7604 21.54 39.9524 21.54H47.1884C47.3804 21.54 47.4764 21.672 47.4764 21.936C47.4764 22.104 47.4404 22.212 47.3684 22.26C47.2964 22.308 47.1524 22.356 46.9364 22.404C45.6404 22.548 44.2844 23.448 42.8684 25.104C42.7484 25.272 42.5924 25.464 42.4004 25.68C42.2084 25.896 42.0164 26.124 41.8244 26.364C40.9124 27.42 40.1684 28.32 39.5924 29.064C42.6404 32.952 44.5484 35.34 45.3164 36.228C46.0124 37.02 46.5524 37.524 46.9364 37.74C47.3204 37.956 47.8124 38.088 48.4124 38.136ZM62.6928 21.144C64.0608 21.144 65.3208 21.54 66.4728 22.332C67.6248 23.1 68.5248 24.168 69.1728 25.536C69.8448 26.88 70.1808 28.404 70.1808 30.108C70.1808 31.86 69.8568 33.456 69.2088 34.896C68.5608 36.312 67.6608 37.428 66.5088 38.244C65.3808 39.06 64.0968 39.468 62.6568 39.468C60.5928 39.468 58.7568 38.736 57.1488 37.272V44.652C57.1488 45.372 57.3288 45.84 57.6888 46.056C58.0488 46.272 58.5648 46.38 59.2368 46.38H59.5968C59.7648 46.38 59.8488 46.512 59.8488 46.776C59.8488 47.088 59.7648 47.244 59.5968 47.244H50.4888C50.3208 47.244 50.2368 47.088 50.2368 46.776C50.2368 46.512 50.3208 46.38 50.4888 46.38H50.8848C51.5808 46.38 52.1088 46.272 52.4688 46.056C52.8288 45.84 53.0088 45.372 53.0088 44.652L52.9368 25.356C52.9368 24.588 52.7568 24.084 52.3968 23.844C52.0608 23.604 51.4728 23.46 50.6328 23.412C50.4168 23.388 50.3088 23.196 50.3088 22.836C50.3088 22.668 50.3808 22.572 50.5248 22.548L57.1488 21.144V23.376C57.8208 22.728 58.6248 22.2 59.5608 21.792C60.4968 21.36 61.5408 21.144 62.6928 21.144ZM61.2168 37.884C61.9368 37.884 62.6448 37.596 63.3408 37.02C64.0368 36.42 64.6008 35.52 65.0328 34.32C65.4888 33.12 65.7168 31.668 65.7168 29.964C65.7168 28.476 65.5248 27.192 65.1408 26.112C64.7568 25.008 64.2168 24.168 63.5208 23.592C62.8488 22.992 62.0928 22.692 61.2528 22.692C60.6048 22.692 59.8968 22.884 59.1288 23.268C58.3848 23.628 57.7248 24.108 57.1488 24.708V35.904C57.7488 36.504 58.4088 36.984 59.1288 37.344C59.8728 37.704 60.5688 37.884 61.2168 37.884ZM89.5455 34.392C89.6655 34.464 89.7255 34.584 89.7255 34.752L89.6895 35.004C89.1375 36.18 88.2495 37.224 87.0255 38.136C85.8255 39.024 84.3135 39.468 82.4895 39.468C80.7375 39.468 79.1535 39.072 77.7375 38.28C76.3215 37.488 75.2055 36.408 74.3895 35.04C73.5975 33.648 73.2015 32.136 73.2015 30.504C73.2015 29.016 73.5375 27.552 74.2095 26.112C74.9055 24.672 75.9255 23.484 77.2695 22.548C78.6135 21.612 80.2095 21.144 82.0575 21.144C83.4015 21.144 84.6375 21.456 85.7655 22.08C86.8935 22.704 87.8175 23.592 88.5375 24.744C89.2815 25.896 89.7375 27.264 89.9055 28.848L77.7375 28.92C77.7135 29.184 77.7015 29.604 77.7015 30.18C77.7015 32.292 78.1935 34.068 79.1775 35.508C80.1615 36.948 81.5775 37.668 83.4255 37.668C85.6815 37.668 87.5295 36.612 88.9695 34.5C89.0415 34.38 89.1495 34.32 89.2935 34.32C89.3175 34.32 89.4015 34.344 89.5455 34.392ZM81.9135 22.152C81.0735 22.152 80.2455 22.56 79.4295 23.376C78.6375 24.168 78.1095 25.596 77.8455 27.66L85.4775 27.588V26.976C85.4535 25.464 85.0935 24.288 84.3975 23.448C83.7255 22.584 82.8975 22.152 81.9135 22.152ZM105.015 21.108C105.975 21.108 106.755 21.372 107.355 21.9C107.955 22.428 108.255 23.04 108.255 23.736C108.255 24.288 108.063 24.744 107.679 25.104C107.319 25.464 106.863 25.644 106.311 25.644C105.951 25.644 105.627 25.572 105.339 25.428C105.075 25.26 104.751 25.02 104.367 24.708C104.031 24.444 103.731 24.24 103.467 24.096C103.203 23.952 102.927 23.88 102.639 23.88C102.063 23.88 101.523 24.168 101.019 24.744C100.515 25.296 100.047 26.04 99.615 26.976V36.408C99.615 37.128 99.795 37.596 100.155 37.812C100.515 38.028 101.031 38.136 101.703 38.136H102.135C102.303 38.136 102.387 38.28 102.387 38.568C102.387 38.856 102.303 39 102.135 39H93.027C92.859 39 92.775 38.856 92.775 38.568C92.775 38.28 92.859 38.136 93.027 38.136H93.387C94.059 38.136 94.575 38.028 94.935 37.812C95.295 37.596 95.475 37.128 95.475 36.408V25.284C95.475 24.54 95.295 24.048 94.935 23.808C94.575 23.568 93.975 23.424 93.135 23.376C92.919 23.352 92.811 23.16 92.811 22.8C92.811 22.656 92.883 22.572 93.027 22.548C93.267 22.452 95.463 21.984 99.615 21.144V25.212C100.311 23.964 101.127 22.968 102.063 22.224C103.023 21.48 104.007 21.108 105.015 21.108ZM114.333 17.4C113.589 17.4 112.953 17.148 112.425 16.644C111.921 16.116 111.669 15.492 111.669 14.772C111.669 14.028 111.921 13.404 112.425 12.9C112.953 12.372 113.589 12.108 114.333 12.108C115.053 12.108 115.677 12.372 116.205 12.9C116.733 13.404 116.997 14.028 116.997 14.772C116.997 15.492 116.733 16.116 116.205 16.644C115.677 17.148 115.053 17.4 114.333 17.4ZM109.833 39C109.665 39 109.581 38.844 109.581 38.532C109.581 38.268 109.665 38.136 109.833 38.136H110.265C110.961 38.136 111.501 38.028 111.885 37.812C112.293 37.596 112.497 37.128 112.497 36.408L112.461 25.32C112.461 24.576 112.281 24.084 111.921 23.844C111.561 23.604 110.961 23.46 110.121 23.412C109.905 23.388 109.797 23.208 109.797 22.872C109.797 22.68 109.869 22.572 110.013 22.548C110.277 22.452 112.485 21.984 116.637 21.144L116.601 36.408C116.601 37.128 116.805 37.596 117.213 37.812C117.621 38.028 118.173 38.136 118.869 38.136H119.301C119.469 38.136 119.553 38.268 119.553 38.532C119.553 38.844 119.469 39 119.301 39H109.833ZM138.518 34.392C138.638 34.464 138.698 34.584 138.698 34.752L138.662 35.004C138.11 36.18 137.222 37.224 135.998 38.136C134.798 39.024 133.286 39.468 131.462 39.468C129.71 39.468 128.126 39.072 126.71 38.28C125.294 37.488 124.178 36.408 123.362 35.04C122.57 33.648 122.174 32.136 122.174 30.504C122.174 29.016 122.51 27.552 123.182 26.112C123.878 24.672 124.898 23.484 126.242 22.548C127.586 21.612 129.182 21.144 131.03 21.144C132.374 21.144 133.61 21.456 134.738 22.08C135.866 22.704 136.79 23.592 137.51 24.744C138.254 25.896 138.71 27.264 138.878 28.848L126.71 28.92C126.686 29.184 126.674 29.604 126.674 30.18C126.674 32.292 127.166 34.068 128.15 35.508C129.134 36.948 130.55 37.668 132.398 37.668C134.654 37.668 136.502 36.612 137.942 34.5C138.014 34.38 138.122 34.32 138.266 34.32C138.29 34.32 138.374 34.344 138.518 34.392ZM130.886 22.152C130.046 22.152 129.218 22.56 128.402 23.376C127.61 24.168 127.082 25.596 126.818 27.66L134.45 27.588V26.976C134.426 25.464 134.066 24.288 133.37 23.448C132.698 22.584 131.87 22.152 130.886 22.152ZM162.484 38.136C162.676 38.136 162.772 38.28 162.772 38.568C162.772 38.856 162.676 39 162.484 39H153.412C153.244 39 153.16 38.856 153.16 38.568C153.16 38.28 153.244 38.136 153.412 38.136H153.844C154.516 38.136 155.02 38.028 155.356 37.812C155.716 37.596 155.896 37.128 155.896 36.408L155.932 30.072C155.932 28.92 155.908 27.912 155.86 27.048C155.812 25.8 155.56 24.804 155.104 24.06C154.648 23.316 153.868 22.944 152.764 22.944C151.972 22.944 151.216 23.208 150.496 23.736C149.776 24.264 149.14 25.008 148.588 25.968V36.408C148.588 37.128 148.768 37.596 149.128 37.812C149.488 38.028 150.004 38.136 150.676 38.136H151.108C151.276 38.136 151.36 38.28 151.36 38.568C151.36 38.856 151.276 39 151.108 39H142C141.808 39 141.712 38.856 141.712 38.568C141.712 38.28 141.808 38.136 142 38.136H142.36C143.056 38.136 143.584 38.028 143.944 37.812C144.304 37.596 144.484 37.128 144.484 36.408L144.448 25.32C144.448 24.576 144.256 24.084 143.872 23.844C143.512 23.58 142.924 23.424 142.108 23.376C141.892 23.352 141.784 23.16 141.784 22.8C141.784 22.656 141.856 22.572 142 22.548C142.24 22.452 144.436 21.984 148.588 21.144V24.348C149.26 23.364 150.064 22.584 151 22.008C151.936 21.432 152.968 21.144 154.096 21.144C155.392 21.144 156.484 21.408 157.372 21.936C158.26 22.464 158.92 23.148 159.352 23.988C159.784 24.828 160.012 25.716 160.036 26.652V29.964V36.408C160.036 37.128 160.216 37.596 160.576 37.812C160.936 38.028 161.452 38.136 162.124 38.136H162.484ZM174.059 39.468C172.571 39.468 171.143 39.12 169.775 38.424C168.407 37.728 167.291 36.708 166.427 35.364C165.563 33.996 165.131 32.364 165.131 30.468C165.131 29.004 165.479 27.552 166.175 26.112C166.895 24.672 167.939 23.484 169.307 22.548C170.675 21.612 172.307 21.144 174.203 21.144C175.835 21.144 177.179 21.384 178.235 21.864C179.291 22.32 180.059 22.884 180.539 23.556C181.019 24.204 181.259 24.804 181.259 25.356C181.259 25.932 181.067 26.412 180.683 26.796C180.323 27.18 179.903 27.372 179.423 27.372C178.823 27.372 178.331 27.192 177.947 26.832C177.563 26.448 177.179 25.908 176.795 25.212C176.315 24.228 175.847 23.484 175.391 22.98C174.935 22.476 174.383 22.224 173.735 22.224C172.943 22.224 172.235 22.56 171.611 23.232C171.011 23.904 170.531 24.852 170.171 26.076C169.835 27.3 169.667 28.704 169.667 30.288C169.667 32.016 169.919 33.444 170.423 34.572C170.951 35.7 171.611 36.516 172.403 37.02C173.219 37.524 174.083 37.776 174.995 37.776C177.275 37.776 179.087 36.816 180.431 34.896C180.527 34.776 180.623 34.716 180.719 34.716C180.839 34.716 180.935 34.74 181.007 34.788C181.175 34.86 181.259 34.968 181.259 35.112C181.259 35.208 181.235 35.28 181.187 35.328C180.539 36.504 179.603 37.488 178.379 38.28C177.179 39.072 175.739 39.468 174.059 39.468ZM200.604 34.392C200.724 34.464 200.784 34.584 200.784 34.752L200.748 35.004C200.196 36.18 199.308 37.224 198.084 38.136C196.884 39.024 195.372 39.468 193.548 39.468C191.796 39.468 190.212 39.072 188.796 38.28C187.38 37.488 186.264 36.408 185.448 35.04C184.656 33.648 184.26 32.136 184.26 30.504C184.26 29.016 184.596 27.552 185.268 26.112C185.964 24.672 186.984 23.484 188.328 22.548C189.672 21.612 191.268 21.144 193.116 21.144C194.46 21.144 195.696 21.456 196.824 22.08C197.952 22.704 198.876 23.592 199.596 24.744C200.34 25.896 200.796 27.264 200.964 28.848L188.796 28.92C188.772 29.184 188.76 29.604 188.76 30.18C188.76 32.292 189.252 34.068 190.236 35.508C191.22 36.948 192.636 37.668 194.484 37.668C196.74 37.668 198.588 36.612 200.028 34.5C200.1 34.38 200.208 34.32 200.352 34.32C200.376 34.32 200.46 34.344 200.604 34.392ZM192.972 22.152C192.132 22.152 191.304 22.56 190.488 23.376C189.696 24.168 189.168 25.596 188.904 27.66L196.536 27.588V26.976C196.512 25.464 196.152 24.288 195.456 23.448C194.784 22.584 193.956 22.152 192.972 22.152ZM239.759 38.136C239.903 38.136 239.975 38.28 239.975 38.568C239.975 38.856 239.903 39 239.759 39H227.915C227.819 39 227.747 38.964 227.699 38.892C227.675 38.82 227.663 38.712 227.663 38.568C227.663 38.28 227.747 38.136 227.915 38.136C228.971 38.088 229.763 37.956 230.291 37.74C230.819 37.5 231.083 37.104 231.083 36.552C231.083 36.216 230.963 35.712 230.723 35.04C230.723 35.064 230.375 34.068 229.679 32.052C229.511 31.62 229.259 30.9 228.923 29.892H219.959C219.311 31.668 218.735 33.312 218.231 34.824C218.087 35.16 218.015 35.556 218.015 36.012C218.015 37.428 219.203 38.136 221.579 38.136C221.723 38.136 221.795 38.28 221.795 38.568C221.795 38.856 221.723 39 221.579 39H212.471C212.375 39 212.303 38.964 212.255 38.892C212.231 38.82 212.219 38.712 212.219 38.568C212.219 38.28 212.303 38.136 212.471 38.136C213.263 38.136 214.007 37.896 214.703 37.416C215.423 36.912 216.011 36.108 216.467 35.004L218.339 30.036C219.419 27.228 220.583 24.144 221.831 20.784C223.103 17.424 224.135 14.712 224.927 12.648L227.303 11.964C227.543 11.964 227.699 12.096 227.771 12.36C228.515 14.544 229.895 18.564 231.911 24.42C233.951 30.252 235.187 33.732 235.619 34.86C235.979 35.844 236.327 36.564 236.663 37.02C237.023 37.476 237.419 37.776 237.851 37.92C238.307 38.064 238.943 38.136 239.759 38.136ZM228.491 28.56L224.567 17.256L220.427 28.56H228.491ZM261.679 37.668C262.087 37.668 262.291 37.836 262.291 38.172C262.291 38.364 262.207 38.484 262.039 38.532C261.823 38.58 259.555 38.868 255.235 39.396L255.199 36.264C254.575 37.176 253.807 37.932 252.895 38.532C251.983 39.108 250.927 39.396 249.727 39.396C247.759 39.396 246.307 38.856 245.371 37.776C244.435 36.696 243.943 35.4 243.895 33.888C243.847 31.968 243.823 29.1 243.823 25.284C243.799 24.516 243.607 24.012 243.247 23.772C242.911 23.532 242.335 23.4 241.519 23.376C241.303 23.352 241.195 23.184 241.195 22.872C241.195 22.68 241.267 22.572 241.411 22.548C241.651 22.452 243.847 21.984 247.999 21.144C247.927 24.096 247.891 26.652 247.891 28.812C247.891 31.068 247.915 32.652 247.963 33.564C248.059 34.764 248.323 35.736 248.755 36.48C249.211 37.224 249.979 37.596 251.059 37.596C251.827 37.596 252.571 37.344 253.291 36.84C254.011 36.312 254.647 35.592 255.199 34.68L255.127 25.32C255.103 24.552 254.911 24.048 254.551 23.808C254.215 23.568 253.639 23.424 252.823 23.376C252.607 23.352 252.499 23.16 252.499 22.8C252.499 22.656 252.571 22.572 252.715 22.548C252.955 22.452 255.151 21.984 259.303 21.144V35.976C259.303 37.032 259.903 37.608 261.103 37.704L261.679 37.668ZM271.927 39.468C270.367 39.468 269.179 39.024 268.363 38.136C267.547 37.248 267.115 35.952 267.067 34.248V22.764H263.935V21.54C265.639 21.156 267.043 20.424 268.147 19.344C269.275 18.24 270.055 16.512 270.487 14.16H271.207V21.54H275.779V22.764H271.207L271.135 31.08L271.171 34.068C271.291 36.3 272.131 37.416 273.691 37.416C274.195 37.416 274.627 37.32 274.987 37.128C275.347 36.936 275.755 36.6 276.211 36.12C276.331 35.976 276.439 35.904 276.535 35.904C276.631 35.904 276.727 35.964 276.823 36.084C276.943 36.18 277.003 36.276 277.003 36.372C277.003 36.42 276.979 36.492 276.931 36.588C276.259 37.62 275.515 38.364 274.699 38.82C273.883 39.252 272.959 39.468 271.927 39.468ZM299.033 38.136C299.201 38.136 299.285 38.28 299.285 38.568C299.285 38.856 299.201 39 299.033 39H289.961C289.769 39 289.673 38.856 289.673 38.568C289.673 38.28 289.769 38.136 289.961 38.136H290.321C290.993 38.136 291.509 38.028 291.869 37.812C292.229 37.596 292.409 37.128 292.409 36.408C292.457 34.056 292.481 32.016 292.481 30.288C292.481 29.04 292.457 27.96 292.409 27.048C292.313 25.776 292.037 24.78 291.581 24.06C291.149 23.316 290.393 22.944 289.313 22.944C288.521 22.944 287.765 23.208 287.045 23.736C286.325 24.24 285.689 24.972 285.137 25.932V36.408C285.137 37.128 285.317 37.596 285.677 37.812C286.037 38.028 286.553 38.136 287.225 38.136H287.621C287.813 38.136 287.909 38.28 287.909 38.568C287.909 38.856 287.813 39 287.621 39H278.513C278.321 39 278.225 38.856 278.225 38.568C278.225 38.28 278.321 38.136 278.513 38.136H278.909C279.581 38.136 280.097 38.028 280.457 37.812C280.817 37.596 280.997 37.128 280.997 36.408L280.961 16.248C280.961 15.504 280.781 15.012 280.421 14.772C280.085 14.532 279.497 14.376 278.657 14.304C278.561 14.304 278.477 14.268 278.405 14.196C278.357 14.124 278.333 14.052 278.333 13.98V13.764C278.333 13.62 278.405 13.536 278.549 13.512C278.765 13.416 280.961 12.948 285.137 12.108V24.348C285.833 23.364 286.637 22.584 287.549 22.008C288.485 21.432 289.517 21.144 290.645 21.144C291.941 21.144 293.021 21.408 293.885 21.936C294.749 22.464 295.397 23.16 295.829 24.024C296.261 24.864 296.489 25.752 296.513 26.688V29.82V36.408C296.513 37.128 296.693 37.596 297.053 37.812C297.437 38.028 297.965 38.136 298.637 38.136H299.033ZM318.237 34.392C318.357 34.464 318.417 34.584 318.417 34.752L318.381 35.004C317.829 36.18 316.941 37.224 315.717 38.136C314.517 39.024 313.005 39.468 311.181 39.468C309.429 39.468 307.845 39.072 306.429 38.28C305.013 37.488 303.897 36.408 303.081 35.04C302.289 33.648 301.893 32.136 301.893 30.504C301.893 29.016 302.229 27.552 302.901 26.112C303.597 24.672 304.617 23.484 305.961 22.548C307.305 21.612 308.901 21.144 310.749 21.144C312.093 21.144 313.329 21.456 314.457 22.08C315.585 22.704 316.509 23.592 317.229 24.744C317.973 25.896 318.429 27.264 318.597 28.848L306.429 28.92C306.405 29.184 306.393 29.604 306.393 30.18C306.393 32.292 306.885 34.068 307.869 35.508C308.853 36.948 310.269 37.668 312.117 37.668C314.373 37.668 316.221 36.612 317.661 34.5C317.733 34.38 317.841 34.32 317.985 34.32C318.009 34.32 318.093 34.344 318.237 34.392ZM310.605 22.152C309.765 22.152 308.937 22.56 308.121 23.376C307.329 24.168 306.801 25.596 306.537 27.66L314.169 27.588V26.976C314.145 25.464 313.785 24.288 313.089 23.448C312.417 22.584 311.589 22.152 310.605 22.152ZM342.202 38.136C342.394 38.136 342.49 38.28 342.49 38.568C342.49 38.856 342.394 39 342.202 39H333.13C332.962 39 332.878 38.856 332.878 38.568C332.878 38.28 332.962 38.136 333.13 38.136H333.562C334.234 38.136 334.738 38.028 335.074 37.812C335.434 37.596 335.614 37.128 335.614 36.408L335.65 30.072C335.65 28.92 335.626 27.912 335.578 27.048C335.53 25.8 335.278 24.804 334.822 24.06C334.366 23.316 333.586 22.944 332.482 22.944C331.69 22.944 330.934 23.208 330.214 23.736C329.494 24.264 328.858 25.008 328.306 25.968V36.408C328.306 37.128 328.486 37.596 328.846 37.812C329.206 38.028 329.722 38.136 330.394 38.136H330.826C330.994 38.136 331.078 38.28 331.078 38.568C331.078 38.856 330.994 39 330.826 39H321.718C321.526 39 321.43 38.856 321.43 38.568C321.43 38.28 321.526 38.136 321.718 38.136H322.078C322.774 38.136 323.302 38.028 323.662 37.812C324.022 37.596 324.202 37.128 324.202 36.408L324.166 25.32C324.166 24.576 323.974 24.084 323.59 23.844C323.23 23.58 322.642 23.424 321.826 23.376C321.61 23.352 321.502 23.16 321.502 22.8C321.502 22.656 321.574 22.572 321.718 22.548C321.958 22.452 324.154 21.984 328.306 21.144V24.348C328.978 23.364 329.782 22.584 330.718 22.008C331.654 21.432 332.686 21.144 333.814 21.144C335.11 21.144 336.202 21.408 337.09 21.936C337.978 22.464 338.638 23.148 339.07 23.988C339.502 24.828 339.73 25.716 339.754 26.652V29.964V36.408C339.754 37.128 339.934 37.596 340.294 37.812C340.654 38.028 341.17 38.136 341.842 38.136H342.202ZM351.978 39.468C350.418 39.468 349.23 39.024 348.414 38.136C347.598 37.248 347.166 35.952 347.118 34.248V22.764H343.986V21.54C345.69 21.156 347.094 20.424 348.198 19.344C349.326 18.24 350.106 16.512 350.538 14.16H351.258V21.54H355.83V22.764H351.258L351.186 31.08L351.222 34.068C351.342 36.3 352.182 37.416 353.742 37.416C354.246 37.416 354.678 37.32 355.038 37.128C355.398 36.936 355.806 36.6 356.262 36.12C356.382 35.976 356.49 35.904 356.586 35.904C356.682 35.904 356.778 35.964 356.874 36.084C356.994 36.18 357.054 36.276 357.054 36.372C357.054 36.42 357.03 36.492 356.982 36.588C356.31 37.62 355.566 38.364 354.75 38.82C353.934 39.252 353.01 39.468 351.978 39.468ZM363.028 17.4C362.284 17.4 361.648 17.148 361.12 16.644C360.616 16.116 360.364 15.492 360.364 14.772C360.364 14.028 360.616 13.404 361.12 12.9C361.648 12.372 362.284 12.108 363.028 12.108C363.748 12.108 364.372 12.372 364.9 12.9C365.428 13.404 365.692 14.028 365.692 14.772C365.692 15.492 365.428 16.116 364.9 16.644C364.372 17.148 363.748 17.4 363.028 17.4ZM358.528 39C358.36 39 358.276 38.844 358.276 38.532C358.276 38.268 358.36 38.136 358.528 38.136H358.96C359.656 38.136 360.196 38.028 360.58 37.812C360.988 37.596 361.192 37.128 361.192 36.408L361.156 25.32C361.156 24.576 360.976 24.084 360.616 23.844C360.256 23.604 359.656 23.46 358.816 23.412C358.6 23.388 358.492 23.208 358.492 22.872C358.492 22.68 358.564 22.572 358.708 22.548C358.972 22.452 361.18 21.984 365.332 21.144L365.296 36.408C365.296 37.128 365.5 37.596 365.908 37.812C366.316 38.028 366.868 38.136 367.564 38.136H367.996C368.164 38.136 368.248 38.268 368.248 38.532C368.248 38.844 368.164 39 367.996 39H358.528ZM379.617 39.468C378.129 39.468 376.701 39.12 375.333 38.424C373.965 37.728 372.849 36.708 371.985 35.364C371.121 33.996 370.689 32.364 370.689 30.468C370.689 29.004 371.037 27.552 371.733 26.112C372.453 24.672 373.497 23.484 374.865 22.548C376.233 21.612 377.865 21.144 379.761 21.144C381.393 21.144 382.737 21.384 383.793 21.864C384.849 22.32 385.617 22.884 386.097 23.556C386.577 24.204 386.817 24.804 386.817 25.356C386.817 25.932 386.625 26.412 386.241 26.796C385.881 27.18 385.461 27.372 384.981 27.372C384.381 27.372 383.889 27.192 383.505 26.832C383.121 26.448 382.737 25.908 382.353 25.212C381.873 24.228 381.405 23.484 380.949 22.98C380.493 22.476 379.941 22.224 379.293 22.224C378.501 22.224 377.793 22.56 377.169 23.232C376.569 23.904 376.089 24.852 375.729 26.076C375.393 27.3 375.225 28.704 375.225 30.288C375.225 32.016 375.477 33.444 375.981 34.572C376.509 35.7 377.169 36.516 377.961 37.02C378.777 37.524 379.641 37.776 380.553 37.776C382.833 37.776 384.645 36.816 385.989 34.896C386.085 34.776 386.181 34.716 386.277 34.716C386.397 34.716 386.493 34.74 386.565 34.788C386.733 34.86 386.817 34.968 386.817 35.112C386.817 35.208 386.793 35.28 386.745 35.328C386.097 36.504 385.161 37.488 383.937 38.28C382.737 39.072 381.297 39.468 379.617 39.468ZM401.264 45.12C400.328 45.12 399.488 44.952 398.744 44.616C398.024 44.28 397.46 43.86 397.052 43.356C396.644 42.852 396.44 42.348 396.44 41.844C396.44 41.268 396.62 40.812 396.98 40.476C397.316 40.164 397.7 40.008 398.132 40.008C398.804 40.008 399.452 40.284 400.076 40.836C400.412 41.1 400.88 41.604 401.48 42.348C401.792 42.708 402.056 42.984 402.272 43.176C402.512 43.368 402.752 43.464 402.992 43.464C403.16 43.464 403.316 43.428 403.46 43.356C403.604 43.284 403.7 43.2 403.748 43.104C404.276 42.696 404.66 41.844 404.9 40.548C405.14 39.252 405.26 37.344 405.26 34.824V16.284C405.26 15.132 404.972 14.364 404.396 13.98C403.844 13.572 403.112 13.368 402.2 13.368H401.732C401.564 13.368 401.48 13.224 401.48 12.936C401.48 12.624 401.564 12.468 401.732 12.468H413.396C413.588 12.468 413.684 12.624 413.684 12.936C413.684 13.224 413.588 13.368 413.396 13.368H412.964C412.076 13.368 411.344 13.572 410.768 13.98C410.216 14.388 409.94 15.156 409.94 16.284L409.976 35.04C409.976 37.536 409.496 39.528 408.536 41.016C407.576 42.528 406.424 43.584 405.08 44.184C403.76 44.808 402.488 45.12 401.264 45.12ZM435.042 35.832C435.234 35.832 435.33 35.916 435.33 36.084L435.294 36.3C435.006 37.212 434.466 37.956 433.674 38.532C432.906 39.108 432.102 39.396 431.262 39.396C429.534 39.396 428.418 38.592 427.914 36.984C426.978 37.8 425.934 38.424 424.782 38.856C423.63 39.288 422.49 39.504 421.362 39.504C419.874 39.504 418.71 39.168 417.87 38.496C417.03 37.8 416.61 36.828 416.61 35.58C416.61 33.756 417.606 32.304 419.598 31.224C420.15 30.936 420.774 30.708 421.47 30.54C422.166 30.348 423.102 30.132 424.278 29.892C424.638 29.82 425.154 29.712 425.826 29.568C426.522 29.4 427.134 29.244 427.662 29.1V27.48C427.662 26.112 427.614 25.14 427.518 24.564C427.446 23.964 427.254 23.472 426.942 23.088C426.486 22.488 425.778 22.188 424.818 22.188C424.17 22.188 423.618 22.392 423.162 22.8C422.706 23.184 422.334 23.94 422.046 25.068C421.83 25.884 421.506 26.496 421.074 26.904C420.666 27.288 420.186 27.48 419.634 27.48C419.082 27.48 418.59 27.324 418.158 27.012C417.726 26.676 417.51 26.208 417.51 25.608C417.51 25.152 417.69 24.588 418.05 23.916C418.434 23.22 419.166 22.584 420.246 22.008C421.326 21.432 422.85 21.144 424.818 21.144C426.258 21.144 427.47 21.336 428.454 21.72C429.438 22.104 430.206 22.62 430.758 23.268C431.19 23.748 431.478 24.276 431.622 24.852C431.766 25.428 431.838 26.136 431.838 26.976C431.838 28.608 431.826 29.856 431.802 30.72L431.766 34.752C431.766 35.784 431.886 36.456 432.126 36.768C432.39 37.08 432.702 37.236 433.062 37.236C433.35 37.236 433.65 37.14 433.962 36.948C434.274 36.732 434.55 36.42 434.79 36.012C434.862 35.892 434.946 35.832 435.042 35.832ZM423.774 37.524C424.422 37.524 425.082 37.392 425.754 37.128C426.45 36.864 427.086 36.48 427.662 35.976C427.59 35.424 427.554 34.872 427.554 34.32L427.626 30.108C425.322 30.684 423.63 31.392 422.55 32.232C421.47 33.048 420.93 34.068 420.93 35.292C420.93 35.94 421.182 36.48 421.686 36.912C422.19 37.32 422.886 37.524 423.774 37.524ZM449.165 21.144C450.533 21.144 451.793 21.54 452.945 22.332C454.097 23.1 454.997 24.168 455.645 25.536C456.317 26.88 456.653 28.404 456.653 30.108C456.653 31.86 456.329 33.456 455.681 34.896C455.033 36.312 454.133 37.428 452.981 38.244C451.853 39.06 450.569 39.468 449.129 39.468C447.065 39.468 445.229 38.736 443.621 37.272V44.652C443.621 45.372 443.801 45.84 444.161 46.056C444.521 46.272 445.037 46.38 445.709 46.38H446.069C446.237 46.38 446.321 46.512 446.321 46.776C446.321 47.088 446.237 47.244 446.069 47.244H436.961C436.793 47.244 436.709 47.088 436.709 46.776C436.709 46.512 436.793 46.38 436.961 46.38H437.357C438.053 46.38 438.581 46.272 438.941 46.056C439.301 45.84 439.481 45.372 439.481 44.652L439.409 25.356C439.409 24.588 439.229 24.084 438.869 23.844C438.533 23.604 437.945 23.46 437.105 23.412C436.889 23.388 436.781 23.196 436.781 22.836C436.781 22.668 436.853 22.572 436.997 22.548L443.621 21.144V23.376C444.293 22.728 445.097 22.2 446.033 21.792C446.969 21.36 448.013 21.144 449.165 21.144ZM447.689 37.884C448.409 37.884 449.117 37.596 449.813 37.02C450.509 36.42 451.073 35.52 451.505 34.32C451.961 33.12 452.189 31.668 452.189 29.964C452.189 28.476 451.997 27.192 451.613 26.112C451.229 25.008 450.689 24.168 449.993 23.592C449.321 22.992 448.565 22.692 447.725 22.692C447.077 22.692 446.369 22.884 445.601 23.268C444.857 23.628 444.197 24.108 443.621 24.708V35.904C444.221 36.504 444.881 36.984 445.601 37.344C446.345 37.704 447.041 37.884 447.689 37.884ZM478.214 35.832C478.406 35.832 478.502 35.916 478.502 36.084L478.466 36.3C478.178 37.212 477.638 37.956 476.846 38.532C476.078 39.108 475.274 39.396 474.434 39.396C472.706 39.396 471.59 38.592 471.086 36.984C470.15 37.8 469.106 38.424 467.954 38.856C466.802 39.288 465.662 39.504 464.534 39.504C463.046 39.504 461.882 39.168 461.042 38.496C460.202 37.8 459.782 36.828 459.782 35.58C459.782 33.756 460.778 32.304 462.77 31.224C463.322 30.936 463.946 30.708 464.642 30.54C465.338 30.348 466.274 30.132 467.45 29.892C467.81 29.82 468.326 29.712 468.998 29.568C469.694 29.4 470.306 29.244 470.834 29.1V27.48C470.834 26.112 470.786 25.14 470.69 24.564C470.618 23.964 470.426 23.472 470.114 23.088C469.658 22.488 468.95 22.188 467.99 22.188C467.342 22.188 466.79 22.392 466.334 22.8C465.878 23.184 465.506 23.94 465.218 25.068C465.002 25.884 464.678 26.496 464.246 26.904C463.838 27.288 463.358 27.48 462.806 27.48C462.254 27.48 461.762 27.324 461.33 27.012C460.898 26.676 460.682 26.208 460.682 25.608C460.682 25.152 460.862 24.588 461.222 23.916C461.606 23.22 462.338 22.584 463.418 22.008C464.498 21.432 466.022 21.144 467.99 21.144C469.43 21.144 470.642 21.336 471.626 21.72C472.61 22.104 473.378 22.62 473.93 23.268C474.362 23.748 474.65 24.276 474.794 24.852C474.938 25.428 475.01 26.136 475.01 26.976C475.01 28.608 474.998 29.856 474.974 30.72L474.938 34.752C474.938 35.784 475.058 36.456 475.298 36.768C475.562 37.08 475.874 37.236 476.234 37.236C476.522 37.236 476.822 37.14 477.134 36.948C477.446 36.732 477.722 36.42 477.962 36.012C478.034 35.892 478.118 35.832 478.214 35.832ZM466.946 37.524C467.594 37.524 468.254 37.392 468.926 37.128C469.622 36.864 470.258 36.48 470.834 35.976C470.762 35.424 470.726 34.872 470.726 34.32L470.798 30.108C468.494 30.684 466.802 31.392 465.722 32.232C464.642 33.048 464.102 34.068 464.102 35.292C464.102 35.94 464.354 36.48 464.858 36.912C465.362 37.32 466.058 37.524 466.946 37.524ZM500.581 38.136C500.773 38.136 500.869 38.28 500.869 38.568C500.869 38.856 500.773 39 500.581 39H491.509C491.341 39 491.257 38.856 491.257 38.568C491.257 38.28 491.341 38.136 491.509 38.136H491.941C492.613 38.136 493.117 38.028 493.453 37.812C493.813 37.596 493.993 37.128 493.993 36.408L494.029 30.072C494.029 28.92 494.005 27.912 493.957 27.048C493.909 25.8 493.657 24.804 493.201 24.06C492.745 23.316 491.965 22.944 490.861 22.944C490.069 22.944 489.313 23.208 488.593 23.736C487.873 24.264 487.237 25.008 486.685 25.968V36.408C486.685 37.128 486.865 37.596 487.225 37.812C487.585 38.028 488.101 38.136 488.773 38.136H489.205C489.373 38.136 489.457 38.28 489.457 38.568C489.457 38.856 489.373 39 489.205 39H480.097C479.905 39 479.809 38.856 479.809 38.568C479.809 38.28 479.905 38.136 480.097 38.136H480.457C481.153 38.136 481.681 38.028 482.041 37.812C482.401 37.596 482.581 37.128 482.581 36.408L482.545 25.32C482.545 24.576 482.353 24.084 481.969 23.844C481.609 23.58 481.021 23.424 480.205 23.376C479.989 23.352 479.881 23.16 479.881 22.8C479.881 22.656 479.953 22.572 480.097 22.548C480.337 22.452 482.533 21.984 486.685 21.144V24.348C487.357 23.364 488.161 22.584 489.097 22.008C490.033 21.432 491.065 21.144 492.193 21.144C493.489 21.144 494.581 21.408 495.469 21.936C496.357 22.464 497.017 23.148 497.449 23.988C497.881 24.828 498.109 25.716 498.133 26.652V29.964V36.408C498.133 37.128 498.313 37.596 498.673 37.812C499.033 38.028 499.549 38.136 500.221 38.136H500.581ZM519.752 34.392C519.872 34.464 519.932 34.584 519.932 34.752L519.896 35.004C519.344 36.18 518.456 37.224 517.232 38.136C516.032 39.024 514.52 39.468 512.696 39.468C510.944 39.468 509.36 39.072 507.944 38.28C506.528 37.488 505.412 36.408 504.596 35.04C503.804 33.648 503.408 32.136 503.408 30.504C503.408 29.016 503.744 27.552 504.416 26.112C505.112 24.672 506.132 23.484 507.476 22.548C508.82 21.612 510.416 21.144 512.264 21.144C513.608 21.144 514.844 21.456 515.972 22.08C517.1 22.704 518.024 23.592 518.744 24.744C519.488 25.896 519.944 27.264 520.112 28.848L507.944 28.92C507.92 29.184 507.908 29.604 507.908 30.18C507.908 32.292 508.4 34.068 509.384 35.508C510.368 36.948 511.784 37.668 513.632 37.668C515.888 37.668 517.736 36.612 519.176 34.5C519.248 34.38 519.356 34.32 519.5 34.32C519.524 34.32 519.608 34.344 519.752 34.392ZM512.12 22.152C511.28 22.152 510.452 22.56 509.636 23.376C508.844 24.168 508.316 25.596 508.052 27.66L515.684 27.588V26.976C515.66 25.464 515.3 24.288 514.604 23.448C513.932 22.584 513.104 22.152 512.12 22.152ZM523.522 33.6L523.486 33.42C523.486 33.228 523.582 33.096 523.774 33.024C523.822 33 523.894 32.988 523.99 32.988C524.158 32.988 524.29 33.072 524.386 33.24C526.522 36.624 529.09 38.316 532.09 38.316C533.194 38.316 534.022 38.052 534.574 37.524C535.15 36.996 535.438 36.324 535.438 35.508C535.438 34.98 535.27 34.488 534.934 34.032C534.598 33.576 534.13 33.216 533.53 32.952C532.93 32.688 531.85 32.328 530.29 31.872C530.146 31.824 529.714 31.692 528.994 31.476C528.274 31.26 527.71 31.044 527.302 30.828C526.318 30.348 525.55 29.736 524.998 28.992C524.446 28.248 524.17 27.372 524.17 26.364C524.17 25.524 524.386 24.708 524.818 23.916C525.274 23.1 525.934 22.44 526.798 21.936C527.662 21.408 528.694 21.144 529.894 21.144C530.59 21.144 531.202 21.204 531.73 21.324C532.282 21.42 532.954 21.576 533.746 21.792C534.298 21.96 534.634 22.044 534.754 22.044C535.114 22.044 535.462 21.936 535.798 21.72C536.158 21.48 536.434 21.18 536.626 20.82L538.21 26.148L538.246 26.364C538.246 26.508 538.15 26.628 537.958 26.724C537.862 26.772 537.766 26.796 537.67 26.796C537.526 26.796 537.406 26.724 537.31 26.58C536.374 25.188 535.21 24.12 533.818 23.376C532.426 22.632 531.13 22.26 529.93 22.26C528.874 22.26 528.106 22.524 527.626 23.052C527.17 23.58 526.942 24.12 526.942 24.672C526.942 25.128 527.098 25.536 527.41 25.896C527.746 26.256 528.274 26.616 528.994 26.976C529.45 27.192 530.338 27.504 531.658 27.912C533.41 28.464 534.67 28.92 535.438 29.28C536.47 29.784 537.286 30.432 537.886 31.224C538.51 32.016 538.822 32.952 538.822 34.032C538.822 35.712 538.21 37.044 536.986 38.028C535.786 38.988 534.214 39.468 532.27 39.468C531.598 39.468 530.962 39.408 530.362 39.288C529.762 39.168 529.054 39 528.238 38.784C527.494 38.568 527.026 38.46 526.834 38.46C526.498 38.46 526.186 38.556 525.898 38.748C525.61 38.94 525.31 39.216 524.998 39.576L523.522 33.6ZM557.967 34.392C558.087 34.464 558.147 34.584 558.147 34.752L558.111 35.004C557.559 36.18 556.671 37.224 555.447 38.136C554.247 39.024 552.735 39.468 550.911 39.468C549.159 39.468 547.575 39.072 546.159 38.28C544.743 37.488 543.627 36.408 542.811 35.04C542.019 33.648 541.623 32.136 541.623 30.504C541.623 29.016 541.959 27.552 542.631 26.112C543.327 24.672 544.347 23.484 545.691 22.548C547.035 21.612 548.631 21.144 550.479 21.144C551.823 21.144 553.059 21.456 554.187 22.08C555.315 22.704 556.239 23.592 556.959 24.744C557.703 25.896 558.159 27.264 558.327 28.848L546.159 28.92C546.135 29.184 546.123 29.604 546.123 30.18C546.123 32.292 546.615 34.068 547.599 35.508C548.583 36.948 549.999 37.668 551.847 37.668C554.103 37.668 555.951 36.612 557.391 34.5C557.463 34.38 557.571 34.32 557.715 34.32C557.739 34.32 557.823 34.344 557.967 34.392ZM550.335 22.152C549.495 22.152 548.667 22.56 547.851 23.376C547.059 24.168 546.531 25.596 546.267 27.66L553.899 27.588V26.976C553.875 25.464 553.515 24.288 552.819 23.448C552.147 22.584 551.319 22.152 550.335 22.152ZM584.27 39.468C582.23 39.468 580.178 39 578.114 38.064C576.074 37.128 574.358 35.664 572.966 33.672C571.598 31.68 570.914 29.196 570.914 26.22C570.914 23.844 571.454 21.576 572.534 19.416C573.614 17.232 575.114 15.468 577.034 14.124C578.954 12.78 581.102 12.108 583.478 12.108C584.198 12.108 584.894 12.192 585.566 12.36C586.262 12.528 587.006 12.756 587.798 13.044C588.734 13.38 589.37 13.548 589.706 13.548C590.306 13.548 591.002 13.224 591.794 12.576L593.198 18.552L593.27 18.912C593.27 19.056 593.174 19.176 592.982 19.272C592.934 19.296 592.874 19.308 592.802 19.308C592.658 19.308 592.526 19.236 592.406 19.092C591.638 17.964 590.918 17.028 590.246 16.284C589.598 15.54 588.734 14.88 587.654 14.304C586.574 13.704 585.302 13.404 583.838 13.404C581.702 13.404 580.058 14.22 578.906 15.852C577.754 17.484 576.998 19.248 576.638 21.144C576.278 23.04 576.098 24.636 576.098 25.932C576.098 28.5 576.518 30.684 577.358 32.484C578.222 34.26 579.314 35.592 580.634 36.48C581.978 37.368 583.382 37.812 584.846 37.812C586.838 37.812 588.458 37.308 589.706 36.3C590.978 35.292 592.166 33.924 593.27 32.196C593.39 32.076 593.498 32.016 593.594 32.016C593.642 32.016 593.726 32.052 593.846 32.124C594.014 32.22 594.098 32.34 594.098 32.484C594.098 32.532 594.074 32.604 594.026 32.7C593.114 34.452 591.866 36.024 590.282 37.416C588.722 38.784 586.718 39.468 584.27 39.468ZM616.862 37.668C617.27 37.668 617.474 37.836 617.474 38.172C617.474 38.364 617.39 38.484 617.222 38.532C617.006 38.58 614.738 38.868 610.418 39.396L610.382 36.264C609.758 37.176 608.99 37.932 608.078 38.532C607.166 39.108 606.11 39.396 604.91 39.396C602.942 39.396 601.49 38.856 600.554 37.776C599.618 36.696 599.126 35.4 599.078 33.888C599.03 31.968 599.006 29.1 599.006 25.284C598.982 24.516 598.79 24.012 598.43 23.772C598.094 23.532 597.518 23.4 596.702 23.376C596.486 23.352 596.378 23.184 596.378 22.872C596.378 22.68 596.45 22.572 596.594 22.548C596.834 22.452 599.03 21.984 603.182 21.144C603.11 24.096 603.074 26.652 603.074 28.812C603.074 31.068 603.098 32.652 603.146 33.564C603.242 34.764 603.506 35.736 603.938 36.48C604.394 37.224 605.162 37.596 606.242 37.596C607.01 37.596 607.754 37.344 608.474 36.84C609.194 36.312 609.83 35.592 610.382 34.68L610.31 25.32C610.286 24.552 610.094 24.048 609.734 23.808C609.398 23.568 608.822 23.424 608.006 23.376C607.79 23.352 607.682 23.16 607.682 22.8C607.682 22.656 607.754 22.572 607.898 22.548C608.138 22.452 610.334 21.984 614.486 21.144V35.976C614.486 37.032 615.086 37.608 616.286 37.704L616.862 37.668ZM624.59 17.4C623.846 17.4 623.21 17.148 622.682 16.644C622.178 16.116 621.926 15.492 621.926 14.772C621.926 14.028 622.178 13.404 622.682 12.9C623.21 12.372 623.846 12.108 624.59 12.108C625.31 12.108 625.934 12.372 626.462 12.9C626.99 13.404 627.254 14.028 627.254 14.772C627.254 15.492 626.99 16.116 626.462 16.644C625.934 17.148 625.31 17.4 624.59 17.4ZM620.09 39C619.922 39 619.838 38.844 619.838 38.532C619.838 38.268 619.922 38.136 620.09 38.136H620.522C621.218 38.136 621.758 38.028 622.142 37.812C622.55 37.596 622.754 37.128 622.754 36.408L622.718 25.32C622.718 24.576 622.538 24.084 622.178 23.844C621.818 23.604 621.218 23.46 620.378 23.412C620.162 23.388 620.054 23.208 620.054 22.872C620.054 22.68 620.126 22.572 620.27 22.548C620.534 22.452 622.742 21.984 626.894 21.144L626.858 36.408C626.858 37.128 627.062 37.596 627.47 37.812C627.878 38.028 628.43 38.136 629.126 38.136H629.558C629.726 38.136 629.81 38.268 629.81 38.532C629.81 38.844 629.726 39 629.558 39H620.09ZM632.612 33.6L632.576 33.42C632.576 33.228 632.672 33.096 632.864 33.024C632.912 33 632.984 32.988 633.08 32.988C633.248 32.988 633.38 33.072 633.476 33.24C635.612 36.624 638.18 38.316 641.18 38.316C642.284 38.316 643.112 38.052 643.664 37.524C644.24 36.996 644.528 36.324 644.528 35.508C644.528 34.98 644.36 34.488 644.024 34.032C643.688 33.576 643.22 33.216 642.62 32.952C642.02 32.688 640.94 32.328 639.38 31.872C639.236 31.824 638.804 31.692 638.084 31.476C637.364 31.26 636.8 31.044 636.392 30.828C635.408 30.348 634.64 29.736 634.088 28.992C633.536 28.248 633.26 27.372 633.26 26.364C633.26 25.524 633.476 24.708 633.908 23.916C634.364 23.1 635.024 22.44 635.888 21.936C636.752 21.408 637.784 21.144 638.984 21.144C639.68 21.144 640.292 21.204 640.82 21.324C641.372 21.42 642.044 21.576 642.836 21.792C643.388 21.96 643.724 22.044 643.844 22.044C644.204 22.044 644.552 21.936 644.888 21.72C645.248 21.48 645.524 21.18 645.716 20.82L647.3 26.148L647.336 26.364C647.336 26.508 647.24 26.628 647.048 26.724C646.952 26.772 646.856 26.796 646.76 26.796C646.616 26.796 646.496 26.724 646.4 26.58C645.464 25.188 644.3 24.12 642.908 23.376C641.516 22.632 640.22 22.26 639.02 22.26C637.964 22.26 637.196 22.524 636.716 23.052C636.26 23.58 636.032 24.12 636.032 24.672C636.032 25.128 636.188 25.536 636.5 25.896C636.836 26.256 637.364 26.616 638.084 26.976C638.54 27.192 639.428 27.504 640.748 27.912C642.5 28.464 643.76 28.92 644.528 29.28C645.56 29.784 646.376 30.432 646.976 31.224C647.6 32.016 647.912 32.952 647.912 34.032C647.912 35.712 647.3 37.044 646.076 38.028C644.876 38.988 643.304 39.468 641.36 39.468C640.688 39.468 640.052 39.408 639.452 39.288C638.852 39.168 638.144 39 637.328 38.784C636.584 38.568 636.116 38.46 635.924 38.46C635.588 38.46 635.276 38.556 634.988 38.748C634.7 38.94 634.4 39.216 634.088 39.576L632.612 33.6ZM655.141 17.4C654.397 17.4 653.761 17.148 653.233 16.644C652.729 16.116 652.477 15.492 652.477 14.772C652.477 14.028 652.729 13.404 653.233 12.9C653.761 12.372 654.397 12.108 655.141 12.108C655.861 12.108 656.485 12.372 657.013 12.9C657.541 13.404 657.805 14.028 657.805 14.772C657.805 15.492 657.541 16.116 657.013 16.644C656.485 17.148 655.861 17.4 655.141 17.4ZM650.641 39C650.473 39 650.389 38.844 650.389 38.532C650.389 38.268 650.473 38.136 650.641 38.136H651.073C651.769 38.136 652.309 38.028 652.693 37.812C653.101 37.596 653.305 37.128 653.305 36.408L653.269 25.32C653.269 24.576 653.089 24.084 652.729 23.844C652.369 23.604 651.769 23.46 650.929 23.412C650.713 23.388 650.605 23.208 650.605 22.872C650.605 22.68 650.677 22.572 650.821 22.548C651.085 22.452 653.293 21.984 657.445 21.144L657.409 36.408C657.409 37.128 657.613 37.596 658.021 37.812C658.429 38.028 658.981 38.136 659.677 38.136H660.109C660.277 38.136 660.361 38.268 660.361 38.532C660.361 38.844 660.277 39 660.109 39H650.641ZM683.359 38.136C683.551 38.136 683.647 38.28 683.647 38.568C683.647 38.856 683.551 39 683.359 39H674.287C674.119 39 674.035 38.856 674.035 38.568C674.035 38.28 674.119 38.136 674.287 38.136H674.719C675.391 38.136 675.895 38.028 676.231 37.812C676.591 37.596 676.771 37.128 676.771 36.408L676.807 30.072C676.807 28.92 676.783 27.912 676.735 27.048C676.687 25.8 676.435 24.804 675.979 24.06C675.523 23.316 674.743 22.944 673.639 22.944C672.847 22.944 672.091 23.208 671.371 23.736C670.651 24.264 670.015 25.008 669.463 25.968V36.408C669.463 37.128 669.643 37.596 670.003 37.812C670.363 38.028 670.879 38.136 671.551 38.136H671.983C672.151 38.136 672.235 38.28 672.235 38.568C672.235 38.856 672.151 39 671.983 39H662.875C662.683 39 662.587 38.856 662.587 38.568C662.587 38.28 662.683 38.136 662.875 38.136H663.235C663.931 38.136 664.459 38.028 664.819 37.812C665.179 37.596 665.359 37.128 665.359 36.408L665.323 25.32C665.323 24.576 665.131 24.084 664.747 23.844C664.387 23.58 663.799 23.424 662.983 23.376C662.767 23.352 662.659 23.16 662.659 22.8C662.659 22.656 662.731 22.572 662.875 22.548C663.115 22.452 665.311 21.984 669.463 21.144V24.348C670.135 23.364 670.939 22.584 671.875 22.008C672.811 21.432 673.843 21.144 674.971 21.144C676.267 21.144 677.359 21.408 678.247 21.936C679.135 22.464 679.795 23.148 680.227 23.988C680.659 24.828 680.887 25.716 680.911 26.652V29.964V36.408C680.911 37.128 681.091 37.596 681.451 37.812C681.811 38.028 682.327 38.136 682.999 38.136H683.359ZM702.53 34.392C702.65 34.464 702.71 34.584 702.71 34.752L702.674 35.004C702.122 36.18 701.234 37.224 700.01 38.136C698.81 39.024 697.298 39.468 695.474 39.468C693.722 39.468 692.138 39.072 690.722 38.28C689.306 37.488 688.19 36.408 687.374 35.04C686.582 33.648 686.186 32.136 686.186 30.504C686.186 29.016 686.522 27.552 687.194 26.112C687.89 24.672 688.91 23.484 690.254 22.548C691.598 21.612 693.194 21.144 695.042 21.144C696.386 21.144 697.622 21.456 698.75 22.08C699.878 22.704 700.802 23.592 701.522 24.744C702.266 25.896 702.722 27.264 702.89 28.848L690.722 28.92C690.698 29.184 690.686 29.604 690.686 30.18C690.686 32.292 691.178 34.068 692.162 35.508C693.146 36.948 694.562 37.668 696.41 37.668C698.666 37.668 700.514 36.612 701.954 34.5C702.026 34.38 702.134 34.32 702.278 34.32C702.302 34.32 702.386 34.344 702.53 34.392ZM694.898 22.152C694.058 22.152 693.23 22.56 692.414 23.376C691.622 24.168 691.094 25.596 690.83 27.66L698.462 27.588V26.976C698.438 25.464 698.078 24.288 697.382 23.448C696.71 22.584 695.882 22.152 694.898 22.152ZM360.001 82.832C360.193 82.832 360.289 82.916 360.289 83.084L360.253 83.3C359.965 84.212 359.425 84.956 358.633 85.532C357.865 86.108 357.061 86.396 356.221 86.396C354.493 86.396 353.377 85.592 352.873 83.984C351.937 84.8 350.893 85.424 349.741 85.856C348.589 86.288 347.449 86.504 346.321 86.504C344.833 86.504 343.669 86.168 342.829 85.496C341.989 84.8 341.569 83.828 341.569 82.58C341.569 80.756 342.565 79.304 344.557 78.224C345.109 77.936 345.733 77.708 346.429 77.54C347.125 77.348 348.061 77.132 349.237 76.892C349.597 76.82 350.113 76.712 350.785 76.568C351.481 76.4 352.093 76.244 352.621 76.1V74.48C352.621 73.112 352.573 72.14 352.477 71.564C352.405 70.964 352.213 70.472 351.901 70.088C351.445 69.488 350.737 69.188 349.777 69.188C349.129 69.188 348.577 69.392 348.121 69.8C347.665 70.184 347.293 70.94 347.005 72.068C346.789 72.884 346.465 73.496 346.033 73.904C345.625 74.288 345.145 74.48 344.593 74.48C344.041 74.48 343.549 74.324 343.117 74.012C342.685 73.676 342.469 73.208 342.469 72.608C342.469 72.152 342.649 71.588 343.009 70.916C343.393 70.22 344.125 69.584 345.205 69.008C346.285 68.432 347.809 68.144 349.777 68.144C351.217 68.144 352.429 68.336 353.413 68.72C354.397 69.104 355.165 69.62 355.717 70.268C356.149 70.748 356.437 71.276 356.581 71.852C356.725 72.428 356.797 73.136 356.797 73.976C356.797 75.608 356.785 76.856 356.761 77.72L356.725 81.752C356.725 82.784 356.845 83.456 357.085 83.768C357.349 84.08 357.661 84.236 358.021 84.236C358.309 84.236 358.609 84.14 358.921 83.948C359.233 83.732 359.509 83.42 359.749 83.012C359.821 82.892 359.905 82.832 360.001 82.832ZM348.733 84.524C349.381 84.524 350.041 84.392 350.713 84.128C351.409 83.864 352.045 83.48 352.621 82.976C352.549 82.424 352.513 81.872 352.513 81.32L352.585 77.108C350.281 77.684 348.589 78.392 347.509 79.232C346.429 80.048 345.889 81.068 345.889 82.292C345.889 82.94 346.141 83.48 346.645 83.912C347.149 84.32 347.845 84.524 348.733 84.524ZM368.94 86.468C367.38 86.468 366.192 86.024 365.376 85.136C364.56 84.248 364.128 82.952 364.08 81.248V69.764H360.948V68.54C362.652 68.156 364.056 67.424 365.16 66.344C366.288 65.24 367.068 63.512 367.5 61.16H368.22V68.54H372.792V69.764H368.22L368.148 78.08L368.184 81.068C368.304 83.3 369.144 84.416 370.704 84.416C371.208 84.416 371.64 84.32 372 84.128C372.36 83.936 372.768 83.6 373.224 83.12C373.344 82.976 373.452 82.904 373.548 82.904C373.644 82.904 373.74 82.964 373.836 83.084C373.956 83.18 374.016 83.276 374.016 83.372C374.016 83.42 373.992 83.492 373.944 83.588C373.272 84.62 372.528 85.364 371.712 85.82C370.896 86.252 369.972 86.468 368.94 86.468ZM142.276 159.468C140.476 159.468 138.424 159.012 136.12 158.1C135.808 157.956 135.508 157.884 135.22 157.884C134.884 157.884 134.536 158.004 134.176 158.244C133.816 158.46 133.384 158.82 132.88 159.324L131.224 152.268L131.152 151.944C131.152 151.896 131.176 151.848 131.224 151.8C131.296 151.752 131.356 151.716 131.404 151.692C131.476 151.668 131.524 151.644 131.548 151.62C131.596 151.596 131.668 151.584 131.764 151.584C131.86 151.584 131.992 151.68 132.16 151.872C134.848 155.952 138.1 157.992 141.916 157.992C143.452 157.992 144.736 157.596 145.768 156.804C146.824 156.012 147.352 154.836 147.352 153.276C147.352 151.452 146.356 150.096 144.364 149.208C143.38 148.776 142.06 148.296 140.404 147.768C140.188 147.696 139.648 147.516 138.784 147.228C137.92 146.94 137.152 146.628 136.48 146.292C133.648 144.852 132.232 142.692 132.232 139.812C132.232 138.732 132.484 137.604 132.988 136.428C133.492 135.252 134.368 134.244 135.616 133.404C136.888 132.54 138.568 132.108 140.656 132.108C141.4 132.108 142.12 132.192 142.816 132.36C143.536 132.528 144.4 132.78 145.408 133.116C145.792 133.26 146.128 133.332 146.416 133.332C147.088 133.332 147.76 132.924 148.432 132.108L150.268 138.336L150.34 138.588C150.34 138.732 150.232 138.84 150.016 138.912C149.872 138.96 149.764 138.984 149.692 138.984C149.572 138.984 149.452 138.912 149.332 138.768C149.044 138.288 148.528 137.64 147.784 136.824C147.04 135.984 146.032 135.204 144.76 134.484C143.512 133.74 142.108 133.368 140.548 133.368C139.156 133.368 138.088 133.668 137.344 134.268C136.6 134.844 136.108 135.468 135.868 136.14C135.628 136.812 135.508 137.388 135.508 137.868C135.508 139.404 136.3 140.592 137.884 141.432C138.388 141.696 139.048 141.984 139.864 142.296C140.704 142.584 141.556 142.872 142.42 143.16C144.436 143.808 145.948 144.36 146.956 144.816C148.66 145.632 149.872 146.628 150.592 147.804C151.312 148.956 151.672 150.204 151.672 151.548C151.672 153.036 151.3 154.38 150.556 155.58C149.836 156.78 148.768 157.728 147.352 158.424C145.936 159.12 144.244 159.468 142.276 159.468ZM175.219 158.136C175.387 158.136 175.471 158.28 175.471 158.568C175.471 158.856 175.387 159 175.219 159H166.147C165.955 159 165.859 158.856 165.859 158.568C165.859 158.28 165.955 158.136 166.147 158.136H166.507C167.179 158.136 167.695 158.028 168.055 157.812C168.415 157.596 168.595 157.128 168.595 156.408C168.643 154.056 168.667 152.016 168.667 150.288C168.667 149.04 168.643 147.96 168.595 147.048C168.499 145.776 168.223 144.78 167.767 144.06C167.335 143.316 166.579 142.944 165.499 142.944C164.707 142.944 163.951 143.208 163.231 143.736C162.511 144.24 161.875 144.972 161.323 145.932V156.408C161.323 157.128 161.503 157.596 161.863 157.812C162.223 158.028 162.739 158.136 163.411 158.136H163.807C163.999 158.136 164.095 158.28 164.095 158.568C164.095 158.856 163.999 159 163.807 159H154.699C154.507 159 154.411 158.856 154.411 158.568C154.411 158.28 154.507 158.136 154.699 158.136H155.095C155.767 158.136 156.283 158.028 156.643 157.812C157.003 157.596 157.183 157.128 157.183 156.408L157.147 136.248C157.147 135.504 156.967 135.012 156.607 134.772C156.271 134.532 155.683 134.376 154.843 134.304C154.747 134.304 154.663 134.268 154.591 134.196C154.543 134.124 154.519 134.052 154.519 133.98V133.764C154.519 133.62 154.591 133.536 154.735 133.512C154.951 133.416 157.147 132.948 161.323 132.108V144.348C162.019 143.364 162.823 142.584 163.735 142.008C164.671 141.432 165.703 141.144 166.831 141.144C168.127 141.144 169.207 141.408 170.071 141.936C170.935 142.464 171.583 143.16 172.015 144.024C172.447 144.864 172.675 145.752 172.699 146.688V149.82V156.408C172.699 157.128 172.879 157.596 173.239 157.812C173.623 158.028 174.151 158.136 174.823 158.136H175.219ZM182.506 137.4C181.762 137.4 181.126 137.148 180.598 136.644C180.094 136.116 179.842 135.492 179.842 134.772C179.842 134.028 180.094 133.404 180.598 132.9C181.126 132.372 181.762 132.108 182.506 132.108C183.226 132.108 183.85 132.372 184.378 132.9C184.906 133.404 185.17 134.028 185.17 134.772C185.17 135.492 184.906 136.116 184.378 136.644C183.85 137.148 183.226 137.4 182.506 137.4ZM178.006 159C177.838 159 177.754 158.844 177.754 158.532C177.754 158.268 177.838 158.136 178.006 158.136H178.438C179.134 158.136 179.674 158.028 180.058 157.812C180.466 157.596 180.67 157.128 180.67 156.408L180.634 145.32C180.634 144.576 180.454 144.084 180.094 143.844C179.734 143.604 179.134 143.46 178.294 143.412C178.078 143.388 177.97 143.208 177.97 142.872C177.97 142.68 178.042 142.572 178.186 142.548C178.45 142.452 180.658 141.984 184.81 141.144L184.774 156.408C184.774 157.128 184.978 157.596 185.386 157.812C185.794 158.028 186.346 158.136 187.042 158.136H187.474C187.642 158.136 187.726 158.268 187.726 158.532C187.726 158.844 187.642 159 187.474 159H178.006ZM210.724 158.136C210.916 158.136 211.012 158.28 211.012 158.568C211.012 158.856 210.916 159 210.724 159H201.652C201.484 159 201.4 158.856 201.4 158.568C201.4 158.28 201.484 158.136 201.652 158.136H202.084C202.756 158.136 203.26 158.028 203.596 157.812C203.956 157.596 204.136 157.128 204.136 156.408L204.172 150.072C204.172 148.92 204.148 147.912 204.1 147.048C204.052 145.8 203.8 144.804 203.344 144.06C202.888 143.316 202.108 142.944 201.004 142.944C200.212 142.944 199.456 143.208 198.736 143.736C198.016 144.264 197.38 145.008 196.828 145.968V156.408C196.828 157.128 197.008 157.596 197.368 157.812C197.728 158.028 198.244 158.136 198.916 158.136H199.348C199.516 158.136 199.6 158.28 199.6 158.568C199.6 158.856 199.516 159 199.348 159H190.24C190.048 159 189.952 158.856 189.952 158.568C189.952 158.28 190.048 158.136 190.24 158.136H190.6C191.296 158.136 191.824 158.028 192.184 157.812C192.544 157.596 192.724 157.128 192.724 156.408L192.688 145.32C192.688 144.576 192.496 144.084 192.112 143.844C191.752 143.58 191.164 143.424 190.348 143.376C190.132 143.352 190.024 143.16 190.024 142.8C190.024 142.656 190.096 142.572 190.24 142.548C190.48 142.452 192.676 141.984 196.828 141.144V144.348C197.5 143.364 198.304 142.584 199.24 142.008C200.176 141.432 201.208 141.144 202.336 141.144C203.632 141.144 204.724 141.408 205.612 141.936C206.5 142.464 207.16 143.148 207.592 143.988C208.024 144.828 208.252 145.716 208.276 146.652V149.964V156.408C208.276 157.128 208.456 157.596 208.816 157.812C209.176 158.028 209.692 158.136 210.364 158.136H210.724ZM222.551 159.468C220.775 159.468 219.203 159.036 217.835 158.172C216.467 157.284 215.411 156.132 214.667 154.716C213.923 153.3 213.551 151.824 213.551 150.288C213.551 148.704 213.923 147.216 214.667 145.824C215.411 144.408 216.467 143.28 217.835 142.44C219.203 141.576 220.775 141.144 222.551 141.144C224.327 141.144 225.899 141.576 227.267 142.44C228.659 143.28 229.727 144.408 230.471 145.824C231.239 147.216 231.623 148.704 231.623 150.288C231.623 151.824 231.239 153.3 230.471 154.716C229.727 156.132 228.659 157.284 227.267 158.172C225.899 159.036 224.327 159.468 222.551 159.468ZM222.551 158.496C224.015 158.496 225.155 157.704 225.971 156.12C226.811 154.512 227.231 152.568 227.231 150.288C227.231 147.96 226.823 146.028 226.007 144.492C225.191 142.932 224.039 142.152 222.551 142.152C221.111 142.152 219.983 142.932 219.167 144.492C218.351 146.052 217.943 147.984 217.943 150.288C217.943 152.568 218.351 154.512 219.167 156.12C219.983 157.704 221.111 158.496 222.551 158.496ZM246.417 141.144C247.737 141.144 248.961 141.528 250.089 142.296C251.241 143.04 252.153 144.084 252.825 145.428C253.497 146.748 253.833 148.236 253.833 149.892C253.833 151.692 253.485 153.324 252.789 154.788C252.093 156.252 251.157 157.404 249.981 158.244C248.829 159.06 247.581 159.468 246.237 159.468C243.909 159.468 241.905 158.568 240.225 156.768C238.545 158.376 237.645 159.228 237.525 159.324C237.429 159.42 237.345 159.468 237.273 159.468L237.057 159.432C236.961 159.408 236.877 159.372 236.805 159.324C236.757 159.276 236.733 159.216 236.733 159.144L236.697 136.248C236.697 135.504 236.517 135.012 236.157 134.772C235.821 134.532 235.221 134.376 234.357 134.304C234.213 134.304 234.117 134.28 234.069 134.232C234.045 134.184 234.033 134.1 234.033 133.98V133.764C234.033 133.62 234.105 133.536 234.249 133.512C234.489 133.416 236.685 132.948 240.837 132.108V143.376C242.469 141.888 244.329 141.144 246.417 141.144ZM244.905 157.884C246.297 157.884 247.389 157.128 248.181 155.616C248.997 154.104 249.405 152.184 249.405 149.856C249.405 148.488 249.189 147.264 248.757 146.184C248.325 145.104 247.761 144.264 247.065 143.664C246.369 143.04 245.649 142.728 244.905 142.728C244.233 142.728 243.525 142.92 242.781 143.304C242.061 143.664 241.413 144.156 240.837 144.78V156.012C241.437 156.564 242.109 157.02 242.853 157.38C243.597 157.716 244.281 157.884 244.905 157.884ZM261.292 137.4C260.548 137.4 259.912 137.148 259.384 136.644C258.88 136.116 258.628 135.492 258.628 134.772C258.628 134.028 258.88 133.404 259.384 132.9C259.912 132.372 260.548 132.108 261.292 132.108C262.012 132.108 262.636 132.372 263.164 132.9C263.692 133.404 263.956 134.028 263.956 134.772C263.956 135.492 263.692 136.116 263.164 136.644C262.636 137.148 262.012 137.4 261.292 137.4ZM256.792 159C256.624 159 256.54 158.844 256.54 158.532C256.54 158.268 256.624 158.136 256.792 158.136H257.224C257.92 158.136 258.46 158.028 258.844 157.812C259.252 157.596 259.456 157.128 259.456 156.408L259.42 145.32C259.42 144.576 259.24 144.084 258.88 143.844C258.52 143.604 257.92 143.46 257.08 143.412C256.864 143.388 256.756 143.208 256.756 142.872C256.756 142.68 256.828 142.572 256.972 142.548C257.236 142.452 259.444 141.984 263.596 141.144L263.56 156.408C263.56 157.128 263.764 157.596 264.172 157.812C264.58 158.028 265.132 158.136 265.828 158.136H266.26C266.428 158.136 266.512 158.268 266.512 158.532C266.512 158.844 266.428 159 266.26 159H256.792ZM277.305 151.98H269.241V149.136H277.305V151.98ZM300.865 158.136C301.057 158.136 301.153 158.28 301.153 158.568C301.153 158.856 301.057 159 300.865 159H291.793C291.625 159 291.541 158.856 291.541 158.568C291.541 158.28 291.625 158.136 291.793 158.136H292.225C292.897 158.136 293.401 158.028 293.737 157.812C294.097 157.596 294.277 157.128 294.277 156.408L294.313 150.072C294.313 148.92 294.289 147.912 294.241 147.048C294.193 145.8 293.941 144.804 293.485 144.06C293.029 143.316 292.249 142.944 291.145 142.944C290.353 142.944 289.597 143.208 288.877 143.736C288.157 144.264 287.521 145.008 286.969 145.968V156.408C286.969 157.128 287.149 157.596 287.509 157.812C287.869 158.028 288.385 158.136 289.057 158.136H289.489C289.657 158.136 289.741 158.28 289.741 158.568C289.741 158.856 289.657 159 289.489 159H280.381C280.189 159 280.093 158.856 280.093 158.568C280.093 158.28 280.189 158.136 280.381 158.136H280.741C281.437 158.136 281.965 158.028 282.325 157.812C282.685 157.596 282.865 157.128 282.865 156.408L282.829 145.32C282.829 144.576 282.637 144.084 282.253 143.844C281.893 143.58 281.305 143.424 280.489 143.376C280.273 143.352 280.165 143.16 280.165 142.8C280.165 142.656 280.237 142.572 280.381 142.548C280.621 142.452 282.817 141.984 286.969 141.144V144.348C287.641 143.364 288.445 142.584 289.381 142.008C290.317 141.432 291.349 141.144 292.477 141.144C293.773 141.144 294.865 141.408 295.753 141.936C296.641 142.464 297.301 143.148 297.733 143.988C298.165 144.828 298.393 145.716 298.417 146.652V149.964V156.408C298.417 157.128 298.597 157.596 298.957 157.812C299.317 158.028 299.833 158.136 300.505 158.136H300.865ZM312.692 159.468C310.916 159.468 309.344 159.036 307.976 158.172C306.608 157.284 305.552 156.132 304.808 154.716C304.064 153.3 303.692 151.824 303.692 150.288C303.692 148.704 304.064 147.216 304.808 145.824C305.552 144.408 306.608 143.28 307.976 142.44C309.344 141.576 310.916 141.144 312.692 141.144C314.468 141.144 316.04 141.576 317.408 142.44C318.8 143.28 319.868 144.408 320.612 145.824C321.38 147.216 321.764 148.704 321.764 150.288C321.764 151.824 321.38 153.3 320.612 154.716C319.868 156.132 318.8 157.284 317.408 158.172C316.04 159.036 314.468 159.468 312.692 159.468ZM312.692 158.496C314.156 158.496 315.296 157.704 316.112 156.12C316.952 154.512 317.372 152.568 317.372 150.288C317.372 147.96 316.964 146.028 316.148 144.492C315.332 142.932 314.18 142.152 312.692 142.152C311.252 142.152 310.124 142.932 309.308 144.492C308.492 146.052 308.084 147.984 308.084 150.288C308.084 152.568 308.492 154.512 309.308 156.12C310.124 157.704 311.252 158.496 312.692 158.496ZM332.957 151.98H324.893V149.136H332.957V151.98ZM347.589 159.468C345.789 159.468 343.737 159.012 341.433 158.1C341.121 157.956 340.821 157.884 340.533 157.884C340.197 157.884 339.849 158.004 339.489 158.244C339.129 158.46 338.697 158.82 338.193 159.324L336.537 152.268L336.465 151.944C336.465 151.896 336.489 151.848 336.537 151.8C336.609 151.752 336.669 151.716 336.717 151.692C336.789 151.668 336.837 151.644 336.861 151.62C336.909 151.596 336.981 151.584 337.077 151.584C337.173 151.584 337.305 151.68 337.473 151.872C340.161 155.952 343.413 157.992 347.229 157.992C348.765 157.992 350.049 157.596 351.081 156.804C352.137 156.012 352.665 154.836 352.665 153.276C352.665 151.452 351.669 150.096 349.677 149.208C348.693 148.776 347.373 148.296 345.717 147.768C345.501 147.696 344.961 147.516 344.097 147.228C343.233 146.94 342.465 146.628 341.793 146.292C338.961 144.852 337.545 142.692 337.545 139.812C337.545 138.732 337.797 137.604 338.301 136.428C338.805 135.252 339.681 134.244 340.929 133.404C342.201 132.54 343.881 132.108 345.969 132.108C346.713 132.108 347.433 132.192 348.129 132.36C348.849 132.528 349.713 132.78 350.721 133.116C351.105 133.26 351.441 133.332 351.729 133.332C352.401 133.332 353.073 132.924 353.745 132.108L355.581 138.336L355.653 138.588C355.653 138.732 355.545 138.84 355.329 138.912C355.185 138.96 355.077 138.984 355.005 138.984C354.885 138.984 354.765 138.912 354.645 138.768C354.357 138.288 353.841 137.64 353.097 136.824C352.353 135.984 351.345 135.204 350.073 134.484C348.825 133.74 347.421 133.368 345.861 133.368C344.469 133.368 343.401 133.668 342.657 134.268C341.913 134.844 341.421 135.468 341.181 136.14C340.941 136.812 340.821 137.388 340.821 137.868C340.821 139.404 341.613 140.592 343.197 141.432C343.701 141.696 344.361 141.984 345.177 142.296C346.017 142.584 346.869 142.872 347.733 143.16C349.749 143.808 351.261 144.36 352.269 144.816C353.973 145.632 355.185 146.628 355.905 147.804C356.625 148.956 356.985 150.204 356.985 151.548C356.985 153.036 356.613 154.38 355.869 155.58C355.149 156.78 354.081 157.728 352.665 158.424C351.249 159.12 349.557 159.468 347.589 159.468ZM378.587 155.832C378.779 155.832 378.875 155.916 378.875 156.084L378.839 156.3C378.551 157.212 378.011 157.956 377.219 158.532C376.451 159.108 375.647 159.396 374.807 159.396C373.079 159.396 371.963 158.592 371.459 156.984C370.523 157.8 369.479 158.424 368.327 158.856C367.175 159.288 366.035 159.504 364.907 159.504C363.419 159.504 362.255 159.168 361.415 158.496C360.575 157.8 360.155 156.828 360.155 155.58C360.155 153.756 361.151 152.304 363.143 151.224C363.695 150.936 364.319 150.708 365.015 150.54C365.711 150.348 366.647 150.132 367.823 149.892C368.183 149.82 368.699 149.712 369.371 149.568C370.067 149.4 370.679 149.244 371.207 149.1V147.48C371.207 146.112 371.159 145.14 371.063 144.564C370.991 143.964 370.799 143.472 370.487 143.088C370.031 142.488 369.323 142.188 368.363 142.188C367.715 142.188 367.163 142.392 366.707 142.8C366.251 143.184 365.879 143.94 365.591 145.068C365.375 145.884 365.051 146.496 364.619 146.904C364.211 147.288 363.731 147.48 363.179 147.48C362.627 147.48 362.135 147.324 361.703 147.012C361.271 146.676 361.055 146.208 361.055 145.608C361.055 145.152 361.235 144.588 361.595 143.916C361.979 143.22 362.711 142.584 363.791 142.008C364.871 141.432 366.395 141.144 368.363 141.144C369.803 141.144 371.015 141.336 371.999 141.72C372.983 142.104 373.751 142.62 374.303 143.268C374.735 143.748 375.023 144.276 375.167 144.852C375.311 145.428 375.383 146.136 375.383 146.976C375.383 148.608 375.371 149.856 375.347 150.72L375.311 154.752C375.311 155.784 375.431 156.456 375.671 156.768C375.935 157.08 376.247 157.236 376.607 157.236C376.895 157.236 377.195 157.14 377.507 156.948C377.819 156.732 378.095 156.42 378.335 156.012C378.407 155.892 378.491 155.832 378.587 155.832ZM367.319 157.524C367.967 157.524 368.627 157.392 369.299 157.128C369.995 156.864 370.631 156.48 371.207 155.976C371.135 155.424 371.099 154.872 371.099 154.32L371.171 150.108C368.867 150.684 367.175 151.392 366.095 152.232C365.015 153.048 364.475 154.068 364.475 155.292C364.475 155.94 364.727 156.48 365.231 156.912C365.735 157.32 366.431 157.524 367.319 157.524ZM387.526 159.468C385.966 159.468 384.778 159.024 383.962 158.136C383.146 157.248 382.714 155.952 382.666 154.248V142.764H379.534V141.54C381.238 141.156 382.642 140.424 383.746 139.344C384.874 138.24 385.654 136.512 386.086 134.16H386.806V141.54H391.378V142.764H386.806L386.734 151.08L386.77 154.068C386.89 156.3 387.73 157.416 389.29 157.416C389.794 157.416 390.226 157.32 390.586 157.128C390.946 156.936 391.354 156.6 391.81 156.12C391.93 155.976 392.038 155.904 392.134 155.904C392.23 155.904 392.326 155.964 392.422 156.084C392.542 156.18 392.602 156.276 392.602 156.372C392.602 156.42 392.578 156.492 392.53 156.588C391.858 157.62 391.114 158.364 390.298 158.82C389.482 159.252 388.558 159.468 387.526 159.468ZM403.149 159.468C401.373 159.468 399.801 159.036 398.433 158.172C397.065 157.284 396.009 156.132 395.265 154.716C394.521 153.3 394.149 151.824 394.149 150.288C394.149 148.704 394.521 147.216 395.265 145.824C396.009 144.408 397.065 143.28 398.433 142.44C399.801 141.576 401.373 141.144 403.149 141.144C404.925 141.144 406.497 141.576 407.865 142.44C409.257 143.28 410.325 144.408 411.069 145.824C411.837 147.216 412.221 148.704 412.221 150.288C412.221 151.824 411.837 153.3 411.069 154.716C410.325 156.132 409.257 157.284 407.865 158.172C406.497 159.036 404.925 159.468 403.149 159.468ZM403.149 158.496C404.613 158.496 405.753 157.704 406.569 156.12C407.409 154.512 407.829 152.568 407.829 150.288C407.829 147.96 407.421 146.028 406.605 144.492C405.789 142.932 404.637 142.152 403.149 142.152C401.709 142.152 400.581 142.932 399.765 144.492C398.949 146.052 398.541 147.984 398.541 150.288C398.541 152.568 398.949 154.512 399.765 156.12C400.581 157.704 401.709 158.496 403.149 158.496ZM444.224 159.728C441.088 159.728 438.008 158.907 434.984 157.264C431.96 155.621 429.459 153.195 427.48 149.984C425.539 146.773 424.568 142.928 424.568 138.448C424.568 133.968 425.539 130.123 427.48 126.912C429.459 123.701 431.96 121.275 434.984 119.632C438.008 117.989 441.088 117.168 444.224 117.168C447.36 117.168 450.422 117.989 453.408 119.632C456.432 121.275 458.915 123.701 460.856 126.912C462.835 130.123 463.824 133.968 463.824 138.448C463.824 142.928 462.835 146.773 460.856 149.984C458.915 153.195 456.432 155.621 453.408 157.264C450.422 158.907 447.36 159.728 444.224 159.728ZM444.224 157.992C446.427 157.992 448.406 157.264 450.16 155.808C451.915 154.352 453.315 152.168 454.36 149.256C455.406 146.307 455.928 142.723 455.928 138.504C455.928 134.285 455.406 130.701 454.36 127.752C453.315 124.803 451.915 122.6 450.16 121.144C448.406 119.688 446.446 118.96 444.28 118.96C442.078 118.96 440.08 119.688 438.288 121.144C436.534 122.6 435.134 124.803 434.088 127.752C433.08 130.664 432.576 134.248 432.576 138.504C432.576 142.723 433.08 146.307 434.088 149.256C435.134 152.168 436.534 154.352 438.288 155.808C440.043 157.264 442.022 157.992 444.224 157.992ZM485.149 117.056C486.904 117.056 488.304 117.467 489.349 118.288C490.432 119.072 490.973 119.949 490.973 120.92C490.973 121.704 490.712 122.357 490.189 122.88C489.667 123.403 488.939 123.664 488.005 123.664C486.997 123.664 486.195 123.44 485.597 122.992C485.037 122.507 484.477 121.853 483.917 121.032C483.507 120.472 483.152 120.061 482.853 119.8C482.592 119.539 482.256 119.408 481.845 119.408C481.248 119.408 480.781 119.8 480.445 120.584C480.147 121.331 479.96 122.637 479.885 124.504C479.811 125.325 479.773 126.688 479.773 128.592V131.84H485.429V133.744H479.773V154.968C479.773 156.088 480.072 156.816 480.669 157.152C481.304 157.488 482.163 157.656 483.245 157.656H483.917C484.179 157.656 484.309 157.88 484.309 158.328C484.309 158.776 484.179 159 483.917 159H469.189C468.928 159 468.797 158.776 468.797 158.328C468.797 157.88 468.928 157.656 469.189 157.656H469.805C470.888 157.656 471.728 157.488 472.325 157.152C472.96 156.816 473.277 156.088 473.277 154.968V133.744H468.349V131.84H473.333C473.445 129.152 473.968 126.688 474.901 124.448C475.835 122.208 477.179 120.416 478.933 119.072C480.688 117.728 482.76 117.056 485.149 117.056ZM521.964 156.928C522.599 156.928 522.916 157.189 522.916 157.712C522.916 158.011 522.786 158.197 522.524 158.272C522.188 158.347 518.66 158.795 511.94 159.616L511.884 154.744C510.914 156.163 509.719 157.339 508.3 158.272C506.882 159.168 505.239 159.616 503.372 159.616C500.311 159.616 498.052 158.776 496.596 157.096C495.14 155.416 494.375 153.4 494.3 151.048C494.226 148.061 494.188 143.6 494.188 137.664C494.151 136.469 493.852 135.685 493.292 135.312C492.77 134.939 491.874 134.733 490.604 134.696C490.268 134.659 490.1 134.397 490.1 133.912C490.1 133.613 490.212 133.445 490.436 133.408C490.81 133.259 494.226 132.531 500.684 131.224C500.572 135.816 500.516 139.792 500.516 143.152C500.516 146.661 500.554 149.125 500.628 150.544C500.778 152.411 501.188 153.923 501.86 155.08C502.57 156.237 503.764 156.816 505.444 156.816C506.639 156.816 507.796 156.424 508.916 155.64C510.036 154.819 511.026 153.699 511.884 152.28L511.772 137.72C511.735 136.525 511.436 135.741 510.876 135.368C510.354 134.995 509.458 134.771 508.188 134.696C507.852 134.659 507.684 134.36 507.684 133.8C507.684 133.576 507.796 133.445 508.02 133.408C508.394 133.259 511.81 132.531 518.268 131.224V154.296C518.268 155.939 519.202 156.835 521.068 156.984L521.964 156.928ZM555.938 154.072C556.237 154.072 556.386 154.203 556.386 154.464L556.33 154.8C555.882 156.219 555.042 157.376 553.81 158.272C552.615 159.168 551.365 159.616 550.058 159.616C547.37 159.616 545.634 158.365 544.85 155.864C543.394 157.133 541.77 158.104 539.978 158.776C538.186 159.448 536.413 159.784 534.658 159.784C532.343 159.784 530.533 159.261 529.226 158.216C527.919 157.133 527.266 155.621 527.266 153.68C527.266 150.843 528.815 148.584 531.914 146.904C532.773 146.456 533.743 146.101 534.826 145.84C535.909 145.541 537.365 145.205 539.194 144.832C539.754 144.72 540.557 144.552 541.602 144.328C542.685 144.067 543.637 143.824 544.458 143.6V141.08C544.458 138.952 544.383 137.44 544.234 136.544C544.122 135.611 543.823 134.845 543.338 134.248C542.629 133.315 541.527 132.848 540.034 132.848C539.026 132.848 538.167 133.165 537.458 133.8C536.749 134.397 536.17 135.573 535.722 137.328C535.386 138.597 534.882 139.549 534.21 140.184C533.575 140.781 532.829 141.08 531.97 141.08C531.111 141.08 530.346 140.837 529.674 140.352C529.002 139.829 528.666 139.101 528.666 138.168C528.666 137.459 528.946 136.581 529.506 135.536C530.103 134.453 531.242 133.464 532.922 132.568C534.602 131.672 536.973 131.224 540.034 131.224C542.274 131.224 544.159 131.523 545.69 132.12C547.221 132.717 548.415 133.52 549.274 134.528C549.946 135.275 550.394 136.096 550.618 136.992C550.842 137.888 550.954 138.989 550.954 140.296C550.954 142.835 550.935 144.776 550.898 146.12L550.842 152.392C550.842 153.997 551.029 155.043 551.402 155.528C551.813 156.013 552.298 156.256 552.858 156.256C553.306 156.256 553.773 156.107 554.258 155.808C554.743 155.472 555.173 154.987 555.546 154.352C555.658 154.165 555.789 154.072 555.938 154.072ZM538.41 156.704C539.418 156.704 540.445 156.499 541.49 156.088C542.573 155.677 543.562 155.08 544.458 154.296C544.346 153.437 544.29 152.579 544.29 151.72L544.402 145.168C540.818 146.064 538.186 147.165 536.506 148.472C534.826 149.741 533.986 151.328 533.986 153.232C533.986 154.24 534.378 155.08 535.162 155.752C535.946 156.387 537.029 156.704 538.41 156.704ZM590.732 157.656C591.03 157.656 591.18 157.88 591.18 158.328C591.18 158.776 591.03 159 590.732 159H576.62C576.358 159 576.228 158.776 576.228 158.328C576.228 157.88 576.358 157.656 576.62 157.656H577.292C578.337 157.656 579.121 157.488 579.644 157.152C580.204 156.816 580.484 156.088 580.484 154.968L580.54 145.112C580.54 143.32 580.502 141.752 580.428 140.408C580.353 138.467 579.961 136.917 579.252 135.76C578.542 134.603 577.329 134.024 575.612 134.024C574.38 134.024 573.204 134.435 572.084 135.256C570.964 136.077 569.974 137.235 569.116 138.728V154.968C569.116 156.088 569.396 156.816 569.956 157.152C570.516 157.488 571.318 157.656 572.364 157.656H573.036C573.297 157.656 573.428 157.88 573.428 158.328C573.428 158.776 573.297 159 573.036 159H558.868C558.569 159 558.42 158.776 558.42 158.328C558.42 157.88 558.569 157.656 558.868 157.656H559.428C560.51 157.656 561.332 157.488 561.892 157.152C562.452 156.816 562.732 156.088 562.732 154.968L562.676 137.72C562.676 136.563 562.377 135.797 561.78 135.424C561.22 135.013 560.305 134.771 559.036 134.696C558.7 134.659 558.532 134.36 558.532 133.8C558.532 133.576 558.644 133.445 558.868 133.408C559.241 133.259 562.657 132.531 569.116 131.224V136.208C570.161 134.677 571.412 133.464 572.868 132.568C574.324 131.672 575.929 131.224 577.684 131.224C579.7 131.224 581.398 131.635 582.78 132.456C584.161 133.277 585.188 134.341 585.86 135.648C586.532 136.955 586.886 138.336 586.924 139.792V144.944V154.968C586.924 156.088 587.204 156.816 587.764 157.152C588.324 157.488 589.126 157.656 590.172 157.656H590.732Z" fill="white"/>
<path d="M450.622 106.52H436.286V101.464H450.622V106.52Z" fill="white"/>
<path d="M512.622 106.52H498.286V101.464H512.622V106.52Z" fill="white"/>
</svg>
